<svg width="48" height="48" viewBox="0 0 48 48" fill="none" xmlns="http://www.w3.org/2000/svg">
<rect width="48" height="48" rx="24" fill="#F3F8FE"/>
<path d="M14.834 28.185C14.834 30.9464 17.0726 33.185 19.834 33.185H30.0122C28.233 33.185 26.7906 31.7426 26.7906 29.9634V28.5684V16.648C26.7906 16.1878 26.4175 15.8147 25.9572 15.8147H15.6673C15.2071 15.8147 14.834 16.1878 14.834 16.648V28.185Z" fill="#1F59AF" stroke="#1F59AF" stroke-width="0.833333" stroke-linecap="round" stroke-linejoin="round"/>
<path d="M26.791 29.9968C26.791 31.7577 28.2185 33.1852 29.9794 33.1852V33.1852C31.7404 33.1852 33.1679 31.7577 33.1679 29.9968V25.5795H26.791V29.9968Z" stroke="#1F59AF" stroke-width="0.833333" stroke-linecap="round" stroke-linejoin="round"/>
<path d="M17.0156 22.5504H24.0674" stroke="white" stroke-width="0.833333" stroke-linecap="round" stroke-linejoin="round"/>
<path d="M17.0156 25.6697H24.0674" stroke="white" stroke-width="0.833333" stroke-linecap="round" stroke-linejoin="round"/>
<path d="M17.0156 28.7882H24.0674" stroke="white" stroke-width="0.833333" stroke-linecap="round" stroke-linejoin="round"/>
<path d="M17.0156 19.4312H21.0628" stroke="white" stroke-width="0.833333" stroke-linecap="round" stroke-linejoin="round"/>
</svg>
