<svg width="48" height="48" viewBox="0 0 48 48" fill="none" xmlns="http://www.w3.org/2000/svg">
<rect width="48" height="48" rx="24" fill="#F3F8FE"/>
<g clip-path="url(#clip0_6459_111265)">
<rect opacity="0.01" x="9" y="9" width="30" height="30" fill="white"/>
<path d="M14.3889 26.4472L13.168 25.4245L18.1869 18.8168C18.1869 18.8168 22.356 18.9984 22.9539 19.4919" stroke="#1F59AF" stroke-width="1.25" stroke-linecap="round" stroke-linejoin="round"/>
<path d="M31.4247 26.3613L33.9897 24.0184L29.852 18.2698C29.852 18.2698 28.1589 18.8111 27.0999 18.8111C26.0409 18.8111 24.1159 18.4937 22.3238 20.0192C20.5317 21.5447 17.7461 21.5081 17.7461 22.25C17.7461 22.9918 18.2579 24.0184 20.4344 24.0184C22.6109 24.0184 23.1804 22.6174 23.7991 22.6292C24.4177 22.641 26.6664 23.0525 27.8873 22.6292" stroke="#1F59AF" stroke-width="1.25" stroke-linecap="round" stroke-linejoin="round"/>
<path d="M27.888 22.6292C27.888 22.6292 29.6859 24.8096 31.367 26.4472C33.5184 28.543 30.7636 29.4195 29.6859 28.2176C30.4559 29.8615 28.9553 31.0487 27.5854 29.8615C28.201 31.5481 26.6298 32.4534 25.2108 31.4597C25.6477 32.8429 23.5706 33.4584 22.7832 32.4954" stroke="#1F59AF" stroke-width="1.25" stroke-linecap="round" stroke-linejoin="round"/>
<path fill-rule="evenodd" clip-rule="evenodd" d="M14.3905 26.4471C15.2886 25.6408 16.042 24.7998 16.9859 25.2203C17.9298 25.6408 17.8291 26.9045 17.8291 26.9045C17.8291 26.9045 19.6436 25.577 20.4029 26.4471C21.1622 27.3172 20.736 28.1889 20.736 28.1889C20.736 28.1889 22.9249 27.2369 22.6002 29.7376C23.9105 29.4274 24.0112 30.6806 23.5705 31.3926C23.0895 32.1696 22.9378 32.4272 22.1274 33.0577C21.4843 33.558 20.2354 33.4519 20.4029 31.8378C18.8574 33.0269 17.5668 31.7784 18.134 30.4926C16.9225 31.3332 15.0148 30.4926 16.0982 28.4877C14.2654 29.4875 13.4923 27.2534 14.3905 26.4471Z" stroke="#1F59AF" stroke-width="1.25" stroke-linecap="round" stroke-linejoin="round"/>
<path fill-rule="evenodd" clip-rule="evenodd" d="M29.3078 17.5366C29.175 17.3542 29.2172 17.0984 29.4016 16.9683L32.318 14.9097C32.4992 14.7818 32.7496 14.8237 32.8793 15.0037L38.1411 22.3065C38.2711 22.4868 38.2311 22.7382 38.0517 22.8694L35.2035 24.9511C35.0229 25.0831 34.7695 25.0434 34.6379 24.8625L29.3078 17.5366Z" stroke="#1F59AF" stroke-width="1.25" stroke-linecap="round" stroke-linejoin="round"/>
<path d="M18.4345 18.4051L12.8399 25.7744C12.6961 25.9639 12.4205 25.9889 12.2449 25.8284L9.89533 23.6802C9.7419 23.5399 9.71982 23.3062 9.84427 23.1396L15.2302 15.9325C15.3657 15.7513 15.6235 15.7164 15.8022 15.8552L18.3604 17.8411C18.5354 17.9771 18.5685 18.2286 18.4345 18.4051Z" stroke="#1F59AF" stroke-width="1.25" stroke-linecap="round" stroke-linejoin="round"/>
<path d="M17.9125 26.7944L16.0977 28.4877" stroke="#1F59AF" stroke-width="1.25" stroke-linecap="round" stroke-linejoin="round"/>
<path d="M20.7341 28.1895L18.0605 30.5858" stroke="#1F59AF" stroke-width="1.25" stroke-linecap="round" stroke-linejoin="round"/>
<path d="M22.613 29.7031L20.4023 31.8384" stroke="#1F59AF" stroke-width="1.25" stroke-linecap="round" stroke-linejoin="round"/>
</g>
<defs>
<clipPath id="clip0_6459_111265">
<rect width="30" height="30" fill="white" transform="translate(9 9)"/>
</clipPath>
</defs>
</svg>
