<svg width="48" height="48" viewBox="0 0 48 48" fill="none" xmlns="http://www.w3.org/2000/svg">
<rect width="48" height="48" rx="24" fill="#F3F8FE"/>
<path d="M33.4002 21.7016V15.3835H14.4102V21.7016" stroke="#1F59AF" stroke-linecap="round" stroke-linejoin="round"/>
<path d="M21.2487 18.9043C21.2487 19.254 21.0164 19.5374 20.7298 19.5374C20.4432 19.5374 20.2109 19.254 20.2109 18.9043C20.2109 18.5546 20.7298 17.7131 20.7298 17.7131C20.7298 17.7131 21.2487 18.5546 21.2487 18.9043Z" fill="#1F59AF"/>
<path d="M23.0006 20.8793C23.0006 21.2289 22.7683 21.5124 22.4817 21.5124C22.1952 21.5124 21.9629 21.2289 21.9629 20.8793C21.9629 20.5296 22.4817 19.6881 22.4817 19.6881C22.4817 19.6881 23.0006 20.5296 23.0006 20.8793Z" fill="#1F59AF"/>
<path d="M24.7584 19.079C24.7584 19.4286 24.5261 19.7121 24.2396 19.7121C23.953 19.7121 23.7207 19.4286 23.7207 19.079C23.7207 18.7293 24.2396 17.8878 24.2396 17.8878C24.2396 17.8878 24.7584 18.7293 24.7584 19.079Z" fill="#1F59AF"/>
<path d="M28.2721 18.9327C28.2721 19.2824 28.0398 19.5659 27.7532 19.5659C27.4667 19.5659 27.2344 19.2824 27.2344 18.9327C27.2344 18.5831 27.7532 17.7416 27.7532 17.7416C27.7532 17.7416 28.2721 18.5831 28.2721 18.9327Z" fill="#1F59AF"/>
<path d="M26.5143 20.8792C26.5143 21.2289 26.282 21.5123 25.9954 21.5123C25.7089 21.5123 25.4766 21.2289 25.4766 20.8792C25.4766 20.5296 25.9954 19.688 25.9954 19.688C25.9954 19.688 26.5143 20.5296 26.5143 20.8792Z" fill="#1F59AF"/>
<path d="M30.026 20.7329C30.026 21.0826 29.7937 21.366 29.5071 21.366C29.2206 21.366 28.9883 21.0826 28.9883 20.7329C28.9883 20.3833 29.5071 19.5417 29.5071 19.5417C29.5071 19.5417 30.026 20.3833 30.026 20.7329Z" fill="#1F59AF"/>
<path d="M31.3483 19.079C31.3483 19.4286 31.116 19.7121 30.8294 19.7121C30.5428 19.7121 30.3105 19.4286 30.3105 19.079C30.3105 18.7293 30.8294 17.8878 30.8294 17.8878C30.8294 17.8878 31.3483 18.7293 31.3483 19.079Z" fill="#1F59AF"/>
<path d="M19.4908 20.8793C19.4908 21.2289 19.2585 21.5124 18.972 21.5124C18.6854 21.5124 18.4531 21.2289 18.4531 20.8793C18.4531 20.5296 18.972 19.6881 18.972 19.6881C18.972 19.6881 19.4908 20.5296 19.4908 20.8793Z" fill="#1F59AF"/>
<path d="M17.7897 19.079C17.7897 19.4287 17.5574 19.7122 17.2708 19.7122C16.9843 19.7122 16.752 19.4287 16.752 19.079C16.752 18.7294 17.2708 17.8879 17.2708 17.8879C17.2708 17.8879 17.7897 18.7294 17.7897 19.079Z" fill="#1F59AF"/>
<rect x="12.8184" y="21.7025" width="3.19023" height="1.33644" stroke="#1F59AF" stroke-linecap="round" stroke-linejoin="round"/>
<rect x="12.8164" y="23.0394" width="3.19023" height="1.33644" stroke="#1F59AF" stroke-linecap="round" stroke-linejoin="round"/>
<rect x="12.8164" y="24.3763" width="3.19023" height="1.33644" stroke="#1F59AF" stroke-linecap="round" stroke-linejoin="round"/>
<rect x="12.8125" y="25.7133" width="3.19023" height="1.33644" stroke="#1F59AF" stroke-linecap="round" stroke-linejoin="round"/>
<rect x="12.8086" y="28.3831" width="3.19023" height="1.33644" stroke="#1F59AF" stroke-linecap="round" stroke-linejoin="round"/>
<rect x="12.8164" y="27.0461" width="3.19023" height="1.33644" stroke="#1F59AF" stroke-linecap="round" stroke-linejoin="round"/>
<rect x="12.8125" y="29.7241" width="3.19023" height="1.33644" stroke="#1F59AF" stroke-linecap="round" stroke-linejoin="round"/>
<rect x="31.8105" y="21.9423" width="3.19023" height="1.33644" stroke="#1F59AF" stroke-linecap="round" stroke-linejoin="round"/>
<rect x="31.8086" y="23.2792" width="3.19023" height="1.33644" stroke="#1F59AF" stroke-linecap="round" stroke-linejoin="round"/>
<rect x="31.8086" y="24.6161" width="3.19023" height="1.33644" stroke="#1F59AF" stroke-linecap="round" stroke-linejoin="round"/>
<rect x="31.8047" y="25.9531" width="3.19023" height="1.33644" stroke="#1F59AF" stroke-linecap="round" stroke-linejoin="round"/>
<rect x="31.8008" y="28.6229" width="3.19023" height="1.33644" stroke="#1F59AF" stroke-linecap="round" stroke-linejoin="round"/>
<rect x="31.8086" y="27.2859" width="3.19023" height="1.33644" stroke="#1F59AF" stroke-linecap="round" stroke-linejoin="round"/>
<rect x="31.8047" y="29.9639" width="3.19023" height="1.33644" stroke="#1F59AF" stroke-linecap="round" stroke-linejoin="round"/>
<rect x="17" y="15" width="14" height="1" stroke="#1F59AF" stroke-linecap="round" stroke-linejoin="round"/>
<path d="M20.6681 23.3241L20.3251 22.9603C20.2249 23.0548 20.1681 23.1864 20.1681 23.3241H20.6681ZM22.4396 22.2461L22.838 21.944C22.7072 21.7715 22.4804 21.7028 22.2759 21.7736L22.4396 22.2461ZM24.0019 23.0367L24.0024 22.5367L24.0015 22.5367L24.0019 23.0367ZM25.5643 22.2461L25.728 21.7736C25.5235 21.7028 25.2967 21.7715 25.1659 21.944L25.5643 22.2461ZM27.3357 23.3241L27.8044 23.4983C27.8744 23.31 27.8249 23.0981 27.6787 22.9603L27.3357 23.3241ZM27.4667 25.1422L27.9053 24.9022L27.9049 24.9014L27.4667 25.1422ZM28.8986 26.1713L29.3891 26.0744C29.3485 25.8688 29.184 25.7104 28.9772 25.6775L28.8986 26.1713ZM28.8986 28.3242L28.9783 28.8178C29.1847 28.7844 29.3486 28.6262 29.3891 28.4211L28.8986 28.3242ZM27.4667 29.3532L27.9049 29.5941L27.905 29.5939L27.4667 29.3532ZM27.3357 31.1719L27.6786 31.5358C27.8249 31.3979 27.8744 31.1859 27.8043 30.9976L27.3357 31.1719ZM25.5643 32.2494L25.166 32.5516C25.2968 32.7239 25.5235 32.7926 25.7279 32.7219L25.5643 32.2494ZM24.0019 31.4593L24.0015 31.9593L24.0025 31.9593L24.0019 31.4593ZM22.4396 32.2499L22.276 32.7224C22.4804 32.7932 22.7072 32.7244 22.838 32.552L22.4396 32.2499ZM20.6681 31.1724L20.1995 30.9981C20.1295 31.1865 20.179 31.3985 20.3252 31.5363L20.6681 31.1724ZM20.5371 29.3538L20.0986 29.594L20.0989 29.5946L20.5371 29.3538ZM19.1053 28.3252L18.6148 28.4222C18.6554 28.6277 18.8199 28.7861 19.0268 28.819L19.1053 28.3252ZM19.1053 26.1718L19.0267 25.678C18.8198 25.711 18.6554 25.8694 18.6148 26.0749L19.1053 26.1718ZM20.5371 25.1427L20.0989 24.902L20.0985 24.9027L20.5371 25.1427ZM20.6681 23.3246H20.1681C20.1681 23.3841 20.1788 23.4431 20.1995 23.4989L20.6681 23.3246ZM23.2516 25.8802L22.989 25.4547L23.2516 25.8802ZM24.7519 28.6152L24.4952 28.1862L24.7519 28.6152ZM21.0111 23.6879C21.4742 23.2514 22.0165 22.9218 22.6032 22.7185L22.2759 21.7736C21.553 22.0241 20.8891 22.4286 20.3251 22.9603L21.0111 23.6879ZM22.0412 22.5482C22.5115 23.1684 23.2319 23.5374 24.0024 23.5367L24.0015 22.5367C23.556 22.5371 23.1262 22.3241 22.838 21.944L22.0412 22.5482ZM24.0015 23.5367C24.7719 23.5374 25.4924 23.1684 25.9627 22.5482L25.1659 21.944C24.8776 22.3241 24.4479 22.5371 24.0024 22.5367L24.0015 23.5367ZM25.4006 22.7185C25.9874 22.9218 26.5297 23.2514 26.9927 23.6879L27.6787 22.9603C27.1148 22.4286 26.4508 22.0241 25.728 21.7736L25.4006 22.7185ZM26.867 23.1499C26.5954 23.8806 26.6539 24.7013 27.0285 25.383L27.9049 24.9014C27.6712 24.4761 27.6333 23.9585 27.8044 23.4983L26.867 23.1499ZM27.0281 25.3823C27.4026 26.0665 28.0592 26.544 28.82 26.6651L28.9772 25.6775C28.5354 25.6072 28.1379 25.3271 27.9053 24.9022L27.0281 25.3823ZM28.4081 26.2682C28.5357 26.9142 28.5357 27.5812 28.4081 28.2272L29.3891 28.4211C29.542 27.6471 29.542 26.8484 29.3891 26.0744L28.4081 26.2682ZM28.8189 27.8306C28.0865 27.9489 27.4192 28.4013 27.0285 29.1125L27.905 29.5939C28.1475 29.1525 28.5504 28.8869 28.9783 28.8178L28.8189 27.8306ZM27.0286 29.1124C26.6538 29.7943 26.5952 30.6152 26.8671 31.3462L27.8043 30.9976C27.6332 30.5373 27.6711 30.0195 27.9049 29.5941L27.0286 29.1124ZM26.9928 30.808C26.5297 31.2444 25.9874 31.5737 25.4007 31.7769L25.7279 32.7219C26.4507 32.4716 27.1146 32.0672 27.6786 31.5358L26.9928 30.808ZM25.9626 31.9471C25.4921 31.3272 24.7717 30.9585 24.0014 30.9593L24.0025 31.9593C24.4479 31.9588 24.8777 32.1717 25.166 32.5516L25.9626 31.9471ZM24.0024 30.9593C23.2319 30.9586 22.5115 31.3276 22.0412 31.9478L22.838 32.552C23.1262 32.1719 23.556 31.9589 24.0015 31.9593L24.0024 30.9593ZM22.6032 31.7774C22.0164 31.5743 21.4741 31.2449 21.0111 30.8085L20.3252 31.5363C20.8892 32.0678 21.5532 32.4721 22.276 32.7224L22.6032 31.7774ZM21.1368 31.3467C21.4086 30.6158 21.3501 29.7948 20.9753 29.1129L20.0989 29.5946C20.3328 30.02 20.3707 30.5378 20.1995 30.9981L21.1368 31.3467ZM20.9756 29.1136C20.601 28.4296 19.9444 27.9524 19.1838 27.8314L19.0268 28.819C19.4684 28.8892 19.8659 29.1692 20.0986 29.594L20.9756 29.1136ZM19.5958 28.2283C19.4681 27.5821 19.4681 26.915 19.5958 26.2688L18.6148 26.0749C18.4617 26.8491 18.4617 27.648 18.6148 28.4222L19.5958 28.2283ZM19.1839 26.6656C19.9446 26.5445 20.6012 26.067 20.9757 25.3828L20.0985 24.9027C19.8659 25.3276 19.4684 25.6077 19.0267 25.678L19.1839 26.6656ZM20.9753 25.3835C21.3499 24.7018 21.4085 23.8812 21.1368 23.1504L20.1995 23.4989C20.3705 23.959 20.3326 24.4766 20.0989 24.902L20.9753 25.3835ZM21.1681 23.3246V23.3241H20.1681V23.3246H21.1681ZM25.0087 29.0443C25.6343 28.6699 26.0092 27.9808 26.0107 27.247L25.0107 27.2449C25.0099 27.6444 24.8056 28.0004 24.4952 28.1862L25.0087 29.0443ZM26.0107 27.247C26.0122 26.5132 25.6403 25.8225 25.0163 25.4453L24.499 26.301C24.8087 26.4883 25.0115 26.8453 25.0107 27.2449L26.0107 27.247ZM25.0163 25.4453C24.3889 25.066 23.6129 25.0697 22.989 25.4547L23.5141 26.3057C23.8191 26.1175 24.1926 26.1158 24.499 26.301L25.0163 25.4453ZM22.989 25.4547C22.0416 26.0392 21.7376 27.2971 22.2727 28.2725L23.1494 27.7916C22.8597 27.2635 23.0385 26.5991 23.5141 26.3057L22.989 25.4547ZM22.2727 28.2725C22.8151 29.2614 24.0374 29.6255 25.0087 29.0443L24.4952 28.1862C24.0325 28.4631 23.4317 28.3061 23.1494 27.7916L22.2727 28.2725Z" fill="#1F59AF"/>
</svg>
