<svg width="48" height="48" viewBox="0 0 48 48" fill="none" xmlns="http://www.w3.org/2000/svg">
<rect width="48" height="48" rx="24" fill="#F3F8FE"/>
<path d="M23.9076 32.4535H13V31.3925C13 26.9519 16.5998 23.3521 21.0404 23.3521V23.3521C21.0404 23.3521 23.4124 23.3521 25.1623 24.5567" stroke="#1F59AF" stroke-linecap="round" stroke-linejoin="round"/>
<circle cx="21.0409" cy="18.8014" r="4.55069" stroke="#1F59AF" stroke-linecap="round" stroke-linejoin="round"/>
<path d="M26.6642 25.8236L26.3212 25.4598C26.221 25.5543 26.1642 25.6859 26.1642 25.8236H26.6642ZM28.4357 24.7456L28.834 24.4435C28.7033 24.2711 28.4764 24.2023 28.272 24.2732L28.4357 24.7456ZM29.998 25.5362L29.9985 25.0362L29.9976 25.0362L29.998 25.5362ZM31.5604 24.7456L31.7241 24.2732C31.5196 24.2023 31.2928 24.2711 31.162 24.4435L31.5604 24.7456ZM33.3318 25.8236L33.8005 25.9978C33.8705 25.8095 33.821 25.5976 33.6748 25.4598L33.3318 25.8236ZM33.4628 27.6417L33.9014 27.4017L33.901 27.4009L33.4628 27.6417ZM34.8947 28.6708L35.3852 28.5739C35.3446 28.3684 35.1801 28.2099 34.9733 28.177L34.8947 28.6708ZM34.8947 30.8237L34.9744 31.3173C35.1808 31.284 35.3447 31.1257 35.3852 30.9206L34.8947 30.8237ZM33.4628 31.8528L33.901 32.0936L33.9011 32.0935L33.4628 31.8528ZM33.3318 33.6714L33.6747 34.0353C33.821 33.8974 33.8705 33.6855 33.8004 33.4971L33.3318 33.6714ZM31.5604 34.7489L31.1621 35.0511C31.2929 35.2234 31.5196 35.2921 31.724 35.2214L31.5604 34.7489ZM29.998 33.9588L29.9976 34.4588L29.9986 34.4588L29.998 33.9588ZM28.4357 34.7494L28.2721 35.2219C28.4765 35.2927 28.7033 35.2239 28.834 35.0515L28.4357 34.7494ZM26.6642 33.6719L26.1956 33.4976C26.1256 33.686 26.1751 33.898 26.3213 34.0358L26.6642 33.6719ZM26.5332 31.8533L26.0947 32.0935L26.095 32.0941L26.5332 31.8533ZM25.1014 30.8247L24.6109 30.9217C24.6515 31.1272 24.816 31.2856 25.0229 31.3185L25.1014 30.8247ZM25.1014 28.6713L25.0228 28.1775C24.8159 28.2105 24.6515 28.3689 24.6109 28.5744L25.1014 28.6713ZM26.5332 27.6423L26.095 27.4015L26.0946 27.4022L26.5332 27.6423ZM26.6642 25.8242H26.1642C26.1642 25.8836 26.1749 25.9426 26.1956 25.9984L26.6642 25.8242ZM29.2477 28.3797L28.9851 27.9542L29.2477 28.3797ZM30.748 31.1147L30.4913 30.6857L30.748 31.1147ZM27.0072 26.1874C27.4703 25.7509 28.0126 25.4213 28.5993 25.2181L28.272 24.2732C27.5491 24.5236 26.8852 24.9281 26.3212 25.4598L27.0072 26.1874ZM28.0373 25.0477C28.5076 25.6679 29.228 26.0369 29.9985 26.0362L29.9976 25.0362C29.552 25.0366 29.1223 24.8236 28.834 24.4435L28.0373 25.0477ZM29.9976 26.0362C30.768 26.0369 31.4885 25.6679 31.9588 25.0477L31.162 24.4435C30.8737 24.8236 30.444 25.0366 29.9985 25.0362L29.9976 26.0362ZM31.3967 25.2181C31.9835 25.4213 32.5258 25.7509 32.9888 26.1874L33.6748 25.4598C33.1109 24.9281 32.4469 24.5236 31.7241 24.2732L31.3967 25.2181ZM32.8631 25.6494C32.5915 26.3801 32.65 27.2008 33.0246 27.8825L33.901 27.4009C33.6673 26.9756 33.6294 26.458 33.8005 25.9978L32.8631 25.6494ZM33.0242 27.8818C33.3987 28.566 34.0553 29.0435 34.8161 29.1646L34.9733 28.177C34.5315 28.1067 34.134 27.8266 33.9014 27.4017L33.0242 27.8818ZM34.4042 28.7677C34.5318 29.4138 34.5318 30.0807 34.4042 30.7268L35.3852 30.9206C35.5381 30.1466 35.5381 29.3479 35.3852 28.5739L34.4042 28.7677ZM34.8149 30.3301C34.0826 30.4484 33.4153 30.9008 33.0246 31.612L33.9011 32.0935C34.1436 31.652 34.5465 31.3864 34.9744 31.3173L34.8149 30.3301ZM33.0247 31.6119C32.6499 32.2938 32.5913 33.1148 32.8632 33.8457L33.8004 33.4971C33.6292 33.0368 33.6672 32.519 33.901 32.0936L33.0247 31.6119ZM32.9889 33.3075C32.5258 33.7439 31.9835 34.0732 31.3968 34.2764L31.724 35.2214C32.4468 34.9711 33.1107 34.5668 33.6747 34.0353L32.9889 33.3075ZM31.9587 34.4466C31.4882 33.8267 30.7678 33.458 29.9975 33.4588L29.9986 34.4588C30.444 34.4583 30.8738 34.6712 31.1621 35.0511L31.9587 34.4466ZM29.9985 33.4588C29.228 33.4581 28.5076 33.8271 28.0373 34.4473L28.834 35.0515C29.1223 34.6715 29.552 34.4584 29.9976 34.4588L29.9985 33.4588ZM28.5992 34.2769C28.0125 34.0738 27.4702 33.7444 27.0072 33.308L26.3213 34.0358C26.8853 34.5673 27.5493 34.9716 28.2721 35.2219L28.5992 34.2769ZM27.1329 33.8462C27.4047 33.1153 27.3462 32.2943 26.9714 31.6124L26.095 32.0941C26.3289 32.5195 26.3668 33.0373 26.1956 33.4976L27.1329 33.8462ZM26.9717 31.6131C26.5971 30.9291 25.9405 30.4519 25.1799 30.3309L25.0229 31.3185C25.4645 31.3888 25.862 31.6687 26.0947 32.0935L26.9717 31.6131ZM25.5919 30.7278C25.4642 30.0816 25.4642 29.4145 25.5919 28.7683L24.6109 28.5744C24.4578 29.3486 24.4578 30.1475 24.6109 30.9217L25.5919 30.7278ZM25.18 29.1651C25.9407 29.044 26.5973 28.5665 26.9718 27.8823L26.0946 27.4022C25.862 27.8271 25.4645 28.1072 25.0228 28.1775L25.18 29.1651ZM26.9714 27.8831C27.346 27.2013 27.4045 26.3807 27.1329 25.6499L26.1956 25.9984C26.3666 26.4586 26.3287 26.9762 26.095 27.4015L26.9714 27.8831ZM27.1642 25.8242V25.8236H26.1642V25.8242H27.1642ZM31.0048 31.5438C31.6304 31.1694 32.0053 30.4803 32.0068 29.7465L31.0068 29.7444C31.006 30.1439 30.8017 30.4999 30.4913 30.6857L31.0048 31.5438ZM32.0068 29.7465C32.0083 29.0127 31.6364 28.322 31.0124 27.9448L30.4951 28.8005C30.8048 28.9878 31.0076 29.3448 31.0068 29.7444L32.0068 29.7465ZM31.0124 27.9448C30.385 27.5655 29.609 27.5692 28.9851 27.9542L29.5102 28.8052C29.8152 28.617 30.1887 28.6153 30.4951 28.8005L31.0124 27.9448ZM28.9851 27.9542C28.0377 28.5387 27.7337 29.7966 28.2687 30.772L29.1455 30.2911C28.8558 29.763 29.0346 29.0987 29.5102 28.8052L28.9851 27.9542ZM28.2687 30.772C28.8112 31.7609 30.0335 32.125 31.0048 31.5438L30.4913 30.6857C30.0286 30.9626 29.4278 30.8057 29.1455 30.2911L28.2687 30.772Z" fill="#1F59AF"/>
</svg>
