<svg width="25" height="25" viewBox="0 0 25 25" fill="none" xmlns="http://www.w3.org/2000/svg">
<path fill-rule="evenodd" clip-rule="evenodd" d="M24 14.4001V10.5998L20.8824 9.97988C20.7072 9.41387 20.4915 8.8748 20.2085 8.34922L21.9471 5.74824L19.2518 3.05293L16.6508 4.79147C16.1252 4.50846 15.5861 4.29277 15.0201 4.11764L14.4001 1H10.5998L9.97988 4.11764C9.41387 4.29277 8.8748 4.50846 8.34922 4.79147L5.74824 3.05293L3.05293 5.74824L4.79147 8.34922C4.50846 8.8748 4.29277 9.41393 4.11764 9.97988L1 10.5999V14.4002L4.11764 15.0201C4.29277 15.5861 4.50846 16.1252 4.79147 16.6508L3.05293 19.2518L5.74824 21.9471L8.34922 20.2085C8.8748 20.4915 9.41393 20.7072 9.97988 20.8824L10.5999 24H14.4002L15.0201 20.8824C15.5861 20.7072 16.1252 20.4915 16.6508 20.2085L19.2518 21.9471L21.9471 19.2518L20.2085 16.6508C20.4915 16.1252 20.7072 15.5861 20.8824 15.0201L24 14.4001ZM12.5 17.2131C9.90105 17.2131 7.78689 15.0989 7.78689 12.5C7.78689 9.90105 9.90105 7.78689 12.5 7.78689C15.0989 7.78689 17.2131 9.90105 17.2131 12.5C17.2131 15.0989 15.0989 17.2131 12.5 17.2131Z" stroke="#181A1E" stroke-linecap="round" stroke-linejoin="round"/>
</svg>
