<svg width="24" height="24" viewBox="0 0 24 24" fill="none" xmlns="http://www.w3.org/2000/svg">
<path d="M1 16.4219C1 19.7356 3.68629 22.4219 7 22.4219H19.2139V22.4219C17.0788 22.4219 15.3479 20.691 15.3479 18.5559V16.882V2.57748C15.3479 2.0252 14.9002 1.57749 14.3479 1.57749H2C1.44772 1.57749 1 2.0252 1 2.57749V16.4219Z" stroke="#181A1E" stroke-linecap="round" stroke-linejoin="round"/>
<path d="M15.3477 18.5958C15.3477 20.7089 17.0607 22.4219 19.1738 22.4219V22.4219C21.2869 22.4219 22.9999 20.7089 22.9999 18.5958V13.295H15.3477V18.5958Z" stroke="#181A1E" stroke-linecap="round" stroke-linejoin="round"/>
<path d="M3.61719 9.66016H12.0793" stroke="#181A1E" stroke-linecap="round" stroke-linejoin="round"/>
<path d="M3.61719 13.4023H12.0793" stroke="#181A1E" stroke-linecap="round" stroke-linejoin="round"/>
<path d="M3.61719 17.1445H12.0793" stroke="#181A1E" stroke-linecap="round" stroke-linejoin="round"/>
<path d="M3.61719 5.91797H8.47376" stroke="#181A1E" stroke-linecap="round" stroke-linejoin="round"/>
</svg>
