<svg width="35" height="36" viewBox="0 0 35 36" fill="none" xmlns="http://www.w3.org/2000/svg">
<rect y="0.5" width="35" height="35" rx="17.5" fill="#FF4049"/>
<path d="M8 21.8221C8 24.6839 10.32 27.0039 13.1818 27.0039H23.7302V27.0039C21.8862 27.0039 20.3914 25.5091 20.3914 23.6651V22.2195V9.86557C20.3914 9.3886 20.0047 9.00193 19.5277 9.00193H8.86364C8.38666 9.00193 8 9.3886 8 9.86557V21.8221Z" stroke="white" stroke-linecap="round" stroke-linejoin="round"/>
<path d="M20.3906 23.6995C20.3906 25.5245 21.87 27.0039 23.695 27.0039V27.0039C25.5199 27.0039 26.9994 25.5245 26.9994 23.6995V19.1216H20.3906V23.6995Z" stroke="white" stroke-linecap="round" stroke-linejoin="round"/>
<path d="M10.2578 15.9844H17.566" stroke="white" stroke-linecap="round" stroke-linejoin="round"/>
<path d="M10.2578 19.2148H17.566" stroke="white" stroke-linecap="round" stroke-linejoin="round"/>
<path d="M10.2578 22.4453H17.566" stroke="white" stroke-linecap="round" stroke-linejoin="round"/>
<path d="M10.2578 12.75H14.4521" stroke="white" stroke-linecap="round" stroke-linejoin="round"/>
</svg>
