<svg width="60" height="60" viewBox="0 0 60 60" fill="none" xmlns="http://www.w3.org/2000/svg">
<rect width="60" height="60" rx="7.5" fill="#F3F8FE"/>
<path d="M21.4896 28.6214C21.6796 28.8542 21.981 28.9656 22.2767 28.9123L22.2768 28.9122L22.2773 28.9121L22.2799 28.9117L22.2906 28.9098L22.3339 28.9021C22.3723 28.8953 22.4294 28.8852 22.5034 28.8724C22.6515 28.8468 22.8672 28.8101 23.1359 28.766C23.6736 28.6777 24.4227 28.56 25.2676 28.4423C26.97 28.2053 29.0163 27.9751 30.5097 27.9751C30.6824 27.9751 30.9142 28.052 31.2057 28.2633C31.4927 28.4713 31.7774 28.7665 32.0377 29.0911C32.2949 29.4118 32.509 29.7368 32.6596 29.984C32.7344 30.1068 32.7922 30.2082 32.8307 30.2776C32.8499 30.3122 32.8642 30.3387 32.8732 30.3557L32.8828 30.3739L32.8842 30.3767L32.8844 30.377C32.8844 30.377 32.8844 30.377 32.8844 30.377C33.0401 30.6802 33.366 30.8567 33.705 30.8215L40.3569 30.1304C40.6426 30.1007 40.8923 29.9249 41.0166 29.666L41.8282 27.9751H45.4503L43.7284 31.6478L35.6979 32.7988C35.3498 32.8487 35.0714 33.1134 35.004 33.4586C34.9366 33.8037 35.0949 34.1537 35.3987 34.3309L36.3887 34.9084C36.2593 35.0293 36.1257 35.1647 35.9922 35.3154C35.2464 36.1564 34.5061 37.4688 34.5061 39.3233C34.5061 40.1255 34.6361 41.11 34.758 41.8649C34.7778 41.9879 34.7977 42.106 34.817 42.2177H24.171C24.5422 41.1214 24.5786 39.846 24.3284 38.6324C23.9635 36.862 22.9616 35.0705 21.2567 33.9465C20.4312 33.4023 19.2364 32.9788 18.2606 32.7025C17.7613 32.5612 17.2933 32.4512 16.9211 32.3796C16.7648 32.3495 16.6198 32.325 16.4928 32.3079C16.4299 32.2249 16.3601 32.1267 16.2934 32.0203C16.1957 31.8645 16.1172 31.7112 16.071 31.5762C16.0485 31.5102 16.037 31.4582 16.0322 31.4197C16.0299 31.401 16.0295 31.3873 16.0296 31.3781C16.0298 31.369 16.0306 31.3649 16.0306 31.365C16.4132 29.3756 17.7297 27.7552 19.0292 26.6001C19.6714 26.0293 20.2896 25.5898 20.7465 25.2937C20.9005 25.1939 21.0356 25.1107 21.1463 25.0448L22.2711 25.5207L21.3626 27.7919C21.251 28.0709 21.2997 28.3885 21.4896 28.6214Z" stroke="#1F59AF" stroke-width="1.65298" stroke-linecap="round" stroke-linejoin="round"/>
<path d="M16.3281 40.277H17.4512L19.3949 35.396L20.3668 32.9555L18.7902 32.502L17.9695 35.0936L16.3281 40.277Z" fill="#1F59AF"/>
<path d="M35.9559 36.7268L42.4522 39.5251V40.0478C42.3843 40.0468 42.3129 40.0457 42.2382 40.0445C41.5961 40.0336 40.7163 40.012 39.7644 39.9687C38.1502 39.8953 36.4175 39.7627 35.2627 39.5387C35.3412 38.8228 35.5317 38.0569 35.735 37.396C35.8108 37.1499 35.8866 36.9237 35.9559 36.7268Z" stroke="#1F59AF" stroke-width="1.65298" stroke-linecap="round" stroke-linejoin="round"/>
<ellipse cx="42.5006" cy="39.9889" rx="4.86776" ry="4.86781" stroke="#1F59AF" stroke-width="1.65298"/>
<ellipse cx="16.9186" cy="40.2312" rx="4.62176" ry="4.62181" stroke="#1F59AF" stroke-width="1.65298"/>
<ellipse cx="42.5013" cy="39.9876" rx="1.65754" ry="1.65756" fill="#1F59AF" stroke="#1F59AF" stroke-width="1.65298" stroke-linecap="round" stroke-linejoin="round"/>
<ellipse cx="16.9192" cy="40.2356" rx="1.60669" ry="1.6067" fill="#1F59AF" stroke="#1F59AF" stroke-width="1.65298" stroke-linecap="round" stroke-linejoin="round"/>
<path d="M22.8746 15.3348C22.8746 16.2587 22.2608 17.0076 21.5037 17.0076C20.7466 17.0076 20.1328 16.2587 20.1328 15.3348C20.1328 14.4109 21.5037 12.1875 21.5037 12.1875C21.5037 12.1875 22.8746 14.4109 22.8746 15.3348Z" fill="#1F59AF"/>
<path d="M28.0465 22.8426C28.0465 23.7665 27.4327 24.5154 26.6756 24.5154C25.9185 24.5154 25.3047 23.7665 25.3047 22.8426C25.3047 21.9187 26.6756 19.6953 26.6756 19.6953C26.6756 19.6953 28.0465 21.9187 28.0465 22.8426Z" fill="#1F59AF"/>
<path d="M33.2223 15.7977C33.2223 16.7215 32.6085 17.4705 31.8514 17.4705C31.0942 17.4705 30.4805 16.7215 30.4805 15.7977C30.4805 14.8738 31.8514 12.6504 31.8514 12.6504C31.8514 12.6504 33.2223 14.8738 33.2223 15.7977Z" fill="#1F59AF"/>
<path d="M43.5699 15.409C43.5699 16.3329 42.9562 17.0818 42.199 17.0818C41.4419 17.0818 40.8281 16.3329 40.8281 15.409C40.8281 14.4851 42.199 12.2617 42.199 12.2617C42.199 12.2617 43.5699 14.4851 43.5699 15.409Z" fill="#1F59AF"/>
<path d="M38.3981 22.8426C38.3981 23.7665 37.7843 24.5154 37.0272 24.5154C36.27 24.5154 35.6562 23.7665 35.6562 22.8426C35.6562 21.9187 37.0272 19.6953 37.0272 19.6953C37.0272 19.6953 38.3981 21.9187 38.3981 22.8426Z" fill="#1F59AF"/>
<path d="M48.7496 22.45C48.7496 23.3739 48.1358 24.1228 47.3787 24.1228C46.6216 24.1228 46.0078 23.3739 46.0078 22.45C46.0078 21.5262 47.3787 19.3027 47.3787 19.3027C47.3787 19.3027 48.7496 21.5262 48.7496 22.45Z" fill="#1F59AF"/>
<path d="M17.6988 22.8426C17.6988 23.7665 17.0851 24.5154 16.3279 24.5154C15.5708 24.5154 14.957 23.7665 14.957 22.8426C14.957 21.9187 16.3279 19.6953 16.3279 19.6953C16.3279 19.6953 17.6988 21.9187 17.6988 22.8426Z" fill="#1F59AF"/>
</svg>
