<svg width="24" height="22" viewBox="0 0 24 22" fill="none" xmlns="http://www.w3.org/2000/svg">
<path d="M11.9076 18.9539H1V17.8929C1 13.4523 4.5998 9.85254 9.04038 9.85254V9.85254C9.04038 9.85254 11.4124 9.85254 13.1623 11.0571" stroke="#181A1E" stroke-linecap="round" stroke-linejoin="round"/>
<circle cx="9.04044" cy="5.30167" r="4.55069" stroke="#181A1E" stroke-linecap="round" stroke-linejoin="round"/>
<path d="M14.6642 12.3236L14.3212 11.9598C14.221 12.0543 14.1642 12.1859 14.1642 12.3236H14.6642ZM16.4357 11.2456L16.834 10.9435C16.7033 10.7711 16.4764 10.7023 16.272 10.7732L16.4357 11.2456ZM17.998 12.0362L17.9985 11.5362L17.9976 11.5362L17.998 12.0362ZM19.5604 11.2456L19.7241 10.7732C19.5196 10.7023 19.2928 10.7711 19.162 10.9435L19.5604 11.2456ZM21.3318 12.3236L21.8005 12.4978C21.8705 12.3095 21.821 12.0976 21.6748 11.9598L21.3318 12.3236ZM21.4628 14.1417L21.9014 13.9017L21.901 13.9009L21.4628 14.1417ZM22.8947 15.1708L23.3852 15.0739C23.3446 14.8684 23.1801 14.7099 22.9733 14.677L22.8947 15.1708ZM22.8947 17.3237L22.9744 17.8173C23.1808 17.784 23.3447 17.6257 23.3852 17.4206L22.8947 17.3237ZM21.4628 18.3528L21.901 18.5936L21.9011 18.5935L21.4628 18.3528ZM21.3318 20.1714L21.6747 20.5353C21.821 20.3974 21.8705 20.1855 21.8004 19.9971L21.3318 20.1714ZM19.5604 21.2489L19.1621 21.5511C19.2929 21.7234 19.5196 21.7921 19.724 21.7214L19.5604 21.2489ZM17.998 20.4588L17.9976 20.9588L17.9986 20.9588L17.998 20.4588ZM16.4357 21.2494L16.2721 21.7219C16.4765 21.7927 16.7033 21.7239 16.834 21.5515L16.4357 21.2494ZM14.6642 20.1719L14.1956 19.9976C14.1256 20.186 14.1751 20.398 14.3213 20.5358L14.6642 20.1719ZM14.5332 18.3533L14.0947 18.5935L14.095 18.5941L14.5332 18.3533ZM13.1014 17.3247L12.6109 17.4217C12.6515 17.6272 12.816 17.7856 13.0229 17.8185L13.1014 17.3247ZM13.1014 15.1713L13.0228 14.6775C12.8159 14.7105 12.6515 14.8689 12.6109 15.0744L13.1014 15.1713ZM14.5332 14.1423L14.095 13.9015L14.0946 13.9022L14.5332 14.1423ZM14.6642 12.3242H14.1642C14.1642 12.3836 14.1749 12.4426 14.1956 12.4984L14.6642 12.3242ZM17.2479 14.8797L16.9854 14.4541L17.2479 14.8797ZM18.7483 17.6147L18.4915 17.1857L18.7483 17.6147ZM15.0072 12.6874C15.4703 12.2509 16.0126 11.9213 16.5993 11.7181L16.272 10.7732C15.5491 11.0236 14.8852 11.4281 14.3212 11.9598L15.0072 12.6874ZM16.0373 11.5477C16.5076 12.1679 17.228 12.5369 17.9985 12.5362L17.9976 11.5362C17.552 11.5366 17.1223 11.3236 16.834 10.9435L16.0373 11.5477ZM17.9976 12.5362C18.768 12.5369 19.4885 12.1679 19.9588 11.5477L19.162 10.9435C18.8737 11.3236 18.444 11.5366 17.9985 11.5362L17.9976 12.5362ZM19.3967 11.7181C19.9835 11.9213 20.5258 12.2509 20.9888 12.6874L21.6748 11.9598C21.1109 11.4281 20.4469 11.0236 19.7241 10.7732L19.3967 11.7181ZM20.8631 12.1494C20.5915 12.8801 20.65 13.7008 21.0246 14.3825L21.901 13.9009C21.6673 13.4756 21.6294 12.958 21.8005 12.4978L20.8631 12.1494ZM21.0242 14.3818C21.3987 15.066 22.0553 15.5435 22.8161 15.6646L22.9733 14.677C22.5315 14.6067 22.134 14.3266 21.9014 13.9017L21.0242 14.3818ZM22.4042 15.2677C22.5318 15.9138 22.5318 16.5807 22.4042 17.2268L23.3852 17.4206C23.5381 16.6466 23.5381 15.8479 23.3852 15.0739L22.4042 15.2677ZM22.8149 16.8301C22.0826 16.9484 21.4153 17.4008 21.0246 18.112L21.9011 18.5935C22.1436 18.152 22.5465 17.8864 22.9744 17.8173L22.8149 16.8301ZM21.0247 18.1119C20.6499 18.7938 20.5913 19.6148 20.8632 20.3457L21.8004 19.9971C21.6292 19.5368 21.6672 19.019 21.901 18.5936L21.0247 18.1119ZM20.9889 19.8075C20.5258 20.2439 19.9835 20.5732 19.3968 20.7764L19.724 21.7214C20.4468 21.4711 21.1107 21.0668 21.6747 20.5353L20.9889 19.8075ZM19.9587 20.9466C19.4882 20.3267 18.7678 19.958 17.9975 19.9588L17.9986 20.9588C18.444 20.9583 18.8738 21.1712 19.1621 21.5511L19.9587 20.9466ZM17.9985 19.9588C17.228 19.9581 16.5076 20.3271 16.0373 20.9473L16.834 21.5515C17.1223 21.1715 17.552 20.9584 17.9976 20.9588L17.9985 19.9588ZM16.5992 20.7769C16.0125 20.5738 15.4702 20.2444 15.0072 19.808L14.3213 20.5358C14.8853 21.0673 15.5493 21.4716 16.2721 21.7219L16.5992 20.7769ZM15.1329 20.3462C15.4047 19.6153 15.3462 18.7943 14.9714 18.1124L14.095 18.5941C14.3289 19.0195 14.3668 19.5373 14.1956 19.9976L15.1329 20.3462ZM14.9717 18.1131C14.5971 17.4291 13.9405 16.9519 13.1799 16.8309L13.0229 17.8185C13.4645 17.8888 13.862 18.1687 14.0947 18.5935L14.9717 18.1131ZM13.5919 17.2278C13.4642 16.5816 13.4642 15.9145 13.5919 15.2683L12.6109 15.0744C12.4578 15.8486 12.4578 16.6475 12.6109 17.4217L13.5919 17.2278ZM13.18 15.6651C13.9407 15.544 14.5973 15.0665 14.9718 14.3823L14.0946 13.9022C13.862 14.3271 13.4645 14.6072 13.0228 14.6775L13.18 15.6651ZM14.9714 14.3831C15.346 13.7013 15.4045 12.8807 15.1329 12.1499L14.1956 12.4984C14.3666 12.9586 14.3287 13.4762 14.095 13.9015L14.9714 14.3831ZM15.1642 12.3242V12.3236H14.1642V12.3242H15.1642ZM19.005 18.0438C19.6307 17.6694 20.0056 16.9802 20.0071 16.2465L19.0071 16.2444C19.0063 16.6439 18.802 16.9999 18.4915 17.1857L19.005 18.0438ZM20.0071 16.2465C20.0086 15.5127 19.6366 14.8219 19.0127 14.4447L18.4953 15.3005C18.8051 15.4878 19.0079 15.8448 19.0071 16.2444L20.0071 16.2465ZM19.0127 14.4447C18.3853 14.0654 17.6093 14.0691 16.9854 14.4541L17.5105 15.3052C17.8155 15.117 18.189 15.1153 18.4953 15.3005L19.0127 14.4447ZM16.9854 14.4541C16.038 15.0387 15.734 16.2966 16.269 17.272L17.1458 16.7911C16.8561 16.263 17.0349 15.5986 17.5105 15.3052L16.9854 14.4541ZM16.269 17.272C16.8115 18.2609 18.0338 18.6249 19.005 18.0438L18.4915 17.1857C18.0289 17.4625 17.4281 17.3056 17.1458 16.7911L16.269 17.272Z" fill="#181A1E"/>
</svg>
