<svg width="60" height="60" viewBox="0 0 60 60" fill="none" xmlns="http://www.w3.org/2000/svg">
<path d="M26.6152 6.98828H38.9284V13.4959H29.8708C29.6032 13.9075 29.038 14.8435 29.038 14.8435L28.3864 13.4959H26.6152V6.98828Z" fill="#FAFAFA"/>
<path d="M26.6154 6.98854C26.6154 6.98854 26.6154 7.02934 26.6154 7.10854C26.6154 7.18774 26.6154 7.30054 26.6154 7.44814C26.6154 7.74694 26.6154 8.18494 26.6154 8.74774C26.6154 9.87334 26.6226 11.4969 26.6274 13.4985L26.6046 13.4745H28.3758H28.3914L28.3986 13.4889C28.6038 13.9113 28.8246 14.3673 29.0514 14.8365H29.0046L29.8374 13.4877L29.8446 13.4745H29.8602H38.1186H38.9178L38.8866 13.5057C38.8866 11.2077 38.8866 9.01414 38.8866 6.99814L38.9154 7.02694L30.0534 7.01494L27.5154 7.00534H26.8374H26.6622H26.835H27.5082L30.0486 6.99574L38.9286 6.96094H38.9574V6.98974C38.9574 9.00574 38.9574 11.1993 38.9574 13.4973V13.5285H38.127H29.8686L29.8926 13.5165L29.0526 14.8617L29.0274 14.9037L29.0058 14.8605L28.3554 13.5117L28.3782 13.5261H26.607H26.583V13.5033C26.583 11.4957 26.5926 9.86734 26.5962 8.73814C26.5962 8.17774 26.5962 7.74214 26.5962 7.44454C26.5962 7.29814 26.5962 7.18534 26.5962 7.10854C26.5962 7.03174 26.6154 6.98854 26.6154 6.98854Z" fill="#E0E0E0"/>
<path d="M29.5287 10.193C29.6329 10.1489 29.7218 10.075 29.7843 9.98071C29.8469 9.88639 29.8802 9.77573 29.8802 9.66255C29.8883 9.5875 29.8805 9.51159 29.8576 9.4397C29.8346 9.3678 29.7968 9.30149 29.7467 9.24502C29.6967 9.18854 29.6353 9.14314 29.5667 9.11172C29.4981 9.0803 29.4236 9.06355 29.3482 9.06255C29.2727 9.06154 29.1978 9.0763 29.1284 9.10588C29.0589 9.13546 28.9964 9.17921 28.9448 9.23433C28.8933 9.28945 28.8538 9.35472 28.8289 9.42598C28.804 9.49724 28.7942 9.57291 28.8002 9.64815C28.7973 9.76208 28.8281 9.87434 28.8887 9.97084C28.9493 10.0673 29.0371 10.1438 29.141 10.1906C28.307 10.3106 28.337 11.213 28.337 11.213L30.305 11.2394C30.305 11.2394 30.3519 10.3226 29.5287 10.193Z" fill="#E0E0E0"/>
<path d="M37.2458 9.27295C37.2458 9.28503 35.9906 9.2947 34.4426 9.2947C32.8946 9.2947 31.6406 9.28503 31.6406 9.27295C31.6406 9.26087 32.8946 9.25 34.4426 9.25C35.9906 9.25 37.2458 9.25966 37.2458 9.27295Z" fill="#E0E0E0"/>
<path d="M37.2458 9.94483C37.2458 9.95691 35.9906 9.96658 34.4426 9.96658C32.8946 9.96658 31.6406 9.95691 31.6406 9.94483C31.6406 9.93275 32.8946 9.92188 34.4426 9.92188C35.9906 9.92188 37.2458 9.93154 37.2458 9.94483Z" fill="#E0E0E0"/>
<path d="M37.2458 10.6167C37.2458 10.6288 35.9906 10.6397 34.4426 10.6397C32.8946 10.6397 31.6406 10.6288 31.6406 10.6167C31.6406 10.6046 32.8946 10.5938 34.4426 10.5938C35.9906 10.5938 37.2458 10.6034 37.2458 10.6167Z" fill="#E0E0E0"/>
<path d="M34.9918 11.4617C34.9918 11.475 34.2418 11.4846 33.3118 11.4846C32.3818 11.4846 31.6318 11.475 31.6318 11.4617C31.6318 11.4484 32.3818 11.4375 33.3118 11.4375C34.2418 11.4375 34.9918 11.4484 34.9918 11.4617Z" fill="#E0E0E0"/>
<path d="M31.6645 48.7372L32.2801 49.3192C32.2993 49.3375 32.3226 49.3509 32.3482 49.358C32.3737 49.3651 32.4006 49.3658 32.4265 49.36L33.2557 49.18C33.2854 49.1734 33.3163 49.1753 33.3449 49.1855C33.3735 49.1956 33.3987 49.2136 33.4176 49.2374C33.4365 49.2611 33.4483 49.2897 33.4517 49.3199C33.4551 49.3501 33.45 49.3806 33.4369 49.408L33.0769 50.176C33.0657 50.1998 33.0604 50.226 33.0615 50.2523C33.0625 50.2786 33.0699 50.3043 33.0829 50.3272L33.5113 51.0604C33.5259 51.0865 33.533 51.1161 33.5319 51.146C33.5307 51.1759 33.5212 51.2049 33.5046 51.2297C33.4879 51.2546 33.4647 51.2743 33.4375 51.2868C33.4103 51.2993 33.3802 51.304 33.3505 51.3004L32.5105 51.1936C32.4843 51.1905 32.4577 51.1938 32.4331 51.2032C32.4084 51.2126 32.3864 51.2278 32.3689 51.2476L31.8001 51.8812C31.78 51.904 31.7539 51.9207 31.7247 51.9293C31.6956 51.9379 31.6646 51.9382 31.6353 51.9301C31.606 51.9219 31.5796 51.9057 31.5591 51.8833C31.5386 51.8609 31.5248 51.8331 31.5193 51.8032L31.3609 50.9704C31.3562 50.9441 31.3451 50.9194 31.3286 50.8985C31.312 50.8776 31.2906 50.861 31.2661 50.8504L30.4897 50.5084C30.462 50.4963 30.4382 50.4766 30.4211 50.4517C30.4039 50.4268 30.3941 50.3975 30.3927 50.3673C30.3914 50.3371 30.3985 50.3071 30.4133 50.2807C30.4281 50.2543 30.45 50.2326 30.4765 50.218L31.2205 49.8088C31.2428 49.7966 31.262 49.7795 31.2766 49.7587C31.2912 49.7378 31.3007 49.7139 31.3045 49.6888L31.3897 48.8488C31.3906 48.8174 31.4006 48.7869 31.4186 48.761C31.4365 48.7352 31.4616 48.7151 31.4907 48.7033C31.5198 48.6915 31.5518 48.6884 31.5826 48.6944C31.6135 48.7004 31.642 48.7153 31.6645 48.7372Z" fill="#EBEBEB"/>
<path d="M48.0956 10.0652L48.8612 10.9832C48.8847 11.012 48.915 11.0345 48.9493 11.0487C48.9836 11.063 49.021 11.0685 49.058 11.0648L50.2484 10.9544C50.2909 10.9506 50.3338 10.9586 50.372 10.9778C50.4102 10.997 50.4423 11.0265 50.4646 11.0629C50.487 11.0994 50.4987 11.1413 50.4984 11.1841C50.4982 11.2268 50.4859 11.2687 50.4632 11.3048L49.8272 12.3164C49.8072 12.3478 49.7952 12.3835 49.7923 12.4206C49.7893 12.4576 49.7955 12.4948 49.8104 12.5288L50.2808 13.6268C50.2977 13.6661 50.3034 13.7094 50.2971 13.7517C50.2907 13.794 50.2727 13.8337 50.245 13.8663C50.2172 13.8989 50.1809 13.9231 50.1402 13.9361C50.0994 13.9491 50.0558 13.9505 50.0144 13.94L48.8552 13.6472C48.8192 13.638 48.7814 13.6376 48.7453 13.6462C48.7091 13.6548 48.6756 13.672 48.6476 13.6964L47.7488 14.486C47.7166 14.5141 47.6772 14.5325 47.6351 14.5394C47.593 14.5463 47.5499 14.5413 47.5104 14.5249C47.471 14.5086 47.437 14.4816 47.4121 14.4469C47.3872 14.4123 47.3725 14.3714 47.3696 14.3288L47.2904 13.136C47.288 13.099 47.2766 13.0631 47.2571 13.0315C47.2377 13 47.2108 12.9736 47.1788 12.9548L46.1504 12.344C46.1138 12.3221 46.084 12.2904 46.0645 12.2525C46.045 12.2145 46.0364 12.1719 46.0398 12.1294C46.0431 12.0869 46.0583 12.0461 46.0836 12.0118C46.1088 11.9774 46.1432 11.9508 46.1828 11.9348L47.2928 11.4896C47.3271 11.4758 47.3577 11.4538 47.3817 11.4256C47.4057 11.3974 47.4226 11.3638 47.4308 11.3276L47.6936 10.1612C47.7027 10.119 47.7236 10.0802 47.7538 10.0494C47.784 10.0185 47.8223 9.99677 47.8643 9.98674C47.9064 9.9767 47.9504 9.97875 47.9913 9.99264C48.0322 10.0065 48.0683 10.0317 48.0956 10.0652Z" fill="#EBEBEB"/>
<path d="M55.3727 37.1556L55.4747 37.5396C55.4778 37.5516 55.4837 37.5628 55.4921 37.572C55.5005 37.5812 55.511 37.5882 55.5227 37.5924L55.8971 37.7268C55.9106 37.7315 55.9224 37.74 55.9312 37.7512C55.9401 37.7624 55.9455 37.7759 55.947 37.79C55.9485 37.8042 55.946 37.8185 55.9397 37.8313C55.9335 37.8441 55.9237 37.8549 55.9115 37.8624L55.5779 38.0772C55.5674 38.0839 55.5588 38.0931 55.5527 38.104C55.5466 38.1149 55.5433 38.1271 55.5431 38.1396L55.5299 38.5368C55.5287 38.5501 55.5241 38.5629 55.5164 38.5739C55.5087 38.5849 55.4983 38.5937 55.4861 38.5994C55.474 38.6051 55.4606 38.6075 55.4472 38.6064C55.4338 38.6053 55.421 38.6008 55.4099 38.5932L55.1027 38.3412C55.0931 38.3334 55.0817 38.3282 55.0696 38.3259C55.0575 38.3236 55.0449 38.3243 55.0331 38.328L54.6515 38.4384C54.6379 38.4426 54.6232 38.4429 54.6094 38.4392C54.5956 38.4354 54.5831 38.4278 54.5734 38.4173C54.5637 38.4067 54.5572 38.3936 54.5547 38.3795C54.5522 38.3654 54.5537 38.3508 54.5591 38.3376L54.7031 37.9668C54.7078 37.9554 54.7095 37.9431 54.708 37.9309C54.7065 37.9187 54.702 37.9071 54.6947 37.8972L54.4667 37.5624C54.4582 37.5507 54.4532 37.5368 54.4523 37.5223C54.4514 37.5078 54.4547 37.4934 54.4618 37.4808C54.4689 37.4681 54.4794 37.4578 54.4922 37.451C54.505 37.4442 54.5195 37.4412 54.5339 37.4424L54.9311 37.4652C54.9435 37.4658 54.9557 37.4636 54.967 37.4586C54.9783 37.4536 54.9882 37.4459 54.9959 37.4364L55.2359 37.122C55.2447 37.1095 55.257 37.1 55.2713 37.0947C55.2855 37.0893 55.301 37.0884 55.3158 37.092C55.3306 37.0957 55.3439 37.1037 55.3541 37.115C55.3643 37.1263 55.3708 37.1405 55.3727 37.1556Z" fill="#EBEBEB"/>
<path d="M55.0618 29.1233L54.9622 30.3149C54.9594 30.3518 54.9655 30.3888 54.9799 30.4228C54.9943 30.4568 55.0166 30.4869 55.045 30.5105L55.9702 31.2677C56.0034 31.2948 56.0284 31.3306 56.0422 31.3711C56.0561 31.4116 56.0584 31.4552 56.0488 31.4969C56.0391 31.5386 56.018 31.5768 55.9878 31.6071C55.9576 31.6375 55.9195 31.6587 55.8778 31.6685L54.7138 31.9421C54.6778 31.9506 54.6443 31.9677 54.6163 31.9919C54.5883 32.0162 54.5666 32.0469 54.553 32.0813L54.1198 33.1949C54.1043 33.2347 54.0779 33.2694 54.0438 33.295C54.0096 33.3206 53.9689 33.3362 53.9264 33.3399C53.8838 33.3437 53.8411 33.3354 53.803 33.3162C53.7648 33.2969 53.7329 33.2674 53.7106 33.2309L53.0902 32.2085C53.0711 32.1767 53.0445 32.1499 53.0127 32.1307C52.9809 32.1115 52.9449 32.1003 52.9078 32.0981L51.715 32.0297C51.6724 32.0273 51.6313 32.0129 51.5963 31.9884C51.5614 31.9638 51.534 31.9299 51.5173 31.8906C51.5006 31.8513 51.4952 31.8081 51.5017 31.7659C51.5082 31.7237 51.5264 31.6842 51.5542 31.6517L52.3354 30.7457C52.3597 30.7176 52.3768 30.6841 52.3852 30.6479C52.3935 30.6117 52.3929 30.574 52.3834 30.5381L52.0798 29.3825C52.0689 29.3412 52.0698 29.2977 52.0824 29.2569C52.0949 29.216 52.1186 29.1795 52.1508 29.1514C52.183 29.1234 52.2224 29.1048 52.2646 29.098C52.3067 29.0911 52.35 29.0961 52.3894 29.1125L53.4922 29.5757C53.5265 29.5899 53.5638 29.5955 53.6008 29.5922C53.6378 29.5888 53.6734 29.5766 53.7046 29.5565L54.7102 28.9109C54.7462 28.888 54.788 28.8755 54.8307 28.875C54.8734 28.8745 54.9154 28.8859 54.9519 28.908C54.9885 28.9301 55.0181 28.962 55.0376 29C55.057 29.0381 55.0654 29.0808 55.0618 29.1233Z" fill="#F5F5F5"/>
<path d="M7.4679 28.4557L8.1447 29.1277C8.16547 29.1488 8.19113 29.1644 8.21939 29.1732C8.24764 29.182 8.27763 29.1836 8.3067 29.1781L9.2403 29.0017C9.27377 28.9953 9.30837 28.9985 9.34015 29.0107C9.37194 29.023 9.39965 29.044 9.42013 29.0712C9.44062 29.0984 9.45307 29.1309 9.45607 29.1648C9.45907 29.1988 9.45249 29.2329 9.4371 29.2633L9.01109 30.1201C8.99722 30.1463 8.98997 30.1756 8.98997 30.2053C8.98997 30.235 8.99722 30.2642 9.01109 30.2905L9.4683 31.1305C9.48485 31.1603 9.49271 31.1942 9.49098 31.2283C9.48925 31.2623 9.47799 31.2952 9.45849 31.3232C9.43899 31.3512 9.41203 31.3732 9.38068 31.3866C9.34932 31.4001 9.31482 31.4045 9.28109 31.3993L8.3379 31.2529C8.30863 31.2485 8.27875 31.2513 8.25077 31.2609C8.22279 31.2705 8.19752 31.2867 8.1771 31.3081L7.5231 32.0017C7.49976 32.0266 7.46991 32.0444 7.43694 32.0532C7.40396 32.062 7.36919 32.0613 7.33656 32.0513C7.30394 32.0413 7.27477 32.0224 7.25238 31.9966C7.22999 31.9709 7.21527 31.9394 7.2099 31.9057L7.0599 30.9601C7.05514 30.9308 7.04339 30.903 7.02563 30.8792C7.00787 30.8554 6.98464 30.8362 6.9579 30.8233L6.0963 30.4153C6.06565 30.4003 6.03983 30.377 6.02177 30.348C6.00371 30.319 5.99414 30.2856 5.99414 30.2515C5.99414 30.2174 6.00371 30.1839 6.02177 30.155C6.03983 30.126 6.06565 30.1027 6.0963 30.0877L6.9447 29.6521C6.97097 29.6385 6.99355 29.6187 7.01048 29.5945C7.02741 29.5702 7.03819 29.5422 7.0419 29.5129L7.1619 28.5673C7.16585 28.5337 7.17904 28.502 7.19999 28.4755C7.22093 28.449 7.24882 28.4289 7.28054 28.4173C7.31227 28.4057 7.34658 28.4032 7.37965 28.41C7.41273 28.4167 7.44328 28.4326 7.4679 28.4557Z" fill="#EBEBEB"/>
<path d="M19.736 13.3824L17.7578 17.0547L19.1238 17.7905L21.102 14.1182L19.736 13.3824Z" fill="#E0E0E0"/>
<path d="M20.1051 13.5816L18.127 17.2539L19.493 17.9897L21.4711 14.3174L20.1051 13.5816Z" fill="#EBEBEB"/>
<path d="M20.0404 14.6877C20.0074 14.7487 19.9931 14.8181 19.9996 14.8872C20.006 14.9562 20.0327 15.0218 20.0765 15.0756C20.1202 15.1295 20.1789 15.1691 20.2452 15.1896C20.3114 15.21 20.3823 15.2103 20.4487 15.1905C20.5152 15.1706 20.5743 15.1315 20.6185 15.0781C20.6627 15.0246 20.69 14.9593 20.697 14.8903C20.7041 14.8213 20.6905 14.7517 20.658 14.6905C20.6254 14.6292 20.5755 14.579 20.5144 14.5461C20.474 14.5242 20.4297 14.5105 20.384 14.5058C20.3382 14.501 20.292 14.5054 20.248 14.5185C20.204 14.5317 20.163 14.5534 20.1273 14.5824C20.0917 14.6115 20.0622 14.6472 20.0404 14.6877Z" fill="white"/>
<path d="M19.44 13.9336C19.4851 14.0484 19.5099 14.1702 19.5132 14.2936C19.5377 14.4145 19.5409 14.5388 19.5228 14.6608C19.479 14.5456 19.4547 14.424 19.4508 14.3008C19.4269 14.1798 19.4233 14.0558 19.44 13.9336Z" fill="#EBEBEB"/>
<path d="M19.2212 14.3398C19.2647 14.4551 19.289 14.5767 19.2932 14.6998C19.3169 14.8208 19.3206 14.9449 19.304 15.067C19.2604 14.9518 19.2361 14.8302 19.232 14.707C19.2082 14.5861 19.2045 14.462 19.2212 14.3398Z" fill="#EBEBEB"/>
<path d="M19.0028 14.7461C19.0465 14.8613 19.0708 14.9829 19.0748 15.1061C19.0986 15.2271 19.1022 15.3511 19.0856 15.4733C19.0402 15.3585 19.0154 15.2367 19.0124 15.1133C18.9879 14.9924 18.9846 14.8681 19.0028 14.7461Z" fill="#EBEBEB"/>
<path d="M18.7826 15.1523C18.8275 15.2672 18.8523 15.389 18.8558 15.5123C18.8803 15.6333 18.8835 15.7575 18.8654 15.8795C18.8216 15.7644 18.7973 15.6427 18.7934 15.5195C18.7698 15.3986 18.7661 15.2745 18.7826 15.1523Z" fill="#EBEBEB"/>
<path d="M18.5639 15.5586C18.6077 15.6738 18.632 15.7954 18.6359 15.9186C18.6598 16.0396 18.6634 16.1636 18.6467 16.2858C18.6028 16.1707 18.5785 16.049 18.5747 15.9258C18.551 15.8048 18.5473 15.6808 18.5639 15.5586Z" fill="#EBEBEB"/>
<path d="M18.3456 15.9609C18.3895 16.0761 18.4138 16.1978 18.4176 16.3209C18.4413 16.4419 18.445 16.566 18.4284 16.6881C18.3832 16.5733 18.3584 16.4515 18.3552 16.3281C18.3306 16.2072 18.3274 16.083 18.3456 15.9609Z" fill="#EBEBEB"/>
<path d="M18.1265 16.3711C18.1717 16.4859 18.1965 16.6077 18.1997 16.7311C18.2242 16.8524 18.2275 16.9771 18.2093 17.0995C18.1658 16.9842 18.1415 16.8626 18.1373 16.7395C18.1134 16.6181 18.1098 16.4936 18.1265 16.3711Z" fill="#EBEBEB"/>
<path d="M19.6362 13.5781C19.6814 13.6929 19.7062 13.8148 19.7094 13.9381C19.7339 14.059 19.7372 14.1833 19.719 14.3053C19.6751 14.1902 19.6507 14.0685 19.647 13.9453C19.6232 13.8244 19.6196 13.7003 19.6362 13.5781Z" fill="#EBEBEB"/>
<path d="M19.8808 13.457C19.8976 13.457 19.9228 13.5494 19.936 13.6682C19.9492 13.787 19.9468 13.8854 19.9288 13.8878C19.9108 13.8902 19.8868 13.7942 19.8736 13.6754C19.8604 13.5566 19.8628 13.4582 19.8808 13.457Z" fill="#EBEBEB"/>
<path d="M17.2214 16.3934L18.9014 13.1078C18.9014 13.1078 18.2546 12.5786 18.1394 11.2502C18.0638 10.3706 18.5918 9.76699 18.6638 9.43699C18.707 9.23539 18.2774 9.04939 18.0854 8.97259C17.9597 8.91805 17.8221 8.89659 17.6858 8.91025C17.5495 8.9239 17.4189 8.97221 17.3066 9.05059C16.811 9.43219 16.4738 10.8014 16.4738 10.8014C16.4738 10.8014 16.4738 11.117 16.1342 10.9334L14.9162 10.2722C14.7586 10.1853 14.5752 10.1576 14.399 10.1942C14.3083 10.2116 14.2234 10.2513 14.152 10.3098C14.0806 10.3682 14.0248 10.4436 13.9898 10.529C13.7762 11.009 13.9082 11.351 13.8554 11.4482C13.8026 11.5454 13.577 11.6414 13.5242 11.9774C13.4714 12.3134 13.5446 12.3194 13.4714 12.4574C13.3466 12.6902 13.2595 12.9413 13.2134 13.2014C13.1953 13.3362 13.2018 13.4733 13.2326 13.6058C13.2326 13.6058 12.941 14.0246 12.9434 14.3462C12.9434 14.7698 13.6346 15.419 14.0486 15.4454C14.2418 15.4586 15.0602 15.6758 15.4478 15.7742C15.8354 15.8726 16.9778 16.0574 17.2214 16.3934Z" fill="#E0E0E0"/>
<path d="M17.6404 16.665L19.408 13.383C19.408 13.383 18.7588 12.8538 18.6448 11.5218C18.5818 10.9085 18.6109 10.2892 18.7312 9.68457C18.7517 9.58774 18.7377 9.48678 18.6917 9.39915C18.6457 9.31151 18.5705 9.24269 18.4792 9.20457C18.368 9.15287 18.2443 9.13399 18.1227 9.15015C18.0011 9.1663 17.8867 9.21682 17.7928 9.29577C17.3032 9.67737 16.984 11.0742 16.984 11.0742C16.984 11.0742 16.984 11.3898 16.6456 11.2062L15.4264 10.5498C15.2693 10.4628 15.0862 10.4352 14.9104 10.4718C14.8201 10.4888 14.7355 10.5279 14.6639 10.5854C14.5923 10.643 14.536 10.7173 14.5 10.8018C14.2864 11.2818 14.4196 11.6238 14.3668 11.721C14.314 11.8182 14.0872 11.9178 14.0344 12.2502C13.9816 12.5826 14.0548 12.5922 13.9828 12.7302C13.8577 12.962 13.7706 13.2124 13.7248 13.4718C13.7067 13.6066 13.7128 13.7435 13.7428 13.8762C13.7428 13.8762 13.4704 14.295 13.4536 14.6178C13.4368 14.9406 13.8784 15.3498 14.0536 15.441C14.2288 15.5322 15.5764 15.9462 15.964 16.041C16.3516 16.1358 17.4004 16.329 17.6404 16.665Z" fill="#EBEBEB"/>
<path d="M16.7129 10.082C16.78 10.2285 16.8322 10.3812 16.8689 10.538C16.9245 10.6892 16.9647 10.8456 16.9889 11.0048C16.9056 10.8655 16.8445 10.7141 16.8077 10.556C16.7517 10.4039 16.7197 10.244 16.7129 10.082Z" fill="#EBEBEB"/>
<path d="M16.8828 9.60156C16.9463 9.73427 16.9989 9.87193 17.04 10.0132C17.1032 10.1461 17.1465 10.2876 17.1684 10.4332C17.0885 10.3093 17.0255 10.1753 16.9812 10.0348C16.9187 9.89874 16.8852 9.75122 16.8828 9.60156Z" fill="#EBEBEB"/>
<path d="M17.1302 9.22656C17.1857 9.33106 17.2338 9.43933 17.2742 9.55056C17.3376 9.6539 17.3763 9.77056 17.387 9.89136C17.3189 9.79327 17.2621 9.6878 17.2178 9.57696C17.1569 9.47046 17.1265 9.3492 17.1302 9.22656Z" fill="#EBEBEB"/>
<path d="M17.4428 8.969C17.4584 8.963 17.5136 9.0674 17.5628 9.2018C17.604 9.28083 17.6266 9.36827 17.6288 9.4574C17.612 9.4646 17.5568 9.3602 17.5088 9.2246C17.4608 9.089 17.426 8.975 17.4428 8.969Z" fill="#EBEBEB"/>
<path d="M17.7938 8.90734C17.8094 8.89774 17.8538 8.95294 17.8946 9.02734C17.9354 9.10174 17.9558 9.17014 17.9402 9.17854C17.9246 9.18694 17.8802 9.13174 17.8394 9.05854C17.7986 8.98534 17.7794 8.91574 17.7938 8.90734Z" fill="#EBEBEB"/>
<path d="M16.4971 10.7113C16.5127 10.7041 16.5703 10.8157 16.6255 10.9585C16.669 11.042 16.6932 11.1343 16.6963 11.2285C16.6362 11.1562 16.5925 11.0719 16.5679 10.9813C16.5245 10.8976 16.5003 10.8054 16.4971 10.7113Z" fill="#EBEBEB"/>
<path d="M13.8975 10.7852C14.0026 10.9216 14.0908 11.0703 14.1603 11.228C14.2488 11.3755 14.3185 11.5335 14.3679 11.6984C14.2622 11.5622 14.174 11.4135 14.1051 11.2556C14.0166 11.108 13.9468 10.95 13.8975 10.7852Z" fill="#EBEBEB"/>
<path d="M14.2158 10.2383C14.2888 10.3119 14.346 10.3997 14.3838 10.4963C14.4396 10.5837 14.4779 10.6811 14.4966 10.7831C14.481 10.7915 14.4054 10.6763 14.3286 10.5251C14.2724 10.4379 14.2341 10.3404 14.2158 10.2383Z" fill="#EBEBEB"/>
<path d="M13.6553 11.6836C13.7471 11.7733 13.8205 11.8801 13.8713 11.998C13.939 12.1079 13.9839 12.2303 14.0033 12.358C13.928 12.2558 13.8651 12.1451 13.8161 12.028C13.7481 11.9205 13.6941 11.8047 13.6553 11.6836Z" fill="#EBEBEB"/>
<path d="M13.4922 12.4102C13.5723 12.5084 13.636 12.6191 13.6806 12.7378C13.7436 12.8497 13.7874 12.9714 13.8102 13.0978C13.7305 12.9991 13.6677 12.888 13.6242 12.769C13.5604 12.6576 13.5158 12.5363 13.4922 12.4102Z" fill="#EBEBEB"/>
<path d="M13.2314 13.2344C13.3138 13.3563 13.3838 13.4861 13.4402 13.622C13.5135 13.7486 13.5742 13.882 13.6214 14.0204C13.5194 13.9126 13.438 13.7869 13.3814 13.6496C13.3063 13.5216 13.2555 13.3808 13.2314 13.2344Z" fill="#EBEBEB"/>
<path d="M13.0488 13.9492C13.1411 14.0932 13.2214 14.2445 13.2888 14.4016C13.3721 14.5504 13.4431 14.7057 13.5012 14.866C13.3885 14.736 13.2977 14.5885 13.2324 14.4292C13.1456 14.2802 13.0836 14.1181 13.0488 13.9492Z" fill="#EBEBEB"/>
<path d="M9.40505 17.3377L8.22168 19.9844L9.20652 20.4247L10.3899 17.778L9.40505 17.3377Z" fill="#E0E0E0"/>
<path d="M9.13845 17.2205L7.95508 19.8672L8.93992 20.3075L10.1233 17.6608L9.13845 17.2205Z" fill="#EBEBEB"/>
<path d="M8.93113 19.5364C8.95025 19.4932 8.95621 19.4453 8.94825 19.3988C8.94029 19.3522 8.91876 19.309 8.88638 19.2747C8.85399 19.2403 8.81218 19.2162 8.76618 19.2055C8.72017 19.1948 8.67203 19.1978 8.62778 19.2144C8.58352 19.2309 8.54513 19.2601 8.5174 19.2983C8.48966 19.3366 8.47383 19.3821 8.47188 19.4293C8.46994 19.4765 8.48196 19.5232 8.50644 19.5636C8.53093 19.604 8.56678 19.6363 8.60953 19.6564C8.63846 19.67 8.66983 19.6777 8.70178 19.679C8.73373 19.6803 8.76562 19.6753 8.79558 19.6641C8.82554 19.6529 8.85297 19.6358 8.87624 19.6139C8.89952 19.592 8.91818 19.5656 8.93113 19.5364Z" fill="white"/>
<path d="M9.38181 20.0296C9.3467 19.9536 9.32362 19.8726 9.31341 19.7896C9.2903 19.7069 9.28178 19.6208 9.28821 19.5352C9.32393 19.613 9.34702 19.696 9.35661 19.7812C9.37838 19.8621 9.38689 19.9459 9.38181 20.0296Z" fill="#EBEBEB"/>
<path d="M9.51232 19.7366C9.47742 19.6605 9.45435 19.5796 9.44392 19.4966C9.42152 19.4138 9.413 19.3278 9.41872 19.2422C9.45506 19.3198 9.47818 19.4029 9.48712 19.4882C9.50956 19.569 9.51808 19.653 9.51232 19.7366Z" fill="#EBEBEB"/>
<path d="M9.6446 19.4418C9.58394 19.2818 9.55185 19.1125 9.5498 18.9414C9.58552 19.0171 9.60862 19.0982 9.6182 19.1814C9.6413 19.2662 9.65022 19.3541 9.6446 19.4418Z" fill="#EBEBEB"/>
<path d="M9.77546 19.1488C9.71632 18.9885 9.68429 18.8193 9.68066 18.6484C9.71638 18.7242 9.73948 18.8052 9.74906 18.8884C9.77289 18.9731 9.78182 19.0612 9.77546 19.1488Z" fill="#EBEBEB"/>
<path d="M9.90602 18.8559C9.86903 18.7785 9.84588 18.6952 9.83762 18.6099C9.81448 18.5272 9.80556 18.4412 9.81122 18.3555C9.84747 18.4335 9.87058 18.5171 9.87962 18.6027C9.90272 18.685 9.91165 18.7706 9.90602 18.8559Z" fill="#EBEBEB"/>
<path d="M10.0369 18.5629C10.0005 18.4853 9.97742 18.4021 9.96848 18.3169C9.94534 18.2342 9.93642 18.1482 9.94208 18.0625C10.0012 18.2229 10.0333 18.392 10.0369 18.5629Z" fill="#EBEBEB"/>
<path d="M10.1677 18.2699C10.1314 18.1923 10.1083 18.1092 10.0993 18.0239C10.0762 17.9412 10.0673 17.8552 10.0729 17.7695C10.1321 17.9299 10.1641 18.099 10.1677 18.2699Z" fill="#EBEBEB"/>
<path d="M9.26442 20.2816C9.22743 20.2043 9.20428 20.121 9.19602 20.0356C9.17288 19.953 9.16396 19.8669 9.16962 19.7812C9.20533 19.857 9.22844 19.9381 9.23802 20.0212C9.26185 20.1059 9.27078 20.194 9.26442 20.2816Z" fill="#EBEBEB"/>
<path d="M9.10123 20.3784C9.08923 20.3784 9.06763 20.316 9.05203 20.2344C9.03632 20.1851 9.03383 20.1326 9.04483 20.082C9.05683 20.082 9.07963 20.1444 9.09523 20.226C9.11083 20.3076 9.11323 20.376 9.10123 20.3784Z" fill="#EBEBEB"/>
<path d="M10.8 18.2109L9.80762 20.5737C9.80762 20.5737 10.2876 20.9073 10.4304 21.8229C10.5288 22.4229 10.1904 22.8741 10.1604 23.1069C10.14 23.2485 10.4472 23.3553 10.584 23.3985C10.6739 23.4301 10.7703 23.4382 10.8642 23.422C10.9581 23.4058 11.0463 23.3659 11.1204 23.3061C11.4408 23.0157 11.6004 22.0521 11.6004 22.0521C11.6004 22.0521 11.5824 21.8337 11.8284 21.9441L12.7068 22.3365C12.8198 22.3881 12.9473 22.3978 13.0668 22.3641C13.1287 22.3473 13.1854 22.3153 13.2319 22.2711C13.2784 22.2269 13.3132 22.1719 13.3332 22.1109C13.4532 21.7653 13.3476 21.5373 13.3788 21.4665C13.41 21.3957 13.5624 21.3165 13.5828 21.0825C13.6032 20.8485 13.5504 20.8425 13.5936 20.7501C13.6687 20.5828 13.7165 20.4046 13.7352 20.2221C13.7405 20.1281 13.7291 20.0338 13.7016 19.9437C13.7016 19.9437 13.8828 19.6377 13.8636 19.4145C13.8396 19.1217 13.3296 18.7065 13.0416 18.7089C12.9072 18.7089 12.3288 18.6009 12.054 18.5529C11.7792 18.5049 10.98 18.4305 10.8 18.2109Z" fill="#E0E0E0"/>
<path d="M10.492 18.043L9.43359 20.4094C9.43359 20.4094 9.91359 20.743 10.0576 21.6586C10.1316 22.0806 10.143 22.5112 10.0912 22.9366C10.0809 23.0054 10.0952 23.0756 10.1317 23.1349C10.1681 23.1942 10.2243 23.2387 10.2904 23.2606C10.3702 23.2908 10.457 23.2977 10.5406 23.2802C10.6241 23.2628 10.7009 23.2218 10.762 23.1622C11.0812 22.873 11.2312 21.8878 11.2312 21.8878C11.2312 21.8878 11.2132 21.6694 11.4592 21.7786L12.3376 22.1722C12.4505 22.2237 12.5781 22.2335 12.6976 22.1998C12.7597 22.183 12.8166 22.1511 12.8633 22.1069C12.91 22.0627 12.945 22.0076 12.9652 21.9466C13.0852 21.601 12.9796 21.373 13.0108 21.3022C13.042 21.2314 13.1944 21.1522 13.2136 20.9182C13.2328 20.6842 13.1824 20.6782 13.2256 20.5858C13.3003 20.4184 13.3477 20.2401 13.366 20.0578C13.3721 19.9637 13.3607 19.8693 13.3324 19.7794C13.423 19.6163 13.4786 19.436 13.4956 19.2502C13.4956 19.0258 13.1644 18.7642 13.0408 18.709C12.9172 18.6538 11.9608 18.4366 11.686 18.3886C11.4112 18.3406 10.6804 18.2638 10.492 18.043Z" fill="#EBEBEB"/>
<path d="M11.4702 22.56C11.4163 22.4615 11.3725 22.3577 11.3394 22.2504C11.2922 22.149 11.256 22.0428 11.2314 21.9336C11.2954 22.0263 11.3455 22.1277 11.3802 22.2348C11.4266 22.338 11.457 22.4476 11.4702 22.56Z" fill="#EBEBEB"/>
<path d="M11.3764 22.899C11.3248 22.8111 11.2802 22.7192 11.2432 22.6242C11.1924 22.5355 11.1552 22.4396 11.1328 22.3398C11.1937 22.4217 11.2433 22.5113 11.2804 22.6062C11.3318 22.6964 11.3644 22.796 11.3764 22.899Z" fill="#EBEBEB"/>
<path d="M11.2238 23.1715C11.1796 23.1015 11.1395 23.0289 11.1038 22.9543C11.0547 22.8853 11.0218 22.8061 11.0078 22.7227C11.0603 22.7875 11.1053 22.8579 11.1422 22.9327C11.1914 23.003 11.2197 23.0858 11.2238 23.1715Z" fill="#EBEBEB"/>
<path d="M11.0212 23.3691C11.0104 23.3691 10.966 23.3043 10.9228 23.2131C10.8906 23.1602 10.8709 23.1007 10.8652 23.0391C10.876 23.0391 10.9192 23.1039 10.9624 23.1951C10.995 23.2478 11.0152 23.3073 11.0212 23.3691Z" fill="#EBEBEB"/>
<path d="M10.7803 23.4279C10.7707 23.4351 10.7359 23.4003 10.7047 23.3499C10.6735 23.2995 10.6543 23.2527 10.6651 23.2467C10.6759 23.2407 10.7095 23.2767 10.7407 23.3259C10.7719 23.3751 10.7899 23.4219 10.7803 23.4279Z" fill="#EBEBEB"/>
<path d="M11.5873 22.1136C11.5765 22.1196 11.5309 22.0452 11.4853 21.9492C11.4511 21.8934 11.4298 21.8307 11.4229 21.7656C11.4337 21.7656 11.4793 21.834 11.5249 21.93C11.5588 21.9859 11.5801 22.0486 11.5873 22.1136Z" fill="#EBEBEB"/>
<path d="M13.3859 21.926C13.2375 21.7385 13.1122 21.5338 13.0127 21.3164C13.1611 21.5039 13.2864 21.7086 13.3859 21.926Z" fill="#EBEBEB"/>
<path d="M13.1927 22.3211C13.1819 22.3271 13.1243 22.2503 13.0631 22.1507C13.0196 22.0932 12.9882 22.0275 12.9707 21.9575C12.9803 21.9503 13.0391 22.0271 13.1003 22.1279C13.1432 22.1858 13.1746 22.2514 13.1927 22.3211Z" fill="#EBEBEB"/>
<path d="M13.5084 21.2925C13.3794 21.1691 13.2843 21.0146 13.2324 20.8438C13.2897 20.911 13.3388 20.9847 13.3788 21.0634C13.4307 21.1345 13.4742 21.2114 13.5084 21.2925Z" fill="#EBEBEB"/>
<path d="M13.5845 20.7787C13.5242 20.7143 13.4748 20.6405 13.4381 20.5603C13.3898 20.4864 13.3534 20.4054 13.3301 20.3203C13.3911 20.3841 13.4407 20.458 13.4765 20.5387C13.5254 20.6123 13.5618 20.6933 13.5845 20.7787Z" fill="#EBEBEB"/>
<path d="M13.722 20.1936C13.6601 20.113 13.6063 20.0266 13.5612 19.9356C13.504 19.8515 13.4553 19.7618 13.416 19.668C13.4903 19.7368 13.552 19.818 13.5984 19.908C13.6574 19.9944 13.6993 20.0914 13.722 20.1936Z" fill="#EBEBEB"/>
<path d="M13.8125 19.6913C13.7423 19.5962 13.68 19.4955 13.6265 19.3901C13.5607 19.2913 13.5037 19.1869 13.4561 19.0781C13.5402 19.1629 13.6103 19.2605 13.6637 19.3673C13.7306 19.4665 13.7809 19.5759 13.8125 19.6913Z" fill="#EBEBEB"/>
<path d="M20.4526 21.7918L20.839 22.3546C20.8509 22.372 20.8668 22.3862 20.8854 22.396C20.904 22.4058 20.9247 22.411 20.9458 22.411H21.6274C21.6517 22.4112 21.6754 22.4181 21.696 22.431C21.7166 22.4439 21.7332 22.4623 21.7439 22.4841C21.7546 22.5059 21.759 22.5303 21.7567 22.5545C21.7543 22.5786 21.7453 22.6017 21.7306 22.621L21.3154 23.161C21.3022 23.1777 21.2935 23.1975 21.2899 23.2184C21.2863 23.2394 21.2881 23.2609 21.295 23.281L21.5038 23.929C21.5112 23.9522 21.512 23.977 21.5061 24.0006C21.5002 24.0242 21.4878 24.0457 21.4703 24.0627C21.4529 24.0796 21.431 24.0914 21.4073 24.0966C21.3835 24.1018 21.3587 24.1003 21.3358 24.0922L20.6938 23.8642C20.6739 23.857 20.6526 23.8548 20.6317 23.8577C20.6108 23.8607 20.5909 23.8687 20.5738 23.881L20.0218 24.2806C20.002 24.295 19.9787 24.3035 19.9543 24.3052C19.93 24.307 19.9056 24.3019 19.884 24.2905C19.8625 24.2792 19.8445 24.262 19.8321 24.2409C19.8198 24.2199 19.8136 24.1958 19.8142 24.1714L19.8334 23.491C19.8339 23.4698 19.8293 23.4488 19.8199 23.4298C19.8105 23.4107 19.7966 23.3943 19.7794 23.3818L19.2286 22.9798C19.2091 22.9653 19.194 22.9457 19.185 22.9231C19.1761 22.9006 19.1735 22.8759 19.1778 22.852C19.182 22.8281 19.1928 22.8058 19.209 22.7877C19.2252 22.7696 19.2461 22.7563 19.2694 22.7494L19.9198 22.561C19.9402 22.5553 19.9589 22.5447 19.9741 22.53C19.9894 22.5154 20.0008 22.4972 20.0074 22.477L20.2186 21.829C20.2255 21.8051 20.239 21.7837 20.2576 21.7672C20.2763 21.7507 20.2992 21.7399 20.3238 21.736C20.3483 21.7321 20.3735 21.7353 20.3963 21.7452C20.4191 21.755 20.4386 21.7712 20.4526 21.7918Z" fill="#1F59AF"/>
<path d="M50.6027 35.5099L51.0827 35.7595C51.0976 35.7672 51.114 35.7712 51.1307 35.7712C51.1474 35.7712 51.1639 35.7672 51.1787 35.7595L51.6587 35.5039C51.6759 35.495 51.6952 35.4911 51.7145 35.4925C51.7338 35.4939 51.7523 35.5006 51.768 35.512C51.7837 35.5233 51.7959 35.5387 51.8033 35.5566C51.8107 35.5745 51.813 35.594 51.8099 35.6131L51.7211 36.1483C51.7185 36.1651 51.72 36.1823 51.7254 36.1984C51.7309 36.2144 51.7401 36.229 51.7523 36.2407L52.1435 36.6175C52.1577 36.631 52.1677 36.6482 52.1726 36.6671C52.1775 36.686 52.177 36.7059 52.1711 36.7245C52.1652 36.7431 52.1542 36.7597 52.1394 36.7724C52.1245 36.7851 52.1064 36.7934 52.0871 36.7963L51.5495 36.8767C51.5328 36.8792 51.517 36.8858 51.5034 36.8958C51.4898 36.9058 51.4788 36.9191 51.4715 36.9343L51.2315 37.4227C51.2231 37.4403 51.2099 37.455 51.1935 37.4654C51.177 37.4757 51.158 37.4812 51.1385 37.4812C51.1191 37.4812 51.1001 37.4757 51.0836 37.4654C51.0672 37.455 51.054 37.4403 51.0455 37.4227L50.8055 36.9367C50.7978 36.9217 50.7866 36.9087 50.7728 36.8989C50.759 36.8891 50.7431 36.8827 50.7263 36.8803L50.1887 36.8047C50.1695 36.8023 50.1513 36.7944 50.1363 36.7821C50.1213 36.7698 50.1101 36.7534 50.1039 36.735C50.0978 36.7166 50.097 36.6968 50.1016 36.6779C50.1062 36.6591 50.116 36.6419 50.1299 36.6283L50.5175 36.2467C50.5294 36.2347 50.5381 36.2201 50.5431 36.204C50.5482 36.188 50.5492 36.1709 50.5463 36.1543L50.4515 35.6191C50.448 35.5999 50.45 35.5801 50.4572 35.562C50.4645 35.5438 50.4768 35.5281 50.4926 35.5167C50.5084 35.5053 50.5272 35.4986 50.5467 35.4974C50.5662 35.4962 50.5856 35.5005 50.6027 35.5099Z" fill="#1F59AF"/>
<path d="M23.6719 19.4948L23.7739 19.8056C23.7775 19.8149 23.7831 19.8233 23.7904 19.8302C23.7976 19.8371 23.8064 19.8422 23.8159 19.8452L24.1291 19.9376C24.1403 19.9408 24.1504 19.9472 24.1582 19.9559C24.1659 19.9646 24.1711 19.9753 24.1731 19.9868C24.1751 19.9983 24.1739 20.0101 24.1695 20.0209C24.1651 20.0317 24.1578 20.0411 24.1483 20.048L23.8855 20.24C23.8772 20.246 23.8705 20.254 23.866 20.2632C23.8614 20.2724 23.859 20.2825 23.8591 20.2928L23.8687 20.6192C23.8693 20.6308 23.8665 20.6424 23.8607 20.6526C23.8549 20.6627 23.8464 20.671 23.836 20.6764C23.8257 20.6819 23.814 20.6842 23.8023 20.6832C23.7907 20.6822 23.7796 20.6779 23.7703 20.6708L23.5051 20.48C23.4968 20.4743 23.4873 20.4705 23.4773 20.4691C23.4673 20.4676 23.4571 20.4685 23.4475 20.4716L23.1403 20.582C23.1293 20.5859 23.1175 20.5867 23.1061 20.5842C23.0947 20.5817 23.0842 20.5761 23.0758 20.568C23.0674 20.5599 23.0615 20.5496 23.0587 20.5383C23.0559 20.5269 23.0563 20.5151 23.0599 20.504L23.1595 20.1932C23.1624 20.1835 23.1631 20.1732 23.1614 20.1632C23.1598 20.1533 23.1558 20.1438 23.1499 20.1356L22.9507 19.8776C22.9435 19.8684 22.9391 19.8573 22.9378 19.8457C22.9366 19.834 22.9387 19.8223 22.9438 19.8118C22.949 19.8013 22.9569 19.7924 22.9668 19.7862C22.9768 19.78 22.9882 19.7768 22.9999 19.7768H23.3263C23.3362 19.7769 23.346 19.7745 23.3548 19.7699C23.3636 19.7653 23.3712 19.7586 23.3767 19.7504L23.5615 19.4804C23.568 19.4708 23.577 19.4633 23.5875 19.4586C23.5981 19.4539 23.6097 19.4522 23.6211 19.4536C23.6326 19.4551 23.6434 19.4598 23.6523 19.467C23.6613 19.4743 23.6681 19.4839 23.6719 19.4948Z" fill="#1F59AF"/>
<path d="M32.6496 17.6949L36.7464 25.9965C36.8739 26.2542 37.0621 26.477 37.2947 26.6459C37.5273 26.8148 37.7975 26.9247 38.082 26.9661L47.2428 28.2969C47.5705 28.3444 47.8784 28.4826 48.1316 28.696C48.3848 28.9095 48.5733 29.1895 48.6755 29.5044C48.7778 29.8194 48.7899 30.1567 48.7104 30.4782C48.6308 30.7996 48.4629 31.0924 48.2256 31.3233L41.5968 37.7841C41.3911 37.985 41.2372 38.2327 41.1484 38.5061C41.0595 38.7795 41.0384 39.0704 41.0868 39.3537L43.734 49.0425C43.8036 50.3001 41.8296 51.1557 40.0788 50.3469L31.8852 46.0401C31.6309 45.9059 31.3477 45.8358 31.0602 45.8358C30.7726 45.8358 30.4895 45.9059 30.2352 46.0401L22.0416 50.3469C21.7487 50.5008 21.4186 50.5696 21.0886 50.5457C20.7586 50.5217 20.4419 50.406 20.1743 50.2115C19.9067 50.017 19.6988 49.7515 19.5741 49.4451C19.4494 49.1386 19.4129 48.8034 19.4688 48.4773L21.0288 39.3573C21.0781 39.0733 21.0576 38.7816 20.9689 38.5073C20.8803 38.233 20.7262 37.9844 20.52 37.7829L13.8948 31.3233C13.6574 31.0922 13.4895 30.7993 13.4101 30.4776C13.3307 30.156 13.343 29.8186 13.4455 29.5035C13.5481 29.1885 13.7368 28.9085 13.9903 28.6953C14.2439 28.482 14.552 28.344 14.88 28.2969L24.0408 26.9661C24.3251 26.9248 24.5952 26.8149 24.8276 26.646C25.0601 26.4771 25.248 26.2542 25.3752 25.9965L29.358 17.9277C29.8536 16.9233 30.456 16.5273 32.358 16.5273C32.9832 16.5273 32.3244 17.0361 32.6496 17.6949Z" fill="#1F59AF"/>
<path opacity="0.3" d="M32.6496 17.6949L36.7464 25.9965C36.8739 26.2542 37.0621 26.477 37.2947 26.6459C37.5273 26.8148 37.7975 26.9247 38.082 26.9661L47.2428 28.2969C47.5705 28.3444 47.8784 28.4826 48.1316 28.696C48.3848 28.9095 48.5733 29.1895 48.6755 29.5044C48.7778 29.8194 48.7899 30.1567 48.7104 30.4782C48.6308 30.7996 48.4629 31.0924 48.2256 31.3233L41.5968 37.7841C41.3911 37.985 41.2372 38.2327 41.1484 38.5061C41.0595 38.7795 41.0384 39.0704 41.0868 39.3537L43.734 49.0425C43.8036 50.3001 41.8296 51.1557 40.0788 50.3469L31.8852 46.0401C31.6309 45.9059 31.3477 45.8358 31.0602 45.8358C30.7726 45.8358 30.4895 45.9059 30.2352 46.0401L22.0416 50.3469C21.7487 50.5008 21.4186 50.5696 21.0886 50.5457C20.7586 50.5217 20.4419 50.406 20.1743 50.2115C19.9067 50.017 19.6988 49.7515 19.5741 49.4451C19.4494 49.1386 19.4129 48.8034 19.4688 48.4773L21.0288 39.3573C21.0781 39.0733 21.0576 38.7816 20.9689 38.5073C20.8803 38.233 20.7262 37.9844 20.52 37.7829L13.8948 31.3233C13.6574 31.0922 13.4895 30.7993 13.4101 30.4776C13.3307 30.156 13.343 29.8186 13.4455 29.5035C13.5481 29.1885 13.7368 28.9085 13.9903 28.6953C14.2439 28.482 14.552 28.344 14.88 28.2969L24.0408 26.9661C24.3251 26.9248 24.5952 26.8149 24.8276 26.646C25.0601 26.4771 25.248 26.2542 25.3752 25.9965L29.358 17.9277C29.8536 16.9233 30.456 16.5273 32.358 16.5273C32.9832 16.5273 32.3244 17.0361 32.6496 17.6949Z" fill="black"/>
<path d="M21.5727 37.6399C21.3788 37.692 21.1802 37.7245 20.9799 37.7371C20.7817 37.7698 20.5806 37.7818 20.3799 37.7731C20.5736 37.7203 20.7723 37.6873 20.9727 37.6747C21.1709 37.6421 21.372 37.6304 21.5727 37.6399Z" fill="#1F59AF"/>
<path d="M21.758 38.413C21.6558 38.4562 21.5462 38.4794 21.4352 38.4814C21.3267 38.5028 21.215 38.5028 21.1064 38.4814C21.2091 38.4397 21.3185 38.4169 21.4292 38.4142C21.5378 38.3936 21.6493 38.3932 21.758 38.413Z" fill="#1F59AF"/>
<path d="M21.0004 36.9701C20.7873 37.025 20.5696 37.0599 20.35 37.0745C20.1326 37.1092 19.9124 37.1237 19.6924 37.1177C19.9052 37.0614 20.1231 37.0264 20.3428 37.0133C20.5602 36.9785 20.7803 36.9641 21.0004 36.9701Z" fill="#1F59AF"/>
<path d="M20.3568 36.3334C20.144 36.3897 19.9262 36.4246 19.7064 36.4378C19.489 36.4725 19.2689 36.487 19.0488 36.481C19.2616 36.4247 19.4795 36.3897 19.6992 36.3766C19.9166 36.3418 20.1368 36.3273 20.3568 36.3334Z" fill="#1F59AF"/>
<path d="M19.7152 35.6927C19.5024 35.749 19.2846 35.784 19.0648 35.7971C18.8474 35.8319 18.6273 35.8463 18.4072 35.8403C18.6203 35.7854 18.8381 35.7505 19.0576 35.7359C19.275 35.7012 19.4952 35.6867 19.7152 35.6927Z" fill="#1F59AF"/>
<path d="M19.0726 35.0521C18.8598 35.1085 18.642 35.1439 18.4222 35.1577C18.2048 35.1917 17.9847 35.2058 17.7646 35.1997C17.9777 35.1448 18.1955 35.1098 18.4151 35.0953C18.6324 35.0606 18.8526 35.0461 19.0726 35.0521Z" fill="#1F59AF"/>
<path d="M18.431 34.4115C18.2182 34.4679 18.0004 34.5032 17.7806 34.5171C17.5632 34.5511 17.3431 34.5652 17.123 34.5591C17.3361 34.5042 17.5539 34.4692 17.7734 34.4547C17.9908 34.4199 18.211 34.4055 18.431 34.4115Z" fill="#1F59AF"/>
<path d="M17.7885 33.7754C17.5754 33.8303 17.3576 33.8653 17.1381 33.8798C16.9207 33.9146 16.7005 33.9286 16.4805 33.9218C16.6936 33.8669 16.9113 33.8319 17.1309 33.8174C17.3482 33.7819 17.5684 33.7679 17.7885 33.7754Z" fill="#1F59AF"/>
<path d="M17.1469 33.1348C16.9338 33.1897 16.716 33.2246 16.4965 33.2392C16.2791 33.274 16.0589 33.288 15.8389 33.2812C16.052 33.2263 16.2697 33.1913 16.4893 33.1768C16.7066 33.1413 16.9268 33.1273 17.1469 33.1348Z" fill="#1F59AF"/>
<path d="M16.5043 32.4942C16.2912 32.5491 16.0735 32.584 15.8539 32.5986C15.6366 32.634 15.4163 32.6481 15.1963 32.6406C15.4094 32.5856 15.6271 32.5507 15.8467 32.5362C16.064 32.5007 16.2842 32.4866 16.5043 32.4942Z" fill="#1F59AF"/>
<path d="M14.6186 29.7131C14.4184 29.7534 14.2145 29.7727 14.0102 29.7707C13.807 29.7901 13.6022 29.7881 13.3994 29.7647C13.5999 29.7258 13.8036 29.7069 14.0078 29.7083C14.2111 29.6895 14.4157 29.6911 14.6186 29.7131Z" fill="#1F59AF"/>
<path d="M14.8167 29.0349C14.6267 29.0619 14.4343 29.0676 14.2431 29.0517C14.0516 29.0567 13.8601 29.0414 13.6719 29.0061C13.8618 28.979 14.0542 28.9734 14.2455 28.9893C14.437 28.9843 14.6284 28.9995 14.8167 29.0349Z" fill="#1F59AF"/>
<path d="M15.4409 28.3911C15.2919 28.426 15.1388 28.4397 14.9861 28.4319C14.8341 28.4456 14.681 28.438 14.5312 28.4091C14.68 28.3757 14.8326 28.3624 14.9849 28.3695C15.1371 28.3566 15.2905 28.3638 15.4409 28.3911Z" fill="#1F59AF"/>
<path d="M15.8627 31.8535C15.6496 31.9084 15.4319 31.9434 15.2123 31.9579C14.995 31.9934 14.7747 32.0075 14.5547 31.9999C14.7678 31.945 14.9855 31.9101 15.2051 31.8955C15.4224 31.8601 15.6426 31.846 15.8627 31.8535Z" fill="#1F59AF"/>
<path d="M15.2926 31.1654C15.0793 31.2216 14.8611 31.2569 14.641 31.271C14.4235 31.305 14.2034 31.3191 13.9834 31.313C14.1965 31.2581 14.4142 31.2231 14.6338 31.2086C14.8516 31.1738 15.0721 31.1594 15.2926 31.1654Z" fill="#1F59AF"/>
<path d="M14.76 30.4819C14.5477 30.5368 14.3308 30.5717 14.112 30.5863C13.8958 30.621 13.6768 30.6351 13.458 30.6283C13.6699 30.5734 13.8864 30.5384 14.1048 30.5239C14.3215 30.4898 14.5408 30.4758 14.76 30.4819Z" fill="#1F59AF"/>
<path d="M40.7996 49.5039C40.6333 49.6156 40.4559 49.7101 40.2704 49.7859C40.0935 49.8801 39.9073 49.9557 39.7148 50.0115C40.0563 49.8055 40.4183 49.6354 40.7948 49.5039H40.7996Z" fill="#1F59AF"/>
<path d="M41.2227 50.1797C41.1393 50.2522 41.0433 50.3087 40.9395 50.3465C40.8441 50.4023 40.7391 50.4397 40.6299 50.4569C40.8081 50.3277 41.0093 50.2337 41.2227 50.1797Z" fill="#1F59AF"/>
<path d="M40.0405 49.0547C39.856 49.175 39.6608 49.2778 39.4573 49.3619C39.2626 49.4649 39.0585 49.5489 38.8477 49.6127C39.2268 49.3895 39.6262 49.2027 40.0405 49.0547Z" fill="#1F59AF"/>
<path d="M39.228 48.6523C38.8492 48.8766 38.4498 49.0638 38.0352 49.2115C38.2194 49.0906 38.4147 48.9873 38.6184 48.9031C38.8133 48.8007 39.0174 48.7168 39.228 48.6523Z" fill="#1F59AF"/>
<path d="M38.4145 48.2539C38.2304 48.3747 38.0351 48.4776 37.8313 48.5611C37.6365 48.6642 37.4324 48.7486 37.2217 48.8131C37.4058 48.6919 37.6011 48.5886 37.8049 48.5047C37.9999 48.4025 38.204 48.3186 38.4145 48.2539Z" fill="#1F59AF"/>
<path d="M37.602 47.8516C37.2232 48.0758 36.8238 48.263 36.4092 48.4108C36.7886 48.1878 37.1879 48.0006 37.602 47.8516Z" fill="#1F59AF"/>
<path d="M36.7885 47.4531C36.6043 47.5741 36.409 47.6774 36.2053 47.7615C36.0104 47.8639 35.8063 47.9479 35.5957 48.0123C35.7799 47.8913 35.9752 47.7881 36.1789 47.7039C36.3738 47.6015 36.5779 47.5176 36.7885 47.4531Z" fill="#1F59AF"/>
<path d="M35.975 47.0547C35.5962 47.2785 35.1968 47.4653 34.7822 47.6127C34.9668 47.4927 35.162 47.3898 35.3654 47.3055C35.5602 47.2027 35.7643 47.1187 35.975 47.0547Z" fill="#1F59AF"/>
<path d="M35.1596 46.6523C34.7808 46.8766 34.3814 47.0638 33.9668 47.2115C34.1509 47.0907 34.3462 46.9878 34.55 46.9043C34.7448 46.8013 34.9489 46.7169 35.1596 46.6523Z" fill="#1F59AF"/>
<path d="M34.3491 46.2539C34.1649 46.3747 33.9696 46.4776 33.7659 46.5611C33.5711 46.6642 33.367 46.7486 33.1562 46.8131C33.535 46.5889 33.9344 46.4016 34.3491 46.2539Z" fill="#1F59AF"/>
<path d="M33.5366 45.8516C33.1574 46.0747 32.7581 46.2616 32.3438 46.4096C32.5282 46.2893 32.7234 46.1864 32.927 46.1024C33.1216 45.9993 33.3258 45.9154 33.5366 45.8516Z" fill="#1F59AF"/>
<path d="M32.7748 45.3828C32.5906 45.5038 32.3953 45.6071 32.1916 45.6912C31.9967 45.7936 31.7926 45.8776 31.582 45.942C31.9608 45.7178 32.3602 45.5305 32.7748 45.3828Z" fill="#1F59AF"/>
<path d="M31.7761 45.0391C31.6926 45.1124 31.5962 45.1694 31.4917 45.2071C31.3954 45.2631 31.2897 45.3009 31.1797 45.3187C31.2635 45.2452 31.3604 45.1882 31.4653 45.1507C31.5612 45.0947 31.6665 45.0569 31.7761 45.0391Z" fill="#1F59AF"/>
<path d="M33.941 17.5143L38.0402 25.8147C38.1671 26.0725 38.355 26.2956 38.5875 26.4645C38.82 26.6335 39.0902 26.7432 39.3746 26.7843L48.5354 28.1163C48.8629 28.1636 49.1706 28.3017 49.4237 28.5149C49.6768 28.7281 49.8651 29.0079 49.9674 29.3226C50.0696 29.6373 50.0818 29.9743 50.0024 30.2956C49.923 30.6168 49.7553 30.9094 49.5182 31.1403L42.8894 37.6023C42.6836 37.803 42.5296 38.0507 42.4407 38.3241C42.3519 38.5976 42.3309 38.8885 42.3794 39.1719L43.9394 48.2919C43.9954 48.6177 43.9592 48.9528 43.8347 49.2591C43.7103 49.5655 43.5026 49.8309 43.2352 50.0254C42.9678 50.2199 42.6513 50.3357 42.3215 50.3598C41.9917 50.3838 41.6618 50.3151 41.369 50.1615L33.1754 45.8547C32.9211 45.7205 32.638 45.6503 32.3504 45.6503C32.0629 45.6503 31.7797 45.7205 31.5254 45.8547L23.3318 50.1615C23.0393 50.3151 22.7096 50.384 22.3801 50.3602C22.0505 50.3364 21.7341 50.221 21.4667 50.0269C21.1992 49.8329 20.9913 49.5679 20.8665 49.2619C20.7417 48.956 20.7049 48.6212 20.7602 48.2955L22.3202 39.1755C22.3688 38.8921 22.3478 38.6012 22.2589 38.3277C22.1701 38.0543 22.0161 37.8066 21.8102 37.6059L15.1814 31.1439C14.9444 30.913 14.7766 30.6204 14.6973 30.2992C14.6179 29.9779 14.63 29.6409 14.7323 29.3262C14.8346 29.0115 15.0229 28.7317 15.276 28.5185C15.529 28.3053 15.8367 28.1672 16.1642 28.1199L25.325 26.7879C25.6095 26.7468 25.8797 26.6371 26.1122 26.4681C26.3447 26.2992 26.5325 26.0761 26.6594 25.8183L30.7562 17.5179C30.9019 17.2199 31.1283 16.9688 31.4096 16.793C31.6909 16.6172 32.0158 16.5238 32.3475 16.5234C32.6792 16.5231 33.0044 16.6157 33.286 16.7909C33.5677 16.966 33.7946 17.2166 33.941 17.5143Z" fill="#1F59AF"/>
<path d="M26.2473 26.3147C26.1373 26.147 26.0448 25.9685 25.9713 25.7819C25.8791 25.6036 25.8059 25.4162 25.7529 25.2227C25.863 25.3903 25.9555 25.5688 26.0289 25.7555C26.1211 25.9337 26.1943 26.1211 26.2473 26.3147Z" fill="#1F59AF"/>
<path d="M25.5671 26.7331C25.4955 26.6488 25.4401 26.552 25.4039 26.4475C25.3487 26.3516 25.3121 26.2462 25.2959 26.1367C25.369 26.2201 25.4249 26.3172 25.4603 26.4223C25.5148 26.5184 25.551 26.6238 25.5671 26.7331Z" fill="#1F59AF"/>
<path d="M26.706 25.5633C26.5878 25.3775 26.4874 25.1811 26.406 24.9765C26.3058 24.7806 26.2254 24.5752 26.166 24.3633C26.2842 24.549 26.3847 24.7455 26.466 24.9501C26.565 25.1465 26.6453 25.3518 26.706 25.5633Z" fill="#1F59AF"/>
<path d="M27.1203 24.7574C27.0014 24.5719 26.9005 24.3754 26.8191 24.1706C26.7203 23.9745 26.6399 23.7696 26.5791 23.5586C26.6974 23.7444 26.7983 23.9409 26.8803 24.1454C26.9791 24.3415 27.0595 24.5464 27.1203 24.7574Z" fill="#1F59AF"/>
<path d="M27.5254 23.95C27.4071 23.7643 27.3067 23.5678 27.2254 23.3632C27.1264 23.1667 27.046 22.9614 26.9854 22.75C27.1036 22.9357 27.204 23.1322 27.2854 23.3368C27.3843 23.5333 27.4647 23.7386 27.5254 23.95Z" fill="#1F59AF"/>
<path d="M27.9357 23.1414C27.8177 22.9554 27.7169 22.759 27.6345 22.5546C27.5358 22.358 27.4554 22.1528 27.3945 21.9414C27.5134 22.1269 27.6143 22.3234 27.6957 22.5282C27.7947 22.7247 27.875 22.93 27.9357 23.1414Z" fill="#1F59AF"/>
<path d="M28.3459 22.3316C28.2264 22.1464 28.1256 21.9498 28.0447 21.7448C27.9461 21.5486 27.8657 21.3437 27.8047 21.1328C27.9232 21.3184 28.0237 21.5149 28.1047 21.7196C28.2042 21.9156 28.285 22.1205 28.3459 22.3316Z" fill="#1F59AF"/>
<path d="M28.7558 21.5242C28.6376 21.3385 28.5372 21.142 28.4558 20.9374C28.3562 20.7412 28.2759 20.5359 28.2158 20.3242C28.334 20.51 28.4345 20.7064 28.5158 20.911C28.6148 21.1075 28.6951 21.3128 28.7558 21.5242Z" fill="#1F59AF"/>
<path d="M29.1662 20.7144C29.0479 20.5286 28.947 20.3321 28.865 20.1276C28.7662 19.9315 28.6858 19.7266 28.625 19.5156C28.7433 19.7015 28.8442 19.8979 28.9262 20.1024C29.025 20.2985 29.1054 20.5034 29.1662 20.7144Z" fill="#1F59AF"/>
<path d="M29.5752 19.907C29.4587 19.7211 29.3598 19.5246 29.28 19.3202C29.1811 19.1238 29.1007 18.9185 29.04 18.707C29.1583 18.8928 29.2587 19.0892 29.34 19.2938C29.438 19.4902 29.5167 19.6955 29.5752 19.907Z" fill="#1F59AF"/>
<path d="M29.9853 19.1011C29.8671 18.9154 29.7667 18.7189 29.6853 18.5143C29.5862 18.3184 29.5059 18.1134 29.4453 17.9023C29.5648 18.0876 29.6656 18.2841 29.7465 18.4891C29.8449 18.6853 29.9249 18.8902 29.9853 19.1011Z" fill="#1F59AF"/>
<path d="M30.4629 18.3445C30.3446 18.1588 30.2442 17.9623 30.1629 17.7577C30.0639 17.5613 29.9835 17.356 29.9229 17.1445C30.0411 17.3303 30.1415 17.5267 30.2229 17.7313C30.3224 17.9275 30.4028 18.1329 30.4629 18.3445Z" fill="#1F59AF"/>
<path d="M30.8232 17.35C30.7501 17.2659 30.6939 17.1685 30.6576 17.0632C30.603 16.9663 30.5668 16.8601 30.5508 16.75C30.6243 16.8362 30.6816 16.935 30.72 17.0416C30.7724 17.1375 30.8074 17.2419 30.8232 17.35Z" fill="#1F59AF"/>
<path d="M31.1717 18.0586C31.1873 18.067 30.2501 19.9402 29.0789 22.243C27.9077 24.5458 26.9465 26.401 26.9309 26.401C26.9153 26.401 27.8525 24.5206 29.0237 22.2166C30.1949 19.9126 31.1561 18.0514 31.1717 18.0586Z" fill="white"/>
<path d="M24.9598 27.6177C24.9598 27.6177 24.925 27.6249 24.859 27.6345L24.5662 27.6729L23.4922 27.8001L19.9486 28.2021L17.9998 28.4109C17.6998 28.4433 17.4142 28.4721 17.1514 28.5213C16.9078 28.5631 16.6707 28.6361 16.4458 28.7385C16.1172 28.887 15.8471 29.1402 15.6778 29.4585C15.6216 29.5775 15.5813 29.7034 15.5578 29.8329C15.5563 29.8242 15.5563 29.8152 15.5578 29.8065C15.5578 29.7885 15.5578 29.7633 15.5662 29.7297C15.5836 29.6323 15.6135 29.5375 15.655 29.4477C15.8195 29.1183 16.0912 28.8546 16.4254 28.7001C16.6542 28.5926 16.8963 28.5159 17.1454 28.4721C17.4106 28.4193 17.6974 28.3881 17.9974 28.3521L19.9498 28.1361L23.4994 27.7557L24.5794 27.6477L24.8722 27.6213C24.9012 27.6176 24.9305 27.6164 24.9598 27.6177Z" fill="white"/>
<path d="M40.4803 49.2104C40.4719 49.2248 39.3031 48.5816 37.8691 47.7704C36.4351 46.9592 35.2807 46.2932 35.2891 46.2776C35.2975 46.262 36.4663 46.9064 37.9003 47.7176C39.3343 48.5288 40.4887 49.1996 40.4803 49.2104Z" fill="white"/>
<path d="M33.6309 45.3612C33.4373 45.2785 33.2365 45.2138 33.0309 45.168C32.5277 45.0795 32.0105 45.1124 31.5225 45.264C31.0333 45.4215 30.5628 45.6324 30.1197 45.8928L29.7129 46.1232C29.6648 46.1542 29.6138 46.1803 29.5605 46.2012C29.6043 46.1639 29.6513 46.1306 29.7009 46.1016C29.7933 46.0416 29.9277 45.9564 30.0969 45.8556C30.5356 45.5826 31.0064 45.3649 31.4985 45.2076C31.9952 45.0522 32.5231 45.0246 33.0333 45.1272C33.1865 45.1616 33.3354 45.2127 33.4773 45.2796C33.5164 45.2969 33.5541 45.3169 33.5901 45.3396C33.6189 45.354 33.6321 45.3612 33.6309 45.3612Z" fill="white"/>
<path d="M49.6128 24.4044L50.9232 23.9988C51.653 24.4802 52.5364 24.6711 53.3998 24.5342C54.2632 24.3972 55.0442 23.9422 55.5892 23.2587C56.1341 22.5751 56.4037 21.7125 56.3449 20.8402C56.2861 19.968 55.9031 19.1493 55.2713 18.5451C54.6395 17.9409 53.8045 17.5949 52.9305 17.5751C52.0566 17.5553 51.2068 17.8632 50.5482 18.4381C49.8897 19.0131 49.4701 19.8136 49.3718 20.6822C49.2735 21.5509 49.5038 22.4249 50.0172 23.1324L49.6128 24.4044Z" fill="white"/>
<path d="M49.613 24.4042C49.613 24.4042 49.619 24.3778 49.6358 24.3238L49.709 24.0838L50.0018 23.1238C50.0024 23.122 50.0033 23.1203 50.0045 23.1188C50.0057 23.1174 50.0072 23.1162 50.0088 23.1153C50.0105 23.1144 50.0123 23.1138 50.0142 23.1136C50.0161 23.1135 50.018 23.1136 50.0198 23.1142L49.9994 23.1334C49.6433 22.6497 49.4184 22.0821 49.3466 21.4858C49.2509 20.675 49.4392 19.8561 49.8794 19.1686C50.1352 18.7727 50.4667 18.4313 50.855 18.1642C51.2735 17.8769 51.7492 17.6836 52.2494 17.5978C52.7805 17.511 53.3243 17.5447 53.8406 17.6962C54.1068 17.7756 54.3632 17.8847 54.605 18.0214C55.0923 18.3113 55.5062 18.7096 55.8146 19.1854C55.9623 19.4203 56.083 19.6711 56.1746 19.933C56.3466 20.4401 56.4019 20.9795 56.3366 21.511C56.275 22.0129 56.1038 22.4951 55.835 22.9234C55.3576 23.693 54.6028 24.2497 53.7266 24.4786C53.3573 24.5731 52.9753 24.6079 52.595 24.5818C51.9948 24.5387 51.4159 24.3407 50.915 24.007H50.927L49.943 24.3058L49.6934 24.3802L49.6118 24.4042L50.9186 23.9794C50.9204 23.9782 50.9225 23.9776 50.9246 23.9776C50.9268 23.9776 50.9289 23.9782 50.9306 23.9794C51.4298 24.3039 52.0035 24.4955 52.5974 24.5362C52.9727 24.5586 53.3492 24.5225 53.7134 24.4294C54.1206 24.3204 54.505 24.1395 54.8486 23.8954C55.2242 23.6266 55.5427 23.2861 55.7858 22.8934C56.0494 22.4717 56.2174 21.9974 56.2778 21.5038C56.3408 20.9814 56.2854 20.4515 56.1158 19.9534C55.8411 19.1656 55.2966 18.5004 54.5786 18.0754C54.341 17.9412 54.089 17.8341 53.8274 17.7562C53.3214 17.6072 52.7884 17.5731 52.2674 17.6566C51.7926 17.7384 51.3399 17.9177 50.9378 18.1831C50.5357 18.4484 50.1929 18.7942 49.931 19.1986C49.55 19.7855 49.3555 20.4739 49.373 21.1734C49.3906 21.873 49.6194 22.5508 50.0294 23.1178C50.0309 23.1208 50.0313 23.1241 50.0307 23.1274C50.0301 23.1306 50.0285 23.1336 50.0261 23.1359C50.0237 23.1382 50.0206 23.1396 50.0173 23.14C50.0141 23.1404 50.0107 23.1398 50.0078 23.1382L50.0306 23.1322C49.7666 23.9326 49.643 24.3106 49.613 24.4042Z" fill="#263238"/>
<path d="M53.5435 22.0624L53.5747 20.6464C53.5747 20.6464 53.2639 20.578 52.9951 20.1484C52.868 19.9515 52.7709 19.7367 52.7071 19.5112C52.6978 19.4745 52.6759 19.4423 52.6451 19.4204C52.6143 19.3984 52.5768 19.388 52.5391 19.3912C52.4924 19.3931 52.4472 19.4082 52.4088 19.4348C52.3703 19.4613 52.3402 19.4982 52.3219 19.5412C52.2223 19.7548 52.3555 20.2828 52.3555 20.2828C52.3555 20.2828 52.4107 20.3896 52.2631 20.386L51.7375 20.374C51.6691 20.3722 51.6024 20.3948 51.5491 20.4376C51.5212 20.4589 51.4992 20.4869 51.4849 20.519C51.4706 20.5511 51.4647 20.5862 51.4675 20.6212C51.4795 20.8216 51.5875 20.914 51.5815 20.956C51.5484 21.0315 51.5408 21.1158 51.5599 21.196C51.5995 21.316 51.6259 21.3088 51.6247 21.3664C51.6227 21.4667 51.6365 21.5667 51.6655 21.6628C51.6827 21.7115 51.7087 21.7567 51.7423 21.796C51.731 21.8974 51.7412 22 51.7723 22.0972C51.8227 22.2088 52.0423 22.2712 52.1155 22.2724C52.1887 22.2736 52.7155 22.1812 52.8667 22.1524C53.0179 22.1236 53.4007 21.9916 53.5435 22.0624Z" fill="#1F59AF"/>
<path d="M53.8108 20.619L53.7783 22.0742L54.3194 22.0863L54.3519 20.6311L53.8108 20.619Z" fill="#1F59AF"/>
<path d="M13.8123 35.9414H3.6123V41.3354H11.1123C11.3343 41.6762 11.8035 42.4526 11.8035 42.4526L12.3435 41.3354H13.8123V35.9414Z" fill="#FAFAFA"/>
<path d="M13.8124 35.9411C13.8124 35.9411 13.8124 35.9723 13.8124 36.0347C13.8124 36.0971 13.8124 36.1919 13.8124 36.3119C13.8124 36.5591 13.8124 36.9203 13.8124 37.3847C13.8124 38.3207 13.8196 39.6707 13.8244 41.3351V41.3579H13.8016H12.3328L12.3556 41.3434C12.1864 41.6938 12.0052 42.0718 11.8168 42.4606L11.7952 42.5051L11.77 42.4631L11.0788 41.3482L11.1016 41.3603H4.26159H3.5752V41.329C3.5752 39.4246 3.5752 37.6091 3.5752 35.9351V35.9062H3.604L10.9564 35.9183L13.0624 35.9279H13.6204H13.7632H13.6168H13.0552L10.9516 35.9375L3.6076 35.9495L3.6364 35.9206C3.6364 37.591 3.6364 39.4103 3.6364 41.3147L3.6052 41.2834H4.2676H11.1076H11.1232L11.1316 41.2967C11.3716 41.6855 11.6116 42.0635 11.8216 42.4151H11.7748C11.9632 42.0263 12.1456 41.6483 12.316 41.2979L12.3232 41.2834H12.3388H13.8076L13.7836 41.3075C13.7836 39.6491 13.7932 38.3075 13.7968 37.3703C13.7968 36.9047 13.7968 36.5423 13.7968 36.2903C13.7968 36.1703 13.7968 36.0743 13.7968 36.0095C13.7968 35.9447 13.8124 35.9411 13.8124 35.9411Z" fill="#263238"/>
<path d="M5.99229 38.5964C6.07745 38.5595 6.15008 38.4987 6.20141 38.4214C6.25274 38.3441 6.28055 38.2536 6.28149 38.1608C6.28534 38.1001 6.27681 38.0393 6.25642 37.9819C6.23603 37.9246 6.20421 37.8721 6.16288 37.8275C6.12155 37.7828 6.07158 37.7471 6.01601 37.7223C5.96044 37.6976 5.90042 37.6844 5.8396 37.6836C5.77878 37.6828 5.71843 37.6944 5.66222 37.7176C5.606 37.7408 5.55509 37.7752 5.51259 37.8187C5.47008 37.8622 5.43686 37.9139 5.41494 37.9707C5.39302 38.0274 5.38287 38.088 5.38509 38.1488C5.38274 38.2429 5.4081 38.3356 5.45803 38.4154C5.50795 38.4952 5.58024 38.5586 5.66589 38.5976C4.97589 38.696 5.00109 39.446 5.00109 39.446L6.63189 39.4676C6.63189 39.4676 6.67509 38.7044 5.99229 38.5964Z" fill="#1F59AF"/>
<path d="M12.3896 37.8357C12.3896 37.8454 11.3492 37.8539 10.0664 37.8539C8.78356 37.8539 7.74316 37.8454 7.74316 37.8357C7.74316 37.8261 8.78356 37.8164 10.0664 37.8164C11.3492 37.8164 12.3896 37.8249 12.3896 37.8357Z" fill="#263238"/>
<path d="M12.3896 38.3892C12.3896 38.4001 11.3492 38.4085 10.0664 38.4085C8.78356 38.4085 7.74316 38.4001 7.74316 38.3892C7.74316 38.3783 8.78356 38.3711 10.0664 38.3711C11.3492 38.3711 12.3896 38.3795 12.3896 38.3892Z" fill="#263238"/>
<path d="M12.3896 38.949C12.3896 38.9587 11.3492 38.9671 10.0664 38.9671C8.78356 38.9671 7.74316 38.9587 7.74316 38.949C7.74316 38.9393 8.78356 38.9297 10.0664 38.9297C11.3492 38.9297 12.3896 38.9381 12.3896 38.949Z" fill="#263238"/>
<path d="M10.5212 39.6521C10.5212 39.663 9.89956 39.6715 9.13276 39.6715C8.36596 39.6715 7.74316 39.663 7.74316 39.6521C7.74316 39.6413 8.36476 39.6328 9.13276 39.6328C9.90076 39.6328 10.5212 39.6413 10.5212 39.6521Z" fill="#263238"/>
</svg>
