<svg width="24" height="24" viewBox="0 0 24 24" fill="none" xmlns="http://www.w3.org/2000/svg">
<path d="M21.4002 9.70092V3.38281H2.41016V9.70092" stroke="#181A1E" stroke-linecap="round" stroke-linejoin="round"/>
<path d="M9.07952 13.4453C8.90062 13.4775 8.71832 13.4102 8.6034 13.2693C8.48848 13.1285 8.45906 12.9363 8.52658 12.7675L8.80225 12.0783L8.63406 12.0072C8.61363 12.02 8.59189 12.0338 8.56896 12.0486C8.40201 12.1568 8.17599 12.3175 7.94159 12.5259C7.46967 12.9454 7.01157 13.5152 6.87141 14.1982C6.87226 14.2011 6.87335 14.2046 6.87474 14.2087C6.88597 14.2415 6.90791 14.2862 6.94036 14.3379C6.94789 14.3499 6.95557 14.3617 6.96327 14.373C6.99276 14.378 7.02339 14.3835 7.05476 14.3895C7.20134 14.4178 7.38368 14.4607 7.57731 14.5155C7.95072 14.6212 8.42589 14.7877 8.7633 15.0101C9.45732 15.4677 9.86001 16.1928 10.0062 16.9021C10.088 17.2991 10.0948 17.7203 10.0092 18.1096H13.5722C13.5298 17.8339 13.4877 17.4907 13.4877 17.2014C13.4877 16.4537 13.7841 15.9179 14.087 15.5719L13.9184 15.4736C13.7547 15.3781 13.6591 15.1983 13.6714 15.0092C13.6837 14.8201 13.8018 14.6542 13.9765 14.5808L15.4665 13.9542L13.391 14.1699C13.1861 14.1912 12.9892 14.0846 12.8949 13.9015C12.8947 13.9012 12.8946 13.901 12.8945 13.9008M9.07952 13.4453L9.07955 13.4453M9.07952 13.4453C9.07953 13.4453 9.07954 13.4453 9.07955 13.4453M9.07952 13.4453L9.07955 13.4453M12.8945 13.9008L13.3394 13.6725C12.8945 13.9008 12.8945 13.9008 12.8946 13.9009L12.8946 13.9009L12.8945 13.9008ZM12.8945 13.9008L12.8916 13.8953C12.8887 13.8898 12.8838 13.8807 12.877 13.8686C12.8636 13.8442 12.843 13.8081 12.8162 13.7641C12.7619 13.6751 12.6855 13.5592 12.5946 13.4459C12.5019 13.3302 12.406 13.2323 12.3159 13.167C12.2231 13.0998 12.1735 13.0936 12.1623 13.0936C11.611 13.0936 10.8476 13.179 10.2041 13.2686C9.8862 13.3129 9.60424 13.3572 9.40184 13.3904C9.30072 13.407 9.21963 13.4208 9.16406 13.4305L9.10057 13.4415L9.08449 13.4444L9.0806 13.4451L9.07971 13.4453L9.07955 13.4453M14.1703 15.0417L14.747 14.7992L14.4223 14.6098L14.1703 15.0417ZM14.1703 15.0417L14.4711 15.2171C14.4194 15.2556 14.3621 15.3013 14.302 15.3549L14.1703 15.0417ZM17.9001 13.0936L18.3091 12.5936H17.6631L17.254 13.0936H17.9001ZM17.2325 13.2116L17.118 13.2598L17.0394 13.3559L17.4264 13.6725L17.2325 13.2116ZM16.5639 13.0936L16.7001 12.8099L16.2493 12.5936V13.0936H16.5639Z" stroke="#181A1E" stroke-linecap="round" stroke-linejoin="round"/>
<path d="M6.79297 17.5637H7.21802L7.95367 15.7164L8.3215 14.7927L7.7248 14.6211L7.41419 15.602L6.79297 17.5637Z" fill="#181A1E"/>
<path d="M16.9957 17.0703V17.7896C16.9957 17.7896 14.5313 17.7896 13.6348 17.5248C13.6348 16.7662 14.0485 15.8008 14.0485 15.8008L16.9957 17.0703Z" stroke="#181A1E" stroke-linecap="round" stroke-linejoin="round"/>
<circle cx="16.6998" cy="17.4517" r="1.84234" stroke="#181A1E"/>
<circle cx="7.01876" cy="17.5461" r="1.74923" stroke="#181A1E"/>
<circle cx="16.7016" cy="17.4516" r="0.627343" fill="#181A1E" stroke="#181A1E" stroke-linecap="round" stroke-linejoin="round"/>
<circle cx="7.01825" cy="17.5456" r="0.608094" fill="#181A1E" stroke="#181A1E" stroke-linecap="round" stroke-linejoin="round"/>
<path d="M9.24865 6.9021C9.24865 7.25176 9.01635 7.53522 8.72979 7.53522C8.44324 7.53522 8.21094 7.25176 8.21094 6.9021C8.21094 6.55244 8.72979 5.71094 8.72979 5.71094C8.72979 5.71094 9.24865 6.55244 9.24865 6.9021Z" fill="#181A1E"/>
<path d="M11.0006 8.87866C11.0006 9.22833 10.7683 9.51178 10.4817 9.51178C10.1952 9.51178 9.96289 9.22833 9.96289 8.87866C9.96289 8.529 10.4817 7.6875 10.4817 7.6875C10.4817 7.6875 11.0006 8.529 11.0006 8.87866Z" fill="#181A1E"/>
<path d="M12.7584 7.07788C12.7584 7.42754 12.5261 7.711 12.2396 7.711C11.953 7.711 11.7207 7.42754 11.7207 7.07788C11.7207 6.72822 12.2396 5.88672 12.2396 5.88672C12.2396 5.88672 12.7584 6.72822 12.7584 7.07788Z" fill="#181A1E"/>
<path d="M16.2721 6.92945C16.2721 7.27911 16.0398 7.56256 15.7532 7.56256C15.4667 7.56256 15.2344 7.27911 15.2344 6.92945C15.2344 6.57979 15.7532 5.73828 15.7532 5.73828C15.7532 5.73828 16.2721 6.57979 16.2721 6.92945Z" fill="#181A1E"/>
<path d="M14.5143 8.87866C14.5143 9.22833 14.282 9.51178 13.9954 9.51178C13.7089 9.51178 13.4766 9.22833 13.4766 8.87866C13.4766 8.529 13.9954 7.6875 13.9954 7.6875C13.9954 7.6875 14.5143 8.529 14.5143 8.87866Z" fill="#181A1E"/>
<path d="M18.026 8.73023C18.026 9.07989 17.7937 9.36334 17.5071 9.36334C17.2206 9.36334 16.9883 9.07989 16.9883 8.73023C16.9883 8.38057 17.5071 7.53906 17.5071 7.53906C17.5071 7.53906 18.026 8.38057 18.026 8.73023Z" fill="#181A1E"/>
<path d="M19.3483 7.07788C19.3483 7.42754 19.116 7.711 18.8294 7.711C18.5428 7.711 18.3105 7.42754 18.3105 7.07788C18.3105 6.72822 18.8294 5.88672 18.8294 5.88672C18.8294 5.88672 19.3483 6.72822 19.3483 7.07788Z" fill="#181A1E"/>
<path d="M7.49084 8.87866C7.49084 9.22833 7.25854 9.51178 6.97198 9.51178C6.68543 9.51178 6.45312 9.22833 6.45312 8.87866C6.45312 8.529 6.97198 7.6875 6.97198 7.6875C6.97198 7.6875 7.49084 8.529 7.49084 8.87866Z" fill="#181A1E"/>
<path d="M5.78967 7.07788C5.78967 7.42754 5.55737 7.711 5.27081 7.711C4.98425 7.711 4.75195 7.42754 4.75195 7.07788C4.75195 6.72822 5.27081 5.88672 5.27081 5.88672C5.27081 5.88672 5.78967 6.72822 5.78967 7.07788Z" fill="#181A1E"/>
<rect x="0.818359" y="9.70312" width="3.19023" height="1.33644" stroke="#181A1E" stroke-linecap="round" stroke-linejoin="round"/>
<rect x="0.816406" y="11.0391" width="3.19023" height="1.33644" stroke="#181A1E" stroke-linecap="round" stroke-linejoin="round"/>
<rect x="0.816406" y="12.3789" width="3.19023" height="1.33644" stroke="#181A1E" stroke-linecap="round" stroke-linejoin="round"/>
<rect x="0.8125" y="13.7148" width="3.19023" height="1.33644" stroke="#181A1E" stroke-linecap="round" stroke-linejoin="round"/>
<rect x="0.808594" y="16.3828" width="3.19023" height="1.33644" stroke="#181A1E" stroke-linecap="round" stroke-linejoin="round"/>
<rect x="0.816406" y="15.0469" width="3.19023" height="1.33644" stroke="#181A1E" stroke-linecap="round" stroke-linejoin="round"/>
<rect x="0.8125" y="17.7266" width="3.19023" height="1.33644" stroke="#181A1E" stroke-linecap="round" stroke-linejoin="round"/>
<rect x="19.8105" y="9.94141" width="3.19023" height="1.33644" stroke="#181A1E" stroke-linecap="round" stroke-linejoin="round"/>
<rect x="19.8086" y="11.2773" width="3.19023" height="1.33644" stroke="#181A1E" stroke-linecap="round" stroke-linejoin="round"/>
<rect x="19.8086" y="12.6172" width="3.19023" height="1.33644" stroke="#181A1E" stroke-linecap="round" stroke-linejoin="round"/>
<rect x="19.8047" y="13.9531" width="3.19023" height="1.33644" stroke="#181A1E" stroke-linecap="round" stroke-linejoin="round"/>
<rect x="19.8008" y="16.6211" width="3.19023" height="1.33644" stroke="#181A1E" stroke-linecap="round" stroke-linejoin="round"/>
<rect x="19.8086" y="15.2852" width="3.19023" height="1.33644" stroke="#181A1E" stroke-linecap="round" stroke-linejoin="round"/>
<rect x="19.8047" y="17.9648" width="3.19023" height="1.33644" stroke="#181A1E" stroke-linecap="round" stroke-linejoin="round"/>
<rect x="5" y="3" width="14" height="1" stroke="#181A1E" stroke-linecap="round" stroke-linejoin="round"/>
</svg>
