<svg width="31" height="28" viewBox="0 0 31 28" fill="none" xmlns="http://www.w3.org/2000/svg">
<path d="M8.43469 13.5051C8.58377 13.6878 8.82026 13.7752 9.05233 13.7333L9.05234 13.7333L9.05241 13.7333L9.05286 13.7332L9.05491 13.7329L9.06357 13.7313L9.09858 13.7251C9.12961 13.7196 9.17575 13.7115 9.23554 13.7012C9.35514 13.6805 9.52929 13.6508 9.74632 13.6152C10.1806 13.5439 10.7855 13.4488 11.4678 13.3538C12.8424 13.1624 14.4955 12.9764 15.7026 12.9764C15.8475 12.9764 16.0384 13.0408 16.2755 13.2126C16.5091 13.3819 16.7402 13.6216 16.9509 13.8844C17.1592 14.1441 17.3325 14.4073 17.4544 14.6073C17.5149 14.7067 17.5617 14.7888 17.5929 14.845C17.6084 14.8731 17.62 14.8945 17.6274 14.9084L17.6352 14.9231L17.6364 14.9255C17.6365 14.9256 17.6365 14.9257 17.6365 14.9257L17.6366 14.9258L17.6366 14.9259L17.6366 14.9259L17.6366 14.9259C17.7589 15.1638 18.0145 15.3022 18.2805 15.2746L23.651 14.7166C23.8752 14.6933 24.0712 14.5553 24.1687 14.3522L24.829 12.9764H27.7945L26.3876 15.9773L19.8941 16.9081C19.6209 16.9472 19.4024 17.1549 19.3495 17.4258C19.2966 17.6966 19.4209 17.9713 19.6593 18.1103L20.4803 18.5893C20.3706 18.6908 20.2568 18.8054 20.143 18.9337C19.5433 19.61 18.9479 20.6653 18.9479 22.1571C18.9479 22.8032 19.0526 23.5969 19.151 24.2062C19.1683 24.3134 19.1856 24.4161 19.2024 24.5126H10.5589C10.8652 23.6259 10.8972 22.5897 10.6939 21.6031C10.4001 20.1777 9.59343 18.736 8.22182 17.8318C7.55786 17.394 6.59554 17.0527 5.80813 16.8298C5.40543 16.7158 5.02812 16.6272 4.72823 16.5694C4.59911 16.5446 4.47964 16.5245 4.3758 16.5107C4.32351 16.442 4.26503 16.3601 4.20912 16.2709C4.12981 16.1445 4.06567 16.0193 4.02776 15.9085C3.9881 15.7925 3.99268 15.7376 3.99445 15.7284C4.30443 14.1165 5.37078 12.8049 6.42135 11.871C6.94066 11.4094 7.44056 11.054 7.81003 10.8146C7.93844 10.7314 8.05055 10.6625 8.14157 10.6084L9.07532 11.0035L8.33504 12.8542C8.24746 13.0731 8.28562 13.3224 8.43469 13.5051Z" stroke="white" stroke-width="1.29718" stroke-linecap="round" stroke-linejoin="round"/>
<path d="M4.25488 22.9256H5.16159L6.73088 18.9849L7.51553 17.0146L6.24265 16.6484L5.58006 18.7408L4.25488 22.9256Z" fill="white"/>
<path d="M20.0903 20.0348L25.3647 22.3068V22.76C25.3043 22.7592 25.2402 22.7582 25.173 22.7571C24.6544 22.7483 23.944 22.7308 23.1751 22.6959C21.8647 22.6363 20.4554 22.5283 19.5211 22.3451C19.5835 21.7604 19.7391 21.1338 19.905 20.5947C19.9687 20.3877 20.0324 20.1983 20.0903 20.0348Z" stroke="white" stroke-width="1.29718" stroke-linecap="round" stroke-linejoin="round"/>
<circle cx="25.3871" cy="22.6918" r="3.93005" stroke="white" stroke-width="1.29718"/>
<circle cx="4.73143" cy="22.8877" r="3.73143" stroke="white" stroke-width="1.29718"/>
<circle cx="25.3871" cy="22.6898" r="1.33824" fill="white" stroke="white" stroke-width="1.29718" stroke-linecap="round" stroke-linejoin="round"/>
<circle cx="4.73272" cy="22.8909" r="1.29718" fill="white" stroke="white" stroke-width="1.29718" stroke-linecap="round" stroke-linejoin="round"/>
<path d="M9.53883 2.78707C9.53883 3.53296 9.04329 4.13762 8.43201 4.13762C7.82073 4.13762 7.3252 3.53296 7.3252 2.78707C7.3252 2.04118 8.43201 0.246094 8.43201 0.246094C8.43201 0.246094 9.53883 2.04118 9.53883 2.78707Z" fill="white"/>
<path d="M13.7166 8.84957C13.7166 9.59546 13.221 10.2001 12.6097 10.2001C11.9985 10.2001 11.5029 9.59546 11.5029 8.84957C11.5029 8.10368 12.6097 6.30859 12.6097 6.30859C12.6097 6.30859 13.7166 8.10368 13.7166 8.84957Z" fill="white"/>
<path d="M17.8943 3.16207C17.8943 3.90796 17.3988 4.51262 16.7875 4.51262C16.1762 4.51262 15.6807 3.90796 15.6807 3.16207C15.6807 2.41618 16.7875 0.621094 16.7875 0.621094C16.7875 0.621094 17.8943 2.41618 17.8943 3.16207Z" fill="white"/>
<path d="M26.2498 2.84957C26.2498 3.59546 25.7542 4.20012 25.143 4.20012C24.5317 4.20012 24.0361 3.59546 24.0361 2.84957C24.0361 2.10368 25.143 0.308594 25.143 0.308594C25.143 0.308594 26.2498 2.10368 26.2498 2.84957Z" fill="white"/>
<path d="M22.073 8.84957C22.073 9.59546 21.5775 10.2001 20.9662 10.2001C20.3549 10.2001 19.8594 9.59546 19.8594 8.84957C19.8594 8.10368 20.9662 6.30859 20.9662 6.30859C20.9662 6.30859 22.073 8.10368 22.073 8.84957Z" fill="white"/>
<path d="M30.4275 8.53316C30.4275 9.27905 29.932 9.88372 29.3207 9.88372C28.7094 9.88372 28.2139 9.27905 28.2139 8.53316C28.2139 7.78727 29.3207 5.99219 29.3207 5.99219C29.3207 5.99219 30.4275 7.78727 30.4275 8.53316Z" fill="white"/>
<path d="M5.3611 8.84957C5.3611 9.59546 4.86556 10.2001 4.25428 10.2001C3.643 10.2001 3.14746 9.59546 3.14746 8.84957C3.14746 8.10368 4.25428 6.30859 4.25428 6.30859C4.25428 6.30859 5.3611 8.10368 5.3611 8.84957Z" fill="white"/>
</svg>
