<svg width="40" height="40" viewBox="0 0 40 40" fill="none" xmlns="http://www.w3.org/2000/svg">
<path d="M26.6667 22.5C27.3889 22.5 27.9861 22.2639 28.4583 21.7917C28.9306 21.3194 29.1667 20.7222 29.1667 20C29.1667 19.2778 28.9306 18.6806 28.4583 18.2083C27.9861 17.7361 27.3889 17.5 26.6667 17.5C25.9444 17.5 25.3472 17.7361 24.875 18.2083C24.4028 18.6806 24.1667 19.2778 24.1667 20C24.1667 20.7222 24.4028 21.3194 24.875 21.7917C25.3472 22.2639 25.9444 22.5 26.6667 22.5ZM8.33333 35C7.41667 35 6.63167 34.6739 5.97833 34.0217C5.32611 33.3683 5 32.5833 5 31.6667V8.33333C5 7.41667 5.32611 6.63167 5.97833 5.97833C6.63167 5.32611 7.41667 5 8.33333 5H31.6667C32.5833 5 33.3683 5.32611 34.0217 5.97833C34.6739 6.63167 35 7.41667 35 8.33333V12.5H31.6667V8.33333H8.33333V31.6667H31.6667V27.5H35V31.6667C35 32.5833 34.6739 33.3683 34.0217 34.0217C33.3683 34.6739 32.5833 35 31.6667 35H8.33333ZM21.6667 28.3333C20.75 28.3333 19.9656 28.0072 19.3133 27.355C18.66 26.7017 18.3333 25.9167 18.3333 25V15C18.3333 14.0833 18.66 13.2983 19.3133 12.645C19.9656 11.9928 20.75 11.6667 21.6667 11.6667H33.3333C34.25 11.6667 35.035 11.9928 35.6883 12.645C36.3406 13.2983 36.6667 14.0833 36.6667 15V25C36.6667 25.9167 36.3406 26.7017 35.6883 27.355C35.035 28.0072 34.25 28.3333 33.3333 28.3333H21.6667Z" fill="#181A1E"/>
</svg>
