<svg width="60" height="60" viewBox="0 0 60 60" fill="none" xmlns="http://www.w3.org/2000/svg">
<rect width="60" height="60" rx="7.54658" fill="#FFF7EA"/>
<path d="M11.0664 34.7121L13.0421 35.5024C13.629 35.7372 14.2968 35.6382 14.7904 35.2433L15.8206 34.4192C16.4616 33.9063 17.3725 33.9063 18.0135 34.4192L18.7459 35.0051C19.3869 35.5179 20.2978 35.5179 20.9388 35.0051L21.6712 34.4192C22.3123 33.9063 23.2231 33.9063 23.8642 34.4192L24.5966 35.0051C25.2376 35.5179 26.1485 35.5179 26.7895 35.0051L27.5219 34.4192C28.1629 33.9063 29.0738 33.9063 29.7148 34.4192L30.745 35.2433C31.2386 35.6382 31.9064 35.7372 32.4933 35.5024L34.469 34.7121" stroke="#FFB020" stroke-width="1.59689"/>
<path d="M11.0664 38.8078L13.0421 39.5981C13.629 39.8329 14.2968 39.7339 14.7904 39.339L15.8206 38.5149C16.4616 38.002 17.3725 38.002 18.0135 38.5149L18.7459 39.1008C19.3869 39.6136 20.2978 39.6136 20.9388 39.1008L21.6712 38.5149C22.3123 38.002 23.2231 38.002 23.8642 38.5149L24.5966 39.1008C25.2376 39.6136 26.1485 39.6136 26.7895 39.1008L27.5219 38.5149C28.1629 38.002 29.0738 38.002 29.7148 38.5149L30.745 39.339C31.2386 39.7339 31.9064 39.8329 32.4933 39.5981L34.469 38.8078" stroke="#FFB020" stroke-width="1.59689"/>
<path d="M11.0664 42.9016L13.0421 43.6918C13.629 43.9266 14.2968 43.8276 14.7904 43.4328L15.8206 42.6086C16.4616 42.0958 17.3725 42.0958 18.0135 42.6086L18.7459 43.1945C19.3869 43.7074 20.2978 43.7074 20.9388 43.1945L21.6712 42.6086C22.3123 42.0958 23.2231 42.0958 23.8642 42.6086L24.5966 43.1945C25.2376 43.7074 26.1485 43.7074 26.7895 43.1945L27.5219 42.6086C28.1629 42.0958 29.0738 42.0958 29.7148 42.6086L30.745 43.4328C31.2386 43.8276 31.9064 43.9266 32.4933 43.6918L34.469 42.9016" stroke="#FFB020" stroke-width="1.59689"/>
<path d="M35.553 21.7414C35.6118 21.7193 35.6743 21.7148 35.7372 21.7148H48.4628C48.5256 21.7148 48.5881 21.7193 48.6469 21.7414C48.9208 21.8443 49.7273 22.3195 49.7273 24.3466C49.7273 26.6269 48.7069 33.066 48.5718 33.908C48.5619 33.97 48.5571 34.0307 48.5571 34.0935V45.1134C48.5571 45.7597 48.0333 46.2836 47.387 46.2836H36.8129C36.1667 46.2836 35.6428 45.7597 35.6428 45.1134V34.0935C35.6428 34.0307 35.638 33.97 35.6281 33.908C35.4931 33.066 34.4727 26.6269 34.4727 24.3466C34.4727 22.3195 35.2791 21.8443 35.553 21.7414Z" stroke="#FFB020" stroke-width="1.59689"/>
<rect x="37.7148" y="24.0537" width="8.77597" height="8.31289" rx="1.17013" fill="#FFB020"/>
<rect x="37.7148" y="35.2373" width="1.91359" height="1.81261" rx="0.585065" fill="#FFB020"/>
<rect x="40.9141" y="35.2373" width="1.91359" height="1.81261" rx="0.585065" fill="#FFB020"/>
<rect x="44.1133" y="35.2373" width="1.91359" height="1.81261" rx="0.585065" fill="#FFB020"/>
<rect x="37.7148" y="38.1621" width="1.91359" height="1.81261" rx="0.585065" fill="#FFB020"/>
<rect x="40.9141" y="38.1621" width="1.91359" height="1.81261" rx="0.585065" fill="#FFB020"/>
<rect x="44.1133" y="38.1621" width="1.91359" height="1.81261" rx="0.585065" fill="#FFB020"/>
<rect x="37.7148" y="41.0879" width="1.91359" height="1.81261" rx="0.585065" fill="#FFB020"/>
<rect x="40.9141" y="41.0879" width="1.91359" height="1.81261" rx="0.585065" fill="#FFB020"/>
<rect x="44.1133" y="41.0879" width="1.91359" height="1.81261" rx="0.585065" fill="#FFB020"/>
<path d="M22.582 31.9817V17.433C22.582 16.1405 23.6298 15.0928 24.9223 15.0928H40.4821C41.7746 15.0928 42.8224 16.1405 42.8224 17.433V21.8139" stroke="#FFB020" stroke-width="1.59689"/>
<rect x="20.2695" y="31.9814" width="4.99776" height="14.3035" rx="1.17013" stroke="#FFB020" stroke-width="1.59689"/>
</svg>
