<svg width="1452" height="400" viewBox="0 0 1452 400" fill="none" xmlns="http://www.w3.org/2000/svg">
<g clip-path="url(#clip0_6959_113299)">
<path fill-rule="evenodd" clip-rule="evenodd" d="M175.219 22.3255C161.301 25.1873 160.78 29.4799 173.268 39.8865C190.699 54.5856 192.52 59.1385 193.691 88.4068C195.382 131.464 204.488 148.764 236.618 169.968C244.683 175.171 253.398 182.065 256.13 185.187C270.569 201.708 274.992 229.025 267.837 257.122C262.114 279.886 246.374 308.114 224.52 335.431C213.333 349.35 209.951 355.724 209.951 363.269C209.951 370.553 213.203 374.195 222.309 376.927C234.927 380.699 252.227 378.878 273.04 371.854C284.748 367.821 291.252 364.569 304.78 355.594C350.179 325.675 378.536 286.26 389.073 238C392.325 222.781 392.325 186.098 389.073 170.618C385.431 153.838 380.618 140.179 372.423 124.179C353.04 85.8051 327.544 57.8377 303.61 48.3417C299.837 46.9108 296.195 45.8702 295.675 46.0003C295.024 46.2604 298.146 51.3336 302.439 57.4474C319.61 81.3824 333.788 109.48 340.423 132.895C354.992 183.496 347.577 232.017 321.04 259.724L314.927 266.228L313.105 254.521C309.463 229.805 302.179 209.643 289.951 190C273.171 163.073 268.358 142.13 272.52 113.903C273.691 106.358 273.691 100.895 272.52 91.0084C266.797 44.3092 240.65 20.7645 195.122 21.1547C187.187 21.2848 178.211 21.8052 175.219 22.3255ZM120.065 41.0568C82.4711 48.9917 51.5118 78.26 26.276 129.902C14.4386 154.097 13.2679 162.813 21.9833 162.813C26.9264 162.813 31.6093 157.87 37.2028 146.683C45.0077 131.073 52.5524 120.146 62.1785 111.041C71.6744 101.935 78.1785 98.5527 83.902 99.7234C90.6663 101.284 91.9671 107.919 87.8045 120.016C84.9427 128.341 78.5687 141.48 72.8451 150.455C59.5768 171.398 61.7882 186.488 79.089 191.561C81.3004 192.211 88.715 193.382 95.4793 194.032C142.959 198.715 162.991 217.187 152.325 246.325C146.471 262.585 130.861 280.797 117.593 287.171C97.6906 296.797 71.8045 289.902 54.3736 270.26C40.4549 254.78 25.6256 217.967 20.6825 186.618C19.6419 180.374 18.6012 179.203 14.8289 180.374C8.9752 182.195 7.93455 187.528 8.71504 211.463C9.62561 242.683 15.089 265.187 27.837 290.553C36.2923 307.073 41.2354 313.707 55.024 326.976C97.6907 368.081 139.837 374.325 181.853 345.837C208 328.146 234.016 292.504 245.203 259.073C250.536 243.073 251.837 224.602 248.455 212.894C243.772 196.894 232.325 184.406 214.504 175.821C200.975 169.187 191.87 166.975 174.959 165.935C159.739 165.024 151.284 162.293 148.813 157.48C146.341 152.927 148.162 145.122 153.886 136.406C165.593 118.325 170.796 102.975 171.837 83.073C172.878 64.8616 171.056 57.5771 163.382 49.6421C159.479 45.7397 155.317 42.8779 152.065 41.9673C143.739 39.4958 129.3 39.1055 120.065 41.0568ZM52.5522 216.927C52.5522 215.887 53.7229 213.675 55.2839 211.724C58.1457 208.082 61.6579 207.171 61.6579 210.163C61.6579 213.285 69.4628 219.789 75.0563 221.09C78.0481 221.871 84.5522 222.911 89.6254 223.301C105.235 224.602 113.82 231.887 113.951 243.854C114.211 255.562 107.837 261.936 95.0888 262.716C81.5603 263.627 74.4059 258.553 65.3002 242.033C56.5847 226.553 52.5522 218.488 52.5522 216.927Z" fill="url(#paint0_radial_6959_113299)"/>
</g>
<path d="M592.799 265.145H532V131.5H597.167C613.611 131.742 625.261 136.487 632.118 145.735C636.244 151.417 638.307 158.217 638.307 166.135C638.307 174.295 636.244 180.854 632.118 185.81C629.812 188.591 626.414 191.13 621.924 193.427C628.78 195.905 633.938 199.834 637.396 205.213C640.916 210.593 642.675 217.121 642.675 224.798C642.675 232.716 640.673 239.819 636.668 246.105C634.12 250.276 630.934 253.781 627.112 256.622C622.804 259.886 617.707 262.123 611.821 263.332C605.996 264.541 599.655 265.145 592.799 265.145ZM592.162 206.301H558.759V241.934H591.706C597.592 241.934 602.173 241.148 605.45 239.577C611.396 236.675 614.369 231.114 614.369 222.894C614.369 215.943 611.487 211.167 605.723 208.568C602.507 207.117 597.987 206.362 592.162 206.301ZM606.087 180.824C609.728 178.648 611.548 174.749 611.548 169.127C611.548 162.902 609.121 158.791 604.267 156.796C600.08 155.406 594.74 154.711 588.248 154.711H558.759V184.178H591.706C597.592 184.178 602.386 183.06 606.087 180.824Z" fill="#1F59AF"/>
<path d="M669.361 131.5H695.301V265.145H669.361V131.5Z" fill="#1F59AF"/>
<path d="M788.974 251.182C788.732 251.485 788.125 252.391 787.154 253.902C786.183 255.414 785.03 256.743 783.695 257.892C779.63 261.519 775.686 263.997 771.863 265.327C768.101 266.656 763.672 267.321 758.575 267.321C743.891 267.321 734.001 262.063 728.904 251.545C726.052 245.742 724.626 237.189 724.626 225.886V166.317H751.203V225.886C751.203 231.507 751.87 235.738 753.205 238.579C755.572 243.596 760.213 246.105 767.131 246.105C775.989 246.105 782.057 242.539 785.334 235.406C787.033 231.538 787.882 226.43 787.882 220.083V166.317H814.186V265.145H788.974V251.182Z" fill="#1F59AF"/>
<path d="M928.884 236.131C928.217 241.995 925.152 247.948 919.691 253.993C911.197 263.604 899.304 268.409 884.013 268.409C871.392 268.409 860.258 264.359 850.61 256.26C840.963 248.16 836.139 234.983 836.139 216.728C836.139 199.622 840.477 186.506 849.154 177.378C857.892 168.251 869.208 163.687 883.103 163.687C891.355 163.687 898.788 165.229 905.402 168.311C912.016 171.394 917.477 176.26 921.785 182.909C925.668 188.772 928.186 195.572 929.339 203.309C930.007 207.843 930.28 214.371 930.158 222.894H862.26C862.624 232.807 865.749 239.758 871.635 243.748C875.215 246.226 879.523 247.465 884.559 247.465C889.899 247.465 894.237 245.954 897.575 242.931C899.395 241.299 901.003 239.033 902.398 236.131H928.884ZM903.218 205.848C902.793 199.018 900.699 193.85 896.937 190.344C893.236 186.778 888.625 184.994 883.103 184.994C877.096 184.994 872.424 186.868 869.087 190.616C865.81 194.363 863.747 199.441 862.897 205.848H903.218Z" fill="#1F59AF"/>
<path d="M944.557 131.5H974.501L1003.63 232.958L1033.02 131.5H1062.15L1016.37 265.145H989.883L944.557 131.5Z" fill="#1F59AF"/>
<path d="M1156.1 236.131C1155.43 241.995 1152.36 247.948 1146.9 253.993C1138.41 263.604 1126.52 268.409 1111.23 268.409C1098.6 268.409 1087.47 264.359 1077.82 256.26C1068.17 248.16 1063.35 234.983 1063.35 216.728C1063.35 199.622 1067.69 186.506 1076.37 177.378C1085.1 168.251 1096.42 163.687 1110.32 163.687C1118.57 163.687 1126 165.229 1132.61 168.311C1139.23 171.394 1144.69 176.26 1149 182.909C1152.88 188.772 1155.4 195.572 1156.55 203.309C1157.22 207.843 1157.49 214.371 1157.37 222.894H1089.47C1089.84 232.807 1092.96 239.758 1098.85 243.748C1102.43 246.226 1106.74 247.465 1111.77 247.465C1117.11 247.465 1121.45 245.954 1124.79 242.931C1126.61 241.299 1128.21 239.033 1129.61 236.131H1156.1ZM1130.43 205.848C1130 199.018 1127.91 193.85 1124.15 190.344C1120.45 186.778 1115.84 184.994 1110.32 184.994C1104.31 184.994 1099.64 186.868 1096.3 190.616C1093.02 194.363 1090.96 199.441 1090.11 205.848H1130.43Z" fill="#1F59AF"/>
<path d="M1229.47 190.162C1219.04 190.162 1212.03 193.547 1208.45 200.317C1206.45 204.125 1205.44 209.989 1205.44 217.907V265.145H1179.32V166.317H1204.08V183.544C1208.08 176.955 1211.57 172.452 1214.55 170.034C1219.4 165.984 1225.71 163.959 1233.48 163.959C1233.96 163.959 1234.36 163.99 1234.66 164.05C1235.03 164.05 1235.78 164.08 1236.94 164.141V190.616C1235.3 190.434 1233.84 190.314 1232.57 190.253C1231.29 190.193 1230.26 190.162 1229.47 190.162Z" fill="#1F59AF"/>
<path d="M1325.24 170.85C1333.01 175.807 1337.47 184.329 1338.62 196.419H1312.68C1312.32 193.094 1311.38 190.465 1309.86 188.53C1307.01 185.025 1302.15 183.272 1295.3 183.272C1289.65 183.272 1285.62 184.148 1283.19 185.901C1280.82 187.654 1279.64 189.709 1279.64 192.067C1279.64 195.028 1280.92 197.174 1283.46 198.504C1286.01 199.894 1295.02 202.282 1310.5 205.667C1320.81 208.085 1328.55 211.742 1333.7 216.638C1338.8 221.594 1341.35 227.79 1341.35 235.225C1341.35 245.017 1337.68 253.026 1330.34 259.252C1323.06 265.417 1311.77 268.5 1296.48 268.5C1280.89 268.5 1269.36 265.236 1261.89 258.708C1254.49 252.119 1250.79 243.748 1250.79 233.593H1277.09C1277.64 238.187 1278.82 241.451 1280.64 243.385C1283.86 246.83 1289.8 248.553 1298.48 248.553C1303.58 248.553 1307.61 247.797 1310.59 246.286C1313.62 244.775 1315.14 242.508 1315.14 239.486C1315.14 236.585 1313.92 234.378 1311.5 232.867C1309.07 231.356 1300.06 228.757 1284.47 225.07C1273.24 222.289 1265.32 218.814 1260.71 214.643C1256.1 210.533 1253.79 204.609 1253.79 196.872C1253.79 187.745 1257.37 179.917 1264.53 173.389C1271.75 166.8 1281.89 163.506 1294.93 163.506C1307.31 163.506 1317.41 165.954 1325.24 170.85Z" fill="#1F59AF"/>
<path d="M1450.22 236.131C1449.56 241.995 1446.49 247.948 1441.03 253.993C1432.54 263.604 1420.64 268.409 1405.35 268.409C1392.73 268.409 1381.6 264.359 1371.95 256.26C1362.3 248.16 1357.48 234.983 1357.48 216.728C1357.48 199.622 1361.82 186.506 1370.49 177.378C1379.23 168.251 1390.55 163.687 1404.44 163.687C1412.69 163.687 1420.13 165.229 1426.74 168.311C1433.35 171.394 1438.82 176.26 1443.12 182.909C1447.01 188.772 1449.53 195.572 1450.68 203.309C1451.35 207.843 1451.62 214.371 1451.5 222.894H1383.6C1383.96 232.807 1387.09 239.758 1392.97 243.748C1396.55 246.226 1400.86 247.465 1405.9 247.465C1411.24 247.465 1415.58 245.954 1418.91 242.931C1420.73 241.299 1422.34 239.033 1423.74 236.131H1450.22ZM1424.56 205.848C1424.13 199.018 1422.04 193.85 1418.28 190.344C1414.58 186.778 1409.96 184.994 1404.44 184.994C1398.44 184.994 1393.76 186.868 1390.43 190.616C1387.15 194.363 1385.09 199.441 1384.24 205.848H1424.56Z" fill="#1F59AF"/>
<defs>
<radialGradient id="paint0_radial_6959_113299" cx="0" cy="0" r="1" gradientUnits="userSpaceOnUse" gradientTransform="translate(190.589 159.392) rotate(69.0151) scale(222.307 238.046)">
<stop stop-color="#7DD3F7"/>
<stop offset="0.473551" stop-color="#68C6EF"/>
<stop offset="0.676" stop-color="#34A7DD"/>
<stop offset="1" stop-color="#1191D0"/>
</radialGradient>
<clipPath id="clip0_6959_113299">
<rect width="400" height="400" fill="white"/>
</clipPath>
</defs>
</svg>
