<svg width="400" height="400" viewBox="0 0 400 400" fill="none" xmlns="http://www.w3.org/2000/svg">
<g clip-path="url(#clip0_395_5695)">
<path fill-rule="evenodd" clip-rule="evenodd" d="M175.219 22.3255C161.301 25.1873 160.78 29.4799 173.268 39.8864C190.699 54.5856 192.52 59.1385 193.691 88.4068C195.382 131.464 204.488 148.764 236.618 169.968C244.683 175.171 253.398 182.065 256.13 185.187C270.569 201.708 274.992 229.025 267.837 257.122C262.114 279.886 246.374 308.114 224.52 335.431C213.333 349.35 209.951 355.724 209.951 363.269C209.951 370.553 213.203 374.195 222.309 376.927C234.927 380.699 252.227 378.878 273.04 371.854C284.748 367.821 291.252 364.569 304.78 355.594C350.179 325.675 378.536 286.26 389.073 238C392.325 222.781 392.325 186.098 389.073 170.618C385.431 153.838 380.618 140.179 372.423 124.179C353.04 85.8051 327.544 57.8377 303.61 48.3417C299.837 46.9108 296.195 45.8702 295.675 46.0003C295.024 46.2604 298.146 51.3336 302.439 57.4474C319.61 81.3824 333.788 109.48 340.423 132.895C354.992 183.496 347.577 232.017 321.04 259.724L314.927 266.228L313.105 254.521C309.463 229.805 302.179 209.643 289.951 190C273.171 163.073 268.357 142.13 272.52 113.903C273.691 106.358 273.691 100.895 272.52 91.0084C266.797 44.3092 240.65 20.7645 195.122 21.1547C187.187 21.2848 178.211 21.8051 175.219 22.3255ZM120.065 41.0568C82.4711 48.9917 51.5118 78.26 26.276 129.902C14.4386 154.097 13.2679 162.813 21.9833 162.813C26.9264 162.813 31.6093 157.87 37.2028 146.683C45.0077 131.073 52.5524 120.146 62.1785 111.041C71.6744 101.935 78.1784 98.5527 83.902 99.7234C90.6663 101.284 91.9671 107.919 87.8045 120.016C84.9427 128.341 78.5687 141.48 72.8451 150.455C59.5768 171.398 61.7882 186.488 79.089 191.561C81.3004 192.211 88.715 193.382 95.4793 194.032C142.959 198.715 162.991 217.187 152.325 246.325C146.471 262.585 130.861 280.797 117.593 287.171C97.6906 296.797 71.8045 289.902 54.3736 270.26C40.4549 254.78 25.6256 217.967 20.6825 186.618C19.6419 180.374 18.6012 179.203 14.8289 180.374C8.9752 182.195 7.93455 187.528 8.71504 211.463C9.62561 242.683 15.089 265.187 27.837 290.553C36.2923 307.073 41.2354 313.707 55.024 326.975C97.6906 368.081 139.837 374.325 181.853 345.837C208 328.146 234.016 292.504 245.203 259.073C250.536 243.073 251.837 224.602 248.455 212.894C243.772 196.894 232.325 184.406 214.504 175.821C200.975 169.187 191.87 166.975 174.959 165.935C159.739 165.024 151.284 162.293 148.813 157.48C146.341 152.927 148.162 145.122 153.886 136.406C165.593 118.325 170.796 102.975 171.837 83.073C172.878 64.8616 171.057 57.5771 163.382 49.6421C159.479 45.7397 155.317 42.8779 152.065 41.9673C143.739 39.4958 129.3 39.1055 120.065 41.0568ZM52.5522 216.927C52.5522 215.887 53.7229 213.675 55.2839 211.724C58.1457 208.082 61.6579 207.171 61.6579 210.163C61.6579 213.285 69.4628 219.789 75.0563 221.09C78.0481 221.87 84.5522 222.911 89.6254 223.301C105.235 224.602 113.82 231.887 113.951 243.854C114.211 255.562 107.837 261.936 95.0888 262.716C81.5603 263.627 74.4059 258.553 65.3002 242.033C56.5847 226.553 52.5522 218.488 52.5522 216.927Z" fill="url(#paint0_radial_395_5695)"/>
</g>
<defs>
<radialGradient id="paint0_radial_395_5695" cx="0" cy="0" r="1" gradientUnits="userSpaceOnUse" gradientTransform="translate(190.589 159.392) rotate(69.0151) scale(222.307 238.046)">
<stop stop-color="#7DD3F7"/>
<stop offset="0.473551" stop-color="#68C6EF"/>
<stop offset="0.676" stop-color="#34A7DD"/>
<stop offset="1" stop-color="#1191D0"/>
</radialGradient>
<clipPath id="clip0_395_5695">
<rect width="400" height="400" fill="white"/>
</clipPath>
</defs>
</svg>
