<svg width="414" height="414" viewBox="0 0 414 414" fill="none" xmlns="http://www.w3.org/2000/svg">
<path d="M414 316.627H0V316.834H414V316.627Z" fill="#E0E0E0"/>
<path d="M90.5998 326.555H42.7662V326.762H90.5998V326.555Z" fill="#E0E0E0"/>
<path d="M195.126 322.059H173.333V322.266H195.126V322.059Z" fill="#E0E0E0"/>
<path d="M245.552 321.951H203.092V322.158H245.552V321.951Z" fill="#E0E0E0"/>
<path d="M326.373 324.436H316.031V324.643H326.373V324.436Z" fill="#E0E0E0"/>
<path d="M280.319 324.436H239.068V324.643H280.319V324.436Z" fill="#E0E0E0"/>
<path d="M106.812 326.555H98.6147V326.762H106.812V326.555Z" fill="#E0E0E0"/>
<path d="M368.94 324.436H333.129V324.643H368.94V324.436Z" fill="#E0E0E0"/>
<path d="M196.236 279.698H36.3575C35.1051 279.696 33.9046 279.197 33.0198 278.311C32.1349 277.424 31.6379 276.223 31.6379 274.971V50.2265C31.6488 48.9812 32.1506 47.7905 33.0343 46.913C33.918 46.0356 35.1122 45.5422 36.3575 45.54H196.236C197.49 45.54 198.693 46.0382 199.579 46.9248C200.466 47.8115 200.964 49.014 200.964 50.2679V274.971C200.964 276.224 200.466 277.427 199.579 278.314C198.693 279.2 197.49 279.698 196.236 279.698ZM36.3575 45.7056C35.16 45.7078 34.0122 46.1851 33.1661 47.0327C32.3201 47.8803 31.8449 49.0289 31.8449 50.2265V274.971C31.8449 276.168 32.3201 277.317 33.1661 278.164C34.0122 279.012 35.16 279.489 36.3575 279.491H196.236C197.434 279.489 198.583 279.012 199.43 278.165C200.278 277.318 200.755 276.169 200.757 274.971V50.2265C200.755 49.0282 200.278 47.8795 199.43 47.0322C198.583 46.1848 197.434 45.7078 196.236 45.7056H36.3575Z" fill="#E0E0E0"/>
<path d="M375.341 279.698H215.454C214.201 279.696 212.999 279.197 212.113 278.311C211.227 277.425 210.728 276.224 210.726 274.971V50.2265C210.739 48.9805 211.243 47.7898 212.128 46.9125C213.013 46.0353 214.208 45.5421 215.454 45.54H375.341C376.585 45.5443 377.777 46.0387 378.659 46.9159C379.54 47.7932 380.041 48.9827 380.052 50.2265V274.971C380.052 276.222 379.556 277.422 378.673 278.308C377.79 279.194 376.592 279.694 375.341 279.698ZM215.454 45.7056C214.255 45.7078 213.107 46.1848 212.26 47.0322C211.412 47.8795 210.935 49.0282 210.933 50.2265V274.971C210.935 276.169 211.412 277.318 212.26 278.165C213.107 279.012 214.255 279.489 215.454 279.491H375.341C376.539 279.489 377.688 279.012 378.535 278.165C379.382 277.318 379.859 276.169 379.862 274.971V50.2265C379.859 49.0282 379.382 47.8795 378.535 47.0322C377.688 46.1848 376.539 45.7078 375.341 45.7056H215.454Z" fill="#E0E0E0"/>
<path d="M63.4414 113.279C59.8313 105.479 62.6962 99.9316 71.5144 99.9316C77.0537 99.9316 83.9344 102.118 90.5584 105.67C91.3202 103.641 93.4398 102.432 96.8595 102.432C102.879 102.432 111.184 106.183 117.692 111.482C119.699 110.144 122.061 109.44 124.473 109.462C130.269 109.222 137.208 111.383 143.277 114.894C143.634 114.556 144.054 114.293 144.513 114.12C144.972 113.946 145.461 113.866 145.952 113.883C149.264 113.751 153.76 115.929 155.995 118.744C156.136 118.926 156.252 119.092 156.376 119.265H61.686C61.4988 118.2 61.5598 117.105 61.8642 116.067C62.1686 115.029 62.7083 114.075 63.4414 113.279Z" fill="#F5F5F5"/>
<path d="M170.833 76.1758C171.124 76.1425 171.417 76.126 171.711 76.1262C171.437 73.0791 173.019 71.1582 176.389 71.1582C178.823 71.1582 181.804 72.1766 184.851 73.8988C183.982 67.9869 186.764 64.1367 193.081 64.1367C198.174 64.1367 204.615 66.6207 210.983 70.7607C211.537 68.4423 213.417 67.0513 216.572 67.0513C222.103 67.0513 229.977 71.3403 236.286 77.4013C237.961 75.8962 240.137 75.0696 242.389 75.0829C247.663 74.8096 254.204 77.2771 260.009 81.3012C260.285 80.9283 260.648 80.628 261.067 80.4261C261.485 80.2243 261.946 80.1267 262.41 80.142C265.291 80.0012 269.266 82.212 271.568 85.1845H166.196C163.72 80.6388 165.691 76.6975 170.833 76.1758Z" fill="#F5F5F5"/>
<path d="M312.156 63.2671C309.838 58.2991 311.684 54.6973 317.339 54.6973C320.891 54.6973 325.296 56.0966 329.585 58.3819C330.066 57.0819 331.432 56.2953 333.626 56.2953C337.493 56.2953 342.817 58.7131 346.99 62.0913C348.28 61.2349 349.797 60.785 351.345 60.7996C355.038 60.6423 359.518 62.0251 363.409 64.2855C363.637 64.0676 363.906 63.8974 364.2 63.7851C364.494 63.6727 364.808 63.6205 365.123 63.6314C366.356 63.6758 367.566 63.9763 368.676 64.5137C369.787 65.0511 370.773 65.8137 371.573 66.7529L371.822 67.0841H309.266C307.287 65.3288 309.473 63.3499 312.156 63.2671Z" fill="#F5F5F5"/>
<path d="M102.018 226.475H73.8162V316.627H102.018V226.475Z" fill="#EBEBEB"/>
<path d="M92.8022 316.627H139.046L139.046 195.101H92.8022L92.8022 316.627Z" fill="#F5F5F5"/>
<path d="M163.05 195.102H139.046V316.627H163.05V195.102Z" fill="#EBEBEB"/>
<path d="M99.0205 195.102H139.046V183.021H99.0205V195.102Z" fill="#F5F5F5"/>
<path d="M99.0205 195.102H139.046V192.386H99.0205V195.102Z" fill="#EBEBEB"/>
<path d="M156.823 183.021H139.046V195.102H156.823V183.021Z" fill="#EBEBEB"/>
<path d="M105.239 183.021H139.038V170.941H105.239V183.021Z" fill="#F5F5F5"/>
<path d="M105.239 183.021H139.038V180.306H105.239V183.021Z" fill="#EBEBEB"/>
<path d="M150.605 170.94H139.046V183.021H150.605V170.94Z" fill="#EBEBEB"/>
<path d="M129.044 154.066H126.8V170.949H129.044V154.066Z" fill="#EBEBEB"/>
<path d="M155.383 316.627H189.157V216.232H155.383V316.627Z" fill="#F5F5F5"/>
<path d="M206.685 216.232H189.157V316.627H206.685V216.232Z" fill="#EBEBEB"/>
<path d="M197.917 244.914L223.527 266.873V316.627H197.917V244.914Z" fill="#F5F5F5"/>
<path d="M236.825 266.864H223.535V316.619H236.825V266.864Z" fill="#EBEBEB"/>
<path d="M236.825 266.873H223.527L197.917 244.914H211.215L236.825 266.873Z" fill="#EBEBEB"/>
<path d="M356.868 316.627C357.223 314.638 358.069 312.769 359.328 311.189C360.587 309.609 362.22 308.367 364.08 307.577C362.447 310.299 361.706 313.463 361.96 316.627H356.868Z" fill="#EBEBEB"/>
<path d="M118.015 316.627C117.66 314.638 116.814 312.769 115.555 311.189C114.296 309.609 112.663 308.367 110.803 307.577C112.436 310.299 113.177 313.463 112.923 316.627H118.015Z" fill="#EBEBEB"/>
<path d="M58.8791 316.627C58.8791 316.627 58.4734 306.028 54.0436 302.948C55.8569 307.279 55.476 316.627 55.476 316.627H58.8791Z" fill="#EBEBEB"/>
<path d="M57.2148 316.627C57.2148 316.627 57.6206 310.541 62.0504 308.777C60.237 311.261 60.6345 316.627 60.6345 316.627H57.2148Z" fill="#EBEBEB"/>
<path d="M121.807 316.627C121.807 316.627 121.36 306.591 113.328 302.948C116.922 308.098 116.715 316.627 116.715 316.627H121.807Z" fill="#EBEBEB"/>
<path d="M319.848 303.048H299.554C299.334 303.048 299.124 302.961 298.968 302.806C298.813 302.651 298.726 302.44 298.726 302.22V281.951C298.726 281.731 298.813 281.521 298.968 281.366C299.124 281.21 299.334 281.123 299.554 281.123H319.848C320.068 281.123 320.278 281.21 320.434 281.366C320.589 281.521 320.676 281.731 320.676 281.951V302.22C320.676 302.44 320.589 302.651 320.434 302.806C320.278 302.961 320.068 303.048 319.848 303.048ZM300.382 301.392H319.02V282.779H300.382V301.392Z" fill="#E0E0E0"/>
<path d="M319.848 282.779H299.554C299.334 282.779 299.124 282.692 298.968 282.536C298.813 282.381 298.726 282.17 298.726 281.951V261.648C298.726 261.429 298.813 261.218 298.968 261.063C299.124 260.908 299.334 260.82 299.554 260.82H319.848C320.068 260.82 320.278 260.908 320.434 261.063C320.589 261.218 320.676 261.429 320.676 261.648V281.951C320.676 282.17 320.589 282.381 320.434 282.536C320.278 282.692 320.068 282.779 319.848 282.779ZM300.382 281.123H319.02V262.476H300.382V281.123Z" fill="#E0E0E0"/>
<path d="M319.848 303.048C319.63 303.045 319.421 302.955 319.268 302.799L298.966 282.505C298.81 282.349 298.722 282.138 298.722 281.917C298.722 281.697 298.81 281.485 298.966 281.329C299.122 281.174 299.333 281.086 299.554 281.086C299.774 281.086 299.986 281.174 300.142 281.329L320.436 301.665C320.59 301.82 320.677 302.03 320.677 302.249C320.677 302.468 320.59 302.677 320.436 302.833C320.276 302.979 320.065 303.056 319.848 303.048Z" fill="#E0E0E0"/>
<path d="M319.848 282.778C319.631 282.777 319.423 282.691 319.268 282.538L298.966 262.236C298.812 262.08 298.725 261.871 298.725 261.652C298.725 261.433 298.812 261.223 298.966 261.068C299.043 260.991 299.134 260.929 299.235 260.887C299.336 260.845 299.444 260.823 299.554 260.823C299.663 260.823 299.771 260.845 299.872 260.887C299.973 260.929 300.065 260.991 300.142 261.068L320.436 281.362C320.553 281.478 320.632 281.626 320.665 281.787C320.697 281.949 320.681 282.116 320.618 282.268C320.554 282.42 320.448 282.549 320.311 282.64C320.174 282.731 320.013 282.779 319.848 282.778Z" fill="#E0E0E0"/>
<path d="M319.848 262.476H299.554C299.334 262.476 299.124 262.388 298.968 262.233C298.813 262.078 298.726 261.867 298.726 261.648V241.353C298.726 241.134 298.813 240.923 298.968 240.768C299.124 240.613 299.334 240.525 299.554 240.525H319.848C320.068 240.525 320.278 240.613 320.434 240.768C320.589 240.923 320.676 241.134 320.676 241.353V261.648C320.676 261.867 320.589 262.078 320.434 262.233C320.278 262.388 320.068 262.476 319.848 262.476ZM300.382 260.82H319.02V242.181H300.382V260.82Z" fill="#E0E0E0"/>
<path d="M319.848 242.182H299.554C299.334 242.182 299.124 242.095 298.968 241.939C298.813 241.784 298.726 241.573 298.726 241.354V221.076C298.726 220.856 298.813 220.646 298.968 220.491C299.124 220.335 299.334 220.248 299.554 220.248H319.848C320.068 220.248 320.278 220.335 320.434 220.491C320.589 220.646 320.676 220.856 320.676 221.076V241.379C320.67 241.594 320.58 241.798 320.425 241.948C320.27 242.098 320.063 242.182 319.848 242.182ZM300.382 240.526H319.02V221.904H300.382V240.526Z" fill="#E0E0E0"/>
<path d="M319.848 262.476C319.631 262.475 319.423 262.388 319.268 262.235L298.966 241.933C298.812 241.778 298.725 241.568 298.725 241.349C298.725 241.13 298.812 240.921 298.966 240.765C299.043 240.688 299.134 240.626 299.235 240.584C299.336 240.542 299.444 240.521 299.554 240.521C299.663 240.521 299.771 240.542 299.872 240.584C299.973 240.626 300.065 240.688 300.142 240.765L320.436 261.068C320.59 261.223 320.677 261.433 320.677 261.652C320.677 261.87 320.59 262.08 320.436 262.235C320.359 262.312 320.267 262.373 320.166 262.414C320.065 262.455 319.957 262.476 319.848 262.476Z" fill="#E0E0E0"/>
<path d="M319.848 242.182C319.63 242.179 319.421 242.089 319.268 241.933L298.966 221.639C298.81 221.483 298.722 221.272 298.722 221.051C298.722 220.831 298.81 220.619 298.966 220.463C299.122 220.307 299.333 220.22 299.554 220.22C299.774 220.22 299.986 220.307 300.142 220.463L320.436 240.766C320.59 240.921 320.677 241.131 320.677 241.35C320.677 241.568 320.59 241.778 320.436 241.933C320.359 242.012 320.268 242.074 320.167 242.116C320.066 242.159 319.958 242.181 319.848 242.182Z" fill="#E0E0E0"/>
<path d="M319.848 221.904H299.554C299.334 221.904 299.124 221.817 298.968 221.662C298.813 221.506 298.726 221.296 298.726 221.076V200.749C298.726 200.529 298.813 200.319 298.968 200.163C299.124 200.008 299.334 199.921 299.554 199.921H319.848C320.068 199.921 320.278 200.008 320.434 200.163C320.589 200.319 320.676 200.529 320.676 200.749V221.076C320.676 221.296 320.589 221.506 320.434 221.662C320.278 221.817 320.068 221.904 319.848 221.904ZM300.382 220.248H319.02V201.577H300.382V220.248Z" fill="#E0E0E0"/>
<path d="M319.848 201.576H299.554C299.334 201.576 299.124 201.489 298.968 201.334C298.813 201.178 298.726 200.968 298.726 200.748V180.454C298.726 180.234 298.813 180.024 298.968 179.868C299.124 179.713 299.334 179.626 299.554 179.626H319.848C320.068 179.626 320.278 179.713 320.434 179.868C320.589 180.024 320.676 180.234 320.676 180.454V200.748C320.676 200.968 320.589 201.178 320.434 201.334C320.278 201.489 320.068 201.576 319.848 201.576ZM300.382 199.92H319.02V181.282H300.382V199.92Z" fill="#E0E0E0"/>
<path d="M319.848 221.904C319.631 221.903 319.423 221.817 319.268 221.664L298.966 201.362C298.812 201.206 298.725 200.997 298.725 200.778C298.725 200.559 298.812 200.349 298.966 200.194C299.043 200.117 299.134 200.055 299.235 200.013C299.336 199.971 299.444 199.949 299.554 199.949C299.663 199.949 299.771 199.971 299.872 200.013C299.973 200.055 300.065 200.117 300.142 200.194L320.436 220.464C320.553 220.579 320.632 220.727 320.665 220.889C320.697 221.05 320.681 221.217 320.618 221.369C320.554 221.521 320.448 221.651 320.311 221.741C320.174 221.832 320.013 221.88 319.848 221.879V221.904Z" fill="#E0E0E0"/>
<path d="M299.554 133.764H279.251C279.032 133.764 278.821 133.676 278.666 133.521C278.511 133.366 278.423 133.155 278.423 132.936V112.608C278.423 112.389 278.511 112.178 278.666 112.023C278.821 111.868 279.032 111.78 279.251 111.78H299.554C299.773 111.78 299.984 111.868 300.139 112.023C300.295 112.178 300.382 112.389 300.382 112.608V132.903C300.386 133.014 300.368 133.125 300.329 133.23C300.289 133.334 300.229 133.429 300.151 133.51C300.074 133.59 299.981 133.654 299.879 133.698C299.776 133.741 299.665 133.764 299.554 133.764ZM280.079 132.108H298.726V113.436H280.079V132.108Z" fill="#E0E0E0"/>
<path d="M319.848 133.763H299.554C299.334 133.763 299.124 133.676 298.968 133.521C298.813 133.365 298.726 133.155 298.726 132.935C298.726 132.716 298.813 132.505 298.968 132.35C299.124 132.194 299.334 132.107 299.554 132.107H319.02V92.3632C319.02 92.1436 319.107 91.933 319.263 91.7777C319.418 91.6224 319.629 91.5352 319.848 91.5352C320.068 91.5352 320.278 91.6224 320.434 91.7777C320.589 91.933 320.676 92.1436 320.676 92.3632V132.935C320.676 133.155 320.589 133.365 320.434 133.521C320.278 133.676 320.068 133.763 319.848 133.763Z" fill="#E0E0E0"/>
<path d="M299.554 133.763C299.412 133.764 299.272 133.729 299.148 133.66C299.024 133.592 298.919 133.492 298.844 133.372C298.77 133.251 298.727 133.114 298.721 132.972C298.714 132.83 298.745 132.689 298.809 132.562L319.111 91.9905C319.21 91.7955 319.383 91.6477 319.591 91.5794C319.799 91.5111 320.025 91.528 320.221 91.6262C320.417 91.724 320.567 91.8958 320.637 92.1038C320.706 92.3118 320.691 92.5391 320.593 92.7357L300.291 133.308C300.222 133.444 300.117 133.559 299.987 133.639C299.856 133.72 299.707 133.763 299.554 133.763Z" fill="#E0E0E0"/>
<path d="M279.251 133.764H258.957C258.737 133.764 258.527 133.676 258.371 133.521C258.216 133.366 258.129 133.155 258.129 132.936V112.608C258.129 112.389 258.216 112.178 258.371 112.023C258.527 111.868 258.737 111.78 258.957 111.78H279.251C279.471 111.78 279.681 111.868 279.837 112.023C279.992 112.178 280.079 112.389 280.079 112.608V132.903C280.084 133.014 280.066 133.125 280.026 133.23C279.986 133.334 279.926 133.429 279.849 133.51C279.771 133.59 279.679 133.654 279.576 133.698C279.473 133.741 279.363 133.764 279.251 133.764ZM259.785 132.108H278.423V113.436H259.785V132.108Z" fill="#E0E0E0"/>
<path d="M279.251 133.764C279.089 133.761 278.931 133.712 278.797 133.62C278.663 133.529 278.559 133.401 278.497 133.251C278.435 133.101 278.419 132.936 278.45 132.777C278.481 132.618 278.558 132.472 278.672 132.356L298.966 112.054C299.043 111.976 299.134 111.914 299.235 111.872C299.336 111.83 299.444 111.809 299.554 111.809C299.663 111.809 299.771 111.83 299.872 111.872C299.973 111.914 300.065 111.976 300.142 112.054C300.296 112.209 300.382 112.419 300.382 112.637C300.382 112.856 300.296 113.066 300.142 113.221L279.864 133.524C279.784 133.603 279.688 133.666 279.582 133.707C279.477 133.748 279.364 133.768 279.251 133.764Z" fill="#E0E0E0"/>
<path d="M340.151 133.764H319.848C319.628 133.764 319.418 133.676 319.263 133.521C319.107 133.366 319.02 133.155 319.02 132.936V112.608C319.02 112.389 319.107 112.178 319.263 112.023C319.418 111.868 319.628 111.78 319.848 111.78H340.151C340.37 111.78 340.581 111.868 340.736 112.023C340.891 112.178 340.979 112.389 340.979 112.608V132.903C340.983 133.014 340.965 133.125 340.925 133.23C340.886 133.334 340.825 133.429 340.748 133.51C340.671 133.59 340.578 133.654 340.475 133.698C340.373 133.741 340.262 133.764 340.151 133.764ZM320.676 132.108H339.323V113.436H320.676V132.108Z" fill="#E0E0E0"/>
<path d="M319.848 133.764C319.686 133.761 319.528 133.712 319.394 133.62C319.26 133.529 319.156 133.401 319.094 133.251C319.032 133.101 319.016 132.936 319.047 132.777C319.078 132.618 319.155 132.472 319.269 132.356L339.563 112.054C339.64 111.976 339.731 111.914 339.832 111.872C339.933 111.83 340.041 111.809 340.151 111.809C340.26 111.809 340.368 111.83 340.469 111.872C340.57 111.914 340.662 111.976 340.739 112.054C340.893 112.209 340.979 112.419 340.979 112.637C340.979 112.856 340.893 113.066 340.739 113.221L320.436 133.524C320.359 133.6 320.267 133.661 320.166 133.702C320.065 133.743 319.957 133.764 319.848 133.764Z" fill="#E0E0E0"/>
<path d="M198.058 133.763C197.949 133.764 197.841 133.743 197.74 133.702C197.639 133.66 197.547 133.6 197.47 133.523C197.316 133.368 197.229 133.158 197.229 132.939C197.229 132.721 197.316 132.511 197.47 132.356L217.764 112.053C217.877 111.935 218.025 111.856 218.186 111.829L319.691 91.5269C319.824 91.5002 319.961 91.5067 320.091 91.5457C320.221 91.5846 320.34 91.655 320.436 91.7504L361.008 132.322C361.095 132.397 361.165 132.488 361.215 132.591C361.265 132.693 361.292 132.805 361.297 132.919C361.301 133.033 361.282 133.147 361.24 133.253C361.199 133.36 361.136 133.456 361.055 133.537C360.974 133.618 360.878 133.681 360.772 133.722C360.665 133.764 360.552 133.783 360.438 133.779C360.323 133.774 360.212 133.746 360.109 133.697C360.006 133.647 359.915 133.577 359.841 133.49L319.608 93.2408L218.766 113.436L198.637 133.556C198.478 133.697 198.27 133.771 198.058 133.763Z" fill="#E0E0E0"/>
<path d="M258.957 133.764C258.848 133.764 258.74 133.743 258.639 133.702C258.538 133.661 258.447 133.6 258.369 133.524C258.215 133.368 258.128 133.159 258.128 132.94C258.128 132.721 258.215 132.511 258.369 132.356L278.672 112.054C278.83 111.918 279.034 111.847 279.242 111.855C279.451 111.863 279.648 111.95 279.796 112.097C279.943 112.244 280.03 112.442 280.038 112.651C280.046 112.859 279.975 113.063 279.839 113.221L259.537 133.524C259.382 133.677 259.174 133.763 258.957 133.764Z" fill="#E0E0E0"/>
<path d="M258.957 133.764H238.654C238.435 133.764 238.224 133.676 238.069 133.521C237.914 133.366 237.826 133.155 237.826 132.936V112.608C237.826 112.389 237.914 112.178 238.069 112.023C238.224 111.868 238.435 111.78 238.654 111.78H258.957C259.177 111.78 259.387 111.868 259.542 112.023C259.698 112.178 259.785 112.389 259.785 112.608V132.903C259.789 133.014 259.771 133.125 259.732 133.23C259.692 133.334 259.632 133.429 259.554 133.51C259.477 133.59 259.384 133.654 259.282 133.698C259.179 133.741 259.069 133.764 258.957 133.764ZM239.482 132.108H258.129V113.436H239.482V132.108Z" fill="#E0E0E0"/>
<path d="M238.655 133.764H218.352C218.132 133.764 217.922 133.676 217.766 133.521C217.611 133.366 217.524 133.155 217.524 132.936V112.608C217.524 112.389 217.611 112.178 217.766 112.023C217.922 111.868 218.132 111.78 218.352 111.78H238.655C238.874 111.78 239.085 111.868 239.24 112.023C239.395 112.178 239.483 112.389 239.483 112.608V132.903C239.487 133.014 239.469 133.125 239.429 133.23C239.39 133.334 239.329 133.429 239.252 133.51C239.175 133.59 239.082 133.654 238.979 133.698C238.877 133.741 238.766 133.764 238.655 133.764ZM219.18 132.108H237.827V113.436H219.18V132.108Z" fill="#E0E0E0"/>
<path d="M238.654 133.764C238.545 133.764 238.437 133.743 238.336 133.702C238.236 133.661 238.144 133.6 238.066 133.524C237.912 133.368 237.826 133.159 237.826 132.94C237.826 132.721 237.912 132.511 238.066 132.356L258.336 112.054C258.494 111.918 258.698 111.847 258.906 111.855C259.115 111.863 259.313 111.95 259.46 112.097C259.607 112.244 259.694 112.442 259.702 112.651C259.71 112.859 259.639 113.063 259.503 113.221L239.209 133.524C239.061 133.671 238.863 133.756 238.654 133.764Z" fill="#E0E0E0"/>
<path d="M218.352 133.764C218.19 133.761 218.032 133.712 217.898 133.62C217.764 133.529 217.66 133.401 217.598 133.251C217.536 133.101 217.52 132.936 217.551 132.777C217.582 132.618 217.659 132.472 217.772 132.356L238.067 112.054C238.144 111.976 238.235 111.914 238.336 111.872C238.437 111.83 238.545 111.809 238.654 111.809C238.764 111.809 238.872 111.83 238.973 111.872C239.074 111.914 239.165 111.976 239.242 112.054C239.397 112.209 239.483 112.419 239.483 112.637C239.483 112.856 239.397 113.066 239.242 113.221L218.94 133.524C218.862 133.6 218.771 133.661 218.67 133.702C218.569 133.743 218.461 133.764 218.352 133.764Z" fill="#E0E0E0"/>
<path d="M218.352 133.764H198.058C197.838 133.764 197.627 133.676 197.472 133.521C197.317 133.366 197.23 133.155 197.23 132.936C197.23 132.716 197.317 132.505 197.472 132.35C197.627 132.195 197.838 132.108 198.058 132.108H217.524V112.608C217.524 112.389 217.611 112.178 217.766 112.023C217.922 111.868 218.132 111.78 218.352 111.78C218.571 111.78 218.782 111.868 218.937 112.023C219.093 112.178 219.18 112.389 219.18 112.608V132.903C219.184 133.014 219.166 133.125 219.127 133.23C219.087 133.334 219.027 133.429 218.949 133.51C218.872 133.59 218.779 133.654 218.677 133.698C218.574 133.741 218.463 133.764 218.352 133.764Z" fill="#E0E0E0"/>
<path d="M319.848 201.577C319.631 201.576 319.423 201.49 319.268 201.337L298.966 181.042C298.889 180.965 298.827 180.873 298.786 180.773C298.744 180.672 298.722 180.564 298.722 180.454C298.722 180.345 298.744 180.237 298.786 180.136C298.827 180.035 298.889 179.944 298.966 179.867C299.043 179.789 299.135 179.728 299.236 179.686C299.337 179.645 299.445 179.623 299.554 179.623C299.663 179.623 299.771 179.645 299.872 179.686C299.973 179.728 300.064 179.789 300.142 179.867L320.436 200.169C320.59 200.324 320.677 200.534 320.677 200.753C320.677 200.972 320.59 201.181 320.436 201.337C320.359 201.413 320.267 201.474 320.166 201.515C320.065 201.556 319.957 201.577 319.848 201.577Z" fill="#E0E0E0"/>
<path d="M319.848 181.283H299.554C299.334 181.283 299.124 181.196 298.968 181.04C298.813 180.885 298.726 180.674 298.726 180.455V160.152C298.726 159.933 298.813 159.722 298.968 159.567C299.124 159.411 299.334 159.324 299.554 159.324H319.848C320.068 159.324 320.278 159.411 320.434 159.567C320.589 159.722 320.676 159.933 320.676 160.152V180.455C320.676 180.674 320.589 180.885 320.434 181.04C320.278 181.196 320.068 181.283 319.848 181.283ZM300.382 179.627H319.02V160.98H300.382V179.627Z" fill="#E0E0E0"/>
<path d="M319.848 160.98H299.554C299.334 160.98 299.124 160.892 298.968 160.737C298.813 160.582 298.726 160.371 298.726 160.152V139.857C298.726 139.638 298.813 139.427 298.968 139.272C299.124 139.117 299.334 139.029 299.554 139.029H319.848C320.068 139.029 320.278 139.117 320.434 139.272C320.589 139.427 320.676 139.638 320.676 139.857V160.152C320.676 160.371 320.589 160.582 320.434 160.737C320.278 160.892 320.068 160.98 319.848 160.98ZM300.382 159.324H319.02V140.685H300.382V159.324Z" fill="#E0E0E0"/>
<path d="M319.848 181.282C319.631 181.281 319.423 181.195 319.268 181.042L298.966 160.74C298.889 160.662 298.827 160.571 298.786 160.47C298.744 160.369 298.722 160.261 298.722 160.152C298.722 160.043 298.744 159.934 298.786 159.834C298.827 159.733 298.889 159.641 298.966 159.564C299.043 159.487 299.135 159.425 299.236 159.384C299.337 159.342 299.445 159.32 299.554 159.32C299.663 159.32 299.771 159.342 299.872 159.384C299.973 159.425 300.064 159.487 300.142 159.564L320.436 179.866C320.553 179.982 320.632 180.13 320.665 180.291C320.697 180.453 320.681 180.62 320.618 180.772C320.555 180.924 320.448 181.053 320.311 181.144C320.174 181.235 320.013 181.283 319.848 181.282Z" fill="#E0E0E0"/>
<path d="M319.848 160.979C319.631 160.979 319.423 160.892 319.268 160.739L298.966 140.437C298.812 140.282 298.725 140.072 298.725 139.853C298.725 139.634 298.812 139.424 298.966 139.269C299.043 139.192 299.134 139.13 299.235 139.088C299.336 139.046 299.444 139.024 299.554 139.024C299.663 139.024 299.771 139.046 299.872 139.088C299.973 139.13 300.065 139.192 300.142 139.269L320.436 159.564C320.553 159.679 320.632 159.827 320.665 159.989C320.697 160.15 320.681 160.317 320.618 160.469C320.554 160.621 320.448 160.751 320.311 160.841C320.174 160.932 320.013 160.98 319.848 160.979Z" fill="#E0E0E0"/>
<path d="M360.453 132.936H198.058L218.352 139.858H360.453V132.936Z" fill="#E0E0E0"/>
<path d="M360.453 140.686H218.352C218.261 140.685 218.172 140.668 218.087 140.636L197.784 133.722C197.596 133.66 197.436 133.533 197.334 133.363C197.231 133.194 197.193 132.993 197.226 132.797C197.259 132.602 197.361 132.425 197.514 132.298C197.666 132.172 197.859 132.104 198.058 132.108H360.453C360.673 132.108 360.883 132.195 361.039 132.35C361.194 132.505 361.281 132.716 361.281 132.936V139.858C361.281 140.077 361.194 140.288 361.039 140.443C360.883 140.598 360.673 140.686 360.453 140.686ZM218.493 139.03H359.625V133.764H203.05L218.493 139.03Z" fill="#E0E0E0"/>
<path d="M284.526 168.332H299.554V136.396H284.526V168.332Z" fill="#E0E0E0"/>
<path d="M284.517 136.396H277.529V168.332H284.517V136.396Z" fill="#F5F5F5"/>
<path d="M301.789 316.619H331.382V302.245H301.789V316.619Z" fill="#E0E0E0"/>
<path d="M301.789 302.253H288.02V316.627H301.789V302.253Z" fill="#F5F5F5"/>
<path d="M340.151 168.614C339.931 168.614 339.721 168.527 339.565 168.371C339.41 168.216 339.323 168.005 339.323 167.786V136.396C339.323 136.177 339.41 135.966 339.565 135.811C339.721 135.656 339.931 135.568 340.151 135.568C340.37 135.568 340.581 135.656 340.736 135.811C340.892 135.966 340.979 136.177 340.979 136.396V167.786C340.979 168.005 340.892 168.216 340.736 168.371C340.581 168.527 340.37 168.614 340.151 168.614Z" fill="#E0E0E0"/>
<path d="M340.151 172.423C339.61 172.423 339.082 172.263 338.633 171.962C338.183 171.662 337.833 171.235 337.626 170.736C337.419 170.237 337.365 169.687 337.471 169.157C337.576 168.627 337.836 168.14 338.219 167.758C338.601 167.376 339.088 167.116 339.618 167.011C340.148 166.905 340.697 166.959 341.196 167.166C341.696 167.373 342.122 167.723 342.423 168.172C342.723 168.622 342.883 169.15 342.883 169.69C342.883 170.049 342.812 170.405 342.675 170.736C342.538 171.068 342.336 171.369 342.083 171.623C341.829 171.876 341.528 172.077 341.196 172.215C340.865 172.352 340.509 172.423 340.151 172.423ZM340.151 168.614C339.938 168.614 339.73 168.677 339.553 168.795C339.376 168.914 339.238 169.082 339.156 169.278C339.075 169.475 339.053 169.692 339.095 169.9C339.136 170.109 339.239 170.301 339.389 170.452C339.54 170.602 339.732 170.705 339.941 170.746C340.149 170.788 340.366 170.766 340.563 170.685C340.759 170.603 340.927 170.465 341.046 170.288C341.164 170.111 341.227 169.903 341.227 169.69C341.227 169.549 341.199 169.409 341.145 169.278C341.091 169.148 341.012 169.029 340.912 168.929C340.812 168.829 340.693 168.75 340.563 168.696C340.432 168.642 340.292 168.614 340.151 168.614Z" fill="#E0E0E0"/>
<path d="M220.902 185.091C220.682 185.091 220.472 185.004 220.317 184.849C220.161 184.693 220.074 184.483 220.074 184.263V136.396C220.074 136.177 220.161 135.966 220.317 135.811C220.472 135.656 220.682 135.568 220.902 135.568C221.122 135.568 221.332 135.656 221.488 135.811C221.643 135.966 221.73 136.177 221.73 136.396V184.263C221.73 184.483 221.643 184.693 221.488 184.849C221.332 185.004 221.122 185.091 220.902 185.091Z" fill="#E0E0E0"/>
<path d="M228.677 190.051C228.48 190.054 228.288 189.986 228.136 189.86C227.984 189.734 227.883 189.558 227.849 189.364C227.236 188.403 221.846 185.224 220.861 185.091C219.933 185.215 214.543 188.403 213.93 189.364C213.912 189.583 213.807 189.786 213.638 189.928C213.47 190.07 213.252 190.14 213.032 190.121C212.812 190.102 212.609 189.997 212.467 189.829C212.325 189.66 212.256 189.442 212.274 189.223C212.274 187.36 219.784 183.427 220.869 183.427C221.954 183.427 229.472 187.351 229.472 189.223C229.472 189.437 229.389 189.642 229.241 189.797C229.093 189.951 228.891 190.042 228.677 190.051Z" fill="#E0E0E0"/>
<path d="M237.636 249.899L249.783 237.752L247.191 232.784C247.415 232.287 247.622 231.791 247.812 231.277L253.136 229.621V212.465L247.812 210.809C247.613 210.304 247.415 209.799 247.191 209.302L249.775 204.334L237.636 192.212L232.668 194.796C232.171 194.572 231.674 194.365 231.169 194.175L229.513 188.851H212.316L210.66 194.175C210.155 194.365 209.658 194.572 209.161 194.796L204.193 192.212L192.096 204.351L194.688 209.319C194.456 209.816 194.257 210.321 194.058 210.826L188.734 212.482V229.654L194.058 231.31C194.257 231.824 194.456 232.321 194.679 232.817L192.096 237.785L204.243 249.932L209.211 247.341C209.708 247.564 210.213 247.771 210.718 247.962L212.374 253.286H229.555L231.211 247.962C231.716 247.771 232.213 247.564 232.709 247.341L237.636 249.899ZM229.977 230.085C228.189 231.874 225.911 233.092 223.431 233.586C220.951 234.079 218.38 233.827 216.044 232.859C213.708 231.892 211.711 230.253 210.306 228.151C208.901 226.048 208.151 223.576 208.151 221.047C208.151 218.519 208.901 216.047 210.306 213.944C211.711 211.842 213.708 210.203 216.044 209.236C218.38 208.268 220.951 208.015 223.431 208.509C225.911 209.003 228.189 210.221 229.977 212.01C231.163 213.198 232.104 214.608 232.744 216.16C233.385 217.712 233.713 219.375 233.71 221.054C233.706 222.733 233.372 224.395 232.726 225.945C232.08 227.494 231.135 228.901 229.944 230.085H229.977Z" fill="#E0E0E0"/>
<path d="M207 354.019C295.664 354.019 367.541 349.823 367.541 344.646C367.541 339.47 295.664 335.273 207 335.273C118.336 335.273 46.4591 339.47 46.4591 344.646C46.4591 349.823 118.336 354.019 207 354.019Z" fill="#F5F5F5"/>
<path d="M145.637 135.088H135.303C134.831 135.088 134.367 135.212 133.957 135.448C133.548 135.683 133.207 136.021 132.968 136.429L127.802 145.38C127.566 145.791 127.441 146.256 127.441 146.73C127.441 147.203 127.566 147.669 127.802 148.079L132.968 157.022C133.205 157.432 133.545 157.773 133.955 158.01C134.365 158.247 134.83 158.372 135.303 158.371H145.637C146.11 158.372 146.576 158.247 146.986 158.01C147.396 157.773 147.736 157.432 147.972 157.022L153.139 148.079C153.375 147.669 153.499 147.203 153.499 146.73C153.499 146.256 153.375 145.791 153.139 145.38L147.972 136.429C147.733 136.021 147.393 135.683 146.983 135.448C146.573 135.212 146.109 135.088 145.637 135.088Z" fill="#1F59AF"/>
<path opacity="0.5" d="M145.637 135.088H135.303C134.831 135.088 134.367 135.212 133.957 135.448C133.548 135.683 133.207 136.021 132.968 136.429L127.802 145.38C127.566 145.791 127.441 146.256 127.441 146.73C127.441 147.203 127.566 147.669 127.802 148.079L132.968 157.022C133.205 157.432 133.545 157.773 133.955 158.01C134.365 158.247 134.83 158.372 135.303 158.371H145.637C146.11 158.372 146.576 158.247 146.986 158.01C147.396 157.773 147.736 157.432 147.972 157.022L153.139 148.079C153.375 147.669 153.499 147.203 153.499 146.73C153.499 146.256 153.375 145.791 153.139 145.38L147.972 136.429C147.733 136.021 147.393 135.683 146.983 135.448C146.573 135.212 146.109 135.088 145.637 135.088Z" fill="white"/>
<path d="M79.4879 105.429L78.9 104.841L83.868 99.8727L84.4559 100.461L79.4879 105.429ZM88.0411 96.8753L87.4533 96.2874L97.8364 85.9043L98.4243 86.4839L88.0411 96.8753Z" fill="#1F59AF"/>
<path opacity="0.5" d="M79.4879 105.429L78.9 104.841L83.868 99.8727L84.4559 100.461L79.4879 105.429ZM88.0411 96.8753L87.4533 96.2874L97.8364 85.9043L98.4243 86.4839L88.0411 96.8753Z" fill="white"/>
<path d="M210.726 165.467V127.992L199.134 124.357C198.72 123.247 198.265 122.154 197.784 121.045L203.423 110.281L176.927 83.7849L166.163 89.4318C165.078 88.9433 163.994 88.4879 162.851 88.0656L159.216 76.4736H121.716L118.089 88.0656C116.972 88.4879 115.887 88.9433 114.777 89.4318L104.013 83.7849L77.5173 110.281L83.1643 121.045C82.6758 122.13 82.2204 123.214 81.8064 124.357L70.2144 127.992V165.467L81.8064 169.094C82.2286 170.203 82.684 171.296 83.1643 172.406L77.5173 183.17L104.013 209.666L114.777 204.019C115.854 204.507 116.938 204.963 118.089 205.385L121.716 216.977H159.191L162.826 205.385C163.936 204.963 165.02 204.507 166.138 204.019L176.902 209.666L203.398 183.17L197.751 172.406C198.231 171.329 198.695 170.236 199.109 169.094L210.726 165.467ZM168.357 146.721C168.357 152.237 166.722 157.628 163.657 162.214C160.593 166.8 156.238 170.375 151.142 172.485C146.046 174.596 140.439 175.148 135.03 174.072C129.62 172.996 124.651 170.34 120.751 166.44C116.851 162.54 114.195 157.571 113.119 152.162C112.043 146.752 112.595 141.145 114.706 136.049C116.817 130.954 120.391 126.598 124.977 123.534C129.563 120.47 134.955 118.834 140.47 118.834C147.866 118.836 154.957 121.775 160.187 127.004C165.416 132.234 168.355 139.326 168.357 146.721Z" fill="#1F59AF"/>
<path opacity="0.5" d="M210.726 165.467V127.992L199.134 124.357C198.72 123.247 198.265 122.154 197.784 121.045L203.423 110.281L176.927 83.7849L166.163 89.4318C165.078 88.9433 163.994 88.4879 162.851 88.0656L159.216 76.4736H121.716L118.089 88.0656C116.972 88.4879 115.887 88.9433 114.777 89.4318L104.013 83.7849L77.5173 110.281L83.1643 121.045C82.6758 122.13 82.2204 123.214 81.8064 124.357L70.2144 127.992V165.467L81.8064 169.094C82.2286 170.203 82.684 171.296 83.1643 172.406L77.5173 183.17L104.013 209.666L114.777 204.019C115.854 204.507 116.938 204.963 118.089 205.385L121.716 216.977H159.191L162.826 205.385C163.936 204.963 165.02 204.507 166.138 204.019L176.902 209.666L203.398 183.17L197.751 172.406C198.231 171.329 198.695 170.236 199.109 169.094L210.726 165.467ZM168.357 146.721C168.357 152.237 166.722 157.628 163.657 162.214C160.593 166.8 156.238 170.375 151.142 172.485C146.046 174.596 140.439 175.148 135.03 174.072C129.62 172.996 124.651 170.34 120.751 166.44C116.851 162.54 114.195 157.571 113.119 152.162C112.043 146.752 112.595 141.145 114.706 136.049C116.817 130.954 120.391 126.598 124.977 123.534C129.563 120.47 134.955 118.834 140.47 118.834C147.866 118.836 154.957 121.775 160.187 127.004C165.416 132.234 168.355 139.326 168.357 146.721Z" fill="white"/>
<path d="M157.386 214.709H123.562C123.518 214.709 123.474 214.694 123.438 214.667C123.402 214.64 123.376 214.603 123.364 214.56L120.052 204.11C120.035 204.057 120.04 204 120.066 203.951C120.092 203.903 120.136 203.866 120.188 203.849C120.241 203.833 120.298 203.838 120.347 203.864C120.396 203.889 120.433 203.933 120.449 203.986L123.67 214.295H157.188L160.632 203.415C160.642 203.385 160.658 203.358 160.679 203.335C160.701 203.312 160.727 203.294 160.756 203.282L161.891 202.86C162.851 202.496 163.869 202.073 165.02 201.56L166.122 201.063C166.172 201.041 166.229 201.04 166.281 201.06C166.332 201.081 166.373 201.12 166.395 201.171C166.417 201.221 166.418 201.278 166.398 201.33C166.377 201.381 166.338 201.422 166.287 201.444L165.186 201.933C164.035 202.454 163 202.876 162.04 203.241L160.996 203.638L157.585 214.56C157.571 214.602 157.545 214.639 157.509 214.666C157.474 214.692 157.431 214.707 157.386 214.709ZM176.43 206.818C176.375 206.816 176.323 206.796 176.281 206.76C176.261 206.74 176.245 206.717 176.234 206.692C176.223 206.666 176.218 206.639 176.218 206.611C176.218 206.583 176.223 206.555 176.234 206.53C176.245 206.504 176.261 206.481 176.281 206.462L200.094 182.657L194.804 172.555C194.789 172.527 194.781 172.496 194.781 172.464C194.781 172.432 194.789 172.401 194.804 172.373L195.3 171.272C195.797 170.154 196.219 169.127 196.592 168.15L197.014 167.016C197.026 166.987 197.044 166.961 197.067 166.939C197.09 166.918 197.117 166.901 197.147 166.892L208.035 163.489V129.996L197.271 126.634C197.241 126.63 197.213 126.619 197.188 126.603C197.163 126.586 197.141 126.565 197.125 126.539C197.11 126.514 197.099 126.485 197.096 126.455C197.092 126.425 197.095 126.395 197.104 126.366C197.113 126.338 197.128 126.312 197.149 126.289C197.169 126.267 197.194 126.25 197.221 126.238C197.249 126.227 197.279 126.221 197.309 126.223C197.339 126.224 197.368 126.231 197.395 126.245L208.275 129.64C208.316 129.655 208.351 129.682 208.376 129.717C208.401 129.753 208.415 129.795 208.416 129.839V163.662C208.416 163.706 208.403 163.749 208.378 163.785C208.353 163.82 208.317 163.847 208.275 163.861L197.37 167.256L196.981 168.299C196.609 169.285 196.153 170.311 195.673 171.446L195.226 172.456L200.533 182.599C200.56 182.633 200.574 182.675 200.574 182.719C200.574 182.762 200.56 182.804 200.533 182.839L176.621 206.76C176.57 206.802 176.504 206.823 176.439 206.818H176.43ZM104.502 206.818C104.447 206.816 104.394 206.796 104.353 206.76L80.4402 182.839C80.4164 182.803 80.4036 182.762 80.4036 182.719C80.4036 182.676 80.4164 182.634 80.4402 182.599L85.7974 172.365C85.8238 172.316 85.8676 172.28 85.92 172.263C85.9724 172.246 86.0292 172.25 86.0789 172.274C86.1029 172.287 86.124 172.304 86.1412 172.325C86.1583 172.347 86.1711 172.371 86.1788 172.397C86.1865 172.423 86.1889 172.451 86.186 172.478C86.1831 172.505 86.1748 172.531 86.1617 172.555L80.8791 182.657L104.684 206.462C104.704 206.481 104.72 206.504 104.731 206.53C104.742 206.555 104.747 206.583 104.747 206.611C104.747 206.639 104.742 206.666 104.731 206.692C104.72 206.717 104.704 206.74 104.684 206.76C104.661 206.781 104.633 206.797 104.603 206.807C104.573 206.817 104.542 206.82 104.51 206.818H104.502ZM118.578 203.1H118.503C117.675 202.777 116.773 202.396 115.771 201.949C115.742 201.942 115.714 201.928 115.691 201.909C115.667 201.89 115.648 201.866 115.635 201.839C115.622 201.812 115.615 201.782 115.614 201.752C115.614 201.722 115.62 201.692 115.632 201.664C115.644 201.637 115.662 201.612 115.685 201.592C115.708 201.572 115.735 201.558 115.764 201.549C115.793 201.541 115.823 201.539 115.853 201.544C115.883 201.548 115.912 201.56 115.937 201.577C116.93 202.015 117.816 202.405 118.652 202.711C118.678 202.721 118.702 202.736 118.722 202.755C118.741 202.774 118.757 202.798 118.768 202.823C118.779 202.848 118.784 202.876 118.785 202.904C118.785 202.931 118.779 202.959 118.768 202.984C118.751 203.023 118.721 203.055 118.684 203.076C118.647 203.097 118.604 203.106 118.561 203.1H118.578ZM140.487 177.316C132.372 177.301 124.594 174.066 118.861 168.323C113.128 162.579 109.909 154.795 109.909 146.68C109.909 146.625 109.931 146.573 109.969 146.534C110.008 146.495 110.061 146.473 110.116 146.473C110.171 146.473 110.223 146.495 110.262 146.534C110.301 146.573 110.323 146.625 110.323 146.68C110.323 152.646 112.092 158.478 115.406 163.438C118.721 168.399 123.432 172.265 128.943 174.548C134.455 176.831 140.52 177.428 146.371 176.265C152.223 175.101 157.597 172.228 161.816 168.009C166.034 163.791 168.907 158.416 170.071 152.565C171.235 146.714 170.638 140.649 168.355 135.137C166.072 129.625 162.205 124.914 157.245 121.6C152.285 118.285 146.453 116.516 140.487 116.516C140.432 116.516 140.379 116.494 140.34 116.455C140.302 116.417 140.28 116.364 140.28 116.309C140.28 116.254 140.302 116.202 140.34 116.163C140.379 116.124 140.432 116.102 140.487 116.102C148.599 116.102 156.379 119.325 162.115 125.061C167.851 130.797 171.073 138.576 171.073 146.688C171.073 154.8 167.851 162.58 162.115 168.316C156.379 174.052 148.599 177.275 140.487 177.275V177.316ZM84.1828 168.432C84.1396 168.43 84.0978 168.416 84.0626 168.391C84.0273 168.366 84 168.331 83.9841 168.291L83.5949 167.256L72.657 163.836C72.6156 163.822 72.5796 163.796 72.5543 163.76C72.529 163.724 72.5157 163.681 72.5163 163.638V129.814C72.5169 129.77 72.5307 129.728 72.5558 129.693C72.581 129.657 72.6162 129.63 72.657 129.615L83.1146 126.353C83.1674 126.337 83.2242 126.341 83.2735 126.366C83.3228 126.391 83.3608 126.433 83.3796 126.485C83.3932 126.539 83.3863 126.596 83.3603 126.645C83.3343 126.694 83.291 126.731 83.2389 126.75L72.9054 129.996V163.513L83.7936 166.916C83.8228 166.926 83.8493 166.942 83.8709 166.963C83.8925 166.985 83.9086 167.011 83.9178 167.041L84.3484 168.175C84.3675 168.226 84.366 168.282 84.3444 168.331C84.3227 168.381 84.2825 168.42 84.2325 168.44L84.1828 168.432ZM84.1828 125.376H84.1083C84.0576 125.354 84.0173 125.313 83.9957 125.262C83.9741 125.211 83.9729 125.154 83.9923 125.102C84.3898 124.043 84.8203 123.032 85.2757 122.006C85.2991 121.957 85.3408 121.919 85.392 121.9C85.4431 121.881 85.4995 121.884 85.549 121.906C85.574 121.917 85.5967 121.933 85.6157 121.952C85.6347 121.972 85.6496 121.995 85.6596 122.021C85.6696 122.046 85.6745 122.073 85.674 122.1C85.6735 122.128 85.6676 122.155 85.6566 122.18C85.1929 123.19 84.7789 124.2 84.3815 125.251C84.367 125.297 84.338 125.336 84.2991 125.362C84.2602 125.389 84.2135 125.403 84.1662 125.401L84.1828 125.376ZM195.292 120.648H195.193C195.169 120.635 195.148 120.617 195.13 120.596C195.113 120.575 195.101 120.55 195.093 120.524C195.085 120.498 195.083 120.471 195.086 120.444C195.089 120.416 195.097 120.39 195.11 120.366L200.078 110.803L196.104 106.812C196.08 106.794 196.06 106.771 196.046 106.745C196.032 106.719 196.023 106.691 196.021 106.661C196.019 106.631 196.023 106.602 196.034 106.574C196.044 106.546 196.06 106.521 196.081 106.5C196.102 106.479 196.128 106.463 196.155 106.452C196.183 106.442 196.213 106.438 196.242 106.44C196.272 106.442 196.301 106.45 196.327 106.465C196.353 106.479 196.376 106.498 196.393 106.522L200.533 110.662C200.56 110.697 200.574 110.739 200.574 110.782C200.574 110.826 200.56 110.868 200.533 110.902L195.458 120.598C195.436 120.625 195.408 120.645 195.376 120.658C195.344 120.671 195.31 120.676 195.276 120.673L195.292 120.648ZM80.5893 110.952C80.534 110.952 80.4806 110.932 80.4402 110.894C80.4041 110.854 80.3841 110.803 80.3841 110.749C80.3841 110.695 80.4041 110.644 80.4402 110.604L104.328 86.6998C104.362 86.6722 104.404 86.6572 104.448 86.6572C104.492 86.6572 104.534 86.6722 104.568 86.6998L114.711 92.0073L115.721 91.5602C116.698 91.1213 117.593 90.7322 118.454 90.4092C118.479 90.3985 118.507 90.393 118.534 90.393C118.562 90.3931 118.589 90.3987 118.615 90.4095C118.64 90.4203 118.663 90.4361 118.683 90.456C118.702 90.4758 118.717 90.4994 118.727 90.5252C118.746 90.5768 118.743 90.6337 118.72 90.6833C118.696 90.733 118.654 90.7714 118.603 90.7901C117.775 91.1296 116.864 91.5022 115.895 91.9328L114.794 92.4296C114.765 92.4418 114.734 92.4482 114.703 92.4482C114.672 92.4482 114.641 92.4418 114.612 92.4296L104.51 87.1386L80.7383 110.952C80.6905 110.971 80.6371 110.971 80.5893 110.952ZM192.8 103.401C192.745 103.401 192.691 103.38 192.651 103.343L176.364 87.0972L166.262 92.3882C166.236 92.4026 166.206 92.4102 166.175 92.4102C166.145 92.4102 166.115 92.4026 166.089 92.3882L164.987 91.8914C163.853 91.3863 162.826 90.964 161.857 90.5914L160.723 90.1691C160.694 90.1574 160.668 90.1395 160.646 90.1166C160.625 90.0937 160.609 90.0664 160.599 90.0366L157.196 79.1567H123.711L120.78 88.5214C120.773 88.5474 120.76 88.5716 120.743 88.5925C120.726 88.6133 120.705 88.6305 120.681 88.6429C120.657 88.6553 120.63 88.6627 120.603 88.6646C120.576 88.6665 120.549 88.6628 120.524 88.6539C120.473 88.6368 120.43 88.6004 120.405 88.5525C120.381 88.5045 120.375 88.4488 120.391 88.3972L123.372 78.8918C123.386 78.8503 123.413 78.8143 123.448 78.7891C123.484 78.7638 123.527 78.7504 123.571 78.751H157.395C157.438 78.7517 157.48 78.7655 157.516 78.7906C157.551 78.8157 157.578 78.851 157.593 78.8918L161.005 89.8214L162.048 90.2188C163.025 90.5831 164.052 91.0468 165.194 91.527L166.204 91.9742L176.364 86.6667C176.399 86.6405 176.441 86.6263 176.484 86.6263C176.527 86.6263 176.57 86.6405 176.604 86.6667L192.924 103.061C192.944 103.08 192.96 103.104 192.971 103.129C192.982 103.155 192.987 103.182 192.987 103.21C192.987 103.238 192.982 103.265 192.971 103.291C192.96 103.317 192.944 103.34 192.924 103.359C192.89 103.391 192.846 103.412 192.8 103.417V103.401Z" fill="#FAFAFA"/>
<path d="M259.446 153.503C262.037 156.815 264.463 160.127 266.831 163.547C269.199 166.966 271.452 170.46 273.579 174.104C274.118 175.006 274.631 175.95 275.153 176.877C275.905 178.282 276.349 179.832 276.453 181.423C276.588 183.837 276.353 186.258 275.757 188.602C274.727 192.816 273.163 196.881 271.104 200.699L266.84 199.043C267.686 195.22 268.297 191.349 268.669 187.451C268.834 185.767 268.779 184.069 268.504 182.4C268.436 181.937 268.263 181.495 267.999 181.108C267.452 180.28 266.922 179.452 266.343 178.624C264.099 175.312 261.723 172.075 259.33 168.821L252.134 159.067L259.446 153.503Z" fill="#FF8B7B"/>
<path d="M266.542 198.563L264.339 202.504L272.023 203.638C272.023 203.638 272.851 200.326 270.922 198.041L266.542 198.563Z" fill="#FF8B7B"/>
<path d="M263.18 207.745L269.58 208.391L272.023 203.638L264.339 202.504L263.18 207.745Z" fill="#FF8B7B"/>
<path d="M284.004 231.26L286.289 219.097C286.555 217.686 287.369 216.437 288.553 215.626C289.737 214.814 291.195 214.505 292.607 214.766L311.792 218.36C310.647 214.527 308.612 211.019 305.852 208.123C303.092 205.228 299.686 203.026 295.913 201.698C292.139 200.371 288.105 199.955 284.14 200.485C280.175 201.015 276.392 202.476 273.099 204.747L186.06 153.229C186.512 147.782 185.192 142.335 182.296 137.7C179.401 133.064 175.085 129.489 169.992 127.506C164.898 125.523 159.301 125.239 154.033 126.696C148.765 128.154 144.11 131.274 140.76 135.593L159.945 139.186C161.354 139.458 162.599 140.275 163.408 141.459C164.218 142.644 164.526 144.101 164.267 145.512L161.982 157.684C161.714 159.094 160.9 160.341 159.716 161.152C158.532 161.964 157.076 162.274 155.664 162.014L136.479 158.413C137.629 162.269 139.68 165.796 142.462 168.703C145.245 171.61 148.68 173.812 152.482 175.128C156.285 176.445 160.346 176.837 164.331 176.273C168.315 175.709 172.108 174.204 175.395 171.884L262.261 223.303C261.76 228.761 263.041 234.235 265.913 238.904C268.785 243.573 273.092 247.185 278.19 249.199C283.288 251.214 288.901 251.522 294.189 250.078C299.476 248.633 304.154 245.514 307.519 241.188L288.334 237.586C286.924 237.317 285.677 236.5 284.866 235.315C284.054 234.13 283.745 232.673 284.004 231.26Z" fill="#1F59AF"/>
<path d="M262.326 204.435L191.755 162.666C190.472 161.907 188.817 162.331 188.058 163.614L185.181 168.473C184.422 169.756 184.846 171.412 186.129 172.171L256.7 213.94C257.983 214.699 259.638 214.275 260.398 212.992L263.274 208.132C264.033 206.849 263.609 205.194 262.326 204.435Z" fill="#1F59AF"/>
<path opacity="0.2" d="M262.326 204.435L191.755 162.666C190.472 161.907 188.817 162.331 188.058 163.614L185.181 168.473C184.422 169.756 184.846 171.412 186.129 172.171L256.7 213.94C257.983 214.699 259.638 214.275 260.398 212.992L263.274 208.132C264.033 206.849 263.609 205.194 262.326 204.435Z" fill="white"/>
<path d="M229.969 127.769C229.886 128.257 229.571 128.597 229.257 128.597C228.942 128.597 228.743 128.108 228.818 127.628C228.892 127.148 229.215 126.8 229.53 126.841C229.844 126.883 230.043 127.288 229.969 127.769Z" fill="#263238"/>
<path d="M229.613 128.613C228.803 130.004 227.805 131.278 226.648 132.397C226.941 132.691 227.294 132.917 227.683 133.06C228.072 133.203 228.488 133.259 228.901 133.225L229.613 128.613Z" fill="#FF5652"/>
<path d="M232.146 125.359C232.109 125.36 232.073 125.353 232.039 125.338C232.004 125.324 231.973 125.303 231.948 125.277C231.699 125.014 231.391 124.815 231.05 124.696C230.708 124.576 230.343 124.54 229.985 124.589C229.948 124.598 229.909 124.599 229.871 124.592C229.833 124.585 229.797 124.571 229.765 124.55C229.732 124.53 229.704 124.503 229.682 124.471C229.661 124.439 229.645 124.403 229.638 124.366C229.629 124.329 229.628 124.29 229.635 124.253C229.642 124.216 229.656 124.18 229.677 124.148C229.698 124.117 229.725 124.089 229.757 124.068C229.788 124.048 229.824 124.033 229.861 124.026C230.311 123.955 230.772 123.993 231.204 124.137C231.637 124.281 232.028 124.527 232.345 124.854C232.397 124.911 232.426 124.985 232.426 125.061C232.426 125.138 232.397 125.212 232.345 125.268C232.291 125.321 232.221 125.353 232.146 125.359Z" fill="#263238"/>
<path d="M246.14 133.109C245.312 137.564 244.401 145.72 247.514 148.684C247.514 148.684 246.297 153.197 238.025 153.197C228.917 153.197 233.678 148.684 233.678 148.684C238.646 147.5 238.514 143.815 237.653 140.404L246.14 133.109Z" fill="#FF8B7B"/>
<path d="M251.712 152.029C251.611 151.882 251.536 151.72 251.488 151.548C250.793 148.907 247.87 146.845 244.078 146.738C240.079 146.638 235.566 147.119 232.9 149.321C231.724 150.29 233.024 151.706 233.024 151.706L251.712 152.029Z" fill="#1F59AF"/>
<path opacity="0.5" d="M251.712 152.029C251.611 151.882 251.536 151.72 251.488 151.548C250.793 148.907 247.87 146.845 244.078 146.738C240.079 146.638 235.566 147.119 232.9 149.321C231.724 150.29 233.024 151.706 233.024 151.706L251.712 152.029Z" fill="white"/>
<path d="M280.949 318.639H280.891C280.769 318.622 280.655 318.567 280.566 318.483C280.477 318.398 280.417 318.288 280.394 318.167C280.365 318.073 280.357 317.974 280.369 317.877C280.382 317.78 280.416 317.687 280.468 317.604C280.932 316.817 282.952 316.403 283.01 316.387C283.038 316.381 283.067 316.384 283.093 316.394C283.12 316.404 283.143 316.422 283.159 316.445C283.173 316.469 283.18 316.496 283.18 316.523C283.18 316.551 283.173 316.578 283.159 316.602C282.853 317.124 281.719 318.639 280.949 318.639ZM282.729 316.743C282.066 316.917 280.99 317.273 280.717 317.745C280.691 317.794 280.677 317.85 280.677 317.906C280.677 317.962 280.691 318.018 280.717 318.067C280.791 318.324 280.924 318.341 280.957 318.349C281.329 318.399 282.207 317.504 282.729 316.743Z" fill="#1F59AF"/>
<path d="M282.05 316.776C281.296 316.776 280.452 316.635 280.195 316.271C280.135 316.18 280.107 316.072 280.116 315.964C280.125 315.856 280.17 315.754 280.245 315.674C280.312 315.588 280.396 315.516 280.491 315.462C280.586 315.408 280.691 315.373 280.8 315.36C281.71 315.26 283.077 316.362 283.135 316.411C283.156 316.427 283.172 316.449 283.181 316.474C283.191 316.498 283.193 316.525 283.188 316.551C283.182 316.577 283.17 316.601 283.152 316.62C283.134 316.639 283.111 316.653 283.085 316.66C282.747 316.745 282.399 316.784 282.05 316.776ZM280.94 315.641H280.833C280.762 315.646 280.694 315.666 280.632 315.7C280.571 315.735 280.517 315.782 280.477 315.84C280.361 315.989 280.411 316.064 280.435 316.088C280.667 316.428 281.934 316.56 282.704 316.436C282.194 316.025 281.587 315.751 280.94 315.641Z" fill="#1F59AF"/>
<path d="M220.811 338.743C220.033 338.743 219.279 338.635 219.023 338.287C218.958 338.195 218.923 338.085 218.923 337.973C218.923 337.86 218.958 337.75 219.023 337.658C219.073 337.573 219.14 337.499 219.22 337.441C219.3 337.383 219.39 337.341 219.486 337.318C220.496 337.045 222.624 338.254 222.715 338.312C222.741 338.327 222.76 338.349 222.772 338.376C222.784 338.403 222.787 338.432 222.782 338.461C222.776 338.49 222.762 338.516 222.741 338.536C222.72 338.557 222.694 338.571 222.666 338.577C222.053 338.685 221.433 338.74 220.811 338.743ZM219.842 337.567C219.752 337.554 219.66 337.554 219.569 337.567C219.511 337.578 219.456 337.602 219.407 337.636C219.359 337.67 219.318 337.715 219.287 337.766C219.18 337.948 219.221 338.039 219.287 338.089C219.569 338.478 221.109 338.486 222.243 338.329C221.5 337.921 220.685 337.662 219.842 337.567Z" fill="#1F59AF"/>
<path d="M222.649 338.578H222.591C221.854 338.247 220.397 336.922 220.513 336.243C220.513 336.077 220.654 335.878 221.051 335.837C221.199 335.819 221.349 335.832 221.491 335.874C221.634 335.917 221.766 335.989 221.879 336.085C222.658 336.723 222.815 338.362 222.823 338.429C222.826 338.454 222.823 338.48 222.812 338.503C222.802 338.526 222.786 338.546 222.765 338.561C222.73 338.581 222.689 338.587 222.649 338.578ZM221.167 336.094H221.076C220.819 336.094 220.803 336.218 220.795 336.251C220.728 336.665 221.722 337.7 222.451 338.147C222.375 337.453 222.085 336.799 221.623 336.276C221.493 336.173 221.333 336.114 221.167 336.11V336.094Z" fill="#1F59AF"/>
<path d="M229.339 338.437H223.254L222.649 324.353H228.735L229.339 338.437Z" fill="#FF8B7B"/>
<path d="M288.484 312.198L283.549 315.758L271.907 306.783L276.842 303.23L288.484 312.198Z" fill="#FF8B7B"/>
<path d="M282.845 315.708L287.581 310.74C287.664 310.653 287.774 310.597 287.893 310.582C288.013 310.567 288.133 310.594 288.235 310.657L292.971 313.53C293.085 313.602 293.181 313.698 293.252 313.812C293.324 313.925 293.369 314.053 293.385 314.187C293.401 314.32 293.387 314.455 293.344 314.582C293.301 314.709 293.23 314.825 293.137 314.921C291.481 316.619 290.545 317.356 288.467 319.525C287.184 320.858 283.706 325.545 281.934 327.391C280.162 329.238 278.117 327.722 278.672 326.812C281.156 322.721 282.365 318.664 282.431 316.644C282.455 316.293 282.601 315.962 282.845 315.708Z" fill="#263238"/>
<path d="M223.295 337.732H229.919C230.04 337.731 230.158 337.772 230.253 337.847C230.348 337.923 230.414 338.028 230.441 338.146L231.641 343.553C231.67 343.684 231.669 343.819 231.638 343.949C231.607 344.079 231.547 344.2 231.463 344.304C231.378 344.407 231.272 344.49 231.15 344.547C231.029 344.603 230.897 344.632 230.764 344.63C228.371 344.63 224.91 344.456 221.896 344.456C218.368 344.456 215.33 344.646 211.198 344.646C208.714 344.646 208.01 342.121 209.053 341.889C213.814 340.854 217.698 340.738 221.813 338.204C222.253 337.911 222.767 337.748 223.295 337.732Z" fill="#263238"/>
<path d="M250.934 161.526C251.762 163.058 252.697 164.54 253.6 165.923C255.156 168.316 256.663 170.386 257.74 171.81C258.709 173.094 259.33 173.847 259.33 173.847L271.584 165.493C271.584 165.493 264.132 150.986 258.394 150.059C252.49 149.123 247.083 154.654 250.934 161.526Z" fill="#1F59AF"/>
<path opacity="0.5" d="M250.934 161.526C251.762 163.058 252.697 164.54 253.6 165.923C255.156 168.316 256.663 170.386 257.74 171.81C258.709 173.094 259.33 173.847 259.33 173.847L271.584 165.493C271.584 165.493 264.132 150.986 258.394 150.059C252.49 149.123 247.083 154.654 250.934 161.526Z" fill="black"/>
<path d="M253.6 165.923C255.156 168.316 256.663 170.386 257.74 171.81C257.616 168.962 257.028 164.358 254.817 160.848C254.014 161.643 253.691 163.696 253.6 165.923Z" fill="#1F59AF"/>
<path opacity="0.6" d="M253.6 165.923C255.156 168.316 256.663 170.386 257.74 171.81C257.616 168.962 257.028 164.358 254.817 160.848C254.014 161.643 253.691 163.696 253.6 165.923Z" fill="black"/>
<path d="M221.333 170.204C221.333 172.274 221.382 174.551 221.498 177.06C221.796 183.882 222.542 192.386 223.982 202.951H256.514C256.738 197.983 253.6 173.59 258.419 150.059C254.82 149.367 251.18 148.907 247.522 148.684C242.917 148.419 238.3 148.419 233.695 148.684C230.538 148.996 227.41 149.55 224.338 150.34C224.338 150.34 221.324 153.76 221.333 170.204Z" fill="#1F59AF"/>
<path opacity="0.5" d="M221.333 170.204C221.333 172.274 221.382 174.551 221.498 177.06C221.796 183.882 222.542 192.386 223.982 202.951H256.514C256.738 197.983 253.6 173.59 258.419 150.059C254.82 149.367 251.18 148.907 247.522 148.684C242.917 148.419 238.3 148.419 233.695 148.684C230.538 148.996 227.41 149.55 224.338 150.34C224.338 150.34 221.324 153.76 221.333 170.204Z" fill="black"/>
<path d="M221.333 170.204C221.333 172.274 221.382 174.551 221.498 177.06C225.315 173.334 225.572 165.725 225.572 165.725L221.333 170.204Z" fill="#1F59AF"/>
<path opacity="0.6" d="M221.333 170.204C221.333 172.274 221.382 174.551 221.498 177.06C225.315 173.334 225.572 165.725 225.572 165.725L221.333 170.204Z" fill="black"/>
<path d="M228.114 160.756C227.488 161.803 226.797 162.81 226.044 163.77C225.357 164.664 224.67 165.508 223.966 166.345C222.566 168.001 221.068 169.599 219.544 171.147C216.423 174.316 212.966 177.137 209.236 179.56C208.232 180.188 207.195 180.763 206.131 181.282L205.708 181.481L205.501 181.58L205.245 181.688C204.836 181.86 204.415 182.004 203.986 182.118L203.382 182.275L202.802 182.375C202.432 182.439 202.059 182.48 201.684 182.499C199.192 182.581 196.704 182.231 194.332 181.464C190.138 180.159 186.14 178.29 182.45 175.908L184.412 171.768C188.178 172.895 192.014 173.769 195.897 174.385C197.539 174.661 199.215 174.683 200.865 174.451C201.006 174.428 201.144 174.392 201.279 174.343L201.461 174.294L201.593 174.236C201.701 174.236 201.726 174.153 201.792 174.128L202.289 173.838C203.051 173.395 203.789 172.911 204.499 172.389C207.555 170.09 210.396 167.518 212.986 164.705C214.336 163.289 215.636 161.807 216.903 160.333C217.532 159.588 218.145 158.843 218.716 158.09C219.288 157.336 219.875 156.566 220.215 156.036L228.114 160.756Z" fill="#FF8B7B"/>
<path d="M185.306 172.886L181.266 168.084L178.517 175.105C178.517 175.105 182.003 176.761 184.719 175.801L185.306 172.886Z" fill="#FF8B7B"/>
<path d="M175.337 167.032L174.211 172.638L178.517 175.097L181.266 168.076L175.337 167.032Z" fill="#FF8B7B"/>
<path d="M232.991 157.461C232.271 163.257 219.122 175.47 219.122 175.47L207.281 166.08C210.258 161.681 213.737 157.643 217.648 154.049C226.226 146.614 233.86 150.539 232.991 157.461Z" fill="#1F59AF"/>
<path opacity="0.5" d="M232.991 157.461C232.271 163.257 219.122 175.47 219.122 175.47L207.281 166.08C210.258 161.681 213.737 157.643 217.648 154.049C226.226 146.614 233.86 150.539 232.991 157.461Z" fill="black"/>
<path d="M222.732 196.584C234.548 196.584 237.247 183.22 237.868 177.482C236.376 167.778 232.919 158.48 227.708 150.158C227.644 150.056 227.606 149.94 227.597 149.82C227.588 149.7 227.608 149.58 227.656 149.47C227.704 149.359 227.779 149.263 227.873 149.188C227.967 149.113 228.079 149.062 228.197 149.04L230.789 148.56C230.936 148.536 231.087 148.555 231.224 148.615C231.361 148.676 231.477 148.774 231.559 148.899C238.671 160.284 240.998 169.939 241.751 174.907H243.871C246.04 170.187 250.818 159.432 250.429 149.355C250.421 149.247 250.438 149.138 250.478 149.038C250.518 148.937 250.58 148.847 250.659 148.773C250.739 148.699 250.834 148.644 250.937 148.611C251.04 148.579 251.149 148.57 251.257 148.585L254.039 148.858C254.218 148.87 254.386 148.948 254.511 149.076C254.636 149.204 254.71 149.374 254.718 149.554C255.123 159.266 249.634 172.738 247.522 177.018C248.243 192.866 257.061 195.607 257.061 195.607C257.278 199.548 257.103 203.5 256.539 207.406C237.868 210.436 228.561 208.59 223.237 206.388C223.651 202.405 222.906 199.614 222.732 196.584Z" fill="#1F59AF"/>
<path opacity="0.3" d="M222.732 196.584C234.548 196.584 237.247 183.22 237.868 177.482C236.376 167.778 232.919 158.48 227.708 150.158C227.644 150.056 227.606 149.94 227.597 149.82C227.588 149.7 227.608 149.58 227.656 149.47C227.704 149.359 227.779 149.263 227.873 149.188C227.967 149.113 228.079 149.062 228.197 149.04L230.789 148.56C230.936 148.536 231.087 148.555 231.224 148.615C231.361 148.676 231.477 148.774 231.559 148.899C238.671 160.284 240.998 169.939 241.751 174.907H243.871C246.04 170.187 250.818 159.432 250.429 149.355C250.421 149.247 250.438 149.138 250.478 149.038C250.518 148.937 250.58 148.847 250.659 148.773C250.739 148.699 250.834 148.644 250.937 148.611C251.04 148.579 251.149 148.57 251.257 148.585L254.039 148.858C254.218 148.87 254.386 148.948 254.511 149.076C254.636 149.204 254.71 149.374 254.718 149.554C255.123 159.266 249.634 172.738 247.522 177.018C248.243 192.866 257.061 195.607 257.061 195.607C257.278 199.548 257.103 203.5 256.539 207.406C237.868 210.436 228.561 208.59 223.237 206.388C223.651 202.405 222.906 199.614 222.732 196.584Z" fill="black"/>
<path d="M222.649 324.353L222.964 331.614H229.05L228.735 324.353H222.649Z" fill="#FF5652"/>
<path d="M276.85 303.23L271.915 306.791L277.918 311.411L282.853 307.851L276.85 303.23Z" fill="#FF5652"/>
<path d="M246.297 129.275C244.997 135.171 244.533 138.69 241.047 141.273C235.806 145.165 228.884 141.273 228.396 135.121C227.957 129.573 230.151 120.863 236.353 119.389C237.718 119.073 239.14 119.109 240.488 119.493C241.835 119.877 243.063 120.596 244.057 121.584C245.051 122.572 245.777 123.795 246.169 125.141C246.561 126.486 246.605 127.908 246.297 129.275Z" fill="#FF8B7B"/>
<path d="M251.555 120.126C256.73 120.267 254.602 122.991 252.01 124.49C252.01 124.49 254.999 125.922 253.459 129.342C251.124 134.533 246.653 140.238 242.091 139.924C236.411 139.534 234.796 133.358 235.003 127.263C232.006 124.44 231.501 122.883 231.037 119.489C230.101 112.757 234.324 109.056 251.555 120.126Z" fill="#263238"/>
<path d="M244.889 108.782C248.432 109.691 251.469 111.97 253.332 115.117C255.195 118.264 255.732 122.023 254.825 125.566L228.089 118.743C228.537 116.985 229.327 115.333 230.415 113.881C231.502 112.429 232.864 111.206 234.425 110.281C235.985 109.355 237.712 108.747 239.508 108.49C241.303 108.233 243.132 108.332 244.889 108.782Z" fill="#1F59AF"/>
<path opacity="0.5" d="M244.889 108.782C248.432 109.691 251.469 111.97 253.332 115.117C255.195 118.264 255.732 122.023 254.825 125.566L228.089 118.743C228.537 116.985 229.327 115.333 230.415 113.881C231.502 112.429 232.864 111.206 234.425 110.281C235.985 109.355 237.712 108.747 239.508 108.49C241.303 108.233 243.132 108.332 244.889 108.782Z" fill="white"/>
<path d="M250.172 125.583C249.987 125.585 249.804 125.545 249.638 125.465C249.471 125.385 249.325 125.267 249.212 125.121C249.099 124.975 249.021 124.804 248.985 124.623C248.949 124.441 248.956 124.254 249.005 124.076C249.376 122.572 249.428 121.007 249.155 119.482C248.883 117.957 248.293 116.506 247.423 115.224C245.563 112.425 242.716 110.429 239.449 109.635C239.139 109.556 238.872 109.357 238.708 109.082C238.544 108.806 238.497 108.476 238.576 108.166C238.655 107.855 238.854 107.588 239.13 107.425C239.405 107.261 239.735 107.213 240.046 107.292C243.9 108.239 247.256 110.604 249.443 113.916C250.497 115.477 251.211 117.242 251.539 119.096C251.867 120.95 251.802 122.853 251.348 124.68C251.28 124.94 251.127 125.169 250.914 125.333C250.702 125.496 250.44 125.584 250.172 125.583Z" fill="#1F59AF"/>
<path opacity="0.3" d="M250.172 125.583C249.987 125.585 249.804 125.545 249.638 125.465C249.471 125.385 249.325 125.267 249.212 125.121C249.099 124.975 249.021 124.804 248.985 124.623C248.949 124.441 248.956 124.254 249.005 124.076C249.376 122.572 249.428 121.007 249.155 119.482C248.883 117.957 248.293 116.506 247.423 115.224C245.563 112.425 242.716 110.429 239.449 109.635C239.139 109.556 238.872 109.357 238.708 109.082C238.544 108.806 238.497 108.476 238.576 108.166C238.655 107.855 238.854 107.588 239.13 107.425C239.405 107.261 239.735 107.213 240.046 107.292C243.9 108.239 247.256 110.604 249.443 113.916C250.497 115.477 251.211 117.242 251.539 119.096C251.867 120.95 251.802 122.853 251.348 124.68C251.28 124.94 251.127 125.169 250.914 125.333C250.702 125.496 250.44 125.584 250.172 125.583Z" fill="white"/>
<path d="M224.388 119.099L255.852 127.131C256.179 127.214 256.526 127.164 256.816 126.992C257.106 126.819 257.317 126.539 257.4 126.212C257.484 125.884 257.434 125.536 257.261 125.244C257.089 124.953 256.809 124.741 256.481 124.655L225.017 116.624C224.688 116.541 224.339 116.592 224.047 116.766C223.756 116.94 223.545 117.222 223.461 117.551C223.42 117.714 223.411 117.883 223.436 118.049C223.46 118.214 223.517 118.374 223.603 118.518C223.689 118.661 223.803 118.787 223.938 118.887C224.072 118.986 224.225 119.059 224.388 119.099Z" fill="#1F59AF"/>
<path opacity="0.3" d="M224.388 119.099L255.852 127.131C256.179 127.214 256.526 127.164 256.816 126.992C257.106 126.819 257.317 126.539 257.4 126.212C257.484 125.884 257.434 125.536 257.261 125.244C257.089 124.953 256.809 124.741 256.481 124.655L225.017 116.624C224.688 116.541 224.339 116.592 224.047 116.766C223.756 116.94 223.545 117.222 223.461 117.551C223.42 117.714 223.411 117.883 223.436 118.049C223.46 118.214 223.517 118.374 223.603 118.518C223.689 118.661 223.803 118.787 223.938 118.887C224.072 118.986 224.225 119.059 224.388 119.099Z" fill="white"/>
<path d="M238.108 128.721C237.953 130.213 237.307 131.611 236.27 132.695C234.895 134.111 233.537 133.159 233.364 131.37C233.206 129.764 233.736 127.09 235.384 126.344C237.032 125.599 238.282 126.924 238.108 128.721Z" fill="#FF8B7B"/>
<path d="M235.508 202.951C235.508 202.951 234.804 246.239 240.244 263.213C248.864 290.098 274.896 311.875 274.896 311.875L284.203 305.159C284.203 305.159 262.526 286.761 258.551 264.132C254.983 243.788 256.498 219.586 256.498 202.968L235.508 202.951Z" fill="#1F59AF"/>
<path opacity="0.3" d="M235.508 202.951C235.508 202.951 234.804 246.239 240.244 263.213C248.864 290.098 274.896 311.875 274.896 311.875L284.203 305.159C284.203 305.159 262.526 286.761 258.551 264.132C254.983 243.788 256.498 219.586 256.498 202.968L235.508 202.951Z" fill="black"/>
<path d="M241.577 210.387C242.728 218.186 238.663 239.905 237.255 247.017C235.781 233.72 235.508 217.946 235.483 209.335C238.464 207.315 241.047 206.793 241.577 210.387Z" fill="#1F59AF"/>
<path opacity="0.4" d="M241.577 210.387C242.728 218.186 238.663 239.905 237.255 247.017C235.781 233.72 235.508 217.946 235.483 209.335C238.464 207.315 241.047 206.793 241.577 210.387Z" fill="black"/>
<path d="M270.913 309.912C270.872 309.912 274.739 312.189 274.739 312.189L284.898 304.853L281.52 302.262L270.913 309.912Z" fill="#1F59AF"/>
<path opacity="0.4" d="M270.913 309.912C270.872 309.912 274.739 312.189 274.739 312.189L284.898 304.853L281.52 302.262L270.913 309.912Z" fill="white"/>
<path d="M223.966 202.951C223.966 202.951 214.8 241.784 214.154 260.332C213.434 281.139 220.695 330.206 220.695 330.206H231.012C231.012 330.206 232.287 280.758 232.742 261.805C233.239 241.147 245.369 202.951 245.369 202.951H223.966Z" fill="#1F59AF"/>
<path opacity="0.3" d="M223.966 202.951C223.966 202.951 214.8 241.784 214.154 260.332C213.434 281.139 220.695 330.206 220.695 330.206H231.012C231.012 330.206 232.287 280.758 232.742 261.805C233.239 241.147 245.369 202.951 245.369 202.951H223.966Z" fill="black"/>
<path d="M218.708 326.1C218.666 326.1 219.296 330.38 219.296 330.38H231.84L232.179 326.563L218.708 326.1Z" fill="#1F59AF"/>
<path opacity="0.4" d="M218.708 326.1C218.666 326.1 219.296 330.38 219.296 330.38H231.84L232.179 326.563L218.708 326.1Z" fill="white"/>
</svg>
