<svg width="16" height="16" viewBox="0 0 16 16" fill="none" xmlns="http://www.w3.org/2000/svg">
<g clip-path="url(#clip0_2087_32109)">
<path fill-rule="evenodd" clip-rule="evenodd" d="M7.00862 0.893028C6.45187 1.0075 6.43106 1.17921 6.93057 1.59547C7.6278 2.18343 7.70065 2.36555 7.74748 3.53628C7.81512 5.25856 8.17935 5.95059 9.46455 6.79872C9.78715 7.00685 10.1358 7.28262 10.245 7.4075C10.8226 8.06831 10.9995 9.161 10.7133 10.2849C10.4844 11.1955 9.85479 12.3246 8.98065 13.4173C8.53317 13.974 8.39788 14.229 8.39788 14.5308C8.39788 14.8221 8.52797 14.9678 8.89219 15.0771C9.39691 15.228 10.0889 15.1551 10.9215 14.8742C11.3898 14.7129 11.6499 14.5828 12.1911 14.2238C14.007 13.027 15.1413 11.4504 15.5628 9.52002C15.6928 8.91124 15.6928 7.44392 15.5628 6.82473C15.4171 6.15351 15.2246 5.60717 14.8967 4.96717C14.1215 3.43221 13.1016 2.31351 12.1442 1.93368C11.9933 1.87644 11.8476 1.83482 11.8268 1.84002C11.8008 1.85043 11.9257 2.05335 12.0974 2.29791C12.7842 3.2553 13.3514 4.37921 13.6167 5.31579C14.1995 7.33986 13.9029 9.28067 12.8415 10.389L12.5969 10.6491L12.5241 10.1808C12.3784 9.19221 12.087 8.38571 11.5979 7.60002C10.9267 6.52295 10.7341 5.68522 10.9006 4.55612C10.9475 4.25433 10.9475 4.03579 10.9006 3.64034C10.6717 1.77238 9.62585 0.830589 7.80471 0.846199C7.48732 0.851402 7.12829 0.872215 7.00862 0.893028ZM4.80243 1.64228C3.29869 1.95968 2.06032 3.13041 1.05088 5.1961C0.577389 6.16391 0.530559 6.51252 0.879178 6.51252C1.0769 6.51252 1.26422 6.3148 1.48796 5.86732C1.80015 5.24293 2.10194 4.80586 2.48698 4.44163C2.86682 4.0774 3.12698 3.94212 3.35593 3.98895C3.62649 4.05139 3.67853 4.31675 3.51202 4.80065C3.39755 5.13366 3.14259 5.65919 2.91365 6.01821C2.38292 6.85594 2.47137 7.45952 3.1634 7.66244C3.25186 7.68846 3.54845 7.73529 3.81901 7.7613C5.7182 7.94862 6.5195 8.68748 6.09284 9.85301C5.85869 10.5034 5.2343 11.2319 4.70357 11.4868C3.90747 11.8719 2.87202 11.5961 2.17479 10.8104C1.61804 10.1912 1.02487 8.7187 0.827145 7.46472C0.785519 7.21496 0.743893 7.16813 0.592998 7.21496C0.358852 7.28781 0.317226 7.50114 0.348445 8.45854C0.384868 9.70732 0.603405 10.6075 1.11332 11.6221C1.45154 12.2829 1.64926 12.5483 2.2008 13.079C3.90747 14.7233 5.59332 14.973 7.27397 13.8335C8.31983 13.1259 9.36048 11.7002 9.80796 10.3629C10.0213 9.72293 10.0733 8.98407 9.93804 8.51578C9.75072 7.87578 9.29284 7.37626 8.57999 7.03285C8.03885 6.76748 7.67462 6.67903 6.9982 6.6374C6.38942 6.60098 6.05121 6.49171 5.95235 6.29919C5.85349 6.11708 5.92633 5.80488 6.15527 5.45626C6.62357 4.73301 6.8317 4.11903 6.87332 3.32293C6.91495 2.59447 6.8421 2.30309 6.53511 1.98569C6.37901 1.8296 6.21251 1.71512 6.08243 1.6787C5.74942 1.57984 5.17186 1.56423 4.80243 1.64228ZM2.10193 8.6771C2.10193 8.63548 2.14876 8.54702 2.2112 8.46897C2.32567 8.32328 2.46616 8.28686 2.46616 8.40654C2.46616 8.53141 2.77836 8.79158 3.0021 8.84361C3.12177 8.87483 3.38193 8.91645 3.58486 8.93206C4.20925 8.9841 4.55266 9.27548 4.55787 9.75418C4.56827 10.2225 4.31331 10.4774 3.8034 10.5086C3.26226 10.5451 2.97608 10.3421 2.61185 9.68133C2.26323 9.06215 2.10193 8.73954 2.10193 8.6771Z" fill="url(#paint0_radial_2087_32109)"/>
</g>
<defs>
<radialGradient id="paint0_radial_2087_32109" cx="0" cy="0" r="1" gradientUnits="userSpaceOnUse" gradientTransform="translate(7.62339 6.37571) rotate(69.0151) scale(8.89229 9.52183)">
<stop stop-color="#7DD3F7"/>
<stop offset="0.473551" stop-color="#68C6EF"/>
<stop offset="0.676" stop-color="#34A7DD"/>
<stop offset="1" stop-color="#1191D0"/>
</radialGradient>
<clipPath id="clip0_2087_32109">
<rect width="16" height="16" fill="white"/>
</clipPath>
</defs>
</svg>
