<svg width="20" height="20" viewBox="0 0 20 20" fill="none" xmlns="http://www.w3.org/2000/svg">
<g clip-path="url(#clip0_3174_14517)">
<path fill-rule="evenodd" clip-rule="evenodd" d="M11.4156 13.8358H4.41699C3.86471 13.8358 3.41699 13.3881 3.41699 12.8358V2.97558C3.41699 2.4233 3.86471 1.97559 4.41699 1.97559H18.1668C18.719 1.97559 19.1668 2.4233 19.1668 2.97559V12.8358C19.1668 13.3881 18.719 13.8358 18.1668 13.8358H15.3122V16.9571C15.3122 17.3191 14.8698 17.4949 14.6213 17.2317L11.4156 13.8358Z" stroke="#181A1E" stroke-width="0.833333"/>
<path d="M3.36514 8.39795C2.89486 8.39795 1.9543 8.39795 1.9543 8.39795C1.33526 8.39795 0.833421 8.89978 0.833421 9.51883V14.9268C0.833421 15.5459 1.33526 16.0477 1.9543 16.0477H3.30231V17.5762C3.30231 17.8238 3.50304 18.0246 3.75066 18.0246C3.87459 18.0246 3.99299 17.9733 4.07775 17.8829L5.76234 16.0477H9.41211C9.96439 16.0477 10.4121 15.6 10.4121 15.0477V13.7891" stroke="#181A1E" stroke-width="0.833333"/>
<path d="M9.82199 9.78201L9.77399 7.802H10.326C10.734 7.802 11.106 7.766 11.442 7.694C11.778 7.622 12.046 7.482 12.246 7.274C12.446 7.066 12.546 6.762 12.546 6.362C12.546 5.978 12.43 5.678 12.198 5.462C11.966 5.238 11.658 5.126 11.274 5.126C10.874 5.126 10.562 5.238 10.338 5.462C10.114 5.678 10.002 5.974 10.002 6.35H8.54999C8.54199 5.87 8.64599 5.442 8.86199 5.066C9.07799 4.69 9.38999 4.394 9.79799 4.178C10.214 3.962 10.71 3.854 11.286 3.854C11.822 3.854 12.294 3.954 12.702 4.154C13.118 4.354 13.442 4.642 13.674 5.018C13.914 5.386 14.034 5.838 14.034 6.374C14.034 6.926 13.91 7.382 13.662 7.742C13.422 8.102 13.09 8.37001 12.666 8.54601C12.25 8.722 11.766 8.814 11.214 8.822L11.178 9.78201H9.82199ZM10.506 12.482C10.226 12.482 9.99399 12.394 9.80999 12.218C9.63399 12.042 9.54599 11.83 9.54599 11.582C9.54599 11.326 9.63399 11.11 9.80999 10.934C9.99399 10.758 10.226 10.67 10.506 10.67C10.786 10.67 11.014 10.758 11.19 10.934C11.366 11.11 11.454 11.326 11.454 11.582C11.454 11.83 11.366 12.042 11.19 12.218C11.014 12.394 10.786 12.482 10.506 12.482Z" fill="#181A1E"/>
</g>
<defs>
<clipPath id="clip0_3174_14517">
<rect width="20" height="20" fill="white"/>
</clipPath>
</defs>
</svg>
