<svg width="24" height="22" viewBox="0 0 24 22" fill="none" xmlns="http://www.w3.org/2000/svg">
<path d="M1 10.1055L0.999999 9.60547C0.860854 9.60547 0.728002 9.66345 0.633386 9.76548C0.538769 9.8675 0.490947 10.0043 0.501417 10.1431L1 10.1055ZM1.26225 11.8292L0.786309 11.9824L0.786467 11.9829L1.26225 11.8292ZM23 10.1055L23.4989 10.1387C23.5081 10.0006 23.4596 9.86489 23.3651 9.76385C23.2706 9.66281 23.1384 9.60547 23 9.60547L23 10.1055ZM22.7386 11.8292L23.2144 11.9829L23.2145 11.9824L22.7386 11.8292ZM21.8984 12.5159L21.9619 13.0119L21.962 13.0119L21.8984 12.5159ZM20.4181 12.6612L20.3844 12.1624L20.3838 12.1624L20.4181 12.6612ZM19.5448 13.291L19.0832 13.0988C19.0786 13.1096 19.0745 13.1207 19.0707 13.1318L19.5448 13.291ZM19.5424 13.297L19.0818 13.1026L19.0816 13.1029L19.5424 13.297ZM19.5399 13.3028L19.0835 13.098L19.0786 13.1099L19.5399 13.3028ZM19.7085 14.36L20.0843 14.0301L20.084 14.0298L19.7085 14.36ZM20.6514 15.5006L20.2565 15.8073L20.257 15.8079L20.6514 15.5006ZM20.7554 16.5754L21.199 16.8061L21.1991 16.8059L20.7554 16.5754ZM18.4314 18.8794L18.6589 19.3246L18.6591 19.3245L18.4314 18.8794ZM17.3474 18.7762L17.6513 18.3792L17.6507 18.3788L17.3474 18.7762ZM16.1969 17.8415L15.8699 18.2197L15.8702 18.22L16.1969 17.8415ZM15.1305 17.6743L14.9404 17.2118C14.9343 17.2143 14.9282 17.217 14.9222 17.2197L15.1305 17.6743ZM15.1305 17.6743L15.3321 18.1319L15.3388 18.1288L15.1305 17.6743ZM15.1185 17.6791L14.9617 17.2043C14.9507 17.208 14.9398 17.212 14.9291 17.2163L15.1185 17.6791ZM14.4833 18.5449L13.9845 18.51L13.9845 18.5106L14.4833 18.5449ZM14.3368 20.0125L14.8326 20.0772L14.8326 20.0771L14.3368 20.0125ZM13.644 20.8454L13.7949 21.3221L13.7954 21.322L13.644 20.8454ZM10.3568 20.8454L10.2054 21.322L10.2059 21.3221L10.3568 20.8454ZM9.66404 20.0125L9.16823 20.0771L9.16825 20.0772L9.66404 20.0125ZM9.51751 18.5449L10.0163 18.5106L10.0163 18.51L9.51751 18.5449ZM8.8823 17.6791L9.07167 17.2163C9.06099 17.212 9.05015 17.208 9.03919 17.2043L8.8823 17.6791ZM8.87035 17.6743L9.07201 17.2166L9.0604 17.2118L8.87035 17.6743ZM7.80397 17.8415L8.13065 18.22L8.13096 18.2197L7.80397 17.8415ZM6.65348 18.7762L6.35011 18.3788L6.34949 18.3793L6.65348 18.7762ZM5.56939 18.8794L5.34173 19.3245L5.34196 19.3246L5.56939 18.8794ZM3.24538 16.5754L2.80171 16.8059L2.80183 16.8061L3.24538 16.5754ZM3.34942 15.5006L3.74384 15.8079L3.74432 15.8073L3.34942 15.5006ZM4.29229 14.36L3.91685 14.0298L3.91658 14.0301L4.29229 14.36ZM4.46095 13.3028L4.9224 13.1099L4.9172 13.0983L4.46095 13.3028ZM4.45608 13.291L4.93001 13.1316C4.92628 13.1205 4.92216 13.1096 4.91766 13.0987L4.45608 13.291ZM3.58271 12.6612L3.61707 12.1624L3.61645 12.1624L3.58271 12.6612ZM2.10242 12.5159L2.03879 13.0119L2.03892 13.0119L2.10242 12.5159ZM6.64393 10.1055L6.64393 9.60551C6.36779 9.60551 6.14393 9.82937 6.14393 10.1055L6.64393 10.1055ZM17.3569 10.1055L17.8569 10.1055C17.8569 9.82937 17.633 9.60551 17.3569 9.60551L17.3569 10.1055ZM1 10.1055C0.501417 10.1431 0.501419 10.1431 0.501422 10.1432C0.501423 10.1432 0.501426 10.1432 0.501429 10.1433C0.501435 10.1433 0.501442 10.1434 0.50145 10.1435C0.501466 10.1437 0.501488 10.144 0.501516 10.1444C0.501571 10.1451 0.501648 10.1461 0.501747 10.1474C0.501945 10.15 0.502231 10.1536 0.502605 10.1584C0.503354 10.1678 0.504455 10.1815 0.505907 10.199C0.50881 10.2339 0.513122 10.284 0.518833 10.3455C0.530236 10.4685 0.547307 10.6385 0.569995 10.8262C0.613617 11.1871 0.683409 11.6628 0.78631 11.9824L1.73819 11.6759C1.66844 11.4593 1.60711 11.0731 1.56277 10.7062C1.54148 10.5301 1.52536 10.3696 1.51456 10.2532C1.50918 10.1951 1.50514 10.1482 1.50247 10.1161C1.50113 10.1 1.50014 10.0877 1.49949 10.0795C1.49917 10.0754 1.49893 10.0723 1.49878 10.0704C1.4987 10.0694 1.49865 10.0687 1.49861 10.0683C1.4986 10.0681 1.49859 10.0679 1.49858 10.0678C1.49858 10.0678 1.49858 10.0678 1.49858 10.0678L1.49858 10.0678C1.49858 10.0678 1.49858 10.0678 1 10.1055ZM23 9.60547L0.999999 9.60547L1 10.6055L23 10.6055L23 9.60547ZM23.2145 11.9824C23.3235 11.644 23.393 11.1695 23.4352 10.8103C23.4571 10.6243 23.4729 10.4574 23.4833 10.3369C23.4885 10.2766 23.4924 10.2277 23.4949 10.1935C23.4962 10.1765 23.4972 10.1631 23.4978 10.1538C23.4982 10.1491 23.4984 10.1455 23.4986 10.143C23.4987 10.1417 23.4988 10.1407 23.4988 10.14C23.4988 10.1396 23.4989 10.1393 23.4989 10.1391C23.4989 10.139 23.4989 10.1389 23.4989 10.1388C23.4989 10.1388 23.4989 10.1387 23.4989 10.1387C23.4989 10.1387 23.4989 10.1387 23 10.1055C22.5011 10.0723 22.5011 10.0723 22.5011 10.0722C22.5011 10.0722 22.5011 10.0722 22.5011 10.0722C22.5011 10.0722 22.5011 10.0722 22.5011 10.0722C22.5011 10.0723 22.5011 10.0724 22.5011 10.0726C22.5011 10.073 22.501 10.0737 22.5009 10.0746C22.5008 10.0764 22.5006 10.0793 22.5003 10.0832C22.4998 10.0911 22.4989 10.1029 22.4978 10.1184C22.4954 10.1494 22.4919 10.1947 22.487 10.2511C22.4773 10.364 22.4624 10.5203 22.4421 10.6935C22.3999 11.0525 22.3387 11.4398 22.2626 11.6759L23.2145 11.9824ZM21.962 13.0119C22.5363 12.9382 23.0325 12.5458 23.2144 11.9829L22.2628 11.6754C22.2048 11.855 22.0405 11.9936 21.8348 12.02L21.962 13.0119ZM20.4519 13.1601C20.9553 13.126 21.4588 13.0763 21.9619 13.0119L21.8349 12.02C21.3509 12.082 20.8672 12.1297 20.3844 12.1624L20.4519 13.1601ZM20.0063 13.4831C20.0835 13.2978 20.256 13.1736 20.4525 13.16L20.3838 12.1624C19.803 12.2024 19.3035 12.5696 19.0832 13.0988L20.0063 13.4831ZM20.0031 13.4914C20.0069 13.4825 20.0127 13.468 20.0188 13.4501L19.0707 13.1318C19.0754 13.1179 19.0797 13.1075 19.0818 13.1026L20.0031 13.4914ZM19.9961 13.5075C19.9967 13.5061 19.9998 13.4991 20.0032 13.4911L19.0816 13.1029C19.0827 13.1005 19.0834 13.0987 19.0837 13.098C19.084 13.0974 19.0842 13.0971 19.0837 13.0981L19.9961 13.5075ZM20.084 14.0298C19.9576 13.8861 19.9236 13.6811 20.0012 13.4957L19.0786 13.1099C18.8577 13.6381 18.9469 14.2511 19.3331 14.6902L20.084 14.0298ZM21.0463 15.1939C20.7363 14.7947 20.4151 14.4069 20.0843 14.0301L19.3328 14.6899C19.6509 15.0522 19.9592 15.4245 20.2565 15.8073L21.0463 15.1939ZM21.1991 16.8059C21.4721 16.2806 21.4028 15.6515 21.0458 15.1933L20.257 15.8079C20.3808 15.9668 20.3991 16.1767 20.3118 16.3448L21.1991 16.8059ZM18.6591 19.3245C19.7732 18.7548 20.6236 17.9121 21.199 16.8061L20.3119 16.3446C19.8329 17.2652 19.1339 17.9585 18.2038 18.4342L18.6591 19.3245ZM17.0434 19.1732C17.5036 19.5257 18.1331 19.5932 18.6589 19.3246L18.204 18.4341C18.0303 18.5228 17.8135 18.5034 17.6513 18.3793L17.0434 19.1732ZM15.8702 18.22C16.2502 18.548 16.6413 18.8663 17.044 19.1737L17.6507 18.3788C17.2645 18.084 16.889 17.7783 16.5235 17.4629L15.8702 18.22ZM15.3205 18.1367C15.5121 18.058 15.7235 18.0932 15.8699 18.2197L16.5239 17.4632C16.0823 17.0815 15.4687 16.9947 14.9404 17.2118L15.3205 18.1367ZM15.3388 18.1288L15.3388 18.1288L14.9222 17.2197L14.9221 17.2197L15.3388 18.1288ZM15.2754 18.1538C15.2926 18.1481 15.3066 18.1426 15.3154 18.139C15.3236 18.1356 15.331 18.1323 15.332 18.1318L14.9289 17.2167C14.926 17.218 14.9293 17.2165 14.9336 17.2147C14.9384 17.2127 14.9484 17.2087 14.9617 17.2043L15.2754 18.1538ZM14.9821 18.5799C14.9953 18.3912 15.1174 18.2198 15.3079 18.1418L14.9291 17.2163C14.3991 17.4333 14.0253 17.928 13.9845 18.51L14.9821 18.5799ZM14.8326 20.0771C14.8976 19.578 14.9478 19.0786 14.9821 18.5793L13.9845 18.5106C13.9516 18.9891 13.9035 19.4683 13.841 19.9479L14.8326 20.0771ZM13.7954 21.322C14.3587 21.1431 14.7575 20.6523 14.8326 20.0772L13.841 19.9478C13.8151 20.1459 13.6784 20.3099 13.4927 20.3689L13.7954 21.322ZM10.2059 21.3221C11.3997 21.6999 12.6011 21.6999 13.7949 21.3221L13.4932 20.3687C12.4958 20.6844 11.5051 20.6844 10.5077 20.3687L10.2059 21.3221ZM9.16825 20.0772C9.24332 20.6524 9.64218 21.1431 10.2054 21.322L10.5082 20.3689C10.3225 20.3099 10.1857 20.1459 10.1598 19.9478L9.16825 20.0772ZM9.01869 18.5793C9.05306 19.0786 9.10322 19.578 9.16823 20.0771L10.1599 19.9479C10.0974 19.4683 10.0493 18.9891 10.0163 18.5106L9.01869 18.5793ZM8.69293 18.1418C8.88346 18.2198 9.00551 18.3912 9.01873 18.5799L10.0163 18.51C9.97551 17.9281 9.60184 17.4333 9.07167 17.2163L8.69293 18.1418ZM8.66876 18.1318C8.6698 18.1323 8.67714 18.1355 8.68542 18.139C8.69421 18.1426 8.70817 18.1481 8.72542 18.1538L9.03919 17.2043C9.05245 17.2087 9.06243 17.2127 9.06723 17.2147C9.07153 17.2165 9.07488 17.218 9.07194 17.2167L8.66876 18.1318ZM8.13096 18.2197C8.27732 18.0932 8.48874 18.058 8.6803 18.1367L9.0604 17.2118C8.53216 16.9947 7.91851 17.0815 7.47698 17.4632L8.13096 18.2197ZM6.95685 19.1737C7.35952 18.8663 7.75061 18.548 8.13065 18.22L7.47729 17.4629C7.11185 17.7783 6.7363 18.084 6.35011 18.3788L6.95685 19.1737ZM5.34196 19.3246C5.86772 19.5932 6.4972 19.5257 6.95747 19.1732L6.34949 18.3793C6.18734 18.5034 5.97049 18.5228 5.79682 18.4341L5.34196 19.3246ZM2.80183 16.8061C3.37728 17.9121 4.22763 18.7548 5.34173 19.3245L5.79704 18.4342C4.86692 17.9585 4.16797 17.2652 3.68894 16.3446L2.80183 16.8061ZM2.95499 15.1933C2.59803 15.6515 2.52873 16.2806 2.80171 16.8059L3.68905 16.3448C3.6017 16.1767 3.62004 15.9668 3.74384 15.8079L2.95499 15.1933ZM3.91658 14.0301C3.58571 14.4069 3.26458 14.7947 2.95451 15.1939L3.74432 15.8073C4.04161 15.4245 4.34989 15.0522 4.668 14.6899L3.91658 14.0301ZM3.99965 13.4957C4.07719 13.6811 4.04327 13.8861 3.91685 14.0298L4.66773 14.6902C5.05394 14.2511 5.14309 13.6381 4.92225 13.1099L3.99965 13.4957ZM3.98215 13.4503C3.98801 13.4677 3.9937 13.4818 3.99741 13.4906C4.00091 13.4989 4.00424 13.5063 4.00471 13.5074L4.9172 13.0983C4.91589 13.0953 4.91745 13.0988 4.91929 13.1031C4.92134 13.108 4.92549 13.1182 4.93001 13.1316L3.98215 13.4503ZM3.54835 13.16C3.74481 13.1736 3.91733 13.2978 3.9945 13.4832L4.91766 13.0987C4.69735 12.5697 4.19796 12.2024 3.61707 12.1624L3.54835 13.16ZM2.03892 13.0119C2.54205 13.0763 3.04553 13.126 3.54897 13.1601L3.61645 12.1624C3.13359 12.1297 2.64997 12.082 2.16592 12.02L2.03892 13.0119ZM0.786467 11.9829C0.968364 12.5458 1.46462 12.9382 2.03879 13.0119L2.16605 12.02C1.96029 11.9936 1.79607 11.855 1.73803 11.6754L0.786467 11.9829ZM12.0004 14.9224C9.31493 14.9224 7.14393 12.7589 7.14393 10.1055L6.14393 10.1055C6.14393 13.3178 8.76921 15.9224 12.0004 15.9224L12.0004 14.9224ZM16.8569 10.1055C16.8569 12.759 14.6859 14.9224 12.0004 14.9224L12.0004 15.9224C15.2316 15.9224 17.8569 13.3178 17.8569 10.1055L16.8569 10.1055ZM6.64393 10.6055L17.3569 10.6055L17.3569 9.60551L6.64393 9.60551L6.64393 10.6055Z" fill="black"/>
<path d="M7.77859 3.19149H6.58327C6.54918 2.99547 6.48633 2.82182 6.39471 2.67054C6.30309 2.51713 6.1891 2.38716 6.05273 2.28063C5.91637 2.17409 5.76083 2.09419 5.58611 2.04093C5.41353 1.98553 5.2271 1.95783 5.02681 1.95783C4.67099 1.95783 4.35565 2.04732 4.08079 2.2263C3.80593 2.40314 3.59073 2.66309 3.43519 3.00613C3.27965 3.34703 3.20188 3.76358 3.20188 4.25577C3.20188 4.75648 3.27965 5.17836 3.43519 5.5214C3.59286 5.8623 3.80806 6.12012 4.08079 6.29483C4.35565 6.46742 4.66992 6.55371 5.02362 6.55371C5.21964 6.55371 5.40288 6.52814 5.57333 6.47701C5.74592 6.42374 5.90039 6.34597 6.03675 6.2437C6.17525 6.14142 6.29137 6.01571 6.38512 5.86657C6.481 5.71742 6.54705 5.54696 6.58327 5.3552L7.77859 5.36159C7.73384 5.67267 7.6369 5.96458 7.48775 6.2373C7.34073 6.51003 7.1479 6.7508 6.90927 6.95961C6.67063 7.16628 6.39151 7.32821 6.07191 7.4454C5.75231 7.56046 5.39755 7.61799 5.00764 7.61799C4.43235 7.61799 3.91886 7.48482 3.46715 7.21848C3.01545 6.95215 2.65962 6.56756 2.39968 6.06472C2.13974 5.56188 2.00977 4.9589 2.00977 4.25577C2.00977 3.55051 2.1408 2.94753 2.40288 2.44682C2.66495 1.94398 3.02184 1.55939 3.47354 1.29306C3.92525 1.02672 4.43661 0.893555 5.00764 0.893555C5.37198 0.893555 5.71076 0.94469 6.02397 1.04696C6.33718 1.14924 6.6163 1.29945 6.86133 1.4976C7.10636 1.69363 7.30771 1.93439 7.46538 2.2199C7.62518 2.50328 7.72958 2.82715 7.77859 3.19149Z" fill="black"/>
<path d="M8.86444 0.983043H10.3154L12.2586 5.72594H12.3353L14.2785 0.983043H15.7295V7.5285H14.5917V3.03169H14.531L12.722 7.50932H11.8719L10.0629 3.02211H10.0022V7.5285H8.86444V0.983043Z" fill="black"/>
<path d="M20.5779 2.7824C20.548 2.50328 20.4223 2.28595 20.2007 2.13041C19.9813 1.97488 19.6958 1.89711 19.3442 1.89711C19.097 1.89711 18.885 1.93439 18.7082 2.00897C18.5313 2.08354 18.396 2.18475 18.3023 2.31259C18.2085 2.44043 18.1606 2.58638 18.1585 2.75044C18.1585 2.88681 18.1894 3.00506 18.2512 3.1052C18.3151 3.20534 18.4014 3.29057 18.51 3.36088C18.6187 3.42907 18.7391 3.48659 18.8712 3.53347C19.0033 3.58034 19.1365 3.61976 19.2707 3.65172L19.8843 3.80513C20.1315 3.86266 20.3691 3.94043 20.597 4.03844C20.8272 4.13645 21.0328 4.26003 21.2139 4.40918C21.3971 4.55833 21.542 4.73837 21.6485 4.94931C21.7551 5.16024 21.8083 5.4074 21.8083 5.69078C21.8083 6.07431 21.7103 6.41202 21.5143 6.70392C21.3183 6.9937 21.0349 7.22061 20.6642 7.38468C20.2955 7.54661 19.8492 7.62757 19.325 7.62757C18.8158 7.62757 18.3737 7.54874 17.9987 7.39107C17.6258 7.2334 17.3339 7.00328 17.123 6.70073C16.9142 6.39817 16.8012 6.02956 16.7842 5.5949H17.9507C17.9678 5.82289 18.0381 6.01252 18.1617 6.1638C18.2852 6.31507 18.4461 6.428 18.6443 6.50257C18.8446 6.57715 19.0683 6.61444 19.3154 6.61444C19.5732 6.61444 19.7991 6.57608 19.993 6.49938C20.189 6.42054 20.3424 6.31188 20.4532 6.17338C20.564 6.03276 20.6205 5.8687 20.6226 5.6812C20.6205 5.51074 20.5704 5.37012 20.4724 5.25932C20.3744 5.1464 20.237 5.05265 20.0601 4.97807C19.8854 4.90137 19.6808 4.83319 19.4465 4.77353L18.7018 4.58176C18.1627 4.44327 17.7366 4.2334 17.4234 3.95215C17.1123 3.66877 16.9568 3.2927 16.9568 2.82395C16.9568 2.4383 17.0612 2.10059 17.27 1.81081C17.4809 1.52104 17.7675 1.29625 18.1297 1.13645C18.4919 0.97452 18.9021 0.893555 19.3602 0.893555C19.8247 0.893555 20.2316 0.97452 20.5811 1.13645C20.9326 1.29625 21.2085 1.51891 21.4088 1.80442C21.6091 2.0878 21.7124 2.4138 21.7188 2.7824H20.5779Z" fill="black"/>
</svg>
