<svg width="37" height="37" viewBox="0 0 37 37" fill="none" xmlns="http://www.w3.org/2000/svg">
<g clip-path="url(#clip0_3929_89853)">
<path d="M8.83521 0C3.88069 0 0 2.56613 0 5.84197V31.1584C0 34.4342 3.88069 37 8.83521 37C13.7897 37 17.6704 34.4342 17.6704 31.1584V5.84197C17.6703 2.56613 13.7897 0 8.83521 0ZM16.1904 31.1584C16.1904 33.5226 12.8221 35.52 8.83521 35.52C4.84833 35.52 1.48005 33.5226 1.48005 31.1584V29.3756C3.05104 30.9327 5.73224 31.9396 8.83521 31.9396C11.9383 31.9396 14.6194 30.9327 16.1904 29.3756V31.1584ZM16.1904 26.0976C16.1904 28.4622 12.8221 30.4595 8.83521 30.4595C4.84833 30.4595 1.48005 28.4621 1.48005 26.0976V24.3118C3.05104 25.8688 5.73224 26.8756 8.83521 26.8756C11.9383 26.8756 14.6194 25.8688 16.1904 24.3118V26.0976ZM16.1904 21.034C16.1904 23.3982 12.8221 25.3956 8.83521 25.3956C4.84833 25.3956 1.48005 23.3982 1.48005 21.034V19.2478C3.05104 20.8047 5.73224 21.8115 8.83521 21.8115C11.9383 21.8115 14.6194 20.8047 16.1904 19.2478V21.034ZM16.1904 15.9699C16.1904 18.3341 12.8221 20.3316 8.83521 20.3316C4.84833 20.3316 1.48005 18.3341 1.48005 15.9699V14.1838C3.05104 15.7407 5.73224 16.7475 8.83521 16.7475C11.9383 16.7475 14.6194 15.7407 16.1904 14.1838V15.9699ZM16.1904 10.906C16.1904 13.2702 12.8221 15.2676 8.83521 15.2676C4.84833 15.2676 1.48005 13.2702 1.48005 10.906V9.11983C3.05104 10.6768 5.73224 11.6836 8.83521 11.6836C11.9383 11.6836 14.6194 10.6768 16.1904 9.11983V10.906ZM8.83521 10.2035C4.84833 10.2035 1.48005 8.20608 1.48005 5.84189C1.48005 3.47733 4.84833 1.47998 8.83521 1.47998C12.8221 1.47998 16.1904 3.4774 16.1904 5.84189C16.1904 8.20608 12.8221 10.2035 8.83521 10.2035Z" fill="#181A1E"/>
<path d="M28.164 9.94922C23.2095 9.94922 19.3281 12.515 19.3281 15.7908V31.1584C19.3281 34.4343 23.2095 37 28.164 37C33.1185 37 36.9992 34.4343 36.9992 31.1584V15.7908C36.9992 12.515 33.1185 9.94922 28.164 9.94922ZM35.5192 31.1584C35.5192 33.5226 32.1509 35.5201 28.164 35.5201C24.1764 35.5201 20.8081 33.5226 20.8081 31.1584V29.3754C22.3793 30.9326 25.0608 31.9396 28.164 31.9396C31.2671 31.9396 33.9482 30.9328 35.5192 29.3757V31.1584ZM35.5192 26.0977C35.5192 28.4622 32.1509 30.4596 28.164 30.4596C24.1764 30.4596 20.8081 28.4621 20.8081 26.0977V24.3116C22.3793 25.8687 25.0608 26.8756 28.164 26.8756C31.2671 26.8756 33.9482 25.8688 35.5192 24.3119V26.0977ZM35.5192 21.034C35.5192 23.3982 32.1509 25.3956 28.164 25.3956C24.1764 25.3956 20.8081 23.3982 20.8081 21.034V19.0684C22.3793 20.6257 25.0608 21.6327 28.164 21.6327C31.2671 21.6327 33.9482 20.6258 35.5192 19.0687V21.034ZM28.164 20.1527C24.1764 20.1527 20.8081 18.1553 20.8081 15.7907C20.8081 13.4265 24.1764 11.4291 28.164 11.4291C32.1509 11.4291 35.5192 13.4265 35.5192 15.7907C35.5192 18.1553 32.1509 20.1527 28.164 20.1527Z" fill="#181A1E"/>
</g>
<defs>
<clipPath id="clip0_3929_89853">
<rect width="37" height="37" fill="white"/>
</clipPath>
</defs>
</svg>
