<svg width="35" height="35" viewBox="0 0 35 35" fill="none" xmlns="http://www.w3.org/2000/svg">
<rect width="35" height="35" rx="17.5" fill="#FCB93F"/>
<path d="M8 21.3221C8 24.1839 10.32 26.5039 13.1818 26.5039H23.7302V26.5039C21.8862 26.5039 20.3914 25.0091 20.3914 23.1651V21.7195V9.36557C20.3914 8.8886 20.0047 8.50193 19.5277 8.50193H8.86364C8.38666 8.50193 8 8.8886 8 9.36557V21.3221Z" stroke="white" stroke-linecap="round" stroke-linejoin="round"/>
<path d="M20.3906 23.1995C20.3906 25.0245 21.87 26.5039 23.695 26.5039V26.5039C25.5199 26.5039 26.9994 25.0245 26.9994 23.1995V18.6216H20.3906V23.1995Z" stroke="white" stroke-linecap="round" stroke-linejoin="round"/>
<path d="M10.2598 15.4844H17.568" stroke="white" stroke-linecap="round" stroke-linejoin="round"/>
<path d="M10.2598 18.7148H17.568" stroke="white" stroke-linecap="round" stroke-linejoin="round"/>
<path d="M10.2598 21.9453H17.568" stroke="white" stroke-linecap="round" stroke-linejoin="round"/>
<path d="M10.2598 12.25H14.4541" stroke="white" stroke-linecap="round" stroke-linejoin="round"/>
</svg>
