<svg width="24" height="24" viewBox="0 0 24 24" fill="none" xmlns="http://www.w3.org/2000/svg">
<g clip-path="url(#clip0_1948_10613)">
<rect opacity="0.01" width="24" height="24" fill="white"/>
<path d="M4.31268 13.9578L3.33594 13.1397L7.35111 7.85352C7.35111 7.85352 10.6864 7.99885 11.1647 8.39362" stroke="#181A1E" stroke-linecap="round" stroke-linejoin="round"/>
<path d="M17.941 13.8892L19.9929 12.0149L16.6828 7.41602C16.6828 7.41602 15.3283 7.8491 14.4811 7.8491C13.6339 7.8491 12.0939 7.59513 10.6602 8.81556C9.22651 10.036 6.99805 10.0067 6.99805 10.6002C6.99805 11.1937 7.40752 12.0149 9.14871 12.0149C10.8899 12.0149 11.3455 10.8941 11.8404 10.9035C12.3353 10.913 14.1343 11.2422 15.111 10.9035" stroke="#181A1E" stroke-linecap="round" stroke-linejoin="round"/>
<path d="M15.1092 10.9033C15.1092 10.9033 16.5476 12.6477 17.8924 13.9577C19.6136 15.6344 17.4097 16.3356 16.5476 15.374C17.1636 16.6892 15.9631 17.639 14.8671 16.6892C15.3597 18.0385 14.1027 18.7627 12.9675 17.9678C13.317 19.0743 11.6553 19.5667 11.0254 18.7963" stroke="#181A1E" stroke-linecap="round" stroke-linejoin="round"/>
<path fill-rule="evenodd" clip-rule="evenodd" d="M4.31159 13.9578C5.03012 13.3128 5.63285 12.64 6.38796 12.9764C7.14307 13.3128 7.06246 14.3237 7.06246 14.3237C7.06246 14.3237 8.51412 13.2617 9.12155 13.9578C9.72897 14.6539 9.38804 15.3512 9.38804 15.3512C9.38804 15.3512 11.1392 14.5896 10.8794 16.5902C11.9276 16.342 12.0082 17.3446 11.6556 17.9141C11.2708 18.5358 11.1494 18.7419 10.5011 19.2463C9.98669 19.6465 8.98752 19.5617 9.12155 18.2704C7.88514 19.2216 6.85266 18.2228 7.3064 17.1942C6.33724 17.8667 4.81102 17.1942 5.67776 15.5903C4.21158 16.3901 3.59307 14.6028 4.31159 13.9578Z" stroke="#181A1E" stroke-linecap="round" stroke-linejoin="round"/>
<path fill-rule="evenodd" clip-rule="evenodd" d="M16.2458 6.8293C16.1396 6.68335 16.1734 6.47873 16.3209 6.37465L18.654 4.72774C18.799 4.62541 18.9993 4.65895 19.1031 4.80293L23.3125 10.6452C23.4165 10.7895 23.3845 10.9906 23.2409 11.0955L20.9624 12.7609C20.818 12.8664 20.6152 12.8347 20.5099 12.69L16.2458 6.8293Z" stroke="#181A1E" stroke-linecap="round" stroke-linejoin="round"/>
<path d="M7.54758 7.52424L3.07193 13.4197C2.95684 13.5713 2.7364 13.5913 2.59593 13.4628L0.716262 11.7443C0.593518 11.6321 0.575853 11.4451 0.675412 11.3119L4.98419 5.54618C5.09255 5.40119 5.29877 5.3733 5.44174 5.4843L7.48829 7.07305C7.62835 7.18179 7.65479 7.38301 7.54758 7.52424Z" stroke="#181A1E" stroke-linecap="round" stroke-linejoin="round"/>
<path d="M7.12962 14.2354L5.67773 15.59" stroke="#181A1E" stroke-linecap="round" stroke-linejoin="round"/>
<path d="M9.38883 15.3516L7.25 17.2687" stroke="#181A1E" stroke-linecap="round" stroke-linejoin="round"/>
<path d="M10.8896 16.5625L9.12109 18.2707" stroke="#181A1E" stroke-linecap="round" stroke-linejoin="round"/>
</g>
<defs>
<clipPath id="clip0_1948_10613">
<rect width="24" height="24" fill="white"/>
</clipPath>
</defs>
</svg>
