<svg width="60" height="60" viewBox="0 0 60 60" fill="none" xmlns="http://www.w3.org/2000/svg">
<rect width="60" height="60" rx="7.5" fill="#FEEBCA"/>
<g clip-path="url(#clip0_7327_114417)">
<rect opacity="0.01" x="11" y="11" width="38" height="38" fill="white"/>
<path d="M17.8278 33.0988L16.2812 31.8033L22.6386 23.4336C22.6386 23.4336 27.9194 23.6637 28.6767 24.2888" stroke="#FCB93F" stroke-width="1.52679" stroke-linecap="round" stroke-linejoin="round"/>
<path d="M39.4064 32.9899L42.6553 30.0223L37.4142 22.7407C37.4142 22.7407 35.2696 23.4264 33.9282 23.4264C32.5868 23.4264 30.1486 23.0243 27.8785 24.9567C25.6085 26.889 22.0801 26.8427 22.0801 27.7823C22.0801 28.722 22.7284 30.0223 25.4853 30.0223C28.2422 30.0223 28.9636 28.2477 29.7472 28.2626C30.5307 28.2776 33.3791 28.7988 34.9256 28.2626" stroke="#FCB93F" stroke-width="1.52679" stroke-linecap="round" stroke-linejoin="round"/>
<path d="M34.9231 28.2627C34.9231 28.2627 37.2005 31.0246 39.3298 33.0989C42.055 35.7536 38.5656 36.8638 37.2005 35.3413C38.1758 37.4236 36.275 38.9275 34.5398 37.4236C35.3196 39.5601 33.3294 40.7067 31.532 39.4481C32.0854 41.2001 29.4544 41.9797 28.457 40.7599" stroke="#FCB93F" stroke-width="1.52679" stroke-linecap="round" stroke-linejoin="round"/>
<path fill-rule="evenodd" clip-rule="evenodd" d="M17.8264 33.0987C18.964 32.0774 19.9183 31.0121 21.1139 31.5448C22.3095 32.0774 22.1819 33.6781 22.1819 33.6781C22.1819 33.6781 24.4804 31.9966 25.4421 33.0987C26.4039 34.2008 25.8641 35.3049 25.8641 35.3049C25.8641 35.3049 28.6367 34.0991 28.2254 37.2666C29.8851 36.8737 30.0127 38.4612 29.4544 39.3629C28.8451 40.3472 28.6529 40.6735 27.6265 41.4721C26.8119 42.1058 25.2299 41.9715 25.4421 39.9269C23.4845 41.4331 21.8497 39.8517 22.5681 38.223C21.0336 39.2878 18.6171 38.223 19.9895 35.6835C17.668 36.9498 16.6887 34.12 17.8264 33.0987Z" stroke="#FCB93F" stroke-width="1.52679" stroke-linecap="round" stroke-linejoin="round"/>
<path fill-rule="evenodd" clip-rule="evenodd" d="M36.7089 21.7969C36.5467 21.5741 36.5983 21.2617 36.8234 21.1028L40.5475 18.474C40.7689 18.3178 41.0748 18.369 41.2332 18.5888L47.9194 27.8685C48.0781 28.0888 48.0293 28.3959 47.8101 28.5561L44.1729 31.2144C43.9524 31.3756 43.6428 31.3271 43.482 31.1062L36.7089 21.7969Z" stroke="#FCB93F" stroke-width="1.52679" stroke-linecap="round" stroke-linejoin="round"/>
<path d="M22.5238 22.4868L15.6905 31.4879C15.5147 31.7193 15.1782 31.7499 14.9637 31.5538L12.0939 28.9299C11.9065 28.7586 11.8795 28.4731 12.0315 28.2697L18.6101 19.4667C18.7755 19.2454 19.0904 19.2028 19.3087 19.3722L22.4333 21.7979C22.6471 21.9639 22.6875 22.2712 22.5238 22.4868Z" stroke="#FCB93F" stroke-width="1.52679" stroke-linecap="round" stroke-linejoin="round"/>
<path d="M22.291 33.5386L19.9922 35.6834" stroke="#FCB93F" stroke-width="1.52679" stroke-linecap="round" stroke-linejoin="round"/>
<path d="M25.865 35.3049L22.4785 38.3403" stroke="#FCB93F" stroke-width="1.52679" stroke-linecap="round" stroke-linejoin="round"/>
<path d="M28.2435 37.2217L25.4434 39.9264" stroke="#FCB93F" stroke-width="1.52679" stroke-linecap="round" stroke-linejoin="round"/>
</g>
<defs>
<clipPath id="clip0_7327_114417">
<rect width="38" height="38" fill="white" transform="translate(11 11)"/>
</clipPath>
</defs>
</svg>
