<svg width="60" height="60" viewBox="0 0 60 60" fill="none" xmlns="http://www.w3.org/2000/svg">
<rect width="60" height="60" rx="7.5" fill="#F5F6F8"/>
<path d="M16.875 23.084H28.7504V28.9966C28.7504 29.9447 28.3738 30.8541 27.7033 31.5245C27.0328 32.195 26.1235 32.5716 25.1753 32.5716H20.4501C19.9806 32.5716 19.5157 32.4792 19.082 32.2995C18.6482 32.1198 18.2541 31.8565 17.9221 31.5245C17.2517 30.8541 16.875 29.9447 16.875 28.9966V23.084Z" stroke="#B3BBC7" stroke-width="2.38756" stroke-miterlimit="10"/>
<path d="M19.2617 15.9355V23.0857" stroke="#B3BBC7" stroke-width="2.38756" stroke-miterlimit="10"/>
<path d="M26.4258 15.9355V23.0857" stroke="#B3BBC7" stroke-width="2.38756" stroke-miterlimit="10"/>
<path d="M20.4492 32.6348H25.2244V35.0223C25.2244 35.6555 24.9728 36.2628 24.5251 36.7105C24.0773 37.1583 23.47 37.4098 22.8368 37.4098C22.5233 37.4098 22.2128 37.3481 21.9231 37.2281C21.6334 37.1081 21.3702 36.9322 21.1485 36.7105C20.7008 36.2628 20.4492 35.6555 20.4492 35.0223V32.6348Z" stroke="#B3BBC7" stroke-width="2.38756" stroke-miterlimit="10"/>
<path d="M22.8359 37.4092V37.9967C22.8359 39.4223 23.4023 40.7894 24.4103 41.7975C25.4183 42.8055 26.7855 43.3718 28.2111 43.3718C28.9164 43.3718 29.6148 43.2327 30.2662 42.9624C30.9177 42.6921 31.5094 42.296 32.0076 41.7967C32.5057 41.2974 32.9004 40.7048 33.1692 40.0527C33.438 39.4007 33.5755 38.702 33.5738 37.9967V27.8591C33.5738 26.5926 34.0769 25.3781 34.9724 24.4826C35.868 23.5871 37.0825 23.084 38.349 23.084C39.6155 23.084 40.83 23.5871 41.7256 24.4826C42.6211 25.3781 43.1242 26.5926 43.1242 27.8591V44.5593" stroke="#B3BBC7" stroke-width="2.38756" stroke-miterlimit="10"/>
</svg>
