<svg width="24" height="22" viewBox="0 0 24 22" fill="none" xmlns="http://www.w3.org/2000/svg">
<path fill-rule="evenodd" clip-rule="evenodd" d="M13.6989 15.6024H5.30059C4.63785 15.6024 4.10059 15.0652 4.10059 14.4024V2.57012C4.10059 1.90738 4.63784 1.37012 5.30059 1.37012H21.8003C22.463 1.37012 23.0003 1.90738 23.0003 2.57012V14.4024C23.0003 15.0652 22.463 15.6024 21.8003 15.6024H18.3748V19.348C18.3748 19.7823 17.8439 19.9933 17.5458 19.6775L13.6989 15.6024Z" stroke="#181A1E"/>
<path fill-rule="evenodd" clip-rule="evenodd" d="M13.3057 10.5567L10.9339 11.8036L11.3868 9.16254L9.468 7.29214L12.1198 6.90681L13.3057 4.50391L14.4916 6.90681L17.1433 7.29214L15.2245 9.16254L15.6775 11.8036L13.3057 10.5567Z" stroke="#181A1E" stroke-linejoin="round"/>
<path d="M4.03777 9.07715C3.47344 9.07715 2.34477 9.07715 2.34477 9.07715C1.60192 9.07715 0.999714 9.67935 0.999714 10.4222V16.9118C0.999714 17.6546 1.60192 18.2568 2.34477 18.2568H3.96238V20.0911C3.96238 20.3882 4.20326 20.6291 4.5004 20.6291C4.64912 20.6291 4.7912 20.5675 4.89291 20.459L6.91441 18.2568H11.2941C11.9569 18.2568 12.4941 17.7196 12.4941 17.0568V15.5466" stroke="#181A1E"/>
</svg>
