<svg width="20" height="20" viewBox="0 0 20 20" fill="none" xmlns="http://www.w3.org/2000/svg">
<path fill-rule="evenodd" clip-rule="evenodd" d="M11.414 13.8353H4.41541C3.86312 13.8353 3.41541 13.3876 3.41541 12.8353V2.9751C3.41541 2.42281 3.86312 1.9751 4.41541 1.9751H18.1652C18.7175 1.9751 19.1652 2.42281 19.1652 2.9751V12.8353C19.1652 13.3876 18.7175 13.8353 18.1652 13.8353H15.3106V16.9567C15.3106 17.3186 14.8682 17.4944 14.6197 17.2312L11.414 13.8353Z" stroke="#181A1E" stroke-width="0.833333"/>
<path fill-rule="evenodd" clip-rule="evenodd" d="M11.0863 9.62989L9.10976 10.669L9.48724 8.46813L7.88821 6.90946L10.098 6.58836L11.0863 4.58594L12.0745 6.58836L14.2843 6.90946L12.6853 8.46813L13.0628 10.669L11.0863 9.62989Z" stroke="#181A1E" stroke-width="0.833333" stroke-linejoin="round"/>
<path d="M3.36392 8.39746C2.89364 8.39746 1.95308 8.39746 1.95308 8.39746C1.33403 8.39746 0.8322 8.8993 0.8322 9.51834V14.9263C0.8322 15.5454 1.33403 16.0472 1.95308 16.0472H3.30109V17.5757C3.30109 17.8233 3.50182 18.0241 3.74944 18.0241C3.87337 18.0241 3.99177 17.9728 4.07653 17.8824L5.76112 16.0472H9.41089C9.96317 16.0472 10.4109 15.5995 10.4109 15.0472V13.7887" stroke="#181A1E" stroke-width="0.833333"/>
</svg>
