<svg width="84" height="78" viewBox="0 0 84 78" fill="none" xmlns="http://www.w3.org/2000/svg">
<g clip-path="url(#clip0_3929_89750)">
<path d="M32.8332 33.2772C44.6672 27.6045 69.1098 1.92249 79.9798 22.4088C89.0762 39.5516 68.9575 55.6329 56.9124 61.5162C41.244 69.1722 18.2137 66.1489 5.81606 51.677C0.484456 45.4456 -1.43928 36.6357 7.86166 34.9962C10.9997 34.4418 16.3269 36.4617 19.8741 36.2855C24.4201 36.0598 28.8725 35.1746 32.8332 33.2772Z" fill="#BCE7DC"/>
<path opacity="0.9" d="M32.8332 33.2772C44.6672 27.6045 69.1098 1.92249 79.9798 22.4088C89.0762 39.5516 68.9575 55.6329 56.9124 61.5162C41.244 69.1722 18.2137 66.1489 5.81606 51.677C0.484456 45.4456 -1.43928 36.6357 7.86166 34.9962C10.9997 34.4418 16.3269 36.4617 19.8741 36.2855C24.4201 36.0598 28.8725 35.1746 32.8332 33.2772Z" fill="#BCE7DC"/>
<path d="M39.4961 21.2032C39.0152 22.3571 36.184 22.2776 33.2179 21.07C30.2518 19.8624 28.2345 17.9479 28.7154 16.794C28.8286 16.5275 29.1506 15.5283 29.4727 15.3908C30.5782 14.9288 32.6826 15.9667 34.961 16.895C37.0828 17.7545 39.5092 18.3153 39.8857 19.452C40.112 20.1439 39.6332 20.8745 39.4961 21.2032Z" fill="#1F59AF"/>
<path opacity="0.2" d="M39.886 19.4523C40.0666 20.3569 39.6684 20.791 39.4965 21.2036C39.3246 21.6161 38.8219 21.8869 38.119 21.9814C38.0311 21.9962 37.9425 22.0062 37.8535 22.0115C37.3145 22.0428 36.7736 22.0147 36.2409 21.9277C36.1648 21.9277 36.0886 21.9041 36.0103 21.8912C35.385 21.7803 34.7689 21.6238 34.1671 21.4227L33.9494 21.3497C33.7079 21.2659 33.4598 21.1735 33.2117 21.0725C32.9636 20.9715 32.7286 20.8576 32.4958 20.7566L32.2956 20.6621C31.747 20.3942 31.2183 20.0883 30.7135 19.7467L30.535 19.6221C30.0944 19.3145 29.6906 18.9584 29.3316 18.5606C29.2772 18.5004 29.2272 18.4424 29.1793 18.3822C28.7114 17.7978 28.5264 17.2391 28.7114 16.7943C28.8333 16.5085 29.0944 15.5308 29.4687 15.389C29.9291 15.261 30.4163 15.261 30.8767 15.389L31.0943 15.4406C32.1824 15.7156 33.5534 16.328 34.9527 16.8974C36.6022 17.57 38.5542 18.2684 39.5117 19.0741C39.5687 19.1215 39.6232 19.1717 39.6749 19.2246C39.7513 19.2948 39.8219 19.371 39.886 19.4523Z" fill="black"/>
<g opacity="0.2">
<path d="M31.2031 15.2555L31.103 15.436L29.3359 18.5581C29.2815 18.498 29.2315 18.4399 29.1836 18.3798L30.881 15.3844L31.0137 15.1523L31.2031 15.2555Z" fill="black"/>
</g>
<g opacity="0.2">
<path d="M32.539 16.5285L30.7175 19.7517L30.5391 19.627L32.3496 16.4297L32.539 16.5285Z" fill="black"/>
</g>
<g opacity="0.2">
<path d="M35.8882 18.3795L34.1668 21.4243L33.9492 21.3512L35.6902 18.2656L35.8882 18.3795Z" fill="black"/>
</g>
<g opacity="0.2">
<path d="M34.3311 17.5201L32.501 20.7583L32.3008 20.6638L34.1418 17.4062L34.3311 17.5201Z" fill="black"/>
</g>
<g opacity="0.2">
<path d="M37.9163 18.9668L36.2385 21.9278C36.1623 21.9278 36.0862 21.9042 36.0078 21.8913L37.7248 18.8594L37.9163 18.9668Z" fill="black"/>
</g>
<path d="M39.8721 20.1973C39.3912 21.3512 36.5948 21.3061 33.6265 20.0963C30.6582 18.8866 28.6431 16.9742 29.1262 15.8203C29.6093 14.6664 32.4035 14.7137 35.3718 15.9213C38.3401 17.1289 40.3531 19.037 39.8721 20.1973Z" fill="#1F59AF"/>
<path opacity="0.2" d="M38.8617 19.7767C38.5222 20.5911 36.3417 20.4772 33.9936 19.521C31.6456 18.5648 30.0178 17.1272 30.3573 16.3129C30.6968 15.4985 32.8773 15.6124 35.2275 16.5686C37.5778 17.5248 39.2034 18.9623 38.8617 19.7767Z" fill="white"/>
<path d="M54.4934 10.7731C55.2681 11.7594 53.7927 14.1467 51.2531 16.087C48.7135 18.0274 46.0303 18.8009 45.2577 17.806C45.0793 17.5783 44.3568 16.8155 44.4003 16.4588C44.5461 15.2834 46.5025 13.9984 48.4523 12.5072C50.2673 11.1191 51.9625 9.31844 53.1485 9.56125C53.8688 9.71811 54.2736 10.4938 54.4934 10.7731Z" fill="#1F59AF"/>
<path opacity="0.2" d="M53.1518 9.57031C54.0375 9.86684 54.2203 10.4298 54.4966 10.7736C54.773 11.1174 54.7621 11.6911 54.4966 12.3422C54.4662 12.4217 54.4292 12.5012 54.39 12.5829C54.1516 13.0606 53.8596 13.5103 53.5195 13.9237C53.4738 13.9839 53.4238 14.0419 53.3737 14.102C52.9645 14.584 52.5193 15.0351 52.0419 15.4515L51.8744 15.5954C51.6807 15.7609 51.4761 15.9263 51.265 16.0875C51.0539 16.2487 50.8429 16.4012 50.6296 16.5452C50.5708 16.5882 50.5077 16.629 50.449 16.6698C49.9405 17.0066 49.4082 17.3068 48.856 17.568C48.7886 17.6024 48.7233 17.6303 48.6602 17.6604C48.1696 17.8845 47.6549 18.0531 47.126 18.1632C47.0476 18.1804 46.9715 18.1933 46.8953 18.204C46.1489 18.3136 45.5657 18.204 45.2675 17.8151C45.076 17.5701 44.347 16.8589 44.4101 16.47C44.5239 16.0102 44.7659 15.5911 45.1087 15.2602C45.1565 15.2065 45.2088 15.1528 45.2632 15.0969C46.0488 14.2933 47.2652 13.4316 48.4621 12.5184C49.8745 11.444 51.4587 10.1139 52.6404 9.69709C52.7117 9.67122 52.7843 9.64899 52.858 9.63048C52.9543 9.60337 53.0525 9.58326 53.1518 9.57031Z" fill="black"/>
<g opacity="0.2">
<path d="M45.1459 14.9219L45.2547 15.0981L47.1175 18.1644C47.0392 18.1815 46.963 18.1944 46.8868 18.2052L45.1002 15.2571L44.9609 15.0422L45.1459 14.9219Z" fill="black"/>
</g>
<g opacity="0.2">
<path d="M46.9293 14.4102L48.8487 17.5688C48.7813 17.6032 48.716 17.6311 48.6529 17.6612L46.7422 14.5197L46.9293 14.4102Z" fill="black"/>
</g>
<g opacity="0.2">
<path d="M50.2184 12.4648L52.0355 15.4559L51.8679 15.5999L50.0312 12.5744L50.2184 12.4648Z" fill="black"/>
</g>
<g opacity="0.2">
<path d="M48.6893 13.3672L50.6218 16.5452C50.563 16.5882 50.4999 16.629 50.4411 16.6698L48.5 13.4768L48.6893 13.3672Z" fill="black"/>
</g>
<g opacity="0.2">
<path d="M51.7418 11.0117L53.5089 13.9233C53.4632 13.9835 53.4131 14.0415 53.3631 14.1016L51.5547 11.1235L51.7418 11.0117Z" fill="black"/>
</g>
<path d="M50.5956 15.2438C53.1335 13.3028 54.5639 10.9299 53.7904 9.94388C53.0168 8.95783 50.3324 9.73197 47.7945 11.673C45.2566 13.614 43.8263 15.9869 44.5998 16.9729C45.3733 17.959 48.0577 17.1848 50.5956 15.2438Z" fill="#1F59AF"/>
<path opacity="0.2" d="M50.2813 14.649C52.29 13.1128 53.475 11.3023 52.9282 10.6052C52.3814 9.90813 50.3097 10.5884 48.3011 12.1246C46.2924 13.6609 45.1074 15.4714 45.6542 16.1684C46.201 16.8655 48.2726 16.1853 50.2813 14.649Z" fill="white"/>
<path d="M43.9892 6.15372C43.7411 7.5676 40.5291 8.16496 36.8906 7.52033C33.252 6.8757 30.5079 5.21471 30.7625 3.80083C30.8212 3.47207 30.9235 2.27521 31.2652 2.03669C32.3946 1.25025 35.0191 1.90777 37.8132 2.39769C40.4246 2.85537 43.282 2.8919 43.9892 4.08016C44.4179 4.81074 44.061 5.74975 43.9892 6.15372Z" fill="#1F59AF"/>
<path opacity="0.2" d="M43.9914 4.08434C44.4266 5.05988 44.0806 5.64219 43.9914 6.1493C43.9021 6.65641 43.4038 7.07971 42.6378 7.35905C42.5442 7.39558 42.4463 7.42567 42.3462 7.45575C41.747 7.62203 41.131 7.7222 40.5095 7.75443C40.4203 7.75443 40.3332 7.75443 40.2418 7.76947C39.5097 7.79605 38.7765 7.76948 38.0483 7.68996L37.7936 7.65773C37.4999 7.6212 37.1974 7.57823 36.8949 7.52451C36.5924 7.47079 36.2986 7.41062 36.0092 7.34401C35.9265 7.32682 35.8438 7.30533 35.7611 7.286C35.0774 7.11929 34.4068 6.90385 33.7547 6.64137C33.6742 6.61129 33.598 6.5769 33.5218 6.54682C32.9495 6.30625 32.4063 6.0028 31.9028 5.64219C31.8266 5.58847 31.757 5.53476 31.6851 5.47889C31.0105 4.93525 30.6645 4.35079 30.7625 3.80715C30.8277 3.45476 30.88 2.30302 31.263 2.04302C31.646 1.78302 32.1944 1.70137 32.8472 1.69922H33.1084C34.4141 1.74219 36.0962 2.10104 37.8132 2.40186C39.8371 2.75856 42.2069 3.07013 43.4821 3.74484C43.5569 3.78398 43.6296 3.82702 43.6998 3.87376C43.8024 3.93635 43.8999 4.00676 43.9914 4.08434Z" fill="black"/>
<g opacity="0.2">
<path d="M33.1769 1.47716L33.1073 1.70278L31.8973 5.6436C31.8211 5.58989 31.7515 5.53617 31.6797 5.4803L32.8418 1.70063L32.9332 1.40625L33.1769 1.47716Z" fill="black"/>
</g>
<g opacity="0.2">
<path d="M34.9993 2.57911L33.7524 6.63812C33.6719 6.60804 33.5957 6.57366 33.5195 6.54357L34.7599 2.50391L34.9993 2.57911Z" fill="black"/>
</g>
<g opacity="0.2">
<path d="M39.2253 3.8504L38.0437 7.69453L37.7891 7.6623L38.9838 3.77734L39.2253 3.8504Z" fill="black"/>
</g>
<g opacity="0.2">
<path d="M37.2615 3.26095L36.0059 7.34359C35.9232 7.3264 35.8405 7.30492 35.7578 7.28558L37.02 3.18359L37.2615 3.26095Z" fill="black"/>
</g>
<g opacity="0.2">
<path d="M41.6571 4.01622L40.506 7.75721C40.4167 7.75721 40.3297 7.75721 40.2383 7.77225L41.4156 3.94531L41.6571 4.01622Z" fill="black"/>
</g>
<path d="M44.1577 4.92021C44.4124 3.50647 41.6684 1.84198 38.0286 1.20245C34.3889 0.562923 31.2317 1.19054 30.9769 2.60427C30.7222 4.01801 33.4662 5.6825 37.106 6.32203C40.7457 6.96156 43.9029 6.33394 44.1577 4.92021Z" fill="#1F59AF"/>
<path opacity="0.2" d="M42.9198 4.70348C43.0998 3.70452 40.911 2.48447 38.0309 1.97842C35.1508 1.47237 32.6701 1.87195 32.49 2.87091C32.31 3.86987 34.4988 5.08992 37.3789 5.59597C40.259 6.10202 42.7397 5.70244 42.9198 4.70348Z" fill="white"/>
<path d="M62.9866 42.2504L40.5917 43.5397C39.8006 43.5857 39.0243 43.772 38.3001 44.0898L13.975 54.8336C13.5482 55.0188 13.1986 55.3431 12.9848 55.7521C12.7709 56.1612 12.7056 56.6303 12.7998 57.0812L16.8192 75.8506C16.8872 76.1528 17.0242 76.4357 17.2199 76.6777C17.4155 76.9196 17.6646 77.1141 17.9481 77.2464C18.2316 77.3787 18.542 77.4452 18.8555 77.4409C19.169 77.4366 19.4774 77.3615 19.757 77.2215L43.7667 65.3861L65.9375 64.6534C66.2103 64.6462 66.4784 64.5817 66.724 64.4642C66.9696 64.3467 67.1871 64.1789 67.3619 63.9719C67.5367 63.765 67.6648 63.5236 67.7378 63.264C67.8107 63.0043 67.8268 62.7323 67.785 62.466L64.8189 44.4937C64.6644 43.5655 63.9506 42.2225 62.9866 42.2504Z" fill="#1F59AF"/>
<path opacity="0.1" d="M62.9866 42.2504L40.5917 43.5397C39.8006 43.5857 39.0243 43.772 38.3001 44.0898L13.975 54.8336C13.5482 55.0188 13.1986 55.3431 12.9848 55.7521C12.7709 56.1612 12.7056 56.6303 12.7998 57.0812L16.8192 75.8506C16.8872 76.1528 17.0242 76.4357 17.2199 76.6777C17.4155 76.9196 17.6646 77.1141 17.9481 77.2464C18.2316 77.3787 18.542 77.4452 18.8555 77.4409C19.169 77.4366 19.4774 77.3615 19.757 77.2215L43.7667 65.3861L65.9375 64.6534C66.2103 64.6462 66.4784 64.5817 66.724 64.4642C66.9696 64.3467 67.1871 64.1789 67.3619 63.9719C67.5367 63.765 67.6648 63.5236 67.7378 63.264C67.8107 63.0043 67.8268 62.7323 67.785 62.466L64.8189 44.4937C64.6644 43.5655 63.9506 42.2225 62.9866 42.2504Z" fill="black"/>
<path d="M18.0338 30.0295L6.28125 40.7266L27.3716 63.3178L39.1241 52.6207L18.0338 30.0295Z" fill="#1F59AF"/>
<path opacity="0.5" d="M39.1218 52.6233L27.3683 63.3198L6.28125 40.7299L13.9936 33.7099L18.0347 30.0312L18.7072 30.7532L39.1218 52.6233Z" fill="#FAFAFA"/>
<path d="M18.1122 31.4128L7.74219 40.8516L27.4696 61.983L37.8397 52.5442L18.1122 31.4128Z" stroke="#1F59AF" stroke-miterlimit="10"/>
<path d="M25.1214 49.1977C26.3109 48.1151 26.1604 46.0434 24.7854 44.5706C23.4103 43.0977 21.3314 42.7813 20.142 43.8639C18.9525 44.9466 19.103 47.0182 20.478 48.4911C21.853 49.964 23.932 50.2804 25.1214 49.1977Z" fill="#1F59AF"/>
<path opacity="0.1" d="M27.2429 54.1511L23.0668 55.5757L13.9922 33.7099L18.0333 30.0312L18.7058 30.7532L27.2429 54.1511Z" fill="black"/>
<path d="M28.0579 21.1787L13.0312 26.5586L23.6382 55.4436L38.6648 50.0637L28.0579 21.1787Z" fill="#1F59AF"/>
<path opacity="0.5" d="M28.0579 21.1787L13.0312 26.5586L23.6382 55.4436L38.6648 50.0637L28.0579 21.1787Z" fill="#FAFAFA"/>
<path d="M27.5872 22.4834L14.3281 27.2305L24.2496 54.2489L37.5087 49.5019L27.5872 22.4834Z" stroke="#1F59AF" stroke-miterlimit="10"/>
<path d="M27.0939 41.5604C28.6148 41.016 29.287 39.0479 28.5955 37.1647C27.9039 35.2815 26.1105 34.1962 24.5896 34.7407C23.0688 35.2852 22.3965 37.2532 23.0881 39.1364C23.7796 41.0197 25.5731 42.1049 27.0939 41.5604Z" fill="#1F59AF"/>
<path d="M63.1318 43.016L41.0437 44.2451C40.2607 44.2875 39.4925 44.4733 38.7783 44.793L14.81 55.4767C14.3878 55.6651 14.0434 55.9901 13.8337 56.398C13.624 56.8059 13.5615 57.2722 13.6566 57.72L17.676 76.498C17.7408 76.7984 17.8744 77.0801 18.0666 77.3215C18.2588 77.5629 18.5046 77.7576 18.7849 77.8907C19.0653 78.0237 19.3728 78.0915 19.6838 78.0888C19.9948 78.0861 20.301 78.0131 20.579 77.8753L44.2339 66.1066L66.1001 65.4233C66.3708 65.4148 66.6365 65.3494 66.8796 65.2315C67.1227 65.1136 67.3375 64.9458 67.5097 64.7394C67.6818 64.533 67.8074 64.2926 67.8781 64.0345C67.9487 63.7763 67.9628 63.5062 67.9193 63.2423L64.9445 45.2722C64.79 44.3353 64.0849 42.9902 63.1318 43.016Z" fill="#1F59AF"/>
<path opacity="0.2" d="M41.9414 47.5306L60.8936 46.3789" stroke="black" stroke-width="2" stroke-linecap="round" stroke-linejoin="round"/>
<path opacity="0.2" d="M39.6719 48.0156L43.1342 63.7188" stroke="black" stroke-width="2" stroke-linecap="round" stroke-linejoin="round"/>
<path opacity="0.2" d="M16.5859 62.1914L19.0276 74.2696C19.0276 74.2696 20.8991 69.4779 16.5859 62.1914Z" fill="#FAFAFA"/>
<path opacity="0.2" d="M16.9062 62.3373C16.9911 62.5522 38.5939 53.3984 38.5939 53.3984C38.6525 55.4737 38.127 57.5244 37.0758 59.3225C36.0247 61.1206 34.4892 62.5956 32.6399 63.5836C26.1375 67.1827 16.9062 62.3373 16.9062 62.3373Z" fill="#FAFAFA"/>
<path d="M31.2561 62.6917C31.7729 62.6917 32.1918 62.278 32.1918 61.7677C32.1918 61.2574 31.7729 60.8438 31.2561 60.8438C30.7393 60.8438 30.3203 61.2574 30.3203 61.7677C30.3203 62.278 30.7393 62.6917 31.2561 62.6917Z" fill="#1F59AF"/>
<path opacity="0.2" d="M38.6055 53.3984C38.6055 53.3984 41.2843 57.3801 40.6358 64.1616L38.6055 53.3984Z" fill="black"/>
<g opacity="0.2">
<path d="M15.5547 57.4475L16.053 57.2305" stroke="#FAFAFA" stroke-linecap="round" stroke-linejoin="round"/>
<path d="M17.0859 56.7783L37.259 47.9727" stroke="#FAFAFA" stroke-linecap="round" stroke-linejoin="round" stroke-dasharray="5.2 5.2"/>
<path d="M37.7773 47.7483L38.2735 47.5312" stroke="#FAFAFA" stroke-linecap="round" stroke-linejoin="round"/>
</g>
<path opacity="0.2" d="M42.5781 51.064L61.5304 49.9102" stroke="black" stroke-width="2" stroke-linecap="round" stroke-linejoin="round"/>
<path opacity="0.2" d="M43.4297 55.4664L62.3819 54.3125" stroke="black" stroke-width="2" stroke-linecap="round" stroke-linejoin="round"/>
<path d="M59.4747 28.3505L54.8787 44.1353C54.7259 44.6639 54.4162 45.1352 53.9895 45.4883C53.5628 45.8415 53.0387 46.0602 52.4849 46.1164C52.1324 46.1497 51.7766 46.1177 51.436 46.0219L42.6508 43.5272C41.9406 43.3248 41.3407 42.8527 40.9825 42.2143C40.6243 41.5758 40.5372 40.8232 40.7401 40.1214L45.3384 24.3323C45.5437 23.632 46.0219 23.0407 46.668 22.6878C47.3141 22.335 48.0755 22.2495 48.7854 22.45L57.5771 24.9425C58.2857 25.1471 58.8833 25.6206 59.239 26.2594C59.5947 26.8982 59.6795 27.6501 59.4747 28.3505Z" fill="#1F59AF"/>
<path opacity="0.2" d="M59.4747 28.3505L54.8787 44.1353C54.7259 44.6639 54.4162 45.1352 53.9895 45.4883C53.5628 45.8415 53.0387 46.0602 52.4849 46.1164C52.1324 46.1497 51.7766 46.1177 51.436 46.0219L42.6508 43.5272C41.9406 43.3248 41.3407 42.8527 40.9825 42.2143C40.6243 41.5758 40.5372 40.8232 40.7401 40.1214L45.3384 24.3323C45.5437 23.632 46.0219 23.0407 46.668 22.6878C47.3141 22.335 48.0755 22.2495 48.7854 22.45L57.5771 24.9425C58.2857 25.1471 58.8833 25.6206 59.239 26.2594C59.5947 26.8982 59.6795 27.6501 59.4747 28.3505Z" fill="black"/>
<path d="M58.7109 28.5381L54.1148 44.3251C53.9986 44.7269 53.791 45.0973 53.5078 45.4079C53.2245 45.7184 52.8732 45.961 52.4806 46.1171C52.128 46.1504 51.7723 46.1184 51.4316 46.0226L42.6508 43.5279C41.9406 43.3255 41.3407 42.8534 40.9825 42.2149C40.6243 41.5765 40.5372 40.8239 40.7401 40.1221L45.3384 24.333C45.4547 23.9317 45.6625 23.562 45.9457 23.2521C46.229 22.9423 46.5803 22.7005 46.9727 22.5452C47.3252 22.5098 47.6814 22.5419 48.0216 22.6398L56.7959 25.1431C57.5047 25.3441 58.1041 25.8141 58.463 26.4503C58.8219 27.0866 58.911 27.8372 58.7109 28.5381Z" fill="#1F59AF"/>
<path opacity="0.5" d="M58.7109 28.5381L54.1148 44.3251C53.9986 44.7269 53.791 45.0973 53.5078 45.4079C53.2245 45.7184 52.8732 45.961 52.4806 46.1171C52.128 46.1504 51.7723 46.1184 51.4316 46.0226L42.6508 43.5279C41.9406 43.3255 41.3407 42.8534 40.9825 42.2149C40.6243 41.5765 40.5372 40.8239 40.7401 40.1221L45.3384 24.333C45.4547 23.9317 45.6625 23.562 45.9457 23.2521C46.229 22.9423 46.5803 22.7005 46.9727 22.5452C47.3252 22.5098 47.6814 22.5419 48.0216 22.6398L56.7959 25.1431C57.5047 25.3441 58.1041 25.8141 58.463 26.4503C58.8219 27.0866 58.911 27.8372 58.7109 28.5381Z" fill="#FAFAFA"/>
<path d="M46.3545 29.8789L45.4141 29.6172L42.0291 41.4762L42.9695 41.7379L46.3545 29.8789Z" fill="#FAFAFA"/>
<path d="M44.3229 42.1155L43.3828 41.8469L46.7667 29.9922L47.7047 30.2586L44.3229 42.1155Z" fill="#FAFAFA"/>
<path d="M45.6862 42.504L44.7461 42.2375L48.13 30.3828L49.0701 30.6493L45.6862 42.504Z" fill="#FAFAFA"/>
<path opacity="0.5" d="M54.542 32.2031L53.6016 31.9414L50.2166 43.8004L51.157 44.0621L54.542 32.2031Z" fill="black"/>
<path d="M54.4253 28.8503L53.9683 30.4598L53.4112 30.305C53.1413 30.2294 52.9128 30.0513 52.7757 29.8096C52.6387 29.568 52.6042 29.2825 52.68 29.0158L52.9847 27.9414L54.1097 28.2594C54.2309 28.2965 54.3321 28.3796 54.3913 28.4904C54.4505 28.6012 54.4627 28.7307 54.4253 28.8503Z" fill="#FAFAFA"/>
<path d="M54.1563 28.0616L53.0312 27.7436L53.3686 26.566C53.4062 26.4339 53.4699 26.3105 53.5559 26.2027C53.6419 26.0949 53.7486 26.0049 53.8699 25.9378C53.9911 25.8708 54.1246 25.828 54.2626 25.8119C54.4006 25.7958 54.5405 25.8067 54.6743 25.8441L55.2531 26.0052L54.7482 27.7393C54.7315 27.7992 54.7028 27.8553 54.6637 27.9041C54.6247 27.9529 54.5762 27.9935 54.5211 28.0236C54.4659 28.0536 54.4052 28.0724 54.3426 28.079C54.2799 28.0855 54.2166 28.0796 54.1563 28.0616Z" fill="#FAFAFA"/>
<path d="M55.2221 28.5781L56.3537 28.8982L56.0534 29.949C56.0163 30.0814 55.9529 30.2052 55.867 30.3133C55.7811 30.4214 55.6744 30.5116 55.553 30.5788C55.4316 30.6459 55.2979 30.6886 55.1597 30.7044C55.0215 30.7203 54.8815 30.7089 54.7477 30.671L54.1602 30.5077L54.628 28.9004C54.6453 28.8405 54.6744 28.7846 54.7137 28.7359C54.753 28.6872 54.8017 28.6467 54.8569 28.6167C54.9122 28.5868 54.9729 28.5679 55.0356 28.5613C55.0983 28.5546 55.1617 28.5603 55.2221 28.5781Z" fill="#FAFAFA"/>
<path d="M56.7552 27.5043L56.4136 28.699L55.282 28.3789C55.1608 28.3439 55.0585 28.2631 54.9974 28.154C54.9363 28.045 54.9212 27.9165 54.9555 27.7966L55.4604 26.0625L56.024 26.2194C56.1575 26.2563 56.2823 26.3189 56.3913 26.4035C56.5002 26.488 56.5913 26.593 56.6592 26.7123C56.7271 26.8316 56.7705 26.963 56.787 27.0989C56.8035 27.2348 56.7927 27.3725 56.7552 27.5043Z" fill="#FAFAFA"/>
</g>
<defs>
<clipPath id="clip0_3929_89750">
<rect width="84" height="78" fill="white"/>
</clipPath>
</defs>
</svg>
