<svg width="20" height="20" viewBox="0 0 20 20" fill="none" xmlns="http://www.w3.org/2000/svg">
<g clip-path="url(#clip0_3174_14263)">
<path d="M3.36514 8.39795C2.89486 8.39795 1.9543 8.39795 1.9543 8.39795C1.33526 8.39795 0.833421 8.89978 0.833421 9.51883V14.9268C0.833421 15.5459 1.33526 16.0477 1.9543 16.0477H3.30231V17.5762C3.30231 17.8238 3.50304 18.0246 3.75066 18.0246C3.87459 18.0246 3.99299 17.9733 4.07775 17.8829L5.76234 16.0477H9.41211C9.96439 16.0477 10.4121 15.6 10.4121 15.0477V14.2597" stroke="#181A1E" stroke-width="0.833333"/>
<path d="M13.4019 3.64355H9.6313H4.0752C3.52291 3.64355 3.0752 4.09127 3.0752 4.64356V12.5176C3.0752 13.0699 3.52291 13.5176 4.07519 13.5176H9.73429L12.2875 16.2223C12.536 16.4855 12.9784 16.3096 12.9784 15.9477V13.5176H15.1874C15.7397 13.5176 16.1874 13.0699 16.1874 12.5176V9.88497" stroke="#181A1E" stroke-width="0.833333"/>
<path d="M5.46875 6.16162H10.4119" stroke="#181A1E" stroke-linecap="round" stroke-linejoin="round"/>
<path d="M5.46875 8.63379H9.99988" stroke="#181A1E" stroke-linecap="round" stroke-linejoin="round"/>
<path d="M5.74414 11.1064H11.2862" stroke="#181A1E" stroke-linecap="round" stroke-linejoin="round"/>
<path d="M17.2657 6.22772L17.3829 5.74165L17.1188 5.67798L16.9217 5.86493L17.2657 6.22772ZM13.6369 6.16516L13.9743 5.79614L13.749 5.59016L13.4629 5.69644L13.6369 6.16516ZM17.2505 4.47048C17.2505 5.40024 16.475 6.17435 15.493 6.17435V7.17435C17.0045 7.17435 18.2505 5.97505 18.2505 4.47048H17.2505ZM15.493 2.7666C16.475 2.7666 17.2505 3.54072 17.2505 4.47048H18.2505C18.2505 2.9659 17.0045 1.7666 15.493 1.7666V2.7666ZM13.7355 4.47048C13.7355 3.54072 14.5109 2.7666 15.493 2.7666V1.7666C13.9815 1.7666 12.7355 2.9659 12.7355 4.47048H13.7355ZM15.493 6.17435C14.5109 6.17435 13.7355 5.40024 13.7355 4.47048H12.7355C12.7355 5.97505 13.9815 7.17435 15.493 7.17435V6.17435ZM18.7555 7.81283C18.7555 8.02223 18.5664 8.35349 17.9341 8.66214C17.3352 8.95447 16.4728 9.14939 15.493 9.14939V10.1494C16.5911 10.1494 17.6099 9.93317 18.3728 9.5608C19.1022 9.20474 19.7555 8.61773 19.7555 7.81283H18.7555ZM17.1486 6.7138C17.7308 6.85417 18.1528 7.04671 18.4181 7.25496C18.6761 7.45747 18.7555 7.64629 18.7555 7.81283H19.7555C19.7555 7.25665 19.4616 6.80279 19.0356 6.46836C18.6169 6.13967 18.044 5.90102 17.3829 5.74165L17.1486 6.7138ZM15.493 7.35834C15.9152 7.35834 16.3382 7.2614 16.6975 7.12539C17.0509 6.99162 17.3846 6.80412 17.6098 6.59052L16.9217 5.86493C16.8243 5.95729 16.6211 6.08509 16.3435 6.19014C16.0719 6.29295 15.7698 6.35834 15.493 6.35834V7.35834ZM13.2996 6.53418C13.825 7.01457 14.6715 7.35834 15.493 7.35834V6.35834C14.9163 6.35834 14.3118 6.10468 13.9743 5.79614L13.2996 6.53418ZM12.2305 7.81283C12.2305 7.66797 12.3108 7.48358 12.5958 7.2579C12.8796 7.03321 13.2997 6.82379 13.811 6.63388L13.4629 5.69644C12.9121 5.901 12.379 6.15405 11.975 6.4739C11.5723 6.79276 11.2305 7.23497 11.2305 7.81283H12.2305ZM15.493 9.14939C14.5131 9.14939 13.6507 8.95447 13.0518 8.66214C12.4195 8.35349 12.2305 8.02223 12.2305 7.81283H11.2305C11.2305 8.61773 11.8837 9.20474 12.6132 9.5608C13.376 9.93317 14.3948 10.1494 15.493 10.1494V9.14939Z" fill="#181A1E"/>
<path fill-rule="evenodd" clip-rule="evenodd" d="M14.8629 7.0874L15.2554 7.6576L14.8301 9.60865C14.8301 9.60865 15.2228 9.64958 15.4812 9.64958C15.7692 9.64958 16.1869 9.60125 16.1869 9.60125L15.762 7.6576L16.1598 7.08742C16.1598 7.08742 15.7239 7.1509 15.4902 7.1552C15.2565 7.15951 14.8629 7.0874 14.8629 7.0874Z" fill="#181A1E"/>
</g>
<defs>
<clipPath id="clip0_3174_14263">
<rect width="20" height="20" fill="white"/>
</clipPath>
</defs>
</svg>
