<svg width="37" height="45" viewBox="0 0 37 45" fill="none" xmlns="http://www.w3.org/2000/svg">
<g id="Group 1000004966" filter="url(#filter0_d_7327_114330)">
<path id="Vector" d="M27.08 19.3852H27.0873C27.0873 19.3852 24.3665 23.1912 22.0788 26.02C20.1014 28.4633 19.524 30.5556 19.3581 31.5673C19.2931 31.9389 18.9756 32.2142 18.5931 32.2142C18.2106 32.2142 17.893 31.9389 17.8281 31.5673C17.6621 30.5556 17.0848 28.4633 15.1073 26.02C14.8042 25.6414 14.4939 25.2491 14.1836 24.8499L21.653 16.3844L27.6646 9.58447C28.3286 10.9128 28.6966 12.3994 28.6966 13.9755C28.6966 15.9715 28.0976 17.8229 27.08 19.3852Z" fill="#FF4049"/>
<path id="Vector_2" d="M21.6516 16.3881L14.1822 24.8536C12.147 22.252 10.0975 19.3889 10.0975 19.3889H10.1047C9.88818 19.0585 9.69333 18.7213 9.52734 18.3703L15.5317 11.5703C14.9616 12.2242 14.6224 13.0638 14.6224 13.9792C14.6224 16.0715 16.3978 17.7646 18.5917 17.7646C19.8257 17.7646 20.9299 17.2278 21.6516 16.3881Z" fill="#FF4049"/>
<path id="Vector_3" d="M21.7706 4.50931L15.5858 11.5157L10.8516 7.57892C12.6991 5.39027 15.4848 4 18.5952 4C19.7066 4 20.7747 4.17895 21.7706 4.50931Z" fill="#FF4049"/>
<path id="Vector_4" d="M15.5844 11.5213L15.5339 11.5763L9.52946 18.3763C8.86551 17.048 8.49023 15.5613 8.49023 13.9852C8.49023 11.5488 9.3779 9.31199 10.8501 7.58447L15.5844 11.5213Z" fill="#FF4049"/>
<path id="Vector_5" d="M21.655 16.3956C22.2251 15.7418 22.5643 14.9021 22.5643 13.9867C22.5643 11.8944 20.789 10.2013 18.5951 10.2013C17.361 10.2013 16.2568 10.7382 15.5352 11.5778L21.7705 4.51636C24.3613 5.35603 26.4831 7.20743 27.6666 9.59567L21.655 16.3956Z" fill="#FF4049"/>
</g>
<defs>
<filter id="filter0_d_7327_114330" x="0.490234" y="0" width="36.207" height="44.2144" filterUnits="userSpaceOnUse" color-interpolation-filters="sRGB">
<feFlood flood-opacity="0" result="BackgroundImageFix"/>
<feColorMatrix in="SourceAlpha" type="matrix" values="0 0 0 0 0 0 0 0 0 0 0 0 0 0 0 0 0 0 127 0" result="hardAlpha"/>
<feOffset dy="4"/>
<feGaussianBlur stdDeviation="4"/>
<feColorMatrix type="matrix" values="0 0 0 0 0 0 0 0 0 0 0 0 0 0 0 0 0 0 0.2 0"/>
<feBlend mode="normal" in2="BackgroundImageFix" result="effect1_dropShadow_7327_114330"/>
<feBlend mode="normal" in="SourceGraphic" in2="effect1_dropShadow_7327_114330" result="shape"/>
</filter>
</defs>
</svg>
