<svg width="24" height="24" viewBox="0 0 24 24" fill="none" xmlns="http://www.w3.org/2000/svg">
<path d="M8.08913 17.9652C8.08913 18.7417 7.94709 19.4093 7.663 19.968C7.37891 20.5244 6.98947 20.9529 6.49467 21.2536C6.00225 21.5518 5.44235 21.701 4.81499 21.701C4.18525 21.701 3.62299 21.5518 3.1282 21.2536C2.63577 20.9529 2.24751 20.5232 1.96342 19.9645C1.67933 19.4058 1.53729 18.7393 1.53729 17.9652C1.53729 17.1887 1.67933 16.5223 1.96342 15.9659C2.24751 15.4072 2.63577 14.9787 3.1282 14.6804C3.62299 14.3797 4.18525 14.2294 4.81499 14.2294C5.44235 14.2294 6.00225 14.3797 6.49467 14.6804C6.98947 14.9787 7.37891 15.4072 7.663 15.9659C7.94709 16.5223 8.08913 17.1887 8.08913 17.9652ZM7.00249 17.9652C7.00249 17.3733 6.90661 16.875 6.71484 16.4702C6.52545 16.063 6.26503 15.7552 5.93359 15.5469C5.60452 15.3362 5.23165 15.2308 4.81499 15.2308C4.39595 15.2308 4.0219 15.3362 3.69283 15.5469C3.36375 15.7552 3.10334 16.063 2.91158 16.4702C2.72218 16.875 2.62749 17.3733 2.62749 17.9652C2.62749 18.5571 2.72218 19.0566 2.91158 19.4638C3.10334 19.8686 3.36375 20.1764 3.69283 20.3871C4.0219 20.5954 4.39595 20.6996 4.81499 20.6996C5.23165 20.6996 5.60452 20.5954 5.93359 20.3871C6.26503 20.1764 6.52545 19.8686 6.71484 19.4638C6.90661 19.0566 7.00249 18.5571 7.00249 17.9652ZM9.45721 21.6016V14.3288H14.0169V15.2734H10.5545V17.4893H13.7789V18.4304H10.5545V20.657H14.0595V21.6016H9.45721ZM15.4826 14.3288H16.8143L19.1296 19.9822H19.2148L21.5302 14.3288H22.8619V21.6016H21.8178V16.3388H21.7504L19.6055 21.5909H18.739L16.5941 16.3352H16.5266V21.6016H15.4826V14.3288Z" fill="black"/>
<path d="M15.9424 1.87402C14.9566 1.50828 13.8625 2.01069 13.4971 2.99585C13.4435 3.13897 13.4082 3.28857 13.3905 3.44116L13.6788 10.8944L18.4166 10.8944L17.1705 3.43906C17.0883 2.72775 16.6136 2.12294 15.9424 1.87402Z" stroke="#181A1E" stroke-linecap="round" stroke-linejoin="round"/>
<path d="M15.7402 3.60936C15.7402 3.21902 15.4235 2.90234 15.0332 2.90234C14.6428 2.90234 14.3262 3.21902 14.3262 3.60936C14.3262 3.9997 14.6428 4.31678 15.0332 4.31678C15.4235 4.31678 15.7402 4.0001 15.7402 3.60936Z" fill="#181A1E"/>
<path d="M12.3516 10.9297H19.7934V13.0147H12.3516V10.9297Z" stroke="#181A1E" stroke-linecap="round" stroke-linejoin="round"/>
<path d="M11.8172 3.62302L6.95266 8.92869C6.47805 9.42054 6.49164 10.204 6.98358 10.6787C7.46883 11.1476 8.23993 11.1414 8.71719 10.665L12.0448 7.94141L11.8172 3.62302Z" stroke="#181A1E" stroke-linecap="round" stroke-linejoin="round"/>
<path d="M8.41535 9.76627C8.41535 9.4683 8.17361 9.22656 7.87564 9.22656C7.57767 9.22656 7.33594 9.4683 7.33594 9.76627C7.33594 10.0642 7.57767 10.3063 7.87564 10.3063C8.17361 10.3063 8.41535 10.0645 8.41535 9.76627Z" fill="#181A1E"/>
<path d="M7.04501 10.8077L6.15172 11.5128" stroke="#181A1E" stroke-linecap="round" stroke-linejoin="round"/>
<path d="M5.55744 13.1749L6.47204 12.5741L6.04053 11.4161L4.88708 10.9724L4.27677 11.8807L5.55744 13.1749Z" stroke="#181A1E" stroke-linecap="round" stroke-linejoin="round"/>
</svg>
