<svg width="20" height="20" viewBox="0 0 20 20" fill="none" xmlns="http://www.w3.org/2000/svg">
<g clip-path="url(#clip0_3174_14479)">
<path fill-rule="evenodd" clip-rule="evenodd" d="M11.4156 13.8358H4.41699C3.86471 13.8358 3.41699 13.3881 3.41699 12.8358V2.97558C3.41699 2.4233 3.86471 1.97559 4.41699 1.97559H18.1668C18.719 1.97559 19.1668 2.4233 19.1668 2.97559V12.8358C19.1668 13.3881 18.719 13.8358 18.1668 13.8358H15.3122V16.9571C15.3122 17.3191 14.8698 17.4949 14.6213 17.2317L11.4156 13.8358Z" stroke="#181A1E" stroke-width="0.833333"/>
<path d="M6.29175 5H16.2917" stroke="#181A1E" stroke-linecap="round" stroke-linejoin="round"/>
<path d="M6.29175 7.96973H16.2917" stroke="#181A1E" stroke-linecap="round" stroke-linejoin="round"/>
<path d="M6.6228 10.9399H11.6228" stroke="#181A1E" stroke-linecap="round" stroke-linejoin="round"/>
<path d="M3.36514 8.39795C2.89486 8.39795 1.9543 8.39795 1.9543 8.39795C1.33526 8.39795 0.833421 8.89978 0.833421 9.51883V14.9268C0.833421 15.5459 1.33526 16.0477 1.9543 16.0477H3.30231V17.5762C3.30231 17.8238 3.50304 18.0246 3.75066 18.0246C3.87459 18.0246 3.99299 17.9733 4.07775 17.8829L5.76234 16.0477H9.41211C9.96439 16.0477 10.4121 15.6 10.4121 15.0477V13.7891" stroke="#181A1E" stroke-width="0.833333"/>
</g>
<defs>
<clipPath id="clip0_3174_14479">
<rect width="20" height="20" fill="white"/>
</clipPath>
</defs>
</svg>
