<svg width="24" height="24" viewBox="0 0 24 24" fill="none" xmlns="http://www.w3.org/2000/svg">
<path fill-rule="evenodd" clip-rule="evenodd" d="M4.40381 7.44922C2.278 7.44922 0.554688 9.17253 0.554688 11.2983V11.2983H8.25293V11.2983C8.25293 9.17253 6.52962 7.44922 4.40381 7.44922V7.44922Z" stroke="#181A1E" stroke-linecap="round" stroke-linejoin="round"/>
<circle cx="4.40308" cy="5.52417" r="1.92456" stroke="#181A1E" stroke-linecap="round" stroke-linejoin="round"/>
<path fill-rule="evenodd" clip-rule="evenodd" d="M19.5972 7.0625C17.4714 7.0625 15.748 8.78581 15.748 10.9116V10.9116H23.4463V10.9116C23.4463 8.78581 21.723 7.0625 19.5972 7.0625V7.0625Z" stroke="#181A1E" stroke-linecap="round" stroke-linejoin="round"/>
<circle cx="19.5964" cy="5.13745" r="1.92456" stroke="#181A1E" stroke-linecap="round" stroke-linejoin="round"/>
<path fill-rule="evenodd" clip-rule="evenodd" d="M11.9673 13.2227C7.79036 13.2227 4.4043 16.6087 4.4043 20.7856V20.7856H19.5303V20.7856C19.5303 16.6087 16.1442 13.2227 11.9673 13.2227V13.2227Z" stroke="#181A1E" stroke-linecap="round" stroke-linejoin="round"/>
<path fill-rule="evenodd" clip-rule="evenodd" d="M12.0895 13.4201L11.9466 13.4227C11.4859 13.4227 11.0209 13.3503 10.5645 13.2227L11.8208 14.7772L10.6935 15.6566L11.7339 20.7645L12.2168 20.7856L13.2616 15.6566L12.1332 14.7772L13.3714 13.2459C12.9672 13.3416 12.5396 13.4054 12.0895 13.4201Z" fill="#181A1E"/>
<circle cx="11.967" cy="9.44165" r="3.78149" stroke="#181A1E" stroke-linecap="round" stroke-linejoin="round"/>
</svg>
