<svg width="24" height="24" viewBox="0 0 24 24" fill="none" xmlns="http://www.w3.org/2000/svg">
<path d="M21.3997 9.70092V3.38281H2.40967V9.70092" stroke="#181A1E" stroke-linecap="round" stroke-linejoin="round"/>
<path d="M9.24621 6.9021C9.24621 7.25176 9.01391 7.53522 8.72735 7.53522C8.4408 7.53522 8.2085 7.25176 8.2085 6.9021C8.2085 6.55244 8.72735 5.71094 8.72735 5.71094C8.72735 5.71094 9.24621 6.55244 9.24621 6.9021Z" fill="#181A1E"/>
<path d="M10.9996 8.87866C10.9996 9.22833 10.7673 9.51178 10.4808 9.51178C10.1942 9.51178 9.96191 9.22833 9.96191 8.87866C9.96191 8.529 10.4808 7.6875 10.4808 7.6875C10.4808 7.6875 10.9996 8.529 10.9996 8.87866Z" fill="#181A1E"/>
<path d="M12.7574 7.07788C12.7574 7.42754 12.5251 7.711 12.2386 7.711C11.952 7.711 11.7197 7.42754 11.7197 7.07788C11.7197 6.72822 12.2386 5.88672 12.2386 5.88672C12.2386 5.88672 12.7574 6.72822 12.7574 7.07788Z" fill="#181A1E"/>
<path d="M16.2701 6.92945C16.2701 7.27911 16.0378 7.56256 15.7513 7.56256C15.4647 7.56256 15.2324 7.27911 15.2324 6.92945C15.2324 6.57979 15.7513 5.73828 15.7513 5.73828C15.7513 5.73828 16.2701 6.57979 16.2701 6.92945Z" fill="#181A1E"/>
<path d="M14.5128 8.87866C14.5128 9.22833 14.2805 9.51178 13.994 9.51178C13.7074 9.51178 13.4751 9.22833 13.4751 8.87866C13.4751 8.529 13.994 7.6875 13.994 7.6875C13.994 7.6875 14.5128 8.529 14.5128 8.87866Z" fill="#181A1E"/>
<path d="M18.0236 8.73023C18.0236 9.07989 17.7913 9.36334 17.5047 9.36334C17.2181 9.36334 16.9858 9.07989 16.9858 8.73023C16.9858 8.38057 17.5047 7.53906 17.5047 7.53906C17.5047 7.53906 18.0236 8.38057 18.0236 8.73023Z" fill="#181A1E"/>
<path d="M19.3463 7.07788C19.3463 7.42754 19.114 7.711 18.8275 7.711C18.5409 7.711 18.3086 7.42754 18.3086 7.07788C18.3086 6.72822 18.8275 5.88672 18.8275 5.88672C18.8275 5.88672 19.3463 6.72822 19.3463 7.07788Z" fill="#181A1E"/>
<path d="M7.48889 8.87866C7.48889 9.22833 7.25659 9.51178 6.97003 9.51178C6.68347 9.51178 6.45117 9.22833 6.45117 8.87866C6.45117 8.529 6.97003 7.6875 6.97003 7.6875C6.97003 7.6875 7.48889 8.529 7.48889 8.87866Z" fill="#181A1E"/>
<path d="M5.7882 7.07788C5.7882 7.42754 5.5559 7.711 5.26935 7.711C4.98279 7.711 4.75049 7.42754 4.75049 7.07788C4.75049 6.72822 5.26935 5.88672 5.26935 5.88672C5.26935 5.88672 5.7882 6.72822 5.7882 7.07788Z" fill="#181A1E"/>
<rect x="0.818848" y="9.70312" width="3.19023" height="1.33644" stroke="#181A1E" stroke-linecap="round" stroke-linejoin="round"/>
<rect x="0.816895" y="11.0391" width="3.19023" height="1.33644" stroke="#181A1E" stroke-linecap="round" stroke-linejoin="round"/>
<rect x="0.816895" y="12.3789" width="3.19023" height="1.33644" stroke="#181A1E" stroke-linecap="round" stroke-linejoin="round"/>
<rect x="0.8125" y="13.7148" width="3.19023" height="1.33644" stroke="#181A1E" stroke-linecap="round" stroke-linejoin="round"/>
<rect x="0.808594" y="16.3828" width="3.19023" height="1.33644" stroke="#181A1E" stroke-linecap="round" stroke-linejoin="round"/>
<rect x="0.816895" y="15.0469" width="3.19023" height="1.33644" stroke="#181A1E" stroke-linecap="round" stroke-linejoin="round"/>
<rect x="0.8125" y="17.7266" width="3.19023" height="1.33644" stroke="#181A1E" stroke-linecap="round" stroke-linejoin="round"/>
<rect x="19.8101" y="9.94141" width="3.19023" height="1.33644" stroke="#181A1E" stroke-linecap="round" stroke-linejoin="round"/>
<rect x="19.8081" y="11.2773" width="3.19023" height="1.33644" stroke="#181A1E" stroke-linecap="round" stroke-linejoin="round"/>
<rect x="19.8081" y="12.6172" width="3.19023" height="1.33644" stroke="#181A1E" stroke-linecap="round" stroke-linejoin="round"/>
<rect x="19.8037" y="13.9531" width="3.19023" height="1.33644" stroke="#181A1E" stroke-linecap="round" stroke-linejoin="round"/>
<rect x="19.7998" y="16.6211" width="3.19023" height="1.33644" stroke="#181A1E" stroke-linecap="round" stroke-linejoin="round"/>
<rect x="19.8081" y="15.2852" width="3.19023" height="1.33644" stroke="#181A1E" stroke-linecap="round" stroke-linejoin="round"/>
<rect x="19.8037" y="17.9648" width="3.19023" height="1.33644" stroke="#181A1E" stroke-linecap="round" stroke-linejoin="round"/>
<rect x="5" y="3" width="14" height="1" stroke="#181A1E" stroke-linecap="round" stroke-linejoin="round"/>
<path d="M8.66815 11.3241L8.32515 10.9603C8.22495 11.0548 8.16815 11.1864 8.16815 11.3241H8.66815ZM10.4396 10.2461L10.838 9.94396C10.7072 9.77154 10.4804 9.7028 10.2759 9.77365L10.4396 10.2461ZM12.0019 11.0367L12.0024 10.5367L12.0015 10.5367L12.0019 11.0367ZM13.5643 10.2461L13.728 9.77365C13.5235 9.7028 13.2967 9.77154 13.1659 9.94396L13.5643 10.2461ZM15.3357 11.3241L15.8044 11.4983C15.8744 11.31 15.8249 11.0981 15.6787 10.9603L15.3357 11.3241ZM15.4667 13.1422L15.9053 12.9022L15.9049 12.9014L15.4667 13.1422ZM16.8986 14.1713L17.3891 14.0744C17.3485 13.8688 17.184 13.7104 16.9772 13.6775L16.8986 14.1713ZM16.8986 16.3242L16.9783 16.8178C17.1847 16.7844 17.3486 16.6262 17.3891 16.4211L16.8986 16.3242ZM15.4667 17.3532L15.9049 17.5941L15.905 17.5939L15.4667 17.3532ZM15.3357 19.1719L15.6786 19.5358C15.8249 19.3979 15.8744 19.1859 15.8043 18.9976L15.3357 19.1719ZM13.5643 20.2494L13.166 20.5516C13.2968 20.7239 13.5235 20.7926 13.7279 20.7219L13.5643 20.2494ZM12.0019 19.4593L12.0015 19.9593L12.0025 19.9593L12.0019 19.4593ZM10.4396 20.2499L10.276 20.7224C10.4804 20.7932 10.7072 20.7244 10.838 20.552L10.4396 20.2499ZM8.66815 19.1724L8.19951 18.9981C8.12946 19.1865 8.17898 19.3985 8.32524 19.5363L8.66815 19.1724ZM8.53712 17.3538L8.09859 17.594L8.09895 17.5946L8.53712 17.3538ZM7.10528 16.3252L6.61477 16.4222C6.6554 16.6277 6.81986 16.7861 7.02678 16.819L7.10528 16.3252ZM7.10528 14.1718L7.0267 13.678C6.81982 13.711 6.65539 13.8694 6.61477 14.0749L7.10528 14.1718ZM8.53712 13.1427L8.09892 12.902L8.09851 12.9027L8.53712 13.1427ZM8.66815 11.3246H8.16815C8.16815 11.3841 8.17876 11.4431 8.19948 11.4989L8.66815 11.3246ZM11.2519 13.8801L10.9893 13.4546L11.2519 13.8801ZM12.7522 16.6152L12.4955 16.1862L12.7522 16.6152ZM9.01114 11.6879C9.47418 11.2514 10.0165 10.9218 10.6032 10.7185L10.2759 9.77365C9.55304 10.0241 8.88908 10.4286 8.32515 10.9603L9.01114 11.6879ZM10.0412 10.5482C10.5115 11.1684 11.2319 11.5374 12.0024 11.5367L12.0015 10.5367C11.556 10.5371 11.1262 10.3241 10.838 9.94396L10.0412 10.5482ZM12.0015 11.5367C12.7719 11.5374 13.4924 11.1684 13.9627 10.5482L13.1659 9.94396C12.8776 10.3241 12.4479 10.5371 12.0024 10.5367L12.0015 11.5367ZM13.4006 10.7185C13.9874 10.9218 14.5297 11.2514 14.9927 11.6879L15.6787 10.9603C15.1148 10.4286 14.4508 10.0241 13.728 9.77365L13.4006 10.7185ZM14.867 11.1499C14.5954 11.8806 14.6539 12.7013 15.0285 13.383L15.9049 12.9014C15.6712 12.4761 15.6333 11.9585 15.8044 11.4983L14.867 11.1499ZM15.0281 13.3823C15.4026 14.0665 16.0592 14.544 16.82 14.6651L16.9772 13.6775C16.5354 13.6072 16.1379 13.3271 15.9053 12.9022L15.0281 13.3823ZM16.4081 14.2682C16.5357 14.9142 16.5357 15.5812 16.4081 16.2272L17.3891 16.4211C17.542 15.6471 17.542 14.8484 17.3891 14.0744L16.4081 14.2682ZM16.8189 15.8306C16.0865 15.9489 15.4192 16.4013 15.0285 17.1125L15.905 17.5939C16.1475 17.1525 16.5504 16.8869 16.9783 16.8178L16.8189 15.8306ZM15.0286 17.1124C14.6538 17.7943 14.5952 18.6152 14.8671 19.3462L15.8043 18.9976C15.6332 18.5373 15.6711 18.0195 15.9049 17.5941L15.0286 17.1124ZM14.9928 18.808C14.5297 19.2444 13.9874 19.5737 13.4007 19.7769L13.7279 20.7219C14.4507 20.4716 15.1146 20.0672 15.6786 19.5358L14.9928 18.808ZM13.9626 19.9471C13.4921 19.3272 12.7717 18.9585 12.0014 18.9593L12.0025 19.9593C12.4479 19.9588 12.8777 20.1717 13.166 20.5516L13.9626 19.9471ZM12.0024 18.9593C11.2319 18.9586 10.5115 19.3276 10.0412 19.9478L10.838 20.552C11.1262 20.1719 11.556 19.9589 12.0015 19.9593L12.0024 18.9593ZM10.6032 19.7774C10.0164 19.5743 9.47413 19.2449 9.01106 18.8085L8.32524 19.5363C8.88922 20.0678 9.55318 20.4721 10.276 20.7224L10.6032 19.7774ZM9.13679 19.3467C9.40862 18.6158 9.35009 17.7948 8.97529 17.1129L8.09895 17.5946C8.33278 18.02 8.3707 18.5378 8.19951 18.9981L9.13679 19.3467ZM8.97565 17.1136C8.60102 16.4296 7.94443 15.9524 7.18378 15.8314L7.02678 16.819C7.46844 16.8892 7.86593 17.1692 8.09859 17.594L8.97565 17.1136ZM7.59579 16.2283C7.46807 15.5821 7.46807 14.915 7.59579 14.2688L6.61477 14.0749C6.46174 14.8491 6.46174 15.648 6.61477 16.4222L7.59579 16.2283ZM7.18387 14.6656C7.94463 14.5445 8.60124 14.067 8.97572 13.3828L8.09851 12.9027C7.86594 13.3276 7.46842 13.6077 7.0267 13.678L7.18387 14.6656ZM8.97532 13.3835C9.34992 12.7018 9.40845 11.8812 9.13681 11.1504L8.19948 11.4989C8.37055 11.959 8.33263 12.4766 8.09892 12.902L8.97532 13.3835ZM9.16815 11.3246V11.3241H8.16815V11.3246H9.16815ZM13.0089 17.0442C13.6346 16.6699 14.0095 15.9807 14.011 15.2469L13.011 15.2449C13.0102 15.6444 12.8059 16.0004 12.4955 16.1862L13.0089 17.0442ZM14.011 15.2469C14.0125 14.5132 13.6405 13.8224 13.0166 13.4452L12.4993 14.301C12.809 14.4883 13.0118 14.8453 13.011 15.2449L14.011 15.2469ZM13.0166 13.4452C12.3892 13.0659 11.6132 13.0696 10.9893 13.4546L11.5144 14.3057C11.8194 14.1175 12.1929 14.1158 12.4993 14.301L13.0166 13.4452ZM10.9893 13.4546C10.0419 14.0392 9.73787 15.2971 10.2729 16.2725L11.1497 15.7915C10.86 15.2635 11.0388 14.5991 11.5144 14.3057L10.9893 13.4546ZM10.2729 16.2725C10.8154 17.2614 12.0377 17.6254 13.0089 17.0442L12.4955 16.1862C12.0328 16.463 11.432 16.3061 11.1497 15.7915L10.2729 16.2725Z" fill="#181A1E"/>
</svg>
