<svg width="24" height="22" viewBox="0 0 24 22" fill="none" xmlns="http://www.w3.org/2000/svg">
<path d="M11.9076 18.9529H1V17.8919C1 13.4514 4.5998 9.85156 9.04038 9.85156V9.85156C9.04038 9.85156 11.4124 9.85156 13.1623 11.0561" stroke="#181A1E" stroke-linecap="round" stroke-linejoin="round"/>
<circle cx="9.03995" cy="5.30069" r="4.55069" stroke="#181A1E" stroke-linecap="round" stroke-linejoin="round"/>
<path d="M14.6642 12.3222L14.3212 11.9584C14.221 12.0528 14.1642 12.1844 14.1642 12.3222H14.6642ZM16.4357 11.2441L16.834 10.942C16.7033 10.7696 16.4764 10.7009 16.272 10.7717L16.4357 11.2441ZM17.998 12.0348L17.9985 11.5348L17.9976 11.5348L17.998 12.0348ZM19.5604 11.2441L19.7241 10.7717C19.5196 10.7009 19.2928 10.7696 19.162 10.942L19.5604 11.2441ZM21.3318 12.3222L21.8005 12.4964C21.8705 12.3081 21.821 12.0962 21.6748 11.9584L21.3318 12.3222ZM21.4628 14.1403L21.9014 13.9002L21.901 13.8995L21.4628 14.1403ZM22.8947 15.1693L23.3852 15.0724C23.3446 14.8669 23.1801 14.7085 22.9733 14.6756L22.8947 15.1693ZM22.8947 17.3222L22.9744 17.8158C23.1808 17.7825 23.3447 17.6243 23.3852 17.4191L22.8947 17.3222ZM21.4628 18.3513L21.901 18.5921L21.9011 18.592L21.4628 18.3513ZM21.3318 20.1699L21.6747 20.5338C21.821 20.396 21.8705 20.184 21.8004 19.9956L21.3318 20.1699ZM19.5604 21.2474L19.1621 21.5497C19.2929 21.722 19.5196 21.7907 19.724 21.7199L19.5604 21.2474ZM17.998 20.4573L17.9976 20.9573L17.9986 20.9573L17.998 20.4573ZM16.4357 21.2479L16.2721 21.7204C16.4765 21.7912 16.7033 21.7225 16.834 21.5501L16.4357 21.2479ZM14.6642 20.1704L14.1956 19.9962C14.1256 20.1845 14.1751 20.3965 14.3213 20.5343L14.6642 20.1704ZM14.5332 18.3518L14.0947 18.592L14.095 18.5927L14.5332 18.3518ZM13.1014 17.3233L12.6109 17.4202C12.6515 17.6258 12.816 17.7842 13.0229 17.8171L13.1014 17.3233ZM13.1014 15.1699L13.0228 14.6761C12.8159 14.709 12.6515 14.8674 12.6109 15.0729L13.1014 15.1699ZM14.5332 14.1408L14.095 13.9L14.0946 13.9007L14.5332 14.1408ZM14.6642 12.3227H14.1642C14.1642 12.3822 14.1749 12.4412 14.1956 12.4969L14.6642 12.3227ZM17.2479 14.8782L16.9854 14.4527L17.2479 14.8782ZM18.7483 17.6132L18.4915 17.1842L18.7483 17.6132ZM15.0072 12.686C15.4703 12.2494 16.0126 11.9199 16.5993 11.7166L16.272 10.7717C15.5491 11.0221 14.8852 11.4267 14.3212 11.9584L15.0072 12.686ZM16.0373 11.5463C16.5076 12.1664 17.228 12.5354 17.9985 12.5348L17.9976 11.5348C17.552 11.5351 17.1223 11.3221 16.834 10.942L16.0373 11.5463ZM17.9976 12.5348C18.768 12.5354 19.4885 12.1664 19.9588 11.5463L19.162 10.942C18.8737 11.3221 18.444 11.5351 17.9985 11.5348L17.9976 12.5348ZM19.3967 11.7166C19.9835 11.9199 20.5258 12.2494 20.9888 12.686L21.6748 11.9584C21.1109 11.4267 20.4469 11.0221 19.7241 10.7717L19.3967 11.7166ZM20.8631 12.1479C20.5915 12.8787 20.65 13.6994 21.0246 14.3811L21.901 13.8995C21.6673 13.4742 21.6294 12.9566 21.8005 12.4964L20.8631 12.1479ZM21.0242 14.3803C21.3987 15.0645 22.0553 15.542 22.8161 15.6631L22.9733 14.6756C22.5315 14.6053 22.134 14.3251 21.9014 13.9002L21.0242 14.3803ZM22.4042 15.2663C22.5318 15.9123 22.5318 16.5793 22.4042 17.2253L23.3852 17.4191C23.5381 16.6451 23.5381 15.8464 23.3852 15.0724L22.4042 15.2663ZM22.8149 16.8286C22.0826 16.9469 21.4153 17.3993 21.0246 18.1106L21.9011 18.592C22.1436 18.1505 22.5465 17.8849 22.9744 17.8158L22.8149 16.8286ZM21.0247 18.1104C20.6499 18.7923 20.5913 19.6133 20.8632 20.3442L21.8004 19.9956C21.6292 19.5353 21.6672 19.0175 21.901 18.5921L21.0247 18.1104ZM20.9889 19.806C20.5258 20.2424 19.9835 20.5718 19.3968 20.7749L19.724 21.7199C20.4468 21.4696 21.1107 21.0653 21.6747 20.5338L20.9889 19.806ZM19.9587 20.9452C19.4882 20.3252 18.7678 19.9565 17.9975 19.9573L17.9986 20.9573C18.444 20.9568 18.8738 21.1697 19.1621 21.5497L19.9587 20.9452ZM17.9985 19.9573C17.228 19.9567 16.5076 20.3257 16.0373 20.9458L16.834 21.5501C17.1223 21.17 17.552 20.9569 17.9976 20.9573L17.9985 19.9573ZM16.5992 20.7755C16.0125 20.5723 15.4702 20.2429 15.0072 19.8066L14.3213 20.5343C14.8853 21.0658 15.5493 21.4702 16.2721 21.7204L16.5992 20.7755ZM15.1329 20.3447C15.4047 19.6138 15.3462 18.7928 14.9714 18.111L14.095 18.5927C14.3289 19.0181 14.3668 19.5359 14.1956 19.9962L15.1329 20.3447ZM14.9717 18.1116C14.5971 17.4276 13.9405 16.9504 13.1799 16.8295L13.0229 17.8171C13.4645 17.8873 13.862 18.1672 14.0947 18.592L14.9717 18.1116ZM13.5919 17.2263C13.4642 16.5801 13.4642 15.913 13.5919 15.2668L12.6109 15.0729C12.4578 15.8471 12.4578 16.646 12.6109 17.4202L13.5919 17.2263ZM13.18 15.6636C13.9407 15.5426 14.5973 15.0651 14.9718 14.3808L14.0946 13.9007C13.862 14.3257 13.4645 14.6058 13.0228 14.6761L13.18 15.6636ZM14.9714 14.3816C15.346 13.6999 15.4045 12.8792 15.1329 12.1485L14.1956 12.4969C14.3666 12.9571 14.3287 13.4747 14.095 13.9L14.9714 14.3816ZM15.1642 12.3227V12.3222H14.1642V12.3227H15.1642ZM19.005 18.0423C19.6307 17.6679 20.0056 16.9788 20.0071 16.245L19.0071 16.2429C19.0063 16.6424 18.802 16.9984 18.4915 17.1842L19.005 18.0423ZM20.0071 16.245C20.0086 15.5112 19.6366 14.8205 19.0127 14.4433L18.4953 15.299C18.8051 15.4863 19.0079 15.8433 19.0071 16.2429L20.0071 16.245ZM19.0127 14.4433C18.3853 14.064 17.6093 14.0677 16.9854 14.4527L17.5105 15.3037C17.8155 15.1155 18.189 15.1138 18.4953 15.299L19.0127 14.4433ZM16.9854 14.4527C16.038 15.0372 15.734 16.2951 16.269 17.2705L17.1458 16.7896C16.8561 16.2615 17.0349 15.5972 17.5105 15.3037L16.9854 14.4527ZM16.269 17.2705C16.8115 18.2594 18.0338 18.6235 19.005 18.0423L18.4915 17.1842C18.0289 17.4611 17.4281 17.3042 17.1458 16.7896L16.269 17.2705Z" fill="#181A1E"/>
</svg>
