<svg width="60" height="60" viewBox="0 0 60 60" fill="none" xmlns="http://www.w3.org/2000/svg">
<rect width="60" height="60" rx="7.5" fill="#E8FBF6"/>
<g clip-path="url(#clip0_7052_125452)">
<rect opacity="0.01" x="11.25" y="11.25" width="37.5" height="37.5" fill="white"/>
<path d="M17.989 33.0585L16.4629 31.7801L22.7366 23.5205C22.7366 23.5205 27.9479 23.7476 28.6953 24.3644" stroke="#3A72C6" stroke-width="1.5625" stroke-linecap="round" stroke-linejoin="round"/>
<path d="M39.2819 32.9508L42.4881 30.0222L37.316 22.8364C37.316 22.8364 35.1996 23.5131 33.8758 23.5131C32.5521 23.5131 30.1459 23.1163 27.9057 25.0232C25.6656 26.9301 22.1836 26.8844 22.1836 27.8117C22.1836 28.739 22.8234 30.0222 25.544 30.0222C28.2646 30.0222 28.9765 28.2709 29.7498 28.2857C30.523 28.3004 33.334 28.8148 34.8601 28.2857" stroke="#3A72C6" stroke-width="1.5625" stroke-linecap="round" stroke-linejoin="round"/>
<path d="M34.8576 28.2856C34.8576 28.2856 37.105 31.0112 39.2063 33.0582C41.8956 35.678 38.4521 36.7736 37.105 35.2711C38.0674 37.326 36.1917 38.8101 34.4793 37.326C35.2488 39.4344 33.2848 40.5659 31.5111 39.3238C32.0572 41.0529 29.4608 41.8222 28.4766 40.6184" stroke="#3A72C6" stroke-width="1.5625" stroke-linecap="round" stroke-linejoin="round"/>
<path fill-rule="evenodd" clip-rule="evenodd" d="M17.9861 33.0581C19.1088 32.0502 20.0506 30.999 21.2305 31.5246C22.4103 32.0502 22.2844 33.6298 22.2844 33.6298C22.2844 33.6298 24.5526 31.9705 25.5017 33.0581C26.4508 34.1457 25.9181 35.2353 25.9181 35.2353C25.9181 35.2353 28.6542 34.0453 28.2484 37.1712C29.8862 36.7834 30.0121 38.35 29.4612 39.2399C28.8599 40.2112 28.6703 40.5332 27.6573 41.3213C26.8535 41.9467 25.2923 41.8141 25.5017 39.7965C23.5698 41.2828 21.9565 39.7222 22.6655 38.1149C21.1512 39.1657 18.7665 38.1149 20.1208 35.6088C17.8299 36.8585 16.8634 34.0659 17.9861 33.0581Z" stroke="#3A72C6" stroke-width="1.5625" stroke-linecap="round" stroke-linejoin="round"/>
<path fill-rule="evenodd" clip-rule="evenodd" d="M36.6337 21.9201C36.4678 21.692 36.5206 21.3723 36.751 21.2097L40.3965 18.6364C40.623 18.4765 40.9361 18.5289 41.0982 18.7538L47.6755 27.8824C47.8379 28.1078 47.7879 28.4221 47.5636 28.586L44.0034 31.1881C43.7777 31.3531 43.4609 31.3035 43.2964 31.0774L36.6337 21.9201Z" stroke="#3A72C6" stroke-width="1.5625" stroke-linecap="round" stroke-linejoin="round"/>
<path d="M23.0431 23.0056L16.0499 32.2172C15.8701 32.4541 15.5256 32.4853 15.3061 32.2847L12.3692 29.5994C12.1774 29.4241 12.1498 29.1319 12.3053 28.9237L19.0378 19.9149C19.2071 19.6883 19.5293 19.6447 19.7527 19.8182L22.9504 22.3006C23.1693 22.4705 23.2106 22.7849 23.0431 23.0056Z" stroke="#3A72C6" stroke-width="1.5625" stroke-linecap="round" stroke-linejoin="round"/>
<path d="M22.3897 33.4924L20.1211 35.609" stroke="#3A72C6" stroke-width="1.5625" stroke-linecap="round" stroke-linejoin="round"/>
<path d="M25.92 35.2354L22.5781 38.2308" stroke="#3A72C6" stroke-width="1.5625" stroke-linecap="round" stroke-linejoin="round"/>
<path d="M28.2653 37.1274L25.502 39.7965" stroke="#3A72C6" stroke-width="1.5625" stroke-linecap="round" stroke-linejoin="round"/>
</g>
<defs>
<clipPath id="clip0_7052_125452">
<rect width="37.5" height="37.5" fill="white" transform="translate(11.25 11.25)"/>
</clipPath>
</defs>
</svg>
