<svg width="39" height="38" viewBox="0 0 39 38" fill="none" xmlns="http://www.w3.org/2000/svg">
<g id="Frame 1000003411">
<g id="Group 1000003405">
<path id="Rectangle 8130" d="M34.3535 15.4072V5.53516H4.68164V15.4072" stroke="#FFB020" stroke-width="1.5625" stroke-linecap="round" stroke-linejoin="round"/>
<g id="Group 1000003408">
<path id="Vector 1966" d="M14.3602 20.9826C14.5397 21.2026 14.8246 21.3079 15.1041 21.2575L15.1041 21.2575L15.1041 21.2575L15.1044 21.2575L15.1058 21.2572L15.1119 21.2562L15.137 21.2517L15.2362 21.2344C15.323 21.2193 15.4497 21.1978 15.6077 21.1718C15.924 21.1199 16.3645 21.0507 16.8613 20.9815C17.8668 20.8415 19.0596 20.708 19.921 20.708C19.9385 20.708 20.0159 20.7176 20.1609 20.8227C20.3017 20.9248 20.4515 21.0777 20.5964 21.2584C20.7384 21.4355 20.8579 21.6166 20.9426 21.7557C20.9845 21.8244 21.0167 21.8809 21.0377 21.9189C21.0482 21.9378 21.0559 21.9521 21.0605 21.9607L21.065 21.9692L21.0651 21.9695L21.0651 21.9695L21.0652 21.9695C21.0652 21.9696 21.0652 21.9697 21.0653 21.9698C21.0654 21.97 21.0655 21.9702 21.0656 21.9704C21.213 22.2564 21.5207 22.4229 21.8409 22.3897L25.0838 22.0527L22.7557 23.0317C22.4827 23.1465 22.2981 23.4057 22.2789 23.7011C22.2596 23.9966 22.4091 24.2775 22.6648 24.4267L22.9283 24.5804C22.4549 25.1211 21.9919 25.9581 21.9919 27.1264C21.9919 27.5785 22.0577 28.1147 22.124 28.5455H16.5567C16.6904 27.9373 16.6799 27.2791 16.552 26.6588C16.3236 25.5506 15.6944 24.4175 14.61 23.7026C14.0828 23.355 13.3404 23.0948 12.7569 22.9297C12.4544 22.844 12.1695 22.777 11.9404 22.7329C11.8914 22.7235 11.8435 22.7148 11.7975 22.7071C11.7854 22.6894 11.7734 22.671 11.7617 22.6523C11.711 22.5714 11.6767 22.5017 11.6591 22.4504C11.657 22.444 11.6553 22.4386 11.6539 22.434C11.8729 21.3668 12.5887 20.4764 13.3261 19.821C13.6923 19.4954 14.0455 19.2443 14.3064 19.0753C14.3422 19.0521 14.3762 19.0305 14.4081 19.0105L14.6709 19.1217L14.2401 20.1985C14.1346 20.4623 14.1806 20.7625 14.3602 20.9826ZM27.6643 20.9677L26.4234 21.4895L26.7985 20.708H27.8768L27.6643 20.9677ZM11.9648 22.9233C11.9648 22.9233 11.9648 22.9233 11.9648 22.9233L11.9648 22.9233ZM11.6495 22.4155C11.6496 22.4155 11.6497 22.4162 11.6498 22.4175L11.6495 22.4155Z" stroke="#FFB020" stroke-width="1.5625" stroke-linecap="round" stroke-linejoin="round"/>
<path id="Vector 1968" d="M11.5332 27.6936H12.1973L13.3468 24.8071L13.9215 23.3639L12.9892 23.0957L12.5039 24.6283L11.5332 27.6936Z" fill="#FFB020"/>
<path id="Vector 1967" d="M27.4722 26.9211V28.045C27.4722 28.045 23.6215 28.045 22.2207 27.6313C22.2207 26.446 22.8672 24.9375 22.8672 24.9375L27.4722 26.9211Z" stroke="#FFB020" stroke-width="1.5625" stroke-linecap="round" stroke-linejoin="round"/>
<circle id="Ellipse 1237" cx="27.0134" cy="27.5173" r="2.87865" stroke="#FFB020" stroke-width="1.5625"/>
<circle id="Ellipse 1238" cx="11.8836" cy="27.6648" r="2.73317" stroke="#FFB020" stroke-width="1.5625"/>
<circle id="Ellipse 1239" cx="27.0134" cy="27.5173" r="0.980223" fill="#FFB020" stroke="#FFB020" stroke-width="1.5625" stroke-linecap="round" stroke-linejoin="round"/>
<circle id="Ellipse 1240" cx="11.8818" cy="27.663" r="0.950147" fill="#FFB020" stroke="#FFB020" stroke-width="1.5625" stroke-linecap="round" stroke-linejoin="round"/>
</g>
<g id="Group 1000003407">
<path id="Ellipse 1185" d="M15.3656 11.0331C15.3656 11.5794 15.0026 12.0223 14.5549 12.0223C14.1071 12.0223 13.7441 11.5794 13.7441 11.0331C13.7441 10.4867 14.5549 9.17188 14.5549 9.17188C14.5549 9.17188 15.3656 10.4867 15.3656 11.0331Z" fill="#FFB020"/>
<path id="Ellipse 1241" d="M18.0999 14.1229C18.0999 14.6693 17.737 15.1122 17.2892 15.1122C16.8415 15.1122 16.4785 14.6693 16.4785 14.1229C16.4785 13.5766 17.2892 12.2617 17.2892 12.2617C17.2892 12.2617 18.0999 13.5766 18.0999 14.1229Z" fill="#FFB020"/>
<path id="Ellipse 1242" d="M20.8499 11.3085C20.8499 11.8548 20.487 12.2977 20.0392 12.2977C19.5915 12.2977 19.2285 11.8548 19.2285 11.3085C19.2285 10.7621 20.0392 9.44727 20.0392 9.44727C20.0392 9.44727 20.8499 10.7621 20.8499 11.3085Z" fill="#FFB020"/>
<path id="Ellipse 1246" d="M26.3382 11.076C26.3382 11.6224 25.9753 12.0653 25.5275 12.0653C25.0798 12.0653 24.7168 11.6224 24.7168 11.076C24.7168 10.5297 25.5275 9.21484 25.5275 9.21484C25.5275 9.21484 26.3382 10.5297 26.3382 11.076Z" fill="#FFB020"/>
<path id="Ellipse 1243" d="M23.5921 14.1229C23.5921 14.6693 23.2292 15.1122 22.7814 15.1122C22.3337 15.1122 21.9707 14.6693 21.9707 14.1229C21.9707 13.5766 22.7814 12.2617 22.7814 12.2617C22.7814 12.2617 23.5921 13.5766 23.5921 14.1229Z" fill="#FFB020"/>
<path id="Ellipse 1247" d="M29.0765 13.8885C29.0765 14.4349 28.7135 14.8778 28.2658 14.8778C27.818 14.8778 27.4551 14.4349 27.4551 13.8885C27.4551 13.3422 28.2658 12.0273 28.2658 12.0273C28.2658 12.0273 29.0765 13.3422 29.0765 13.8885Z" fill="#FFB020"/>
<path id="Ellipse 1248" d="M31.1468 11.3085C31.1468 11.8548 30.7838 12.2977 30.3361 12.2977C29.8884 12.2977 29.5254 11.8548 29.5254 11.3085C29.5254 10.7621 30.3361 9.44727 30.3361 9.44727C30.3361 9.44727 31.1468 10.7621 31.1468 11.3085Z" fill="#FFB020"/>
<path id="Ellipse 1244" d="M12.6156 14.1229C12.6156 14.6693 12.2526 15.1122 11.8049 15.1122C11.3571 15.1122 10.9941 14.6693 10.9941 14.1229C10.9941 13.5766 11.8049 12.2617 11.8049 12.2617C11.8049 12.2617 12.6156 13.5766 12.6156 14.1229Z" fill="#FFB020"/>
<path id="Ellipse 1249" d="M9.95932 11.3085C9.95932 11.8548 9.59635 12.2977 9.1486 12.2977C8.70086 12.2977 8.33789 11.8548 8.33789 11.3085C8.33789 10.7621 9.1486 9.44727 9.1486 9.44727C9.1486 9.44727 9.95932 10.7621 9.95932 11.3085Z" fill="#FFB020"/>
</g>
</g>
<g id="Group 1000003409">
<rect id="Rectangle 8131" x="2.19727" y="15.4121" width="4.98473" height="2.08819" stroke="#FFB020" stroke-width="1.5625" stroke-linecap="round" stroke-linejoin="round"/>
<rect id="Rectangle 8132" x="2.19727" y="17.5" width="4.98473" height="2.08819" stroke="#FFB020" stroke-width="1.5625" stroke-linecap="round" stroke-linejoin="round"/>
<rect id="Rectangle 8133" x="2.19727" y="19.5918" width="4.98473" height="2.08819" stroke="#FFB020" stroke-width="1.5625" stroke-linecap="round" stroke-linejoin="round"/>
<rect id="Rectangle 8134" x="2.18945" y="21.6797" width="4.98473" height="2.08819" stroke="#FFB020" stroke-width="1.5625" stroke-linecap="round" stroke-linejoin="round"/>
<rect id="Rectangle 8136" x="2.18164" y="25.8496" width="4.98473" height="2.08819" stroke="#FFB020" stroke-width="1.5625" stroke-linecap="round" stroke-linejoin="round"/>
<rect id="Rectangle 8135" x="2.19727" y="23.7617" width="4.98473" height="2.08819" stroke="#FFB020" stroke-width="1.5625" stroke-linecap="round" stroke-linejoin="round"/>
<rect id="Rectangle 8137" x="2.18945" y="27.9492" width="4.98473" height="2.08819" stroke="#FFB020" stroke-width="1.5625" stroke-linecap="round" stroke-linejoin="round"/>
</g>
<g id="Group 1000003410">
<rect id="Rectangle 8131_2" x="31.8691" y="15.7832" width="4.98473" height="2.08819" stroke="#FFB020" stroke-width="1.5625" stroke-linecap="round" stroke-linejoin="round"/>
<rect id="Rectangle 8132_2" x="31.8691" y="17.8711" width="4.98473" height="2.08819" stroke="#FFB020" stroke-width="1.5625" stroke-linecap="round" stroke-linejoin="round"/>
<rect id="Rectangle 8133_2" x="31.8691" y="19.9629" width="4.98473" height="2.08819" stroke="#FFB020" stroke-width="1.5625" stroke-linecap="round" stroke-linejoin="round"/>
<rect id="Rectangle 8134_2" x="31.8613" y="22.0508" width="4.98473" height="2.08819" stroke="#FFB020" stroke-width="1.5625" stroke-linecap="round" stroke-linejoin="round"/>
<rect id="Rectangle 8136_2" x="31.8535" y="26.2207" width="4.98473" height="2.08819" stroke="#FFB020" stroke-width="1.5625" stroke-linecap="round" stroke-linejoin="round"/>
<rect id="Rectangle 8135_2" x="31.8691" y="24.1328" width="4.98473" height="2.08819" stroke="#FFB020" stroke-width="1.5625" stroke-linecap="round" stroke-linejoin="round"/>
<rect id="Rectangle 8137_2" x="31.8613" y="28.3203" width="4.98473" height="2.08819" stroke="#FFB020" stroke-width="1.5625" stroke-linecap="round" stroke-linejoin="round"/>
</g>
<rect id="Rectangle 8138" x="8.72852" y="4.9375" width="21.875" height="1.5625" stroke="#FFB020" stroke-width="1.5625" stroke-linecap="round" stroke-linejoin="round"/>
</g>
</svg>
