<svg width="32" height="32" viewBox="0 0 32 32" fill="none" xmlns="http://www.w3.org/2000/svg">
<g clip-path="url(#clip0_7387_120439)">
<path d="M2.35148 27.7522H1.05218L0.545668 29.624H6.84397L7.32846 27.7522H5.80894L7.32846 21.5199H8.36349L8.27541 22.555H10.4556L11.3365 19.2737H0.853977L-0.00488281 22.555H2.26339L2.72585 21.4979H3.84898L2.35148 27.7522Z" fill="#253C80"/>
<path d="M18.7801 19.2737H23.647L17.1505 29.624H13.0764L12.5038 21.1456H11.667L12.1515 19.2737H17.5469L17.0624 21.1456H16.1375L16.1154 26.4529L19.2206 21.1456H18.1855L18.7801 19.2737Z" fill="#253C80"/>
<path d="M31.2666 22.3347C31.2666 21.2996 31.5969 20.3747 32.0154 19.4278C30.1875 19.0974 28.2055 18.9653 26.3997 19.4278C25.3867 19.692 24.3297 20.3307 23.7571 21.2336C23.0964 22.2466 23.2506 23.5459 24.0654 24.4047C24.4838 24.8231 24.9903 25.1094 25.5189 25.3517C25.9373 25.5499 26.664 25.8582 26.7741 26.3427C27.0824 27.5759 25.1004 27.686 24.3297 27.4438V26.4748H22.2596L21.4668 29.3597C23.3166 29.8221 25.2546 29.9763 27.1265 29.5579C28.2496 29.2936 29.2626 28.721 30.0113 27.8181C30.628 27.0474 30.9803 25.6159 30.3197 24.7791C29.9453 24.3166 29.5269 23.9643 29.0204 23.678C28.5359 23.3917 28.0073 23.2155 27.5669 22.8852C27.0384 22.4888 27.0384 21.8722 27.6109 21.5198C28.0514 21.2336 28.7781 21.3657 29.2626 21.4538L29.3507 22.3126H31.2666V22.3347Z" fill="#253C80"/>
<g clip-path="url(#clip1_7387_120439)">
<path d="M25.5031 3.75484C24.6413 3.42335 23.8236 3.44545 22.9396 3.66644C22.0777 3.88744 21.4589 4.37362 20.7739 4.90401C20.0888 5.43439 19.3595 5.96478 18.5639 6.31837C17.7462 6.67196 16.8181 7.04765 15.9341 6.69406C16.575 6.71616 17.1717 6.58356 17.7241 6.22997C18.144 5.96478 18.8733 5.41229 19.028 4.90401H18.2987C18.8291 4.32942 19.4921 3.88744 20.2214 3.62224L19.8678 3.20236C20.8402 2.53937 21.9009 2.22998 23.0722 2.18578C23.6247 2.16368 24.1772 2.22998 24.6855 2.38468C25.238 2.53937 25.6578 2.80457 26.0556 3.20236L25.5031 3.75484Z" fill="#DC4226"/>
<path d="M11.5137 6.07547C11.2043 6.07547 10.9391 6.09757 10.6297 6.18597C10.3424 6.27437 10.0773 6.38487 9.78996 6.49536C9.25957 6.71636 8.75129 7.00365 8.243 7.26884C8.02201 7.37934 7.75681 7.51193 7.51372 7.55613C7.24852 7.60033 6.89493 7.60033 6.65184 7.48983C6.38665 7.35724 6.16565 7.22464 5.94465 7.02575C5.72366 6.82685 5.50267 6.62796 5.28167 6.47326C5.03858 6.31857 4.79549 6.20807 4.55239 6.05337C4.66289 6.05337 5.23747 6.03128 5.08278 5.78818C4.95018 5.58929 4.64079 5.50089 4.39769 5.45669C3.84521 5.3462 3.29272 5.3462 2.74023 5.3462C3.20432 4.94841 3.71261 4.74951 4.3314 4.74951C4.90598 4.74951 5.37007 5.0147 5.85626 5.302C6.09935 5.45669 6.38665 5.72188 6.62974 5.87658C6.87283 6.03128 7.13803 6.11967 7.40322 6.20807C7.91151 6.38487 8.55239 6.29647 9.06068 6.11967C9.48057 5.96498 9.85626 5.78818 10.3203 5.78818C10.7402 5.72188 11.138 5.83238 11.5137 6.07547Z" fill="#DC4226"/>
<path d="M7.18232 10.5172C8.0884 10.473 8.83978 9.58907 9.34807 8.92609C9.90055 8.21891 10.2762 7.15814 11.1381 6.76035C12.4199 6.18576 13.768 6.67195 14.9392 7.29073C16.0442 7.84322 17.5912 7.75482 18.6961 7.26863C19.9116 6.73825 20.8398 5.83217 21.8785 5.05869C22.8508 4.32941 24.1105 3.82113 25.6133 4.21892L26.2762 3.42334L26.4088 4.7272L28.7514 7.09184L28.2873 7.64432H26.7845V7.26863C26.3425 6.95924 25.8785 6.73825 25.326 6.80455C24.7514 6.87084 24.1326 7.13604 24.221 7.82112C24.2873 8.2852 24.9503 8.70509 25.2818 8.94819C25.7459 9.25758 26.232 9.54487 26.7182 9.85426C27.7127 10.473 28.663 11.1581 29.5912 11.8874C30.453 12.5725 31.337 13.2797 32 14.1415L29.9669 13.7438C30.3425 13.4786 29.9006 13.1913 29.6575 12.9924C29.3481 12.7493 29.0387 12.5504 28.6851 12.3515C28 11.9758 27.2707 11.7769 26.5193 11.6001C25.0829 11.2465 23.2265 11.0255 21.9669 11.9316C21.9227 11.9537 21.8785 11.9979 21.8343 12.02L21.1271 11.4233C18.8508 12.1968 16.3094 11.9979 14.2099 10.8487C13.3481 11.4454 12.3536 11.578 11.3591 11.6885C10.4088 11.799 9.41436 11.7327 8.44199 11.6443C6.12155 13.567 2.96133 14.694 0 13.6775L1.98895 13.1692V13.6112C4.1326 13.6112 5.92265 12.1084 7.18232 10.5172Z" fill="#DC4226"/>
</g>
</g>
<defs>
<clipPath id="clip0_7387_120439">
<rect width="32" height="32" fill="white"/>
</clipPath>
<clipPath id="clip1_7387_120439">
<rect width="32" height="11.9599" fill="white" transform="translate(0 2.18188)"/>
</clipPath>
</defs>
</svg>
