<svg width="24" height="21" viewBox="0 0 24 21" fill="none" xmlns="http://www.w3.org/2000/svg">
<path d="M6.67779 10.2181C6.79271 10.359 6.97502 10.4264 7.15392 10.3941L7.15394 10.3941L7.15399 10.3941L7.15434 10.394L7.15592 10.3937L7.16259 10.3925L7.18958 10.3877L7.29516 10.3693C7.38736 10.3533 7.52162 10.3305 7.68893 10.303C8.02368 10.2481 8.49002 10.1748 9.01603 10.1015C10.0757 9.95398 11.3501 9.81058 12.2807 9.81058C12.3923 9.81058 12.5396 9.86022 12.7223 9.99269C12.9024 10.1232 13.0805 10.308 13.243 10.5106C13.4035 10.7108 13.5371 10.9136 13.6311 11.0678C13.6778 11.1444 13.7139 11.2077 13.7379 11.2511C13.7499 11.2727 13.7588 11.2893 13.7645 11.2999L13.7705 11.3113L13.7714 11.3131L13.7715 11.3133C13.7716 11.3134 13.7716 11.3135 13.7717 11.3135C13.7717 11.3136 13.7717 11.3136 13.7717 11.3136C13.8659 11.4969 14.063 11.6035 14.268 11.5822L18.4081 11.1521C18.5809 11.1341 18.732 11.0278 18.8072 10.8711L19.3163 9.81058H21.6024L20.5178 12.124L15.5119 12.8415C15.3013 12.8717 15.1329 13.0318 15.0921 13.2406C15.0513 13.4494 15.1471 13.6611 15.3309 13.7683L15.9638 14.1376C15.8792 14.2158 15.7915 14.3042 15.7038 14.4031C15.2414 14.9244 14.7825 15.738 14.7825 16.888C14.7825 17.3861 14.8632 17.9979 14.9391 18.4676C14.9524 18.5503 14.9658 18.6295 14.9787 18.7039H8.31533C8.55146 18.0203 8.57616 17.2215 8.41938 16.4609C8.1929 15.3621 7.57107 14.2507 6.51369 13.5536C6.00184 13.2161 5.25997 12.953 4.65295 12.7812C4.34251 12.6933 4.05164 12.625 3.82046 12.5804C3.72091 12.5613 3.62882 12.5458 3.54877 12.5352C3.50845 12.4822 3.46338 12.4191 3.42027 12.3503C3.35913 12.2528 3.30968 12.1564 3.28046 12.0709C3.24989 11.9815 3.25341 11.9392 3.25478 11.9321C3.49375 10.6895 4.3158 9.67833 5.12569 8.95842C5.52603 8.60257 5.91141 8.32861 6.19623 8.14403C6.29522 8.07988 6.38165 8.0268 6.45181 7.98508L7.17165 8.28963L6.60096 9.71633C6.53345 9.88512 6.56287 10.0773 6.67779 10.2181ZM3.66915 12.6817C3.66924 12.6818 3.66919 12.6818 3.669 12.6816L3.66915 12.6817Z" stroke="#181A1E" stroke-linecap="round" stroke-linejoin="round"/>
<path d="M3.45312 17.4827H4.15211L5.36188 14.4448L5.96677 12.9258L4.98551 12.6436L4.47471 14.2566L3.45312 17.4827Z" fill="#181A1E"/>
<path d="M15.6621 15.2541L19.7282 17.0056V17.355C19.6816 17.3543 19.6323 17.3536 19.5804 17.3527C19.1807 17.346 18.633 17.3325 18.0403 17.3055C17.03 17.2596 15.9436 17.1763 15.2233 17.0351C15.2714 16.5843 15.3914 16.1013 15.5193 15.6857C15.5684 15.5262 15.6175 15.3801 15.6621 15.2541Z" stroke="#181A1E" stroke-linecap="round" stroke-linejoin="round"/>
<circle cx="19.7445" cy="17.3031" r="3.02969" stroke="#181A1E"/>
<circle cx="3.82189" cy="17.4557" r="2.87658" stroke="#181A1E"/>
<circle cx="19.7445" cy="17.3031" r="1.03165" fill="#181A1E" stroke="#181A1E" stroke-linecap="round" stroke-linejoin="round"/>
<circle cx="3.82227" cy="17.4561" r="1" fill="#181A1E" stroke="#181A1E" stroke-linecap="round" stroke-linejoin="round"/>
<path d="M7.52877 1.95885C7.52877 2.53386 7.14675 3 6.67552 3C6.20428 3 5.82227 2.53386 5.82227 1.95885C5.82227 1.38384 6.67552 0 6.67552 0C6.67552 0 7.52877 1.38384 7.52877 1.95885Z" fill="#181A1E"/>
<path d="M10.7495 6.63072C10.7495 7.20574 10.3675 7.67188 9.89622 7.67188C9.42498 7.67188 9.04297 7.20574 9.04297 6.63072C9.04297 6.05571 9.89622 4.67188 9.89622 4.67188C9.89622 4.67188 10.7495 6.05571 10.7495 6.63072Z" fill="#181A1E"/>
<path d="M13.9702 2.24791C13.9702 2.82292 13.5882 3.28906 13.1169 3.28906C12.6457 3.28906 12.2637 2.82292 12.2637 2.24791C12.2637 1.6729 13.1169 0.289062 13.1169 0.289062C13.1169 0.289062 13.9702 1.6729 13.9702 2.24791Z" fill="#181A1E"/>
<path d="M20.4116 2.00475C20.4116 2.57976 20.0296 3.0459 19.5583 3.0459C19.0871 3.0459 18.7051 2.57976 18.7051 2.00475C18.7051 1.42974 19.5583 0.0458984 19.5583 0.0458984C19.5583 0.0458984 20.4116 1.42974 20.4116 2.00475Z" fill="#181A1E"/>
<path d="M17.1909 6.63072C17.1909 7.20574 16.8089 7.67188 16.3376 7.67188C15.8664 7.67188 15.4844 7.20574 15.4844 6.63072C15.4844 6.05571 16.3376 4.67188 16.3376 4.67188C16.3376 4.67188 17.1909 6.05571 17.1909 6.63072Z" fill="#181A1E"/>
<path d="M23.6323 6.38756C23.6323 6.96257 23.2503 7.42871 22.779 7.42871C22.3078 7.42871 21.9258 6.96257 21.9258 6.38756C21.9258 5.81255 22.779 4.42871 22.779 4.42871C22.779 4.42871 23.6323 5.81255 23.6323 6.38756Z" fill="#181A1E"/>
<path d="M4.30807 6.62975C4.30807 7.20476 3.92605 7.6709 3.45481 7.6709C2.98358 7.6709 2.60156 7.20476 2.60156 6.62975C2.60156 6.05474 3.45481 4.6709 3.45481 4.6709C3.45481 4.6709 4.30807 6.05474 4.30807 6.62975Z" fill="#181A1E"/>
</svg>
