<svg width="60" height="52" viewBox="0 0 60 52" fill="none" xmlns="http://www.w3.org/2000/svg">
<g clip-path="url(#clip0_3929_77542)">
<path d="M16.2194 51.6487C39.2907 51.6487 57.9936 32.9341 57.9936 9.8485C57.9936 -13.2371 39.2907 -31.9517 16.2194 -31.9517C-6.85177 -31.9517 -25.5547 -13.2371 -25.5547 9.8485C-25.5547 32.9341 -6.85177 51.6487 16.2194 51.6487Z" fill="url(#paint0_linear_3929_77542)"/>
<g filter="url(#filter0_f_3929_77542)">
<path d="M22.7445 44.5374C20.0246 45.254 7.33179 45.015 -1.73446 40.4767C-10.8007 35.9384 -13.5207 32.1764 -15.4547 28.4144C-17.3889 24.6524 -13.5811 25.4286 -13.3393 24.4732C-13.0975 23.5178 -11.6469 21.3083 -15.4547 18.8004C-19.2626 16.2924 -17.9329 14.6204 -17.9329 13.008C-17.9329 11.3958 -17.0867 4.76748 -18.5373 3.63287C-19.9878 2.49826 -20.7132 4.17037 -23.1309 3.21484" stroke="#0A4EC5" stroke-width="1.11053"/>
</g>
<g filter="url(#filter1_f_3929_77542)">
<path d="M-6.29908 -25.401C-5.09965 -25.1541 -4.61983 -24.4135 -3.54041 -24.5987C-2.46087 -24.7838 -0.421812 -26.2033 0.777621 -25.401C1.97705 -24.5987 2.33686 -24.2901 3.23643 -24.5987C4.13601 -24.9073 8.51399 -24.4135 8.81385 -22.994C9.1137 -21.5745 4.49594 -18.4886 4.61583 -17.8096C4.73585 -17.1308 5.87521 -17.1308 8.21413 -13.3042C10.553 -9.4778 10.0134 -8.37138 9.95333 -7.26049C9.89338 -6.14948 2.15702 -1.1503 0.777621 -1.70581C-0.601777 -2.26131 -2.52082 -2.38476 -2.82068 -1.70581C-3.12054 -1.02698 -5.1596 4.71287 -6.29908 5.82376C-7.43857 6.93465 -11.4567 7.05809 -12.7761 9.27999C-14.0955 11.5019 -14.6353 17.8016 -12.2964 17.3695C-9.95745 16.9376 -7.07876 13.3579 -3.96016 13.0493C-0.841687 12.7407 -0.541706 13.4196 0.117957 14.7157C0.777621 16.0118 12.5322 22.4922 12.7721 23.8499C13.012 25.2077 9.41356 35.453 11.0928 37.6747" stroke="#0A4EC5" stroke-width="1.11053"/>
</g>
<path d="M-20.0424 -15.4869C-20.858 -14.6707 -21.0058 -13.5364 -20.9777 -13.0713C-21.2257 -12.4762 -21.8296 -11.1541 -22.2614 -10.626C-22.8012 -9.96583 -22.9211 -8.94573 -23.161 -7.20544C-23.4009 -5.46515 -24.4079 -3.46816 -24.8877 -1.90795C-25.3675 -0.347618 -25.5474 2.17271 -23.1485 3.13296C-20.7496 4.09308 -20.03 2.41277 -18.5906 3.55297C-17.1513 4.69316 -17.9909 11.3543 -17.9909 12.9745C-17.9909 14.5948 -19.3102 16.275 -15.532 18.7954C-11.7537 21.3159 -13.1931 23.5361 -13.433 24.4963C-13.6729 25.4565 -17.4511 24.6763 -15.532 28.457C-13.6129 32.2376 -10.9141 36.0182 -1.91834 40.5789C7.07754 45.1396 19.6717 45.3797 22.3704 44.6595C25.0692 43.9395 24.1096 40.999 23.27 40.5789C22.4304 40.1589 21.171 40.999 20.0315 40.999C18.892 40.999 12.8949 37.4584 11.2156 35.298C9.53635 33.1377 13.1348 23.1761 12.8949 21.8558C12.6549 20.5357 0.900406 14.2346 0.240742 12.9745C-0.419046 11.7143 -0.718903 11.0542 -3.83738 11.3543C-6.95598 11.6543 -9.83467 15.1349 -12.1736 15.5549C-14.5125 15.9749 -13.9727 10.5741 -12.6533 8.4138C-11.334 6.25337 -7.31578 6.1334 -6.1763 5.05319C-5.03681 3.97298 -2.99775 -1.60791 -2.69789 -2.26798C-2.39804 -2.92806 -0.478992 -2.80809 0.900406 -2.26798C2.2798 -1.72788 10.0162 -6.58871 10.0761 -7.66879C10.1361 -8.74901 10.6758 -10.5493 8.33691 -14.2699C5.998 -17.9905 4.85851 -17.9905 4.73862 -18.6506C4.61872 -19.3107 9.23649 -22.3112 8.93663 -23.6914C8.63677 -25.0717 4.25879 -25.5517 3.35922 -25.2517C2.45964 -24.9516 2.09984 -25.2517 0.900406 -26.0318C-0.299028 -26.8119 -2.33809 -25.4317 -3.41763 -25.2517C-4.49717 -25.0716 -4.97687 -25.7917 -6.1763 -26.0318C-7.37573 -26.2718 -10.207 -24.7883 -11.6464 -24.1882C-13.0857 -23.5881 -14.7648 -20.9477 -15.9643 -20.2275C-17.1638 -19.5074 -19.0229 -16.507 -20.0424 -15.4869Z" fill="url(#paint1_linear_3929_77542)"/>
<g filter="url(#filter2_f_3929_77542)">
<path d="M-6.29908 -26.0277C-5.09965 -25.7832 -4.61983 -25.0499 -3.54041 -25.2332C-2.46087 -25.4165 -0.421812 -26.8221 0.777621 -26.0277C1.97705 -25.2332 2.33686 -24.9276 3.23643 -25.2332C4.13601 -25.5388 8.51399 -25.0499 8.81385 -23.6443C9.1137 -22.2387 4.49594 -19.183 4.61583 -18.5108C4.73585 -17.8385 5.87521 -17.8385 8.21413 -14.0496C10.553 -10.2605 10.0134 -9.16505 9.95333 -8.06496C9.89338 -6.96501 2.15702 -2.01488 0.777621 -2.5648C-0.601777 -3.11484 -2.52082 -3.23705 -2.82068 -2.5648C-3.12054 -1.89255 -5.1596 3.79091 -6.29908 4.89087C-7.43857 5.99096 -11.4567 6.11316 -12.7761 8.3132C-14.0955 10.5132 -14.6353 16.7512 -12.2964 16.3235C-9.95745 15.8957 -7.07876 12.3511 -3.96016 12.0456C-0.841687 11.74 -0.541706 12.4122 0.117957 13.6956C0.777621 14.979 12.5322 21.3958 12.7721 22.7403C13.012 24.0848 9.41356 34.2295 11.0928 36.4295" stroke="url(#paint2_linear_3929_77542)" stroke-opacity="0.4" stroke-width="1.11053"/>
</g>
<g filter="url(#filter3_f_3929_77542)">
<path fill-rule="evenodd" clip-rule="evenodd" d="M39.3044 -24.2878C39.9766 -24.5212 41.8478 -22.772 44.0049 -20.5253C45.2243 -19.2551 46.8711 -16.1386 46.1733 -14.3022C45.6861 -13.5664 44.9316 -13.968 44.4468 -13.2309C44.0093 -12.5657 44.7754 -11.5378 45.2599 -11.104C46.3994 -10.0838 48.1906 -9.55322 48.9461 -8.12242C49.3578 -7.34299 49.9858 -6.98805 50.4016 -6.97054C51.584 -6.92099 50.6142 -9.14612 52.0351 -9.08763C54.6282 -8.98107 55.0885 -2.44292 52.9484 -1.35215C51.0554 -0.38731 50.3438 -2.58673 50.3438 3.6869C50.2519 6.32558 50.2912 10.6277 50.5352 12.619C50.634 13.425 50.565 14.8611 51.1861 15.49C51.9547 16.2684 52.8234 14.7488 53.598 15.9601C55.3527 18.7043 55.2129 23.9325 53.8276 26.6551C52.0819 30.0862 49.4369 32.6824 47.7406 36.1057C46.7005 38.2045 44.4991 40.3257 42.6464 41.6616C43.5294 40.5319 46.3707 37.7659 47.08 36.3343C48.8892 32.6835 51.6668 29.791 53.4109 26.3629C54.6467 23.9341 54.9835 18.7865 53.4109 16.3274C52.8285 15.4165 51.6026 16.699 50.8729 15.9601C50.0698 15.1467 50.1682 13.6853 50.0375 12.619C49.7788 10.5077 49.6082 -0.0868912 51.0344 -0.937475C51.6375 -1.12215 52.358 -1.12252 52.89 -1.50466C53.296 -1.79626 53.9089 -2.59654 54.0532 -4.39023C54.1387 -5.45194 53.2094 -8.94741 51.8909 -8.61582C50.8019 -8.34186 51.575 -6.23645 50.0787 -6.29917C49.6463 -6.42795 48.8853 -6.86287 48.3901 -7.80076C47.7046 -9.09905 46.1528 -9.51062 45.1158 -10.4391C44.2866 -11.1815 43.4487 -12.1678 44.1479 -13.2309C44.5051 -13.7741 45.5452 -13.5795 46.0012 -14.3022C46.5391 -15.1545 45.9996 -16.5404 45.8656 -16.9139C45.4103 -18.1816 44.5348 -19.6308 43.6761 -20.5253C42.2719 -21.9879 40.436 -23.4806 39.5405 -24.018C38.5698 -24.018 35.5256 -26.3211 34.084 -27.5298C35.2927 -26.8666 38.8036 -24.1139 39.3044 -24.2878Z" fill="#0F44FF"/>
</g>
<path d="M35.4038 -27.0909C35.8645 -26.4124 38.6671 -24.8695 40.0109 -24.1828C40.9037 -23.6433 43.0483 -22.1864 44.4848 -20.6752C46.2804 -18.7862 48.0811 -14.6503 46.4488 -14.221C44.8165 -13.7917 44.3965 -13.1082 44.8045 -11.7344C45.2126 -10.3606 48.2583 -9.24143 49.0178 -7.78852C49.9157 -6.07121 51.9465 -5.53694 51.9465 -8.11279C51.9465 -9.93218 54.9795 -7.69153 54.6868 -4.01784C54.3942 -0.344273 52.9728 -0.755096 51.5854 -0.325768C50.1979 0.103559 50.2796 8.51811 50.7692 12.5536C51.2589 16.5891 51.667 15.9881 53.2994 16.1598C54.9316 16.3316 55.1765 19.7194 55.1765 23.3722C55.1765 27.5598 49.0553 33.4181 47.7495 36.0799C46.9708 37.667 45.301 39.2568 44.24 40.0296C42.7436 41.6609 41.5764 43.6723 45.0561 41.1458C50.8509 36.9386 57.625 23.1146 58.6044 11.5233C59.5837 -0.0681973 54.9553 -8.41084 51.2589 -14.4931C48.0759 -19.7307 42.541 -24.0111 40.0109 -25.4835C37.4809 -26.9559 34.8279 -27.9391 35.4038 -27.0909Z" fill="url(#paint3_linear_3929_77542)"/>
<g filter="url(#filter4_f_3929_77542)">
<path fill-rule="evenodd" clip-rule="evenodd" d="M39.9236 -24.1628C40.5958 -24.3962 42.4669 -22.647 44.624 -20.4003C45.8434 -19.1301 47.4903 -16.0136 46.7924 -14.1772C46.3053 -13.4414 45.5508 -13.843 45.066 -13.1059C44.6285 -12.4407 45.3945 -11.4128 45.879 -10.979C47.0185 -9.95876 48.8097 -9.42822 49.5652 -7.99742C49.9769 -7.21799 50.6049 -6.86305 51.0207 -6.84554C52.2031 -6.79599 51.2333 -9.02112 52.6543 -8.96263C55.2474 -8.85607 55.7076 -2.31792 53.5675 -1.22715C51.6745 -0.26231 50.963 -2.46173 50.963 3.8119C50.871 6.45058 50.9104 10.7527 51.1544 12.744C51.2532 13.55 51.1842 14.9861 51.8052 15.615C52.5739 16.3934 53.4425 14.8738 54.2171 16.0851C55.9718 18.8293 55.8321 24.0575 54.4467 26.7801C52.7011 30.2112 50.0561 32.8074 48.3597 36.2307C47.3196 38.3295 45.1182 40.4507 43.2656 41.7866C44.1485 40.6569 46.9899 37.8909 47.6992 36.4593C49.5084 32.8085 52.2859 29.916 54.0301 26.4879C55.2659 24.0591 55.6026 18.9115 54.0301 16.4524C53.4476 15.5415 52.2217 16.824 51.4921 16.0851C50.6889 15.2717 50.7874 13.8103 50.6567 12.744C50.3979 10.6327 50.2274 0.0381088 51.6535 -0.812475C52.2566 -0.997147 52.9771 -0.99752 53.5092 -1.37966C53.9151 -1.67126 54.528 -2.47154 54.6724 -4.26523C54.7579 -5.32694 53.8285 -8.82241 52.5101 -8.49082C51.4211 -8.21686 52.1942 -6.11145 50.6979 -6.17417C50.2655 -6.30295 49.5044 -6.73787 49.0092 -7.67576C48.3237 -8.97405 46.7719 -9.38562 45.7349 -10.3141C44.9057 -11.0565 44.0679 -12.0428 44.767 -13.1059C45.1242 -13.6491 46.1644 -13.4545 46.6204 -14.1772C47.1583 -15.0295 46.6188 -16.4154 46.4847 -16.7889C46.0295 -18.0566 45.154 -19.5058 44.2952 -20.4003C42.891 -21.8629 41.0551 -23.3556 40.1596 -23.893C39.189 -23.893 36.1447 -26.1961 34.7031 -27.4048C35.9119 -26.7416 39.4228 -23.9889 39.9236 -24.1628Z" fill="#24A900"/>
</g>
<g style="mix-blend-mode:hard-light" filter="url(#filter5_f_3929_77542)">
<path d="M-10.9588 8.48763C-14.8961 1.09964 -16.16 -5.95974 -13.8557 -6.97152C-9.28849 -8.97708 -7.75792 -4.92399 -2.91526 -1.34282C0.845874 1.43856 4.32862 2.46376 5.66061 5.67049C7.77277 10.7555 1.50094 13.3993 -1.82964 12.3291C-3.54055 11.7793 -8.29186 13.4918 -10.9588 8.48763Z" fill="url(#paint4_linear_3929_77542)" fill-opacity="0.7"/>
</g>
<g filter="url(#filter6_f_3929_77542)">
<path d="M-7.55253 4.68259C-11.4898 -2.70553 -12.7538 -9.76491 -10.4496 -10.7767C-5.88221 -12.7823 -4.35164 -8.72916 0.491021 -5.14799C4.25216 -2.36661 7.73491 -1.34141 9.0669 1.86544C11.1791 6.95031 4.90723 9.59409 1.57664 8.52393C-0.134261 7.97414 -4.88558 9.68673 -7.55253 4.68259Z" fill="url(#paint5_linear_3929_77542)"/>
</g>
<mask id="mask0_3929_77542" style="mask-type:alpha" maskUnits="userSpaceOnUse" x="-12" y="-12" width="22" height="21">
<path d="M-7.55253 4.68234C-11.4898 -2.70577 -12.7538 -9.76516 -10.4496 -10.7769C-5.88221 -12.7825 -4.35164 -8.7294 0.491021 -5.14823C4.25216 -2.36686 7.73491 -1.34166 9.0669 1.8652C11.1791 6.95007 4.90723 9.59384 1.57664 8.52369C-0.134261 7.9739 -4.88558 9.68649 -7.55253 4.68234Z" fill="#CCDAE2"/>
</mask>
<g mask="url(#mask0_3929_77542)">
<g filter="url(#filter7_f_3929_77542)">
<path fill-rule="evenodd" clip-rule="evenodd" d="M-10.2726 -10.8535C-10.8379 -8.17733 -9.39186 -2.66189 -6.34773 3.0499C-4.34913 6.80009 -1.17989 6.77811 1.00302 6.76296C1.73293 6.75787 2.35263 6.75352 2.78132 6.89137C4.65481 7.4932 7.45891 6.92006 9.17788 5.39835C8.03181 8.09813 4.01563 9.30602 1.57667 8.52237C1.14786 8.38464 0.528284 8.38887 -0.201627 8.39396C-2.38466 8.40911 -5.5539 8.43109 -7.5525 4.68102C-11.4899 -2.70709 -12.7537 -9.76647 -10.4496 -10.7783C-10.39 -10.8043 -10.331 -10.8294 -10.2726 -10.8535Z" fill="#91A4C8"/>
</g>
</g>
<g style="mix-blend-mode:hard-light" filter="url(#filter8_f_3929_77542)">
<path d="M40.8627 1.0541C41.378 3.94216 46.5934 3.92353 46.5934 3.92353C46.5934 3.92353 47.1099 5.77671 48.2438 6.80824C49.6611 8.09746 52.0223 7.38734 52.7954 5.57924C53.8091 3.20844 51.24 -1.80502 50.3148 -2.32488C49.3896 -2.84475 47.5446 -3.19385 44.7099 -3.19385C41.8751 -3.19385 40.3473 -1.83396 40.8627 1.0541Z" fill="url(#paint6_linear_3929_77542)"/>
</g>
<g filter="url(#filter9_f_3929_77542)">
<path d="M43.3451 -1.42686C43.8605 1.4612 49.0758 1.44257 49.0758 1.44257C49.0758 1.44257 49.5923 3.29575 50.7262 4.32728C52.1436 5.6165 54.5047 4.90638 55.2778 3.09829C56.2916 0.727483 53.7224 -4.28598 52.7973 -4.80584C51.872 -5.3257 50.027 -5.6748 47.1923 -5.6748C44.3575 -5.6748 42.8297 -4.31491 43.3451 -1.42686Z" fill="url(#paint7_linear_3929_77542)"/>
</g>
<mask id="mask1_3929_77542" style="mask-type:alpha" maskUnits="userSpaceOnUse" x="43" y="-6" width="13" height="11">
<path d="M43.3451 -1.42686C43.8605 1.4612 49.0758 1.44257 49.0758 1.44257C49.0758 1.44257 49.5923 3.29575 50.7262 4.32728C52.1436 5.6165 54.5047 4.90638 55.2778 3.09829C56.2916 0.727483 53.7224 -4.28598 52.7973 -4.80584C51.872 -5.3257 50.027 -5.6748 47.1923 -5.6748C44.3575 -5.6748 42.8297 -4.31491 43.3451 -1.42686Z" fill="url(#paint8_linear_3929_77542)"/>
</mask>
<g mask="url(#mask1_3929_77542)">
<g filter="url(#filter10_f_3929_77542)">
</g>
<g filter="url(#filter11_f_3929_77542)">
<path d="M51.5994 0.831116C52.3902 2.08872 53.8674 2.58177 54.8988 1.93238C55.9302 1.283 56.1251 -0.262926 55.3343 -1.52053C54.5434 -2.77813 53.0663 -3.27117 52.0349 -2.62179C51.0035 -1.9724 50.8085 -0.426483 51.5994 0.831116Z" fill="white"/>
</g>
</g>
<g style="mix-blend-mode:hard-light" filter="url(#filter12_f_3929_77542)">
<path d="M9.02715 32.6169C5.96155 32.0746 0.31463 32.0745 0.31463 32.0745C0.31463 32.0745 -3.9375 32.0745 -3.9375 33.4181C-3.9375 34.2149 -3.53475 35.83 -0.0481541 36.814C2.9261 37.6534 5.93064 40.8386 6.58683 41.4689C7.54002 42.3847 8.16878 43.2461 12.4209 42.7662C17.4923 42.1939 25.1568 42.499 24.6611 39.9046C24.3819 38.443 17.8355 37.7679 14.2512 36.1272C12.2769 35.2234 11.4471 33.045 9.02715 32.6169Z" fill="url(#paint9_linear_3929_77542)"/>
</g>
<g filter="url(#filter13_f_3929_77542)">
<path d="M10.2693 31.3765C7.20373 30.8341 1.55682 30.834 1.55682 30.834C1.55682 30.834 -2.69531 30.834 -2.69531 32.1776C-2.69531 32.9744 -2.29256 34.5895 1.19403 35.5735C4.16829 36.4129 7.17283 39.5981 7.82902 40.2284C8.78221 41.1442 9.41097 42.0056 13.6631 41.5257C18.7345 40.9534 26.399 41.2586 25.9033 38.6641C25.624 37.2025 19.0777 36.5274 15.4934 34.8867C13.5191 33.983 12.6893 31.8045 10.2693 31.3765Z" fill="url(#paint10_linear_3929_77542)"/>
</g>
<g style="mix-blend-mode:hard-light" filter="url(#filter14_f_3929_77542)">
<path d="M52.7181 20.1023C51.5856 22.5308 45.7202 17.1649 43.9808 20.1023C42.9499 21.8429 44.8674 22.033 45.9223 23.6642C47.7021 26.4166 48.8911 24.8173 50.6708 25.1411C52.4508 25.4648 54.9834 20.1023 54.8216 19.1309C54.6599 18.1594 53.8508 17.6737 52.7181 20.1023Z" fill="url(#paint11_linear_3929_77542)"/>
</g>
<g filter="url(#filter15_f_3929_77542)">
<path d="M55.4505 23.574C54.318 26.0025 48.4526 20.6366 46.7132 23.574C45.6823 25.3146 47.5999 25.5046 48.6547 27.1359C50.4345 29.8883 51.6235 28.289 53.4033 28.6128C55.1832 28.9365 57.7158 23.574 57.554 22.6025C57.3923 21.6311 56.5832 21.1454 55.4505 23.574Z" fill="url(#paint12_linear_3929_77542)"/>
</g>
</g>
<defs>
<filter id="filter0_f_3929_77542" x="-27.554" y="-1.55473" width="54.6607" height="51.1737" filterUnits="userSpaceOnUse" color-interpolation-filters="sRGB">
<feFlood flood-opacity="0" result="BackgroundImageFix"/>
<feBlend mode="normal" in="SourceGraphic" in2="BackgroundImageFix" result="shape"/>
<feGaussianBlur stdDeviation="2.11001" result="effect1_foregroundBlur_3929_77542"/>
</filter>
<filter id="filter1_f_3929_77542" x="-18.6829" y="-30.42" width="36.2428" height="72.6495" filterUnits="userSpaceOnUse" color-interpolation-filters="sRGB">
<feFlood flood-opacity="0" result="BackgroundImageFix"/>
<feBlend mode="normal" in="SourceGraphic" in2="BackgroundImageFix" result="shape"/>
<feGaussianBlur stdDeviation="2.11001" result="effect1_foregroundBlur_3929_77542"/>
</filter>
<filter id="filter2_f_3929_77542" x="-16.2397" y="-28.6011" width="31.3564" height="67.1443" filterUnits="userSpaceOnUse" color-interpolation-filters="sRGB">
<feFlood flood-opacity="0" result="BackgroundImageFix"/>
<feBlend mode="normal" in="SourceGraphic" in2="BackgroundImageFix" result="shape"/>
<feGaussianBlur stdDeviation="0.888423" result="effect1_foregroundBlur_3929_77542"/>
</filter>
<filter id="filter3_f_3929_77542" x="31.8629" y="-29.7508" width="25.2488" height="73.6335" filterUnits="userSpaceOnUse" color-interpolation-filters="sRGB">
<feFlood flood-opacity="0" result="BackgroundImageFix"/>
<feBlend mode="normal" in="SourceGraphic" in2="BackgroundImageFix" result="shape"/>
<feGaussianBlur stdDeviation="1.11053" result="effect1_foregroundBlur_3929_77542"/>
</filter>
<filter id="filter4_f_3929_77542" x="33.8147" y="-28.2932" width="22.5835" height="70.9683" filterUnits="userSpaceOnUse" color-interpolation-filters="sRGB">
<feFlood flood-opacity="0" result="BackgroundImageFix"/>
<feBlend mode="normal" in="SourceGraphic" in2="BackgroundImageFix" result="shape"/>
<feGaussianBlur stdDeviation="0.444212" result="effect1_foregroundBlur_3929_77542"/>
</filter>
<filter id="filter5_f_3929_77542" x="-22.5555" y="-15.0555" width="36.193" height="35.1716" filterUnits="userSpaceOnUse" color-interpolation-filters="sRGB">
<feFlood flood-opacity="0" result="BackgroundImageFix"/>
<feBlend mode="normal" in="SourceGraphic" in2="BackgroundImageFix" result="shape"/>
<feGaussianBlur stdDeviation="3.7758" result="effect1_foregroundBlur_3929_77542"/>
</filter>
<filter id="filter6_f_3929_77542" x="-12.7082" y="-12.4196" width="23.3109" height="22.2894" filterUnits="userSpaceOnUse" color-interpolation-filters="sRGB">
<feFlood flood-opacity="0" result="BackgroundImageFix"/>
<feBlend mode="normal" in="SourceGraphic" in2="BackgroundImageFix" result="shape"/>
<feGaussianBlur stdDeviation="0.555265" result="effect1_foregroundBlur_3929_77542"/>
</filter>
<filter id="filter7_f_3929_77542" x="-15.8177" y="-15.0735" width="29.2154" height="28.0511" filterUnits="userSpaceOnUse" color-interpolation-filters="sRGB">
<feFlood flood-opacity="0" result="BackgroundImageFix"/>
<feBlend mode="normal" in="SourceGraphic" in2="BackgroundImageFix" result="shape"/>
<feGaussianBlur stdDeviation="2.11001" result="effect1_foregroundBlur_3929_77542"/>
</filter>
<filter id="filter8_f_3929_77542" x="33.2121" y="-10.7454" width="27.3669" height="25.7629" filterUnits="userSpaceOnUse" color-interpolation-filters="sRGB">
<feFlood flood-opacity="0" result="BackgroundImageFix"/>
<feBlend mode="normal" in="SourceGraphic" in2="BackgroundImageFix" result="shape"/>
<feGaussianBlur stdDeviation="3.7758" result="effect1_foregroundBlur_3929_77542"/>
</filter>
<filter id="filter9_f_3929_77542" x="41.6914" y="-7.22955" width="15.3732" height="13.7692" filterUnits="userSpaceOnUse" color-interpolation-filters="sRGB">
<feFlood flood-opacity="0" result="BackgroundImageFix"/>
<feBlend mode="normal" in="SourceGraphic" in2="BackgroundImageFix" result="shape"/>
<feGaussianBlur stdDeviation="0.777371" result="effect1_foregroundBlur_3929_77542"/>
</filter>
<filter id="filter10_f_3929_77542" x="39.3704" y="-10.9092" width="17.2749" height="14.1818" filterUnits="userSpaceOnUse" color-interpolation-filters="sRGB">
<feFlood flood-opacity="0" result="BackgroundImageFix"/>
<feBlend mode="normal" in="SourceGraphic" in2="BackgroundImageFix" result="shape"/>
<feGaussianBlur stdDeviation="2.22106" result="effect1_foregroundBlur_3929_77542"/>
</filter>
<filter id="filter11_f_3929_77542" x="46.6712" y="-7.35008" width="13.5913" height="14.0107" filterUnits="userSpaceOnUse" color-interpolation-filters="sRGB">
<feFlood flood-opacity="0" result="BackgroundImageFix"/>
<feBlend mode="normal" in="SourceGraphic" in2="BackgroundImageFix" result="shape"/>
<feGaussianBlur stdDeviation="2.22106" result="effect1_foregroundBlur_3929_77542"/>
</filter>
<filter id="filter12_f_3929_77542" x="-11.4891" y="24.5229" width="43.7243" height="25.9323" filterUnits="userSpaceOnUse" color-interpolation-filters="sRGB">
<feFlood flood-opacity="0" result="BackgroundImageFix"/>
<feBlend mode="normal" in="SourceGraphic" in2="BackgroundImageFix" result="shape"/>
<feGaussianBlur stdDeviation="3.7758" result="effect1_foregroundBlur_3929_77542"/>
</filter>
<filter id="filter13_f_3929_77542" x="-3.80584" y="29.7235" width="30.8422" height="13.0502" filterUnits="userSpaceOnUse" color-interpolation-filters="sRGB">
<feFlood flood-opacity="0" result="BackgroundImageFix"/>
<feBlend mode="normal" in="SourceGraphic" in2="BackgroundImageFix" result="shape"/>
<feGaussianBlur stdDeviation="0.555265" result="effect1_foregroundBlur_3929_77542"/>
</filter>
<filter id="filter14_f_3929_77542" x="36.1339" y="10.7834" width="26.2458" height="22.0822" filterUnits="userSpaceOnUse" color-interpolation-filters="sRGB">
<feFlood flood-opacity="0" result="BackgroundImageFix"/>
<feBlend mode="normal" in="SourceGraphic" in2="BackgroundImageFix" result="shape"/>
<feGaussianBlur stdDeviation="3.7758" result="effect1_foregroundBlur_3929_77542"/>
</filter>
<filter id="filter15_f_3929_77542" x="45.3074" y="20.6961" width="13.3636" height="9.20006" filterUnits="userSpaceOnUse" color-interpolation-filters="sRGB">
<feFlood flood-opacity="0" result="BackgroundImageFix"/>
<feBlend mode="normal" in="SourceGraphic" in2="BackgroundImageFix" result="shape"/>
<feGaussianBlur stdDeviation="0.555265" result="effect1_foregroundBlur_3929_77542"/>
</filter>
<linearGradient id="paint0_linear_3929_77542" x1="13.3803" y1="-28.9756" x2="16.223" y2="51.6485" gradientUnits="userSpaceOnUse">
<stop stop-color="#BAD4F0"/>
<stop offset="0.397566" stop-color="#3896DD"/>
<stop offset="1" stop-color="#1F5FCF"/>
</linearGradient>
<linearGradient id="paint1_linear_3929_77542" x1="-3.70905" y1="-24.1242" x2="-2.17893" y2="33.6773" gradientUnits="userSpaceOnUse">
<stop stop-color="#B7F17B"/>
<stop offset="1" stop-color="#3EA927"/>
</linearGradient>
<linearGradient id="paint2_linear_3929_77542" x1="3.35236" y1="-16.4277" x2="5.38674" y2="19.1501" gradientUnits="userSpaceOnUse">
<stop stop-color="#C8FF90"/>
<stop offset="0.561758" stop-color="#55B72C"/>
<stop offset="1" stop-color="#90EB57"/>
</linearGradient>
<linearGradient id="paint3_linear_3929_77542" x1="45.5163" y1="-25.305" x2="48.5998" y2="31.1595" gradientUnits="userSpaceOnUse">
<stop stop-color="#B7F17B"/>
<stop offset="1" stop-color="#3EA927"/>
</linearGradient>
<linearGradient id="paint4_linear_3929_77542" x1="-8.77379" y1="7.46231" x2="-9.32654" y2="-11.2762" gradientUnits="userSpaceOnUse">
<stop stop-color="#083EC1"/>
<stop offset="1" stop-color="#1C7ED5" stop-opacity="0"/>
</linearGradient>
<linearGradient id="paint5_linear_3929_77542" x1="1.28609" y1="-5.35142" x2="-7.08404" y2="5.96695" gradientUnits="userSpaceOnUse">
<stop stop-color="#F8FCFF"/>
<stop offset="1" stop-color="#CCDAE2"/>
</linearGradient>
<linearGradient id="paint6_linear_3929_77542" x1="46.8959" y1="5.28665" x2="38.0867" y2="-1.77905" gradientUnits="userSpaceOnUse">
<stop stop-color="#083EC1"/>
<stop offset="1" stop-color="#1C7ED5" stop-opacity="0"/>
</linearGradient>
<linearGradient id="paint7_linear_3929_77542" x1="51.9507" y1="-6.39548" x2="49.9189" y2="1.55001" gradientUnits="userSpaceOnUse">
<stop stop-color="#F8FCFF"/>
<stop offset="1" stop-color="#9CAFBA"/>
</linearGradient>
<linearGradient id="paint8_linear_3929_77542" x1="49.3783" y1="-5.6748" x2="49.3783" y2="4.98487" gradientUnits="userSpaceOnUse">
<stop stop-color="#F8FCFF"/>
<stop offset="1" stop-color="#CCDAE2"/>
</linearGradient>
<linearGradient id="paint9_linear_3929_77542" x1="10.3733" y1="40.6896" x2="2.68624" y2="26.5263" gradientUnits="userSpaceOnUse">
<stop stop-color="#083EC1"/>
<stop offset="1" stop-color="#1C7ED5" stop-opacity="0"/>
</linearGradient>
<linearGradient id="paint10_linear_3929_77542" x1="11.6155" y1="30.8341" x2="10.0384" y2="36.2481" gradientUnits="userSpaceOnUse">
<stop stop-color="#F0F6FC"/>
<stop offset="1" stop-color="#BEC8DD"/>
</linearGradient>
<linearGradient id="paint11_linear_3929_77542" x1="49.2572" y1="23.8871" x2="43.3827" y2="17.3483" gradientUnits="userSpaceOnUse">
<stop stop-color="#083EC1"/>
<stop offset="1" stop-color="#1C7ED5" stop-opacity="0"/>
</linearGradient>
<linearGradient id="paint12_linear_3929_77542" x1="51.9896" y1="21.8066" x2="50.5088" y2="24.8779" gradientUnits="userSpaceOnUse">
<stop stop-color="#F0F6FC"/>
<stop offset="1" stop-color="#BEC8DD"/>
</linearGradient>
<clipPath id="clip0_3929_77542">
<rect width="92.0922" height="83.7047" fill="white" transform="translate(-33 -32)"/>
</clipPath>
</defs>
</svg>
