<svg width="48" height="48" viewBox="0 0 48 48" fill="none" xmlns="http://www.w3.org/2000/svg">
<rect width="48" height="48" rx="24" fill="#F3F8FE"/>
<mask id="path-2-inside-1_6459_111238" fill="white">
<path d="M16.8782 19.3008C16.8782 19.3008 12.8698 21.3741 12.1787 24.9679C12.0555 25.6084 12.8698 26.4883 12.8698 26.4883C13.1462 26.4423 15.5006 26.9556 16.6449 27.71C19.0284 29.2814 19.5197 32.777 18.2604 34.4361H28.6556C28.6556 34.4361 28.2696 32.6316 28.2696 31.4594C28.2696 28.8757 30.3143 27.8619 30.3143 27.8619L28.6556 26.8944L35.4334 25.9229L37.404 21.7197H33.05L32.2207 23.4474L26.8992 24.0003C26.8992 24.0003 25.7293 21.7197 24.4112 21.7197C21.9233 21.7197 17.7075 22.4799 17.7075 22.4799L18.6751 20.061L16.8782 19.3008Z"/>
</mask>
<path d="M12.1787 24.9679L10.8801 24.7182L12.1787 24.9679ZM16.8782 19.3008L17.3935 18.0829C17.0314 17.9297 16.6199 17.9456 16.2707 18.1262L16.8782 19.3008ZM18.6751 20.061L19.9029 20.5521C20.1703 19.8835 19.8536 19.1237 19.1903 18.8431L18.6751 20.061ZM17.7075 22.4799L16.4797 21.9888C16.3012 22.4352 16.379 22.9433 16.6829 23.3159C16.9869 23.6884 17.4691 23.8666 17.9422 23.7813L17.7075 22.4799ZM26.8992 24.0003L25.7226 24.6039C25.9716 25.0893 26.4932 25.372 27.0359 25.3156L26.8992 24.0003ZM32.2207 23.4474L32.3574 24.7627C32.8144 24.7153 33.214 24.4339 33.4129 24.0197L32.2207 23.4474ZM33.05 21.7197V20.3973C32.5415 20.3973 32.078 20.6889 31.8579 21.1474L33.05 21.7197ZM37.404 21.7197L38.6013 22.281C38.7934 21.8714 38.7627 21.3921 38.52 21.0103C38.2774 20.6285 37.8564 20.3973 37.404 20.3973V21.7197ZM35.4334 25.9229L35.621 27.2319C36.062 27.1687 36.4416 26.8876 36.6307 26.4842L35.4334 25.9229ZM28.6556 26.8944L28.468 25.5853C27.9111 25.6652 27.4656 26.0887 27.3578 26.6409C27.2499 27.1931 27.5033 27.7531 27.9893 28.0366L28.6556 26.8944ZM30.3143 27.8619L30.9017 29.0467C31.3374 28.8306 31.6194 28.3928 31.6359 27.9067C31.6524 27.4206 31.4007 26.9647 30.9806 26.7197L30.3143 27.8619ZM28.6556 34.4361V35.7585C29.0549 35.7585 29.4328 35.5781 29.6839 35.2676C29.9349 34.9572 30.0323 34.5499 29.9488 34.1595L28.6556 34.4361ZM18.2604 34.4361L17.2071 33.6366C16.9034 34.0367 16.8526 34.5742 17.076 35.0241C17.2993 35.474 17.7582 35.7585 18.2604 35.7585V34.4361ZM16.6449 27.71L17.3728 26.606H17.3728L16.6449 27.71ZM12.8698 26.4883L11.8992 27.3865C12.2016 27.7132 12.6481 27.8659 13.0872 27.7927L12.8698 26.4883ZM13.4773 25.2176C13.7438 23.8316 14.6754 22.6557 15.6662 21.775C16.1494 21.3455 16.6158 21.0138 16.9603 20.7906C17.1316 20.6796 17.2705 20.5968 17.3631 20.5437C17.4094 20.5171 17.4439 20.498 17.465 20.4866C17.4755 20.4808 17.4826 20.477 17.4862 20.4751C17.4879 20.4742 17.4888 20.4738 17.4887 20.4738C17.4887 20.4738 17.4885 20.4739 17.488 20.4742C17.4877 20.4743 17.4874 20.4745 17.487 20.4747C17.4868 20.4748 17.4865 20.4749 17.4864 20.475C17.4861 20.4752 17.4857 20.4753 16.8782 19.3008C16.2707 18.1262 16.2703 18.1264 16.2699 18.1266C16.2697 18.1267 16.2693 18.1269 16.269 18.1271C16.2684 18.1274 16.2677 18.1277 16.267 18.1281C16.2655 18.1289 16.2638 18.1298 16.2619 18.1308C16.2579 18.1329 16.253 18.1354 16.2472 18.1385C16.2355 18.1447 16.2201 18.153 16.2011 18.1633C16.1631 18.184 16.1108 18.213 16.0461 18.2501C15.9168 18.3244 15.7372 18.4317 15.5219 18.5712C15.0932 18.849 14.5144 19.2603 13.9091 19.7983C12.7229 20.8527 11.3047 22.5104 10.8801 24.7182L13.4773 25.2176ZM16.363 20.5187L18.1598 21.2789L19.1903 18.8431L17.3935 18.0829L16.363 20.5187ZM17.4473 19.5699L16.4797 21.9888L18.9353 22.971L19.9029 20.5521L17.4473 19.5699ZM17.7075 22.4799C17.9422 23.7813 17.9422 23.7813 17.9421 23.7813C17.9421 23.7813 17.9421 23.7813 17.9421 23.7813C17.9422 23.7813 17.9423 23.7813 17.9425 23.7812C17.9428 23.7812 17.9434 23.7811 17.9442 23.7809C17.9459 23.7806 17.9486 23.7801 17.9522 23.7795C17.9596 23.7782 17.9708 23.7762 17.9858 23.7735C18.0157 23.7682 18.0606 23.7603 18.119 23.7502C18.2358 23.73 18.4064 23.701 18.6194 23.666C19.0456 23.596 19.6394 23.5027 20.3088 23.4095C21.6678 23.2203 23.2658 23.042 24.4112 23.042V20.3973C23.0687 20.3973 21.3149 20.5991 19.944 20.79C19.2485 20.8869 18.6328 20.9836 18.1909 21.0562C17.9697 21.0925 17.7915 21.1228 17.6681 21.1442C17.6063 21.1549 17.5582 21.1633 17.5252 21.1692C17.5087 21.1721 17.496 21.1744 17.4872 21.1759C17.4828 21.1767 17.4794 21.1773 17.477 21.1778C17.4758 21.178 17.4748 21.1781 17.4742 21.1783C17.4738 21.1783 17.4735 21.1784 17.4733 21.1784C17.4732 21.1784 17.4731 21.1785 17.473 21.1785C17.4729 21.1785 17.4729 21.1785 17.7075 22.4799ZM24.4112 23.042C24.3581 23.042 24.4087 23.0226 24.5801 23.1468C24.7442 23.2658 24.93 23.453 25.1179 23.6873C25.3007 23.9153 25.4558 24.1503 25.5665 24.332C25.6211 24.4215 25.6628 24.4948 25.6898 24.5434C25.7032 24.5676 25.7128 24.5855 25.7184 24.596C25.7212 24.6013 25.723 24.6046 25.7237 24.606C25.724 24.6067 25.7241 24.6068 25.7239 24.6065C25.7239 24.6063 25.7237 24.606 25.7235 24.6056C25.7234 24.6054 25.7232 24.6051 25.7231 24.6048C25.723 24.6047 25.7229 24.6045 25.7229 24.6044C25.7227 24.6042 25.7226 24.6039 26.8992 24.0003C28.0758 23.3968 28.0757 23.3965 28.0755 23.3962C28.0755 23.3961 28.0753 23.3958 28.0752 23.3956C28.075 23.3952 28.0748 23.3947 28.0745 23.3942C28.074 23.3932 28.0734 23.3921 28.0728 23.3909C28.0715 23.3883 28.0699 23.3852 28.068 23.3816C28.0642 23.3743 28.0592 23.3649 28.0531 23.3534C28.0409 23.3305 28.0241 23.2994 28.003 23.2613C27.9608 23.1852 27.9009 23.0803 27.8251 22.9559C27.6753 22.71 27.4555 22.3748 27.1811 22.0327C26.9118 21.6968 26.5579 21.3139 26.132 21.0053C25.7134 20.7018 25.1235 20.3973 24.4112 20.3973V23.042ZM27.0359 25.3156L32.3574 24.7627L32.0841 22.1321L26.7626 22.685L27.0359 25.3156ZM33.4129 24.0197L34.2422 22.2919L31.8579 21.1474L31.0286 22.8752L33.4129 24.0197ZM33.05 23.042H37.404V20.3973H33.05V23.042ZM36.2067 21.1583L34.236 25.3615L36.6307 26.4842L38.6013 22.281L36.2067 21.1583ZM35.2457 24.6139L28.468 25.5853L28.8433 28.2034L35.621 27.2319L35.2457 24.6139ZM27.9893 28.0366L29.648 29.0042L30.9806 26.7197L29.3219 25.7521L27.9893 28.0366ZM28.6556 33.1137H18.2604V35.7585H28.6556V33.1137ZM17.3728 26.606C16.6242 26.1125 15.5872 25.7517 14.7921 25.5266C14.3762 25.4089 13.9834 25.3164 13.6654 25.2552C13.5077 25.2248 13.3556 25.1996 13.2211 25.1836C13.1482 25.1749 12.9001 25.1427 12.6524 25.1839L13.0872 27.7927C12.9087 27.8225 12.7946 27.7962 12.9078 27.8097C12.9594 27.8159 13.0455 27.8292 13.1653 27.8522C13.4023 27.8979 13.7214 27.9722 14.0717 28.0714C14.809 28.2801 15.5214 28.5532 15.917 28.8141L17.3728 26.606ZM12.8698 26.4883C13.8404 25.5902 13.8406 25.5904 13.8408 25.5906C13.8408 25.5907 13.841 25.5909 13.8411 25.591C13.8414 25.5912 13.8416 25.5915 13.8418 25.5917C13.8422 25.5922 13.8426 25.5926 13.8429 25.5929C13.8436 25.5936 13.844 25.5942 13.8443 25.5945C13.845 25.5952 13.8449 25.5951 13.8442 25.5943C13.8427 25.5927 13.8387 25.5882 13.8327 25.5812C13.8204 25.5671 13.8001 25.5434 13.7749 25.512C13.7227 25.4471 13.6575 25.3601 13.5984 25.2657C13.5362 25.1665 13.5008 25.0912 13.486 25.0477C13.4675 24.9938 13.5062 25.0671 13.4773 25.2176L10.8801 24.7182C10.7896 25.189 10.8839 25.6124 10.9835 25.9036C11.0867 26.2052 11.2318 26.47 11.3578 26.6709C11.4868 26.8766 11.6174 27.0495 11.7141 27.1697C11.7633 27.2308 11.8057 27.2808 11.8375 27.3173C11.8534 27.3356 11.8668 27.3507 11.8772 27.3623C11.8824 27.3681 11.8869 27.3731 11.8906 27.3771C11.8924 27.3791 11.8941 27.3809 11.8955 27.3825C11.8962 27.3832 11.8969 27.384 11.8975 27.3846C11.8978 27.385 11.8981 27.3853 11.8984 27.3856C11.8986 27.3858 11.8988 27.386 11.8988 27.3861C11.899 27.3863 11.8992 27.3865 12.8698 26.4883ZM30.3143 27.8619C29.7269 26.6772 29.7263 26.6775 29.7257 26.6777C29.7255 26.6779 29.7248 26.6782 29.7244 26.6784C29.7236 26.6788 29.7227 26.6792 29.7218 26.6797C29.7199 26.6806 29.718 26.6816 29.7159 26.6826C29.7117 26.6848 29.707 26.6872 29.7019 26.6898C29.6915 26.6952 29.6791 26.7017 29.6649 26.7093C29.6364 26.7247 29.6003 26.7447 29.5578 26.7696C29.4729 26.8194 29.3612 26.8892 29.2318 26.9806C28.9745 27.1624 28.6383 27.4357 28.3026 27.8144C27.6204 28.5836 26.9472 29.7841 26.9472 31.4594H29.592C29.592 30.551 29.9412 29.9527 30.2813 29.5692C30.4567 29.3714 30.6318 29.2298 30.7578 29.1408C30.8201 29.0967 30.8682 29.0672 30.8951 29.0514C30.9084 29.0436 30.9163 29.0393 30.9178 29.0385C30.9185 29.0381 30.9176 29.0386 30.915 29.04C30.9137 29.0406 30.9119 29.0415 30.9097 29.0427C30.9086 29.0432 30.9074 29.0438 30.906 29.0445C30.9054 29.0448 30.9047 29.0452 30.904 29.0455C30.9036 29.0457 30.903 29.046 30.9028 29.0461C30.9023 29.0464 30.9017 29.0467 30.3143 27.8619ZM26.9472 31.4594C26.9472 32.1569 27.0586 32.9879 27.1572 33.5981C27.208 33.9132 27.2588 34.189 27.2969 34.3865C27.316 34.4854 27.332 34.5652 27.3435 34.6211C27.3492 34.6491 27.3537 34.6711 27.357 34.6866C27.3586 34.6943 27.3599 34.7004 27.3608 34.7048C27.3613 34.707 27.3616 34.7087 27.3619 34.7101C27.3621 34.7107 27.3622 34.7113 27.3623 34.7117C27.3623 34.7119 27.3624 34.7121 27.3624 34.7123C27.3624 34.7124 27.3625 34.7125 27.3625 34.7125C27.3625 34.7126 27.3625 34.7127 28.6556 34.4361C29.9488 34.1595 29.9488 34.1596 29.9488 34.1596C29.9488 34.1596 29.9488 34.1597 29.9488 34.1597C29.9488 34.1598 29.9488 34.1598 29.9488 34.1598C29.9488 34.1598 29.9488 34.1597 29.9488 34.1595C29.9487 34.1591 29.9485 34.1583 29.9482 34.157C29.9477 34.1545 29.9468 34.1503 29.9456 34.1445C29.9432 34.133 29.9395 34.1151 29.9346 34.0914C29.9249 34.0441 29.9108 33.9738 29.8937 33.8852C29.8595 33.7077 29.8137 33.4592 29.7681 33.1765C29.6736 32.5915 29.592 31.9342 29.592 31.4594H26.9472ZM19.3138 35.2356C20.2439 34.0101 20.4274 32.2944 20.1138 30.7732C19.7934 29.2184 18.9089 27.6187 17.3728 26.606L15.917 28.8141C16.7644 29.3727 17.3173 30.3065 17.5235 31.3071C17.7367 32.3413 17.5363 33.2029 17.2071 33.6366L19.3138 35.2356Z" fill="#1F59AF" mask="url(#path-2-inside-1_6459_111238)"/>
<path d="M13.0625 32.2215H13.9609L15.5159 28.3167L16.2934 26.3644L15.0321 26.0015L14.3756 28.0749L13.0625 32.2215Z" fill="#1F59AF"/>
<path d="M28.7675 29.3814L33.9645 31.62V32.0382C33.9102 32.0374 33.853 32.0365 33.7933 32.0355C33.2796 32.0268 32.5758 32.0095 31.8142 31.9749C30.5229 31.9162 29.1367 31.81 28.2129 31.6309C28.2757 31.0581 28.4281 30.4454 28.5908 29.9167C28.6513 29.7198 28.712 29.5389 28.7675 29.3814Z" stroke="#1F59AF" stroke-width="1.32238" stroke-linecap="round" stroke-linejoin="round"/>
<ellipse cx="34.0036" cy="31.9914" rx="3.89421" ry="3.89425" stroke="#1F59AF" stroke-width="1.32238"/>
<ellipse cx="13.5373" cy="32.185" rx="3.69741" ry="3.69745" stroke="#1F59AF" stroke-width="1.32238"/>
<ellipse cx="34.0038" cy="31.9889" rx="1.32604" ry="1.32605" fill="#1F59AF" stroke="#1F59AF" stroke-width="1.32238" stroke-linecap="round" stroke-linejoin="round"/>
<ellipse cx="13.5373" cy="32.1877" rx="1.28535" ry="1.28536" fill="#1F59AF" stroke="#1F59AF" stroke-width="1.32238" stroke-linecap="round" stroke-linejoin="round"/>
<path d="M18.3028 12.2678C18.3028 13.0069 17.8118 13.6061 17.2061 13.6061C16.6004 13.6061 16.1094 13.0069 16.1094 12.2678C16.1094 11.5287 17.2061 9.75 17.2061 9.75C17.2061 9.75 18.3028 11.5287 18.3028 12.2678Z" fill="#1F59AF"/>
<path d="M22.4415 18.2737C22.4415 19.0128 21.9505 19.6119 21.3448 19.6119C20.7391 19.6119 20.248 19.0128 20.248 18.2737C20.248 17.5346 21.3448 15.7559 21.3448 15.7559C21.3448 15.7559 22.4415 17.5346 22.4415 18.2737Z" fill="#1F59AF"/>
<path d="M26.5802 12.6377C26.5802 13.3768 26.0891 13.976 25.4834 13.976C24.8777 13.976 24.3867 13.3768 24.3867 12.6377C24.3867 11.8986 25.4834 10.1199 25.4834 10.1199C25.4834 10.1199 26.5802 11.8986 26.5802 12.6377Z" fill="#1F59AF"/>
<path d="M34.8595 12.3279C34.8595 13.067 34.3684 13.6661 33.7627 13.6661C33.157 13.6661 32.666 13.067 32.666 12.3279C32.666 11.5888 33.7627 9.81006 33.7627 9.81006C33.7627 9.81006 34.8595 11.5888 34.8595 12.3279Z" fill="#1F59AF"/>
<path d="M30.7208 18.2735C30.7208 19.0126 30.2298 19.6118 29.6241 19.6118C29.0184 19.6118 28.5273 19.0126 28.5273 18.2735C28.5273 17.5344 29.6241 15.7557 29.6241 15.7557C29.6241 15.7557 30.7208 17.5344 30.7208 18.2735Z" fill="#1F59AF"/>
<path d="M39.0001 17.9602C39.0001 18.6993 38.5091 19.2985 37.9034 19.2985C37.2977 19.2985 36.8066 18.6993 36.8066 17.9602C36.8066 17.2211 37.9034 15.4424 37.9034 15.4424C37.9034 15.4424 39.0001 17.2211 39.0001 17.9602Z" fill="#1F59AF"/>
<path d="M14.1622 18.2737C14.1622 19.0128 13.6712 19.6119 13.0655 19.6119C12.4598 19.6119 11.9688 19.0128 11.9688 18.2737C11.9688 17.5346 13.0655 15.7559 13.0655 15.7559C13.0655 15.7559 14.1622 17.5346 14.1622 18.2737Z" fill="#1F59AF"/>
</svg>
